<svg xmlns="http://www.w3.org/2000/svg" width="242" height="242" style="background-color: #FFF">
	<path fill="#a50026" d="M1 1h15v15h-15z"/>
	<path fill="#ad0826" d="M1 16h15v15h-15z"/>
	<path fill="#b50f26" d="M1 31h15v15h-15z"/>
	<path fill="#bd1726" d="M16 31h15v15h-15z"/>
	<path fill="#c41e27" d="M16 46h15v15h-15z"/>
	<path fill="#cc2627" d="M1 46h15v15h-15z"/>
	<path fill="#d42d27" d="M1 61h15v15h-15z"/>
	<path fill="#da362a" d="M16 61h15v15h-15z"/>
	<path fill="#e0422f" d="M31 61h15v15h-15z"/>
	<path fill="#e44c34" d="M31 76h15v15h-15z"/>
	<path fill="#e95538" d="M16 76h15v15h-15z"/>
	<path fill="#ed5f3c" d="M1 76h15v15h-15z"/>
	<path fill="#f26841" d="M1 91h15v15h-15z"/>
	<path fill="#f57245" d="M1 106h15v15h-15z"/>
	<path fill="#f67c4a" d="M16 106h15v15h-15z"/>
	<path fill="#f8864f" d="M16 121h15v15h-15z"/>
	<path fill="#f99355" d="M16 136h15v15h-15z"/>
	<path fill="#fb9d59" d="M1 136h15v15h-15z"/>
	<path fill="#fca85e" d="M1 151h15v15h-15z"/>
	<path fill="#fdb163" d="M1 166h15v15h-15z"/>
	<path fill="#fdb96a" d="M16 166h15v15h-15z"/>
	<path fill="#fdc171" d="M31 166h15v15h-15z"/>
	<path fill="#fec877" d="M31 151h15v15h-15z"/>
	<path fill="#fed07e" d="M31 136h15v15h-15z"/>
	<path fill="#feda86" d="M46 136h15v15h-15z"/>
	<path fill="#fee18d" d="M46 151h15v15h-15z"/>
	<path fill="#fee695" d="M46 166h15v15h-15z"/>
	<path fill="#feeb9d" d="M46 181h15v15h-15z"/>
	<path fill="#fff0a6" d="M31 181h15v15h-15z"/>
	<path fill="#fff5ae" d="M31 196h15v15h-15z"/>
	<path fill="#fffab6" d="M16 196h15v15h-15z"/>
	<path fill="#feffbe" d="M1 196h15v15h-15z"/>
	<path fill="#f8fcb6" d="M1 211h15v15h-15z"/>
	<path fill="#f2faae" d="M1 226h15v15h-15z"/>
	<path fill="#ecf7a6" d="M16 226h15v15h-15z"/>
	<path fill="#e6f59d" d="M31 226h15v15h-15z"/>
	<path fill="#e0f295" d="M31 211h15v15h-15z"/>
	<path fill="#daf08d" d="M46 211h15v15h-15z"/>
	<path fill="#d3ec87" d="M46 226h15v15h-15z"/>
	<path fill="#c9e881" d="M61 226h15v15h-15z"/>
	<path fill="#c1e57b" d="M76 226h15v15h-15z"/>
	<path fill="#b9e176" d="M76 211h15v15h-15z"/>
	<path fill="#b1de71" d="M61 211h15v15h-15z"/>
	<path fill="#a9da6c" d="M61 196h15v15h-15z"/>
	<path fill="#a0d669" d="M76 196h15v15h-15z"/>
	<path fill="#96d268" d="M91 196h15v15h-15z"/>
	<path fill="#8ccd67" d="M91 211h15v15h-15z"/>
	<path fill="#7fc866" d="M91 226h15v15h-15z"/>
	<path fill="#75c465" d="M106 226h15v15h-15z"/>
	<path fill="#6bbf64" d="M106 211h15v15h-15z"/>
	<path fill="#60ba62" d="M121 211h15v15h-15z"/>
	<path fill="#54b45f" d="M136 211h15v15h-15z"/>
	<path fill="#48ae5c" d="M136 196h15v15h-15z"/>
	<path fill="#3ca959" d="M136 181h15v15h-15z"/>
	<path fill="#30a356" d="M151 181h15v15h-15z"/>
	<path fill="#219c52" d="M166 181h15v15h-15z"/>
	<path fill="#18954f" d="M181 181h15v15h-15z"/>
	<path fill="#148e4b" d="M181 196h15v15h-15z"/>
	<path fill="#108647" d="M196 196h15v15h-15z"/>
	<path fill="#0c7f43" d="M211 196h15v15h-15z"/>
	<path fill="#08773f" d="M211 211h15v15h-15z"/>
	<path fill="#04703b" d="M226 211h15v15h-15z"/>
	<path fill="#006837" d="M226 226h15v15h-15z"/>
	<g fill="none" stroke="#000" stroke-width="2" stroke-linecap="square">
		<line x1="1" y1="1" x2="16" y2="1"/>
		<line x1="16" y1="1" x2="16" y2="16"/>
		<line x1="1" y1="1" x2="1" y2="16"/>
		<line x1="16" y1="1" x2="31" y2="1"/>
		<line x1="31" y1="1" x2="46" y2="1"/>
		<line x1="31" y1="16" x2="46" y2="16"/>
		<line x1="46" y1="1" x2="61" y2="1"/>
		<line x1="61" y1="1" x2="61" y2="16"/>
		<line x1="61" y1="1" x2="76" y2="1"/>
		<line x1="76" y1="1" x2="91" y2="1"/>
		<line x1="91" y1="1" x2="106" y2="1"/>
		<line x1="91" y1="16" x2="106" y2="16"/>
		<line x1="106" y1="1" x2="121" y2="1"/>
		<line x1="106" y1="16" x2="121" y2="16"/>
		<line x1="121" y1="1" x2="136" y2="1"/>
		<line x1="121" y1="16" x2="136" y2="16"/>
		<line x1="136" y1="1" x2="136" y2="16"/>
		<line x1="136" y1="1" x2="151" y2="1"/>
		<line x1="151" y1="1" x2="166" y2="1"/>
		<line x1="166" y1="1" x2="166" y2="16"/>
		<line x1="166" y1="1" x2="181" y2="1"/>
		<line x1="181" y1="1" x2="196" y2="1"/>
		<line x1="181" y1="16" x2="196" y2="16"/>
		<line x1="196" y1="1" x2="211" y2="1"/>
		<line x1="196" y1="16" x2="211" y2="16"/>
		<line x1="211" y1="1" x2="226" y2="1"/>
		<line x1="226" y1="1" x2="241" y2="1"/>
		<line x1="241" y1="1" x2="241" y2="16"/>
		<line x1="1" y1="16" x2="1" y2="31"/>
		<line x1="16" y1="31" x2="31" y2="31"/>
		<line x1="31" y1="16" x2="31" y2="31"/>
		<line x1="46" y1="16" x2="46" y2="31"/>
		<line x1="61" y1="16" x2="61" y2="31"/>
		<line x1="76" y1="16" x2="76" y2="31"/>
		<line x1="91" y1="16" x2="91" y2="31"/>
		<line x1="106" y1="31" x2="121" y2="31"/>
		<line x1="136" y1="16" x2="136" y2="31"/>
		<line x1="151" y1="16" x2="151" y2="31"/>
		<line x1="166" y1="16" x2="166" y2="31"/>
		<line x1="181" y1="16" x2="181" y2="31"/>
		<line x1="196" y1="31" x2="211" y2="31"/>
		<line x1="211" y1="31" x2="226" y2="31"/>
		<line x1="226" y1="16" x2="226" y2="31"/>
		<line x1="241" y1="16" x2="241" y2="31"/>
		<line x1="1" y1="46" x2="16" y2="46"/>
		<line x1="1" y1="31" x2="1" y2="46"/>
		<line x1="31" y1="31" x2="31" y2="46"/>
		<line x1="46" y1="31" x2="46" y2="46"/>
		<line x1="46" y1="46" x2="61" y2="46"/>
		<line x1="61" y1="46" x2="76" y2="46"/>
		<line x1="76" y1="31" x2="76" y2="46"/>
		<line x1="76" y1="46" x2="91" y2="46"/>
		<line x1="91" y1="46" x2="106" y2="46"/>
		<line x1="106" y1="31" x2="106" y2="46"/>
		<line x1="136" y1="31" x2="136" y2="46"/>
		<line x1="151" y1="31" x2="151" y2="46"/>
		<line x1="151" y1="46" x2="166" y2="46"/>
		<line x1="166" y1="46" x2="181" y2="46"/>
		<line x1="181" y1="31" x2="181" y2="46"/>
		<line x1="181" y1="46" x2="196" y2="46"/>
		<line x1="196" y1="46" x2="211" y2="46"/>
		<line x1="226" y1="31" x2="226" y2="46"/>
		<line x1="241" y1="31" x2="241" y2="46"/>
		<line x1="1" y1="46" x2="1" y2="61"/>
		<line x1="16" y1="61" x2="31" y2="61"/>
		<line x1="31" y1="46" x2="31" y2="61"/>
		<line x1="46" y1="61" x2="61" y2="61"/>
		<line x1="61" y1="61" x2="76" y2="61"/>
		<line x1="76" y1="46" x2="76" y2="61"/>
		<line x1="91" y1="61" x2="106" y2="61"/>
		<line x1="106" y1="61" x2="121" y2="61"/>
		<line x1="121" y1="46" x2="121" y2="61"/>
		<line x1="136" y1="46" x2="136" y2="61"/>
		<line x1="136" y1="61" x2="151" y2="61"/>
		<line x1="166" y1="46" x2="166" y2="61"/>
		<line x1="196" y1="46" x2="196" y2="61"/>
		<line x1="211" y1="46" x2="211" y2="61"/>
		<line x1="226" y1="46" x2="226" y2="61"/>
		<line x1="241" y1="46" x2="241" y2="61"/>
		<line x1="1" y1="76" x2="16" y2="76"/>
		<line x1="1" y1="61" x2="1" y2="76"/>
		<line x1="16" y1="76" x2="31" y2="76"/>
		<line x1="46" y1="61" x2="46" y2="76"/>
		<line x1="61" y1="76" x2="76" y2="76"/>
		<line x1="91" y1="61" x2="91" y2="76"/>
		<line x1="91" y1="76" x2="106" y2="76"/>
		<line x1="106" y1="76" x2="121" y2="76"/>
		<line x1="121" y1="76" x2="136" y2="76"/>
		<line x1="136" y1="76" x2="151" y2="76"/>
		<line x1="151" y1="61" x2="151" y2="76"/>
		<line x1="151" y1="76" x2="166" y2="76"/>
		<line x1="166" y1="76" x2="181" y2="76"/>
		<line x1="181" y1="61" x2="181" y2="76"/>
		<line x1="181" y1="76" x2="196" y2="76"/>
		<line x1="211" y1="61" x2="211" y2="76"/>
		<line x1="226" y1="61" x2="226" y2="76"/>
		<line x1="241" y1="61" x2="241" y2="76"/>
		<line x1="1" y1="76" x2="1" y2="91"/>
		<line x1="16" y1="91" x2="31" y2="91"/>
		<line x1="31" y1="91" x2="46" y2="91"/>
		<line x1="46" y1="76" x2="46" y2="91"/>
		<line x1="61" y1="76" x2="61" y2="91"/>
		<line x1="76" y1="91" x2="91" y2="91"/>
		<line x1="91" y1="76" x2="91" y2="91"/>
		<line x1="106" y1="91" x2="121" y2="91"/>
		<line x1="121" y1="91" x2="136" y2="91"/>
		<line x1="151" y1="91" x2="166" y2="91"/>
		<line x1="166" y1="91" x2="181" y2="91"/>
		<line x1="181" y1="76" x2="181" y2="91"/>
		<line x1="196" y1="91" x2="211" y2="91"/>
		<line x1="211" y1="76" x2="211" y2="91"/>
		<line x1="226" y1="76" x2="226" y2="91"/>
		<line x1="226" y1="91" x2="241" y2="91"/>
		<line x1="241" y1="76" x2="241" y2="91"/>
		<line x1="16" y1="91" x2="16" y2="106"/>
		<line x1="1" y1="91" x2="1" y2="106"/>
		<line x1="16" y1="106" x2="31" y2="106"/>
		<line x1="46" y1="91" x2="46" y2="106"/>
		<line x1="61" y1="91" x2="61" y2="106"/>
		<line x1="61" y1="106" x2="76" y2="106"/>
		<line x1="76" y1="91" x2="76" y2="106"/>
		<line x1="91" y1="106" x2="106" y2="106"/>
		<line x1="106" y1="91" x2="106" y2="106"/>
		<line x1="121" y1="91" x2="121" y2="106"/>
		<line x1="151" y1="91" x2="151" y2="106"/>
		<line x1="166" y1="106" x2="181" y2="106"/>
		<line x1="181" y1="106" x2="196" y2="106"/>
		<line x1="196" y1="106" x2="211" y2="106"/>
		<line x1="211" y1="91" x2="211" y2="106"/>
		<line x1="211" y1="106" x2="226" y2="106"/>
		<line x1="241" y1="91" x2="241" y2="106"/>
		<line x1="1" y1="121" x2="16" y2="121"/>
		<line x1="1" y1="106" x2="1" y2="121"/>
		<line x1="31" y1="106" x2="31" y2="121"/>
		<line x1="46" y1="106" x2="46" y2="121"/>
		<line x1="46" y1="121" x2="61" y2="121"/>
		<line x1="76" y1="106" x2="76" y2="121"/>
		<line x1="76" y1="121" x2="91" y2="121"/>
		<line x1="91" y1="121" x2="106" y2="121"/>
		<line x1="121" y1="106" x2="121" y2="121"/>
		<line x1="136" y1="106" x2="136" y2="121"/>
		<line x1="136" y1="121" x2="151" y2="121"/>
		<line x1="151" y1="106" x2="151" y2="121"/>
		<line x1="166" y1="106" x2="166" y2="121"/>
		<line x1="181" y1="121" x2="196" y2="121"/>
		<line x1="196" y1="106" x2="196" y2="121"/>
		<line x1="211" y1="121" x2="226" y2="121"/>
		<line x1="241" y1="106" x2="241" y2="121"/>
		<line x1="16" y1="121" x2="16" y2="136"/>
		<line x1="1" y1="121" x2="1" y2="136"/>
		<line x1="31" y1="121" x2="31" y2="136"/>
		<line x1="31" y1="136" x2="46" y2="136"/>
		<line x1="61" y1="121" x2="61" y2="136"/>
		<line x1="61" y1="136" x2="76" y2="136"/>
		<line x1="76" y1="136" x2="91" y2="136"/>
		<line x1="106" y1="121" x2="106" y2="136"/>
		<line x1="121" y1="121" x2="121" y2="136"/>
		<line x1="121" y1="136" x2="136" y2="136"/>
		<line x1="151" y1="121" x2="151" y2="136"/>
		<line x1="166" y1="121" x2="166" y2="136"/>
		<line x1="181" y1="121" x2="181" y2="136"/>
		<line x1="196" y1="136" x2="211" y2="136"/>
		<line x1="211" y1="121" x2="211" y2="136"/>
		<line x1="226" y1="136" x2="241" y2="136"/>
		<line x1="241" y1="121" x2="241" y2="136"/>
		<line x1="1" y1="136" x2="1" y2="151"/>
		<line x1="16" y1="151" x2="31" y2="151"/>
		<line x1="31" y1="136" x2="31" y2="151"/>
		<line x1="61" y1="136" x2="61" y2="151"/>
		<line x1="91" y1="136" x2="91" y2="151"/>
		<line x1="106" y1="136" x2="106" y2="151"/>
		<line x1="106" y1="151" x2="121" y2="151"/>
		<line x1="136" y1="136" x2="136" y2="151"/>
		<line x1="136" y1="151" x2="151" y2="151"/>
		<line x1="151" y1="151" x2="166" y2="151"/>
		<line x1="166" y1="136" x2="166" y2="151"/>
		<line x1="181" y1="136" x2="181" y2="151"/>
		<line x1="181" y1="151" x2="196" y2="151"/>
		<line x1="211" y1="136" x2="211" y2="151"/>
		<line x1="211" y1="151" x2="226" y2="151"/>
		<line x1="226" y1="151" x2="241" y2="151"/>
		<line x1="241" y1="136" x2="241" y2="151"/>
		<line x1="16" y1="151" x2="16" y2="166"/>
		<line x1="1" y1="151" x2="1" y2="166"/>
		<line x1="16" y1="166" x2="31" y2="166"/>
		<line x1="46" y1="151" x2="46" y2="166"/>
		<line x1="61" y1="151" x2="61" y2="166"/>
		<line x1="76" y1="151" x2="76" y2="166"/>
		<line x1="76" y1="166" x2="91" y2="166"/>
		<line x1="106" y1="151" x2="106" y2="166"/>
		<line x1="121" y1="166" x2="136" y2="166"/>
		<line x1="136" y1="151" x2="136" y2="166"/>
		<line x1="151" y1="166" x2="166" y2="166"/>
		<line x1="166" y1="166" x2="181" y2="166"/>
		<line x1="181" y1="166" x2="196" y2="166"/>
		<line x1="196" y1="151" x2="196" y2="166"/>
		<line x1="196" y1="166" x2="211" y2="166"/>
		<line x1="211" y1="166" x2="226" y2="166"/>
		<line x1="241" y1="151" x2="241" y2="166"/>
		<line x1="1" y1="181" x2="16" y2="181"/>
		<line x1="1" y1="166" x2="1" y2="181"/>
		<line x1="16" y1="181" x2="31" y2="181"/>
		<line x1="31" y1="181" x2="46" y2="181"/>
		<line x1="46" y1="166" x2="46" y2="181"/>
		<line x1="61" y1="166" x2="61" y2="181"/>
		<line x1="61" y1="181" x2="76" y2="181"/>
		<line x1="91" y1="166" x2="91" y2="181"/>
		<line x1="91" y1="181" x2="106" y2="181"/>
		<line x1="106" y1="166" x2="106" y2="181"/>
		<line x1="106" y1="181" x2="121" y2="181"/>
		<line x1="136" y1="166" x2="136" y2="181"/>
		<line x1="136" y1="181" x2="151" y2="181"/>
		<line x1="151" y1="181" x2="166" y2="181"/>
		<line x1="166" y1="181" x2="181" y2="181"/>
		<line x1="196" y1="166" x2="196" y2="181"/>
		<line x1="226" y1="166" x2="226" y2="181"/>
		<line x1="241" y1="166" x2="241" y2="181"/>
		<line x1="1" y1="181" x2="1" y2="196"/>
		<line x1="16" y1="196" x2="31" y2="196"/>
		<line x1="31" y1="181" x2="31" y2="196"/>
		<line x1="46" y1="196" x2="61" y2="196"/>
		<line x1="61" y1="181" x2="61" y2="196"/>
		<line x1="76" y1="181" x2="76" y2="196"/>
		<line x1="76" y1="196" x2="91" y2="196"/>
		<line x1="91" y1="196" x2="106" y2="196"/>
		<line x1="121" y1="181" x2="121" y2="196"/>
		<line x1="136" y1="181" x2="136" y2="196"/>
		<line x1="151" y1="196" x2="166" y2="196"/>
		<line x1="166" y1="196" x2="181" y2="196"/>
		<line x1="196" y1="181" x2="196" y2="196"/>
		<line x1="196" y1="196" x2="211" y2="196"/>
		<line x1="211" y1="181" x2="211" y2="196"/>
		<line x1="211" y1="196" x2="226" y2="196"/>
		<line x1="226" y1="196" x2="241" y2="196"/>
		<line x1="241" y1="181" x2="241" y2="196"/>
		<line x1="1" y1="196" x2="1" y2="211"/>
		<line x1="16" y1="211" x2="31" y2="211"/>
		<line x1="31" y1="211" x2="46" y2="211"/>
		<line x1="46" y1="196" x2="46" y2="211"/>
		<line x1="46" y1="211" x2="61" y2="211"/>
		<line x1="76" y1="211" x2="91" y2="211"/>
		<line x1="106" y1="196" x2="106" y2="211"/>
		<line x1="106" y1="211" x2="121" y2="211"/>
		<line x1="121" y1="211" x2="136" y2="211"/>
		<line x1="136" y1="196" x2="136" y2="211"/>
		<line x1="151" y1="196" x2="151" y2="211"/>
		<line x1="181" y1="196" x2="181" y2="211"/>
		<line x1="181" y1="211" x2="196" y2="211"/>
		<line x1="196" y1="211" x2="211" y2="211"/>
		<line x1="226" y1="196" x2="226" y2="211"/>
		<line x1="241" y1="196" x2="241" y2="211"/>
		<line x1="16" y1="211" x2="16" y2="226"/>
		<line x1="1" y1="211" x2="1" y2="226"/>
		<line x1="16" y1="226" x2="31" y2="226"/>
		<line x1="61" y1="211" x2="61" y2="226"/>
		<line x1="61" y1="226" x2="76" y2="226"/>
		<line x1="91" y1="211" x2="91" y2="226"/>
		<line x1="106" y1="211" x2="106" y2="226"/>
		<line x1="121" y1="226" x2="136" y2="226"/>
		<line x1="136" y1="226" x2="151" y2="226"/>
		<line x1="151" y1="211" x2="151" y2="226"/>
		<line x1="166" y1="211" x2="166" y2="226"/>
		<line x1="166" y1="226" x2="181" y2="226"/>
		<line x1="181" y1="211" x2="181" y2="226"/>
		<line x1="211" y1="211" x2="211" y2="226"/>
		<line x1="211" y1="226" x2="226" y2="226"/>
		<line x1="241" y1="211" x2="241" y2="226"/>
		<line x1="1" y1="241" x2="16" y2="241"/>
		<line x1="1" y1="226" x2="1" y2="241"/>
		<line x1="16" y1="241" x2="31" y2="241"/>
		<line x1="31" y1="241" x2="46" y2="241"/>
		<line x1="46" y1="226" x2="46" y2="241"/>
		<line x1="46" y1="241" x2="61" y2="241"/>
		<line x1="61" y1="241" x2="76" y2="241"/>
		<line x1="76" y1="241" x2="91" y2="241"/>
		<line x1="91" y1="226" x2="91" y2="241"/>
		<line x1="91" y1="241" x2="106" y2="241"/>
		<line x1="106" y1="241" x2="121" y2="241"/>
		<line x1="121" y1="226" x2="121" y2="241"/>
		<line x1="121" y1="241" x2="136" y2="241"/>
		<line x1="136" y1="241" x2="151" y2="241"/>
		<line x1="151" y1="241" x2="166" y2="241"/>
		<line x1="166" y1="241" x2="181" y2="241"/>
		<line x1="181" y1="241" x2="196" y2="241"/>
		<line x1="196" y1="226" x2="196" y2="241"/>
		<line x1="196" y1="241" x2="211" y2="241"/>
		<line x1="211" y1="241" x2="226" y2="241"/>
		<line x1="226" y1="241" x2="241" y2="241"/>
		<line x1="241" y1="226" x2="241" y2="241"/>
	</g>
</svg>