<svg xmlns="http://www.w3.org/2000/svg" width="242" height="242">
	<path fill="#a50026" d="M1.0 1.0h15v15h-15z" />
	<path fill="#ad0826" d="M1.0 16.0h15v15h-15z" />
	<path fill="#b71126" d="M1.0 31.0h15v15h-15z" />
	<path fill="#be1827" d="M16.0 31.0h15v15h-15z" />
	<path fill="#c82227" d="M16.0 16.0h15v15h-15z" />
	<path fill="#d02927" d="M16.0 1.0h15v15h-15z" />
	<path fill="#d93429" d="M31.0 1.0h15v15h-15z" />
	<path fill="#de402e" d="M31.0 16.0h15v15h-15z" />
	<path fill="#e34933" d="M46.0 16.0h15v15h-15z" />
	<path fill="#e95538" d="M61.0 16.0h15v15h-15z" />
	<path fill="#ed5f3c" d="M61.0 31.0h15v15h-15z" />
	<path fill="#f36b42" d="M76.0 31.0h15v15h-15z" />
	<path fill="#f57547" d="M76.0 16.0h15v15h-15z" />
	<path fill="#f7814c" d="M76.0 1.0h15v15h-15z" />
	<path fill="#f98e52" d="M91.0 1.0h15v15h-15z" />
	<path fill="#fa9857" d="M106.0 1.0h15v15h-15z" />
	<path fill="#fca55d" d="M121.0 1.0h15v15h-15z" />
	<path fill="#fdaf62" d="M121.0 16.0h15v15h-15z" />
	<path fill="#fdb96a" d="M106.0 16.0h15v15h-15z" />
	<path fill="#fdc171" d="M91.0 16.0h15v15h-15z" />
	<path fill="#feca79" d="M91.0 31.0h15v15h-15z" />
	<path fill="#fed481" d="M91.0 46.0h15v15h-15z" />
	<path fill="#fedc88" d="M91.0 61.0h15v15h-15z" />
	<path fill="#fee491" d="M91.0 76.0h15v15h-15z" />
	<path fill="#fee999" d="M106.0 76.0h15v15h-15z" />
	<path fill="#feefa3" d="M106.0 61.0h15v15h-15z" />
	<path fill="#fff3ac" d="M121.0 61.0h15v15h-15z" />
	<path fill="#fffab6" d="M121.0 76.0h15v15h-15z" />
	<path fill="#feffbe" d="M121.0 91.0h15v15h-15z" />
	<path fill="#f8fcb6" d="M136.0 91.0h15v15h-15z" />
	<path fill="#f1f9ac" d="M136.0 76.0h15v15h-15z" />
	<path fill="#ebf7a3" d="M136.0 61.0h15v15h-15z" />
	<path fill="#e3f399" d="M151.0 61.0h15v15h-15z" />
	<path fill="#ddf191" d="M166.0 61.0h15v15h-15z" />
	<path fill="#d5ed88" d="M166.0 76.0h15v15h-15z" />
	<path fill="#cbe982" d="M166.0 91.0h15v15h-15z" />
	<path fill="#c3e67d" d="M181.0 91.0h15v15h-15z" />
	<path fill="#b9e176" d="M181.0 106.0h15v15h-15z" />
	<path fill="#b1de71" d="M181.0 121.0h15v15h-15z" />
	<path fill="#a7d96b" d="M196.0 121.0h15v15h-15z" />
	<path fill="#9dd569" d="M196.0 106.0h15v15h-15z" />
	<path fill="#91d068" d="M211.0 106.0h15v15h-15z" />
	<path fill="#84ca66" d="M226.0 106.0h15v15h-15z" />
	<path fill="#7ac665" d="M226.0 121.0h15v15h-15z" />
	<path fill="#6ec064" d="M226.0 136.0h15v15h-15z" />
	<path fill="#63bc62" d="M226.0 151.0h15v15h-15z" />
	<path fill="#54b45f" d="M226.0 166.0h15v15h-15z" />
	<path fill="#48ae5c" d="M226.0 181.0h15v15h-15z" />
	<path fill="#39a758" d="M211.0 181.0h15v15h-15z" />
	<path fill="#2aa054" d="M196.0 181.0h15v15h-15z" />
	<path fill="#1e9a51" d="M196.0 196.0h15v15h-15z" />
	<path fill="#16914d" d="M181.0 196.0h15v15h-15z" />
	<path fill="#128a49" d="M181.0 211.0h15v15h-15z" />
	<path fill="#0d8044" d="M196.0 211.0h15v15h-15z" />
	<path fill="#097940" d="M211.0 211.0h15v15h-15z" />
	<path fill="#04703b" d="M226.0 211.0h15v15h-15z" />
	<path fill="#006837" d="M226.0 226.0h15v15h-15z" />
	<g fill="none" stroke="#000" stroke-width="2" stroke-linecap="square">		<line x1="1.0" y1="1.0" x2="16.0" y2="1.0" />
		<line x1="16.0" y1="1.0" x2="16.0" y2="16.0" />
		<line x1="1.0" y1="1.0" x2="1.0" y2="16.0" />
		<line x1="16.0" y1="1.0" x2="31.0" y2="1.0" />
		<line x1="31.0" y1="1.0" x2="46.0" y2="1.0" />
		<line x1="46.0" y1="1.0" x2="61.0" y2="1.0" />
		<line x1="46.0" y1="16.0" x2="61.0" y2="16.0" />
		<line x1="61.0" y1="1.0" x2="76.0" y2="1.0" />
		<line x1="61.0" y1="16.0" x2="76.0" y2="16.0" />
		<line x1="76.0" y1="1.0" x2="76.0" y2="16.0" />
		<line x1="76.0" y1="1.0" x2="91.0" y2="1.0" />
		<line x1="91.0" y1="1.0" x2="106.0" y2="1.0" />
		<line x1="91.0" y1="16.0" x2="106.0" y2="16.0" />
		<line x1="106.0" y1="1.0" x2="121.0" y2="1.0" />
		<line x1="106.0" y1="16.0" x2="121.0" y2="16.0" />
		<line x1="121.0" y1="1.0" x2="136.0" y2="1.0" />
		<line x1="136.0" y1="1.0" x2="151.0" y2="1.0" />
		<line x1="151.0" y1="1.0" x2="151.0" y2="16.0" />
		<line x1="151.0" y1="1.0" x2="166.0" y2="1.0" />
		<line x1="166.0" y1="1.0" x2="181.0" y2="1.0" />
		<line x1="166.0" y1="16.0" x2="181.0" y2="16.0" />
		<line x1="181.0" y1="1.0" x2="196.0" y2="1.0" />
		<line x1="181.0" y1="16.0" x2="196.0" y2="16.0" />
		<line x1="196.0" y1="1.0" x2="211.0" y2="1.0" />
		<line x1="211.0" y1="1.0" x2="226.0" y2="1.0" />
		<line x1="211.0" y1="16.0" x2="226.0" y2="16.0" />
		<line x1="226.0" y1="1.0" x2="241.0" y2="1.0" />
		<line x1="226.0" y1="16.0" x2="241.0" y2="16.0" />
		<line x1="241.0" y1="1.0" x2="241.0" y2="16.0" />
		<line x1="16.0" y1="16.0" x2="16.0" y2="31.0" />
		<line x1="1.0" y1="16.0" x2="1.0" y2="31.0" />
		<line x1="31.0" y1="16.0" x2="31.0" y2="31.0" />
		<line x1="31.0" y1="31.0" x2="46.0" y2="31.0" />
		<line x1="46.0" y1="31.0" x2="61.0" y2="31.0" />
		<line x1="76.0" y1="16.0" x2="76.0" y2="31.0" />
		<line x1="91.0" y1="16.0" x2="91.0" y2="31.0" />
		<line x1="106.0" y1="31.0" x2="121.0" y2="31.0" />
		<line x1="121.0" y1="31.0" x2="136.0" y2="31.0" />
		<line x1="136.0" y1="16.0" x2="136.0" y2="31.0" />
		<line x1="151.0" y1="16.0" x2="151.0" y2="31.0" />
		<line x1="151.0" y1="31.0" x2="166.0" y2="31.0" />
		<line x1="166.0" y1="31.0" x2="181.0" y2="31.0" />
		<line x1="196.0" y1="16.0" x2="196.0" y2="31.0" />
		<line x1="196.0" y1="31.0" x2="211.0" y2="31.0" />
		<line x1="211.0" y1="31.0" x2="226.0" y2="31.0" />
		<line x1="241.0" y1="16.0" x2="241.0" y2="31.0" />
		<line x1="1.0" y1="31.0" x2="1.0" y2="46.0" />
		<line x1="16.0" y1="46.0" x2="31.0" y2="46.0" />
		<line x1="31.0" y1="31.0" x2="31.0" y2="46.0" />
		<line x1="31.0" y1="46.0" x2="46.0" y2="46.0" />
		<line x1="61.0" y1="31.0" x2="61.0" y2="46.0" />
		<line x1="61.0" y1="46.0" x2="76.0" y2="46.0" />
		<line x1="76.0" y1="46.0" x2="91.0" y2="46.0" />
		<line x1="91.0" y1="31.0" x2="91.0" y2="46.0" />
		<line x1="106.0" y1="31.0" x2="106.0" y2="46.0" />
		<line x1="136.0" y1="31.0" x2="136.0" y2="46.0" />
		<line x1="136.0" y1="46.0" x2="151.0" y2="46.0" />
		<line x1="166.0" y1="31.0" x2="166.0" y2="46.0" />
		<line x1="166.0" y1="46.0" x2="181.0" y2="46.0" />
		<line x1="181.0" y1="46.0" x2="196.0" y2="46.0" />
		<line x1="196.0" y1="46.0" x2="211.0" y2="46.0" />
		<line x1="211.0" y1="31.0" x2="211.0" y2="46.0" />
		<line x1="226.0" y1="46.0" x2="241.0" y2="46.0" />
		<line x1="241.0" y1="31.0" x2="241.0" y2="46.0" />
		<line x1="1.0" y1="61.0" x2="16.0" y2="61.0" />
		<line x1="1.0" y1="46.0" x2="1.0" y2="61.0" />
		<line x1="16.0" y1="61.0" x2="31.0" y2="61.0" />
		<line x1="31.0" y1="61.0" x2="46.0" y2="61.0" />
		<line x1="46.0" y1="61.0" x2="61.0" y2="61.0" />
		<line x1="76.0" y1="46.0" x2="76.0" y2="61.0" />
		<line x1="91.0" y1="46.0" x2="91.0" y2="61.0" />
		<line x1="106.0" y1="46.0" x2="106.0" y2="61.0" />
		<line x1="106.0" y1="61.0" x2="121.0" y2="61.0" />
		<line x1="121.0" y1="46.0" x2="121.0" y2="61.0" />
		<line x1="121.0" y1="61.0" x2="136.0" y2="61.0" />
		<line x1="136.0" y1="61.0" x2="151.0" y2="61.0" />
		<line x1="151.0" y1="61.0" x2="166.0" y2="61.0" />
		<line x1="166.0" y1="61.0" x2="181.0" y2="61.0" />
		<line x1="181.0" y1="61.0" x2="196.0" y2="61.0" />
		<line x1="211.0" y1="46.0" x2="211.0" y2="61.0" />
		<line x1="211.0" y1="61.0" x2="226.0" y2="61.0" />
		<line x1="241.0" y1="46.0" x2="241.0" y2="61.0" />
		<line x1="1.0" y1="61.0" x2="1.0" y2="76.0" />
		<line x1="31.0" y1="76.0" x2="46.0" y2="76.0" />
		<line x1="46.0" y1="76.0" x2="61.0" y2="76.0" />
		<line x1="61.0" y1="61.0" x2="61.0" y2="76.0" />
		<line x1="76.0" y1="61.0" x2="76.0" y2="76.0" />
		<line x1="91.0" y1="61.0" x2="91.0" y2="76.0" />
		<line x1="106.0" y1="61.0" x2="106.0" y2="76.0" />
		<line x1="136.0" y1="61.0" x2="136.0" y2="76.0" />
		<line x1="151.0" y1="76.0" x2="166.0" y2="76.0" />
		<line x1="181.0" y1="61.0" x2="181.0" y2="76.0" />
		<line x1="196.0" y1="76.0" x2="211.0" y2="76.0" />
		<line x1="211.0" y1="61.0" x2="211.0" y2="76.0" />
		<line x1="241.0" y1="61.0" x2="241.0" y2="76.0" />
		<line x1="16.0" y1="76.0" x2="16.0" y2="91.0" />
		<line x1="1.0" y1="76.0" x2="1.0" y2="91.0" />
		<line x1="16.0" y1="91.0" x2="31.0" y2="91.0" />
		<line x1="31.0" y1="91.0" x2="46.0" y2="91.0" />
		<line x1="46.0" y1="91.0" x2="61.0" y2="91.0" />
		<line x1="76.0" y1="76.0" x2="76.0" y2="91.0" />
		<line x1="91.0" y1="76.0" x2="91.0" y2="91.0" />
		<line x1="91.0" y1="91.0" x2="106.0" y2="91.0" />
		<line x1="106.0" y1="91.0" x2="121.0" y2="91.0" />
		<line x1="121.0" y1="76.0" x2="121.0" y2="91.0" />
		<line x1="136.0" y1="76.0" x2="136.0" y2="91.0" />
		<line x1="151.0" y1="76.0" x2="151.0" y2="91.0" />
		<line x1="166.0" y1="76.0" x2="166.0" y2="91.0" />
		<line x1="181.0" y1="76.0" x2="181.0" y2="91.0" />
		<line x1="181.0" y1="91.0" x2="196.0" y2="91.0" />
		<line x1="211.0" y1="76.0" x2="211.0" y2="91.0" />
		<line x1="226.0" y1="76.0" x2="226.0" y2="91.0" />
		<line x1="241.0" y1="76.0" x2="241.0" y2="91.0" />
		<line x1="1.0" y1="106.0" x2="16.0" y2="106.0" />
		<line x1="1.0" y1="91.0" x2="1.0" y2="106.0" />
		<line x1="31.0" y1="91.0" x2="31.0" y2="106.0" />
		<line x1="61.0" y1="91.0" x2="61.0" y2="106.0" />
		<line x1="61.0" y1="106.0" x2="76.0" y2="106.0" />
		<line x1="76.0" y1="106.0" x2="91.0" y2="106.0" />
		<line x1="91.0" y1="106.0" x2="106.0" y2="106.0" />
		<line x1="121.0" y1="91.0" x2="121.0" y2="106.0" />
		<line x1="121.0" y1="106.0" x2="136.0" y2="106.0" />
		<line x1="136.0" y1="106.0" x2="151.0" y2="106.0" />
		<line x1="151.0" y1="91.0" x2="151.0" y2="106.0" />
		<line x1="166.0" y1="91.0" x2="166.0" y2="106.0" />
		<line x1="166.0" y1="106.0" x2="181.0" y2="106.0" />
		<line x1="196.0" y1="91.0" x2="196.0" y2="106.0" />
		<line x1="196.0" y1="106.0" x2="211.0" y2="106.0" />
		<line x1="211.0" y1="106.0" x2="226.0" y2="106.0" />
		<line x1="226.0" y1="91.0" x2="226.0" y2="106.0" />
		<line x1="226.0" y1="106.0" x2="241.0" y2="106.0" />
		<line x1="241.0" y1="91.0" x2="241.0" y2="106.0" />
		<line x1="16.0" y1="106.0" x2="16.0" y2="121.0" />
		<line x1="1.0" y1="106.0" x2="1.0" y2="121.0" />
		<line x1="31.0" y1="106.0" x2="31.0" y2="121.0" />
		<line x1="46.0" y1="106.0" x2="46.0" y2="121.0" />
		<line x1="46.0" y1="121.0" x2="61.0" y2="121.0" />
		<line x1="61.0" y1="121.0" x2="76.0" y2="121.0" />
		<line x1="91.0" y1="106.0" x2="91.0" y2="121.0" />
		<line x1="106.0" y1="121.0" x2="121.0" y2="121.0" />
		<line x1="121.0" y1="106.0" x2="121.0" y2="121.0" />
		<line x1="121.0" y1="121.0" x2="136.0" y2="121.0" />
		<line x1="136.0" y1="121.0" x2="151.0" y2="121.0" />
		<line x1="151.0" y1="121.0" x2="166.0" y2="121.0" />
		<line x1="181.0" y1="106.0" x2="181.0" y2="121.0" />
		<line x1="196.0" y1="106.0" x2="196.0" y2="121.0" />
		<line x1="211.0" y1="121.0" x2="226.0" y2="121.0" />
		<line x1="241.0" y1="106.0" x2="241.0" y2="121.0" />
		<line x1="16.0" y1="121.0" x2="16.0" y2="136.0" />
		<line x1="1.0" y1="121.0" x2="1.0" y2="136.0" />
		<line x1="31.0" y1="121.0" x2="31.0" y2="136.0" />
		<line x1="46.0" y1="121.0" x2="46.0" y2="136.0" />
		<line x1="46.0" y1="136.0" x2="61.0" y2="136.0" />
		<line x1="76.0" y1="136.0" x2="91.0" y2="136.0" />
		<line x1="91.0" y1="121.0" x2="91.0" y2="136.0" />
		<line x1="91.0" y1="136.0" x2="106.0" y2="136.0" />
		<line x1="121.0" y1="136.0" x2="136.0" y2="136.0" />
		<line x1="136.0" y1="136.0" x2="151.0" y2="136.0" />
		<line x1="151.0" y1="136.0" x2="166.0" y2="136.0" />
		<line x1="166.0" y1="136.0" x2="181.0" y2="136.0" />
		<line x1="181.0" y1="121.0" x2="181.0" y2="136.0" />
		<line x1="181.0" y1="136.0" x2="196.0" y2="136.0" />
		<line x1="196.0" y1="136.0" x2="211.0" y2="136.0" />
		<line x1="211.0" y1="136.0" x2="226.0" y2="136.0" />
		<line x1="226.0" y1="121.0" x2="226.0" y2="136.0" />
		<line x1="241.0" y1="121.0" x2="241.0" y2="136.0" />
		<line x1="1.0" y1="151.0" x2="16.0" y2="151.0" />
		<line x1="1.0" y1="136.0" x2="1.0" y2="151.0" />
		<line x1="16.0" y1="151.0" x2="31.0" y2="151.0" />
		<line x1="31.0" y1="136.0" x2="31.0" y2="151.0" />
		<line x1="31.0" y1="151.0" x2="46.0" y2="151.0" />
		<line x1="61.0" y1="136.0" x2="61.0" y2="151.0" />
		<line x1="76.0" y1="136.0" x2="76.0" y2="151.0" />
		<line x1="91.0" y1="151.0" x2="106.0" y2="151.0" />
		<line x1="106.0" y1="136.0" x2="106.0" y2="151.0" />
		<line x1="121.0" y1="136.0" x2="121.0" y2="151.0" />
		<line x1="136.0" y1="151.0" x2="151.0" y2="151.0" />
		<line x1="151.0" y1="151.0" x2="166.0" y2="151.0" />
		<line x1="166.0" y1="151.0" x2="181.0" y2="151.0" />
		<line x1="196.0" y1="136.0" x2="196.0" y2="151.0" />
		<line x1="211.0" y1="151.0" x2="226.0" y2="151.0" />
		<line x1="241.0" y1="136.0" x2="241.0" y2="151.0" />
		<line x1="1.0" y1="151.0" x2="1.0" y2="166.0" />
		<line x1="16.0" y1="166.0" x2="31.0" y2="166.0" />
		<line x1="31.0" y1="166.0" x2="46.0" y2="166.0" />
		<line x1="46.0" y1="166.0" x2="61.0" y2="166.0" />
		<line x1="61.0" y1="151.0" x2="61.0" y2="166.0" />
		<line x1="76.0" y1="151.0" x2="76.0" y2="166.0" />
		<line x1="76.0" y1="166.0" x2="91.0" y2="166.0" />
		<line x1="91.0" y1="166.0" x2="106.0" y2="166.0" />
		<line x1="106.0" y1="166.0" x2="121.0" y2="166.0" />
		<line x1="121.0" y1="151.0" x2="121.0" y2="166.0" />
		<line x1="121.0" y1="166.0" x2="136.0" y2="166.0" />
		<line x1="151.0" y1="151.0" x2="151.0" y2="166.0" />
		<line x1="181.0" y1="151.0" x2="181.0" y2="166.0" />
		<line x1="196.0" y1="151.0" x2="196.0" y2="166.0" />
		<line x1="196.0" y1="166.0" x2="211.0" y2="166.0" />
		<line x1="226.0" y1="151.0" x2="226.0" y2="166.0" />
		<line x1="241.0" y1="151.0" x2="241.0" y2="166.0" />
		<line x1="16.0" y1="166.0" x2="16.0" y2="181.0" />
		<line x1="1.0" y1="166.0" x2="1.0" y2="181.0" />
		<line x1="16.0" y1="181.0" x2="31.0" y2="181.0" />
		<line x1="46.0" y1="181.0" x2="61.0" y2="181.0" />
		<line x1="61.0" y1="181.0" x2="76.0" y2="181.0" />
		<line x1="76.0" y1="181.0" x2="91.0" y2="181.0" />
		<line x1="91.0" y1="181.0" x2="106.0" y2="181.0" />
		<line x1="121.0" y1="166.0" x2="121.0" y2="181.0" />
		<line x1="136.0" y1="181.0" x2="151.0" y2="181.0" />
		<line x1="151.0" y1="166.0" x2="151.0" y2="181.0" />
		<line x1="151.0" y1="181.0" x2="166.0" y2="181.0" />
		<line x1="166.0" y1="166.0" x2="166.0" y2="181.0" />
		<line x1="181.0" y1="166.0" x2="181.0" y2="181.0" />
		<line x1="181.0" y1="181.0" x2="196.0" y2="181.0" />
		<line x1="196.0" y1="181.0" x2="211.0" y2="181.0" />
		<line x1="211.0" y1="181.0" x2="226.0" y2="181.0" />
		<line x1="226.0" y1="166.0" x2="226.0" y2="181.0" />
		<line x1="241.0" y1="166.0" x2="241.0" y2="181.0" />
		<line x1="1.0" y1="181.0" x2="1.0" y2="196.0" />
		<line x1="31.0" y1="181.0" x2="31.0" y2="196.0" />
		<line x1="31.0" y1="196.0" x2="46.0" y2="196.0" />
		<line x1="46.0" y1="181.0" x2="46.0" y2="196.0" />
		<line x1="61.0" y1="196.0" x2="76.0" y2="196.0" />
		<line x1="91.0" y1="181.0" x2="91.0" y2="196.0" />
		<line x1="106.0" y1="196.0" x2="121.0" y2="196.0" />
		<line x1="121.0" y1="181.0" x2="121.0" y2="196.0" />
		<line x1="121.0" y1="196.0" x2="136.0" y2="196.0" />
		<line x1="136.0" y1="196.0" x2="151.0" y2="196.0" />
		<line x1="166.0" y1="181.0" x2="166.0" y2="196.0" />
		<line x1="166.0" y1="196.0" x2="181.0" y2="196.0" />
		<line x1="196.0" y1="181.0" x2="196.0" y2="196.0" />
		<line x1="211.0" y1="196.0" x2="226.0" y2="196.0" />
		<line x1="226.0" y1="196.0" x2="241.0" y2="196.0" />
		<line x1="241.0" y1="181.0" x2="241.0" y2="196.0" />
		<line x1="16.0" y1="196.0" x2="16.0" y2="211.0" />
		<line x1="1.0" y1="196.0" x2="1.0" y2="211.0" />
		<line x1="16.0" y1="211.0" x2="31.0" y2="211.0" />
		<line x1="31.0" y1="211.0" x2="46.0" y2="211.0" />
		<line x1="46.0" y1="211.0" x2="61.0" y2="211.0" />
		<line x1="61.0" y1="196.0" x2="61.0" y2="211.0" />
		<line x1="76.0" y1="211.0" x2="91.0" y2="211.0" />
		<line x1="91.0" y1="196.0" x2="91.0" y2="211.0" />
		<line x1="91.0" y1="211.0" x2="106.0" y2="211.0" />
		<line x1="106.0" y1="211.0" x2="121.0" y2="211.0" />
		<line x1="121.0" y1="211.0" x2="136.0" y2="211.0" />
		<line x1="151.0" y1="196.0" x2="151.0" y2="211.0" />
		<line x1="151.0" y1="211.0" x2="166.0" y2="211.0" />
		<line x1="181.0" y1="196.0" x2="181.0" y2="211.0" />
		<line x1="196.0" y1="211.0" x2="211.0" y2="211.0" />
		<line x1="211.0" y1="196.0" x2="211.0" y2="211.0" />
		<line x1="211.0" y1="211.0" x2="226.0" y2="211.0" />
		<line x1="241.0" y1="196.0" x2="241.0" y2="211.0" />
		<line x1="16.0" y1="211.0" x2="16.0" y2="226.0" />
		<line x1="1.0" y1="211.0" x2="1.0" y2="226.0" />
		<line x1="16.0" y1="226.0" x2="31.0" y2="226.0" />
		<line x1="31.0" y1="226.0" x2="46.0" y2="226.0" />
		<line x1="61.0" y1="211.0" x2="61.0" y2="226.0" />
		<line x1="76.0" y1="211.0" x2="76.0" y2="226.0" />
		<line x1="91.0" y1="226.0" x2="106.0" y2="226.0" />
		<line x1="106.0" y1="226.0" x2="121.0" y2="226.0" />
		<line x1="121.0" y1="226.0" x2="136.0" y2="226.0" />
		<line x1="136.0" y1="211.0" x2="136.0" y2="226.0" />
		<line x1="136.0" y1="226.0" x2="151.0" y2="226.0" />
		<line x1="166.0" y1="211.0" x2="166.0" y2="226.0" />
		<line x1="181.0" y1="211.0" x2="181.0" y2="226.0" />
		<line x1="181.0" y1="226.0" x2="196.0" y2="226.0" />
		<line x1="196.0" y1="226.0" x2="211.0" y2="226.0" />
		<line x1="211.0" y1="226.0" x2="226.0" y2="226.0" />
		<line x1="241.0" y1="211.0" x2="241.0" y2="226.0" />
		<line x1="1.0" y1="241.0" x2="16.0" y2="241.0" />
		<line x1="1.0" y1="226.0" x2="1.0" y2="241.0" />
		<line x1="16.0" y1="241.0" x2="31.0" y2="241.0" />
		<line x1="31.0" y1="241.0" x2="46.0" y2="241.0" />
		<line x1="46.0" y1="241.0" x2="61.0" y2="241.0" />
		<line x1="61.0" y1="226.0" x2="61.0" y2="241.0" />
		<line x1="61.0" y1="241.0" x2="76.0" y2="241.0" />
		<line x1="76.0" y1="226.0" x2="76.0" y2="241.0" />
		<line x1="76.0" y1="241.0" x2="91.0" y2="241.0" />
		<line x1="91.0" y1="241.0" x2="106.0" y2="241.0" />
		<line x1="106.0" y1="241.0" x2="121.0" y2="241.0" />
		<line x1="121.0" y1="241.0" x2="136.0" y2="241.0" />
		<line x1="136.0" y1="241.0" x2="151.0" y2="241.0" />
		<line x1="151.0" y1="241.0" x2="166.0" y2="241.0" />
		<line x1="166.0" y1="241.0" x2="181.0" y2="241.0" />
		<line x1="181.0" y1="226.0" x2="181.0" y2="241.0" />
		<line x1="181.0" y1="241.0" x2="196.0" y2="241.0" />
		<line x1="196.0" y1="241.0" x2="211.0" y2="241.0" />
		<line x1="211.0" y1="241.0" x2="226.0" y2="241.0" />
		<line x1="226.0" y1="241.0" x2="241.0" y2="241.0" />
		<line x1="241.0" y1="226.0" x2="241.0" y2="241.0" />
</g></svg>