<svg xmlns="http://www.w3.org/2000/svg" width="242" height="242" fill="none" stroke="#000" stroke-width="2" stroke-linecap="square" style="background-color: #FFF">
	<line x1="1" y1="1" x2="16" y2="1"/>
	<line x1="16" y1="1" x2="16" y2="16"/>
	<line x1="1" y1="1" x2="1" y2="16"/>
	<line x1="16" y1="1" x2="31" y2="1"/>
	<line x1="31" y1="1" x2="46" y2="1"/>
	<line x1="31" y1="16" x2="46" y2="16"/>
	<line x1="46" y1="1" x2="61" y2="1"/>
	<line x1="61" y1="1" x2="61" y2="16"/>
	<line x1="61" y1="1" x2="76" y2="1"/>
	<line x1="76" y1="1" x2="91" y2="1"/>
	<line x1="91" y1="1" x2="106" y2="1"/>
	<line x1="91" y1="16" x2="106" y2="16"/>
	<line x1="106" y1="1" x2="121" y2="1"/>
	<line x1="106" y1="16" x2="121" y2="16"/>
	<line x1="121" y1="1" x2="136" y2="1"/>
	<line x1="121" y1="16" x2="136" y2="16"/>
	<line x1="136" y1="1" x2="136" y2="16"/>
	<line x1="136" y1="1" x2="151" y2="1"/>
	<line x1="151" y1="1" x2="166" y2="1"/>
	<line x1="166" y1="1" x2="166" y2="16"/>
	<line x1="166" y1="1" x2="181" y2="1"/>
	<line x1="181" y1="1" x2="196" y2="1"/>
	<line x1="181" y1="16" x2="196" y2="16"/>
	<line x1="196" y1="1" x2="211" y2="1"/>
	<line x1="196" y1="16" x2="211" y2="16"/>
	<line x1="211" y1="1" x2="226" y2="1"/>
	<line x1="226" y1="1" x2="241" y2="1"/>
	<line x1="241" y1="1" x2="241" y2="16"/>
	<line x1="1" y1="16" x2="1" y2="31"/>
	<line x1="16" y1="31" x2="31" y2="31"/>
	<line x1="31" y1="16" x2="31" y2="31"/>
	<line x1="46" y1="16" x2="46" y2="31"/>
	<line x1="61" y1="16" x2="61" y2="31"/>
	<line x1="76" y1="16" x2="76" y2="31"/>
	<line x1="91" y1="16" x2="91" y2="31"/>
	<line x1="106" y1="31" x2="121" y2="31"/>
	<line x1="136" y1="16" x2="136" y2="31"/>
	<line x1="151" y1="16" x2="151" y2="31"/>
	<line x1="166" y1="16" x2="166" y2="31"/>
	<line x1="181" y1="16" x2="181" y2="31"/>
	<line x1="196" y1="31" x2="211" y2="31"/>
	<line x1="211" y1="31" x2="226" y2="31"/>
	<line x1="226" y1="16" x2="226" y2="31"/>
	<line x1="241" y1="16" x2="241" y2="31"/>
	<line x1="1" y1="46" x2="16" y2="46"/>
	<line x1="1" y1="31" x2="1" y2="46"/>
	<line x1="31" y1="31" x2="31" y2="46"/>
	<line x1="46" y1="31" x2="46" y2="46"/>
	<line x1="46" y1="46" x2="61" y2="46"/>
	<line x1="61" y1="46" x2="76" y2="46"/>
	<line x1="76" y1="31" x2="76" y2="46"/>
	<line x1="76" y1="46" x2="91" y2="46"/>
	<line x1="91" y1="46" x2="106" y2="46"/>
	<line x1="106" y1="31" x2="106" y2="46"/>
	<line x1="136" y1="31" x2="136" y2="46"/>
	<line x1="151" y1="31" x2="151" y2="46"/>
	<line x1="151" y1="46" x2="166" y2="46"/>
	<line x1="166" y1="46" x2="181" y2="46"/>
	<line x1="181" y1="31" x2="181" y2="46"/>
	<line x1="181" y1="46" x2="196" y2="46"/>
	<line x1="196" y1="46" x2="211" y2="46"/>
	<line x1="226" y1="31" x2="226" y2="46"/>
	<line x1="241" y1="31" x2="241" y2="46"/>
	<line x1="1" y1="46" x2="1" y2="61"/>
	<line x1="16" y1="61" x2="31" y2="61"/>
	<line x1="31" y1="46" x2="31" y2="61"/>
	<line x1="46" y1="61" x2="61" y2="61"/>
	<line x1="61" y1="61" x2="76" y2="61"/>
	<line x1="76" y1="46" x2="76" y2="61"/>
	<line x1="91" y1="61" x2="106" y2="61"/>
	<line x1="106" y1="61" x2="121" y2="61"/>
	<line x1="121" y1="46" x2="121" y2="61"/>
	<line x1="136" y1="46" x2="136" y2="61"/>
	<line x1="136" y1="61" x2="151" y2="61"/>
	<line x1="166" y1="46" x2="166" y2="61"/>
	<line x1="196" y1="46" x2="196" y2="61"/>
	<line x1="211" y1="46" x2="211" y2="61"/>
	<line x1="226" y1="46" x2="226" y2="61"/>
	<line x1="241" y1="46" x2="241" y2="61"/>
	<line x1="1" y1="76" x2="16" y2="76"/>
	<line x1="1" y1="61" x2="1" y2="76"/>
	<line x1="16" y1="76" x2="31" y2="76"/>
	<line x1="46" y1="61" x2="46" y2="76"/>
	<line x1="61" y1="76" x2="76" y2="76"/>
	<line x1="91" y1="61" x2="91" y2="76"/>
	<line x1="91" y1="76" x2="106" y2="76"/>
	<line x1="106" y1="76" x2="121" y2="76"/>
	<line x1="121" y1="76" x2="136" y2="76"/>
	<line x1="136" y1="76" x2="151" y2="76"/>
	<line x1="151" y1="61" x2="151" y2="76"/>
	<line x1="151" y1="76" x2="166" y2="76"/>
	<line x1="166" y1="76" x2="181" y2="76"/>
	<line x1="181" y1="61" x2="181" y2="76"/>
	<line x1="181" y1="76" x2="196" y2="76"/>
	<line x1="211" y1="61" x2="211" y2="76"/>
	<line x1="226" y1="61" x2="226" y2="76"/>
	<line x1="241" y1="61" x2="241" y2="76"/>
	<line x1="1" y1="76" x2="1" y2="91"/>
	<line x1="16" y1="91" x2="31" y2="91"/>
	<line x1="31" y1="91" x2="46" y2="91"/>
	<line x1="46" y1="76" x2="46" y2="91"/>
	<line x1="61" y1="76" x2="61" y2="91"/>
	<line x1="76" y1="91" x2="91" y2="91"/>
	<line x1="91" y1="76" x2="91" y2="91"/>
	<line x1="106" y1="91" x2="121" y2="91"/>
	<line x1="121" y1="91" x2="136" y2="91"/>
	<line x1="151" y1="91" x2="166" y2="91"/>
	<line x1="166" y1="91" x2="181" y2="91"/>
	<line x1="181" y1="76" x2="181" y2="91"/>
	<line x1="196" y1="91" x2="211" y2="91"/>
	<line x1="211" y1="76" x2="211" y2="91"/>
	<line x1="226" y1="76" x2="226" y2="91"/>
	<line x1="226" y1="91" x2="241" y2="91"/>
	<line x1="241" y1="76" x2="241" y2="91"/>
	<line x1="16" y1="91" x2="16" y2="106"/>
	<line x1="1" y1="91" x2="1" y2="106"/>
	<line x1="16" y1="106" x2="31" y2="106"/>
	<line x1="46" y1="91" x2="46" y2="106"/>
	<line x1="61" y1="91" x2="61" y2="106"/>
	<line x1="61" y1="106" x2="76" y2="106"/>
	<line x1="76" y1="91" x2="76" y2="106"/>
	<line x1="91" y1="106" x2="106" y2="106"/>
	<line x1="106" y1="91" x2="106" y2="106"/>
	<line x1="121" y1="91" x2="121" y2="106"/>
	<line x1="151" y1="91" x2="151" y2="106"/>
	<line x1="166" y1="106" x2="181" y2="106"/>
	<line x1="181" y1="106" x2="196" y2="106"/>
	<line x1="196" y1="106" x2="211" y2="106"/>
	<line x1="211" y1="91" x2="211" y2="106"/>
	<line x1="211" y1="106" x2="226" y2="106"/>
	<line x1="241" y1="91" x2="241" y2="106"/>
	<line x1="1" y1="121" x2="16" y2="121"/>
	<line x1="1" y1="106" x2="1" y2="121"/>
	<line x1="31" y1="106" x2="31" y2="121"/>
	<line x1="46" y1="106" x2="46" y2="121"/>
	<line x1="46" y1="121" x2="61" y2="121"/>
	<line x1="76" y1="106" x2="76" y2="121"/>
	<line x1="76" y1="121" x2="91" y2="121"/>
	<line x1="91" y1="121" x2="106" y2="121"/>
	<line x1="121" y1="106" x2="121" y2="121"/>
	<line x1="136" y1="106" x2="136" y2="121"/>
	<line x1="136" y1="121" x2="151" y2="121"/>
	<line x1="151" y1="106" x2="151" y2="121"/>
	<line x1="166" y1="106" x2="166" y2="121"/>
	<line x1="181" y1="121" x2="196" y2="121"/>
	<line x1="196" y1="106" x2="196" y2="121"/>
	<line x1="211" y1="121" x2="226" y2="121"/>
	<line x1="241" y1="106" x2="241" y2="121"/>
	<line x1="16" y1="121" x2="16" y2="136"/>
	<line x1="1" y1="121" x2="1" y2="136"/>
	<line x1="31" y1="121" x2="31" y2="136"/>
	<line x1="31" y1="136" x2="46" y2="136"/>
	<line x1="61" y1="121" x2="61" y2="136"/>
	<line x1="61" y1="136" x2="76" y2="136"/>
	<line x1="76" y1="136" x2="91" y2="136"/>
	<line x1="106" y1="121" x2="106" y2="136"/>
	<line x1="121" y1="121" x2="121" y2="136"/>
	<line x1="121" y1="136" x2="136" y2="136"/>
	<line x1="151" y1="121" x2="151" y2="136"/>
	<line x1="166" y1="121" x2="166" y2="136"/>
	<line x1="181" y1="121" x2="181" y2="136"/>
	<line x1="196" y1="136" x2="211" y2="136"/>
	<line x1="211" y1="121" x2="211" y2="136"/>
	<line x1="226" y1="136" x2="241" y2="136"/>
	<line x1="241" y1="121" x2="241" y2="136"/>
	<line x1="1" y1="136" x2="1" y2="151"/>
	<line x1="16" y1="151" x2="31" y2="151"/>
	<line x1="31" y1="136" x2="31" y2="151"/>
	<line x1="61" y1="136" x2="61" y2="151"/>
	<line x1="91" y1="136" x2="91" y2="151"/>
	<line x1="106" y1="136" x2="106" y2="151"/>
	<line x1="106" y1="151" x2="121" y2="151"/>
	<line x1="136" y1="136" x2="136" y2="151"/>
	<line x1="136" y1="151" x2="151" y2="151"/>
	<line x1="151" y1="151" x2="166" y2="151"/>
	<line x1="166" y1="136" x2="166" y2="151"/>
	<line x1="181" y1="136" x2="181" y2="151"/>
	<line x1="181" y1="151" x2="196" y2="151"/>
	<line x1="211" y1="136" x2="211" y2="151"/>
	<line x1="211" y1="151" x2="226" y2="151"/>
	<line x1="226" y1="151" x2="241" y2="151"/>
	<line x1="241" y1="136" x2="241" y2="151"/>
	<line x1="16" y1="151" x2="16" y2="166"/>
	<line x1="1" y1="151" x2="1" y2="166"/>
	<line x1="16" y1="166" x2="31" y2="166"/>
	<line x1="46" y1="151" x2="46" y2="166"/>
	<line x1="61" y1="151" x2="61" y2="166"/>
	<line x1="76" y1="151" x2="76" y2="166"/>
	<line x1="76" y1="166" x2="91" y2="166"/>
	<line x1="106" y1="151" x2="106" y2="166"/>
	<line x1="121" y1="166" x2="136" y2="166"/>
	<line x1="136" y1="151" x2="136" y2="166"/>
	<line x1="151" y1="166" x2="166" y2="166"/>
	<line x1="166" y1="166" x2="181" y2="166"/>
	<line x1="181" y1="166" x2="196" y2="166"/>
	<line x1="196" y1="151" x2="196" y2="166"/>
	<line x1="196" y1="166" x2="211" y2="166"/>
	<line x1="211" y1="166" x2="226" y2="166"/>
	<line x1="241" y1="151" x2="241" y2="166"/>
	<line x1="1" y1="181" x2="16" y2="181"/>
	<line x1="1" y1="166" x2="1" y2="181"/>
	<line x1="16" y1="181" x2="31" y2="181"/>
	<line x1="31" y1="181" x2="46" y2="181"/>
	<line x1="46" y1="166" x2="46" y2="181"/>
	<line x1="61" y1="166" x2="61" y2="181"/>
	<line x1="61" y1="181" x2="76" y2="181"/>
	<line x1="91" y1="166" x2="91" y2="181"/>
	<line x1="91" y1="181" x2="106" y2="181"/>
	<line x1="106" y1="166" x2="106" y2="181"/>
	<line x1="106" y1="181" x2="121" y2="181"/>
	<line x1="136" y1="166" x2="136" y2="181"/>
	<line x1="136" y1="181" x2="151" y2="181"/>
	<line x1="151" y1="181" x2="166" y2="181"/>
	<line x1="166" y1="181" x2="181" y2="181"/>
	<line x1="196" y1="166" x2="196" y2="181"/>
	<line x1="226" y1="166" x2="226" y2="181"/>
	<line x1="241" y1="166" x2="241" y2="181"/>
	<line x1="1" y1="181" x2="1" y2="196"/>
	<line x1="16" y1="196" x2="31" y2="196"/>
	<line x1="31" y1="181" x2="31" y2="196"/>
	<line x1="46" y1="196" x2="61" y2="196"/>
	<line x1="61" y1="181" x2="61" y2="196"/>
	<line x1="76" y1="181" x2="76" y2="196"/>
	<line x1="76" y1="196" x2="91" y2="196"/>
	<line x1="91" y1="196" x2="106" y2="196"/>
	<line x1="121" y1="181" x2="121" y2="196"/>
	<line x1="136" y1="181" x2="136" y2="196"/>
	<line x1="151" y1="196" x2="166" y2="196"/>
	<line x1="166" y1="196" x2="181" y2="196"/>
	<line x1="196" y1="181" x2="196" y2="196"/>
	<line x1="196" y1="196" x2="211" y2="196"/>
	<line x1="211" y1="181" x2="211" y2="196"/>
	<line x1="211" y1="196" x2="226" y2="196"/>
	<line x1="226" y1="196" x2="241" y2="196"/>
	<line x1="241" y1="181" x2="241" y2="196"/>
	<line x1="1" y1="196" x2="1" y2="211"/>
	<line x1="16" y1="211" x2="31" y2="211"/>
	<line x1="31" y1="211" x2="46" y2="211"/>
	<line x1="46" y1="196" x2="46" y2="211"/>
	<line x1="46" y1="211" x2="61" y2="211"/>
	<line x1="76" y1="211" x2="91" y2="211"/>
	<line x1="106" y1="196" x2="106" y2="211"/>
	<line x1="106" y1="211" x2="121" y2="211"/>
	<line x1="121" y1="211" x2="136" y2="211"/>
	<line x1="136" y1="196" x2="136" y2="211"/>
	<line x1="151" y1="196" x2="151" y2="211"/>
	<line x1="181" y1="196" x2="181" y2="211"/>
	<line x1="181" y1="211" x2="196" y2="211"/>
	<line x1="196" y1="211" x2="211" y2="211"/>
	<line x1="226" y1="196" x2="226" y2="211"/>
	<line x1="241" y1="196" x2="241" y2="211"/>
	<line x1="16" y1="211" x2="16" y2="226"/>
	<line x1="1" y1="211" x2="1" y2="226"/>
	<line x1="16" y1="226" x2="31" y2="226"/>
	<line x1="61" y1="211" x2="61" y2="226"/>
	<line x1="61" y1="226" x2="76" y2="226"/>
	<line x1="91" y1="211" x2="91" y2="226"/>
	<line x1="106" y1="211" x2="106" y2="226"/>
	<line x1="121" y1="226" x2="136" y2="226"/>
	<line x1="136" y1="226" x2="151" y2="226"/>
	<line x1="151" y1="211" x2="151" y2="226"/>
	<line x1="166" y1="211" x2="166" y2="226"/>
	<line x1="166" y1="226" x2="181" y2="226"/>
	<line x1="181" y1="211" x2="181" y2="226"/>
	<line x1="211" y1="211" x2="211" y2="226"/>
	<line x1="211" y1="226" x2="226" y2="226"/>
	<line x1="241" y1="211" x2="241" y2="226"/>
	<line x1="1" y1="241" x2="16" y2="241"/>
	<line x1="1" y1="226" x2="1" y2="241"/>
	<line x1="16" y1="241" x2="31" y2="241"/>
	<line x1="31" y1="241" x2="46" y2="241"/>
	<line x1="46" y1="226" x2="46" y2="241"/>
	<line x1="46" y1="241" x2="61" y2="241"/>
	<line x1="61" y1="241" x2="76" y2="241"/>
	<line x1="76" y1="241" x2="91" y2="241"/>
	<line x1="91" y1="226" x2="91" y2="241"/>
	<line x1="91" y1="241" x2="106" y2="241"/>
	<line x1="106" y1="241" x2="121" y2="241"/>
	<line x1="121" y1="226" x2="121" y2="241"/>
	<line x1="121" y1="241" x2="136" y2="241"/>
	<line x1="136" y1="241" x2="151" y2="241"/>
	<line x1="151" y1="241" x2="166" y2="241"/>
	<line x1="166" y1="241" x2="181" y2="241"/>
	<line x1="181" y1="241" x2="196" y2="241"/>
	<line x1="196" y1="226" x2="196" y2="241"/>
	<line x1="196" y1="241" x2="211" y2="241"/>
	<line x1="211" y1="241" x2="226" y2="241"/>
	<line x1="226" y1="241" x2="241" y2="241"/>
	<line x1="241" y1="226" x2="241" y2="241"/>
</svg>