<svg xmlns="http://www.w3.org/2000/svg" width="242" height="242">
	<path fill="#a50026" d="M1.0 226.0h15v15h-15z" />
	<path fill="#a90426" d="M1.0 211.0h15v15h-15z" />
	<path fill="#ad0826" d="M1.0 196.0h15v15h-15z" />
	<path fill="#b30d26" d="M16.0 196.0h15v15h-15z" />
	<path fill="#b71126" d="M16.0 181.0h15v15h-15z" />
	<path fill="#bd1726" d="M16.0 166.0h15v15h-15z" />
	<path fill="#c01a27" d="M16.0 151.0h15v15h-15z" />
	<path fill="#c62027" d="M16.0 136.0h15v15h-15z" />
	<path fill="#ca2427" d="M16.0 121.0h15v15h-15z" />
	<path fill="#d02927" d="M16.0 106.0h15v15h-15z" />
	<path fill="#d42d27" d="M16.0 91.0h15v15h-15z" />
	<path fill="#d93429" d="M16.0 76.0h15v15h-15z" />
	<path fill="#db382b" d="M16.0 61.0h15v15h-15z" />
	<path fill="#de402e" d="M16.0 46.0h15v15h-15z" />
	<path fill="#e14430" d="M16.0 31.0h15v15h-15z" />
	<path fill="#e44c34" d="M16.0 16.0h15v15h-15z" />
	<path fill="#e65036" d="M31.0 16.0h15v15h-15z" />
	<path fill="#ea5739" d="M46.0 16.0h15v15h-15z" />
	<path fill="#ec5c3b" d="M61.0 16.0h15v15h-15z" />
	<path fill="#ef633f" d="M76.0 16.0h15v15h-15z" />
	<path fill="#f26841" d="M91.0 16.0h15v15h-15z" />
	<path fill="#f47044" d="M106.0 16.0h15v15h-15z" />
	<path fill="#f57547" d="M121.0 16.0h15v15h-15z" />
	<path fill="#f67c4a" d="M136.0 16.0h15v15h-15z" />
	<path fill="#f7814c" d="M151.0 16.0h15v15h-15z" />
	<path fill="#f88950" d="M166.0 16.0h15v15h-15z" />
	<path fill="#f98e52" d="M181.0 16.0h15v15h-15z" />
	<path fill="#fa9656" d="M196.0 16.0h15v15h-15z" />
	<path fill="#fa9b58" d="M211.0 16.0h15v15h-15z" />
	<path fill="#fba35c" d="M211.0 31.0h15v15h-15z" />
	<path fill="#fca85e" d="M196.0 31.0h15v15h-15z" />
	<path fill="#fdaf62" d="M181.0 31.0h15v15h-15z" />
	<path fill="#fdb365" d="M166.0 31.0h15v15h-15z" />
	<path fill="#fdb96a" d="M151.0 31.0h15v15h-15z" />
	<path fill="#fdbd6d" d="M136.0 31.0h15v15h-15z" />
	<path fill="#fdc171" d="M121.0 31.0h15v15h-15z" />
	<path fill="#fdc776" d="M121.0 46.0h15v15h-15z" />
	<path fill="#feca79" d="M136.0 46.0h15v15h-15z" />
	<path fill="#fed07e" d="M151.0 46.0h15v15h-15z" />
	<path fill="#fed481" d="M166.0 46.0h15v15h-15z" />
	<path fill="#feda86" d="M181.0 46.0h15v15h-15z" />
	<path fill="#fede89" d="M196.0 46.0h15v15h-15z" />
	<path fill="#fee28f" d="M211.0 46.0h15v15h-15z" />
	<path fill="#fee593" d="M211.0 61.0h15v15h-15z" />
	<path fill="#fee999" d="M211.0 76.0h15v15h-15z" />
	<path fill="#feeb9d" d="M211.0 91.0h15v15h-15z" />
	<path fill="#feefa3" d="M211.0 106.0h15v15h-15z" />
	<path fill="#fff1a8" d="M211.0 121.0h15v15h-15z" />
	<path fill="#fff5ae" d="M211.0 136.0h15v15h-15z" />
	<path fill="#fff7b2" d="M211.0 151.0h15v15h-15z" />
	<path fill="#fffbb8" d="M211.0 166.0h15v15h-15z" />
	<path fill="#fffdbc" d="M211.0 181.0h15v15h-15z" />
	<path fill="#fdfebc" d="M211.0 196.0h15v15h-15z" />
	<path fill="#fafdb8" d="M211.0 211.0h15v15h-15z" />
	<path fill="#f5fbb2" d="M196.0 211.0h15v15h-15z" />
	<path fill="#f2faae" d="M181.0 211.0h15v15h-15z" />
	<path fill="#eef8a8" d="M166.0 211.0h15v15h-15z" />
	<path fill="#ebf7a3" d="M151.0 211.0h15v15h-15z" />
	<path fill="#e6f59d" d="M136.0 211.0h15v15h-15z" />
	<path fill="#e3f399" d="M121.0 211.0h15v15h-15z" />
	<path fill="#dff293" d="M121.0 196.0h15v15h-15z" />
	<path fill="#dcf08f" d="M121.0 181.0h15v15h-15z" />
	<path fill="#d7ee8a" d="M121.0 166.0h15v15h-15z" />
	<path fill="#d3ec87" d="M121.0 151.0h15v15h-15z" />
	<path fill="#cdea83" d="M106.0 151.0h15v15h-15z" />
	<path fill="#c9e881" d="M91.0 151.0h15v15h-15z" />
	<path fill="#c3e67d" d="M76.0 151.0h15v15h-15z" />
	<path fill="#bfe47a" d="M61.0 151.0h15v15h-15z" />
	<path fill="#b9e176" d="M61.0 166.0h15v15h-15z" />
	<path fill="#b5df74" d="M61.0 181.0h15v15h-15z" />
	<path fill="#b1de71" d="M76.0 181.0h15v15h-15z" />
	<path fill="#abdb6d" d="M76.0 166.0h15v15h-15z" />
	<path fill="#a7d96b" d="M91.0 166.0h15v15h-15z" />
	<path fill="#a0d669" d="M106.0 166.0h15v15h-15z" />
	<path fill="#9bd469" d="M106.0 181.0h15v15h-15z" />
	<path fill="#93d168" d="M91.0 181.0h15v15h-15z" />
	<path fill="#8ecf67" d="M91.0 196.0h15v15h-15z" />
	<path fill="#87cb67" d="M76.0 196.0h15v15h-15z" />
	<path fill="#82c966" d="M61.0 196.0h15v15h-15z" />
	<path fill="#7ac665" d="M46.0 196.0h15v15h-15z" />
	<path fill="#75c465" d="M46.0 211.0h15v15h-15z" />
	<path fill="#6ec064" d="M31.0 211.0h15v15h-15z" />
	<path fill="#69be63" d="M31.0 196.0h15v15h-15z" />
	<path fill="#60ba62" d="M31.0 181.0h15v15h-15z" />
	<path fill="#5ab760" d="M31.0 166.0h15v15h-15z" />
	<path fill="#51b35e" d="M31.0 151.0h15v15h-15z" />
	<path fill="#4bb05c" d="M31.0 136.0h15v15h-15z" />
	<path fill="#42ac5a" d="M31.0 121.0h15v15h-15z" />
	<path fill="#3ca959" d="M31.0 106.0h15v15h-15z" />
	<path fill="#33a456" d="M31.0 91.0h15v15h-15z" />
	<path fill="#2da155" d="M31.0 76.0h15v15h-15z" />
	<path fill="#249d53" d="M31.0 61.0h15v15h-15z" />
	<path fill="#1e9a51" d="M31.0 46.0h15v15h-15z" />
	<path fill="#18954f" d="M31.0 31.0h15v15h-15z" />
	<path fill="#16914d" d="M46.0 31.0h15v15h-15z" />
	<path fill="#138c4a" d="M46.0 46.0h15v15h-15z" />
	<path fill="#118848" d="M61.0 46.0h15v15h-15z" />
	<path fill="#0e8245" d="M61.0 61.0h15v15h-15z" />
	<path fill="#0c7f43" d="M76.0 61.0h15v15h-15z" />
	<path fill="#097940" d="M76.0 76.0h15v15h-15z" />
	<path fill="#07753e" d="M91.0 76.0h15v15h-15z" />
	<path fill="#04703b" d="M91.0 91.0h15v15h-15z" />
	<path fill="#026c39" d="M106.0 91.0h15v15h-15z" />
	<path fill="#006837" d="M106.0 106.0h15v15h-15z" />
	<g fill="none" stroke="#000" stroke-width="2" stroke-linecap="square">		<line x1="1.0" y1="1.0" x2="16.0" y2="1.0" />
		<line x1="1.0" y1="1.0" x2="1.0" y2="16.0" />
		<line x1="16.0" y1="1.0" x2="31.0" y2="1.0" />
		<line x1="16.0" y1="16.0" x2="31.0" y2="16.0" />
		<line x1="31.0" y1="1.0" x2="46.0" y2="1.0" />
		<line x1="31.0" y1="16.0" x2="46.0" y2="16.0" />
		<line x1="46.0" y1="1.0" x2="61.0" y2="1.0" />
		<line x1="46.0" y1="16.0" x2="61.0" y2="16.0" />
		<line x1="61.0" y1="1.0" x2="76.0" y2="1.0" />
		<line x1="61.0" y1="16.0" x2="76.0" y2="16.0" />
		<line x1="76.0" y1="1.0" x2="91.0" y2="1.0" />
		<line x1="76.0" y1="16.0" x2="91.0" y2="16.0" />
		<line x1="91.0" y1="1.0" x2="106.0" y2="1.0" />
		<line x1="91.0" y1="16.0" x2="106.0" y2="16.0" />
		<line x1="106.0" y1="1.0" x2="121.0" y2="1.0" />
		<line x1="106.0" y1="16.0" x2="121.0" y2="16.0" />
		<line x1="121.0" y1="1.0" x2="136.0" y2="1.0" />
		<line x1="121.0" y1="16.0" x2="136.0" y2="16.0" />
		<line x1="136.0" y1="1.0" x2="151.0" y2="1.0" />
		<line x1="136.0" y1="16.0" x2="151.0" y2="16.0" />
		<line x1="151.0" y1="1.0" x2="166.0" y2="1.0" />
		<line x1="151.0" y1="16.0" x2="166.0" y2="16.0" />
		<line x1="166.0" y1="1.0" x2="181.0" y2="1.0" />
		<line x1="166.0" y1="16.0" x2="181.0" y2="16.0" />
		<line x1="181.0" y1="1.0" x2="196.0" y2="1.0" />
		<line x1="181.0" y1="16.0" x2="196.0" y2="16.0" />
		<line x1="196.0" y1="1.0" x2="211.0" y2="1.0" />
		<line x1="196.0" y1="16.0" x2="211.0" y2="16.0" />
		<line x1="211.0" y1="1.0" x2="226.0" y2="1.0" />
		<line x1="226.0" y1="1.0" x2="241.0" y2="1.0" />
		<line x1="226.0" y1="16.0" x2="241.0" y2="16.0" />
		<line x1="241.0" y1="1.0" x2="241.0" y2="16.0" />
		<line x1="16.0" y1="16.0" x2="16.0" y2="31.0" />
		<line x1="1.0" y1="16.0" x2="1.0" y2="31.0" />
		<line x1="31.0" y1="31.0" x2="46.0" y2="31.0" />
		<line x1="46.0" y1="31.0" x2="61.0" y2="31.0" />
		<line x1="61.0" y1="31.0" x2="76.0" y2="31.0" />
		<line x1="76.0" y1="31.0" x2="91.0" y2="31.0" />
		<line x1="91.0" y1="31.0" x2="106.0" y2="31.0" />
		<line x1="106.0" y1="31.0" x2="121.0" y2="31.0" />
		<line x1="121.0" y1="31.0" x2="136.0" y2="31.0" />
		<line x1="136.0" y1="31.0" x2="151.0" y2="31.0" />
		<line x1="151.0" y1="31.0" x2="166.0" y2="31.0" />
		<line x1="166.0" y1="31.0" x2="181.0" y2="31.0" />
		<line x1="181.0" y1="31.0" x2="196.0" y2="31.0" />
		<line x1="196.0" y1="31.0" x2="211.0" y2="31.0" />
		<line x1="241.0" y1="16.0" x2="241.0" y2="31.0" />
		<line x1="16.0" y1="31.0" x2="16.0" y2="46.0" />
		<line x1="1.0" y1="31.0" x2="1.0" y2="46.0" />
		<line x1="31.0" y1="31.0" x2="31.0" y2="46.0" />
		<line x1="61.0" y1="46.0" x2="76.0" y2="46.0" />
		<line x1="76.0" y1="46.0" x2="91.0" y2="46.0" />
		<line x1="106.0" y1="31.0" x2="106.0" y2="46.0" />
		<line x1="106.0" y1="46.0" x2="121.0" y2="46.0" />
		<line x1="136.0" y1="46.0" x2="151.0" y2="46.0" />
		<line x1="151.0" y1="46.0" x2="166.0" y2="46.0" />
		<line x1="166.0" y1="46.0" x2="181.0" y2="46.0" />
		<line x1="181.0" y1="46.0" x2="196.0" y2="46.0" />
		<line x1="196.0" y1="46.0" x2="211.0" y2="46.0" />
		<line x1="211.0" y1="46.0" x2="226.0" y2="46.0" />
		<line x1="226.0" y1="31.0" x2="226.0" y2="46.0" />
		<line x1="241.0" y1="31.0" x2="241.0" y2="46.0" />
		<line x1="16.0" y1="46.0" x2="16.0" y2="61.0" />
		<line x1="1.0" y1="46.0" x2="1.0" y2="61.0" />
		<line x1="31.0" y1="46.0" x2="31.0" y2="61.0" />
		<line x1="46.0" y1="46.0" x2="46.0" y2="61.0" />
		<line x1="76.0" y1="61.0" x2="91.0" y2="61.0" />
		<line x1="91.0" y1="46.0" x2="91.0" y2="61.0" />
		<line x1="91.0" y1="61.0" x2="106.0" y2="61.0" />
		<line x1="121.0" y1="46.0" x2="121.0" y2="61.0" />
		<line x1="121.0" y1="61.0" x2="136.0" y2="61.0" />
		<line x1="136.0" y1="61.0" x2="151.0" y2="61.0" />
		<line x1="151.0" y1="61.0" x2="166.0" y2="61.0" />
		<line x1="166.0" y1="61.0" x2="181.0" y2="61.0" />
		<line x1="181.0" y1="61.0" x2="196.0" y2="61.0" />
		<line x1="196.0" y1="61.0" x2="211.0" y2="61.0" />
		<line x1="226.0" y1="46.0" x2="226.0" y2="61.0" />
		<line x1="241.0" y1="46.0" x2="241.0" y2="61.0" />
		<line x1="16.0" y1="61.0" x2="16.0" y2="76.0" />
		<line x1="1.0" y1="61.0" x2="1.0" y2="76.0" />
		<line x1="31.0" y1="61.0" x2="31.0" y2="76.0" />
		<line x1="46.0" y1="61.0" x2="46.0" y2="76.0" />
		<line x1="61.0" y1="61.0" x2="61.0" y2="76.0" />
		<line x1="91.0" y1="76.0" x2="106.0" y2="76.0" />
		<line x1="106.0" y1="61.0" x2="106.0" y2="76.0" />
		<line x1="121.0" y1="76.0" x2="136.0" y2="76.0" />
		<line x1="151.0" y1="61.0" x2="151.0" y2="76.0" />
		<line x1="181.0" y1="61.0" x2="181.0" y2="76.0" />
		<line x1="211.0" y1="61.0" x2="211.0" y2="76.0" />
		<line x1="226.0" y1="61.0" x2="226.0" y2="76.0" />
		<line x1="241.0" y1="61.0" x2="241.0" y2="76.0" />
		<line x1="16.0" y1="76.0" x2="16.0" y2="91.0" />
		<line x1="1.0" y1="76.0" x2="1.0" y2="91.0" />
		<line x1="31.0" y1="76.0" x2="31.0" y2="91.0" />
		<line x1="46.0" y1="76.0" x2="46.0" y2="91.0" />
		<line x1="61.0" y1="76.0" x2="61.0" y2="91.0" />
		<line x1="76.0" y1="76.0" x2="76.0" y2="91.0" />
		<line x1="106.0" y1="76.0" x2="106.0" y2="91.0" />
		<line x1="106.0" y1="91.0" x2="121.0" y2="91.0" />
		<line x1="136.0" y1="76.0" x2="136.0" y2="91.0" />
		<line x1="136.0" y1="91.0" x2="151.0" y2="91.0" />
		<line x1="151.0" y1="91.0" x2="166.0" y2="91.0" />
		<line x1="166.0" y1="76.0" x2="166.0" y2="91.0" />
		<line x1="181.0" y1="76.0" x2="181.0" y2="91.0" />
		<line x1="196.0" y1="76.0" x2="196.0" y2="91.0" />
		<line x1="211.0" y1="76.0" x2="211.0" y2="91.0" />
		<line x1="226.0" y1="76.0" x2="226.0" y2="91.0" />
		<line x1="241.0" y1="76.0" x2="241.0" y2="91.0" />
		<line x1="16.0" y1="91.0" x2="16.0" y2="106.0" />
		<line x1="1.0" y1="91.0" x2="1.0" y2="106.0" />
		<line x1="31.0" y1="91.0" x2="31.0" y2="106.0" />
		<line x1="46.0" y1="91.0" x2="46.0" y2="106.0" />
		<line x1="46.0" y1="106.0" x2="61.0" y2="106.0" />
		<line x1="61.0" y1="91.0" x2="61.0" y2="106.0" />
		<line x1="76.0" y1="91.0" x2="76.0" y2="106.0" />
		<line x1="91.0" y1="91.0" x2="91.0" y2="106.0" />
		<line x1="121.0" y1="91.0" x2="121.0" y2="106.0" />
		<line x1="121.0" y1="106.0" x2="136.0" y2="106.0" />
		<line x1="136.0" y1="106.0" x2="151.0" y2="106.0" />
		<line x1="151.0" y1="91.0" x2="151.0" y2="106.0" />
		<line x1="166.0" y1="106.0" x2="181.0" y2="106.0" />
		<line x1="181.0" y1="91.0" x2="181.0" y2="106.0" />
		<line x1="196.0" y1="91.0" x2="196.0" y2="106.0" />
		<line x1="211.0" y1="91.0" x2="211.0" y2="106.0" />
		<line x1="226.0" y1="91.0" x2="226.0" y2="106.0" />
		<line x1="241.0" y1="91.0" x2="241.0" y2="106.0" />
		<line x1="16.0" y1="106.0" x2="16.0" y2="121.0" />
		<line x1="1.0" y1="106.0" x2="1.0" y2="121.0" />
		<line x1="31.0" y1="106.0" x2="31.0" y2="121.0" />
		<line x1="46.0" y1="106.0" x2="46.0" y2="121.0" />
		<line x1="61.0" y1="106.0" x2="61.0" y2="121.0" />
		<line x1="91.0" y1="106.0" x2="91.0" y2="121.0" />
		<line x1="106.0" y1="106.0" x2="106.0" y2="121.0" />
		<line x1="136.0" y1="106.0" x2="136.0" y2="121.0" />
		<line x1="151.0" y1="121.0" x2="166.0" y2="121.0" />
		<line x1="166.0" y1="121.0" x2="181.0" y2="121.0" />
		<line x1="181.0" y1="106.0" x2="181.0" y2="121.0" />
		<line x1="196.0" y1="106.0" x2="196.0" y2="121.0" />
		<line x1="211.0" y1="106.0" x2="211.0" y2="121.0" />
		<line x1="226.0" y1="106.0" x2="226.0" y2="121.0" />
		<line x1="241.0" y1="106.0" x2="241.0" y2="121.0" />
		<line x1="16.0" y1="121.0" x2="16.0" y2="136.0" />
		<line x1="1.0" y1="121.0" x2="1.0" y2="136.0" />
		<line x1="31.0" y1="121.0" x2="31.0" y2="136.0" />
		<line x1="46.0" y1="121.0" x2="46.0" y2="136.0" />
		<line x1="61.0" y1="121.0" x2="61.0" y2="136.0" />
		<line x1="76.0" y1="121.0" x2="76.0" y2="136.0" />
		<line x1="76.0" y1="136.0" x2="91.0" y2="136.0" />
		<line x1="106.0" y1="121.0" x2="106.0" y2="136.0" />
		<line x1="106.0" y1="136.0" x2="121.0" y2="136.0" />
		<line x1="121.0" y1="136.0" x2="136.0" y2="136.0" />
		<line x1="136.0" y1="121.0" x2="136.0" y2="136.0" />
		<line x1="136.0" y1="136.0" x2="151.0" y2="136.0" />
		<line x1="151.0" y1="136.0" x2="166.0" y2="136.0" />
		<line x1="181.0" y1="121.0" x2="181.0" y2="136.0" />
		<line x1="196.0" y1="121.0" x2="196.0" y2="136.0" />
		<line x1="211.0" y1="121.0" x2="211.0" y2="136.0" />
		<line x1="226.0" y1="121.0" x2="226.0" y2="136.0" />
		<line x1="241.0" y1="121.0" x2="241.0" y2="136.0" />
		<line x1="16.0" y1="136.0" x2="16.0" y2="151.0" />
		<line x1="1.0" y1="136.0" x2="1.0" y2="151.0" />
		<line x1="31.0" y1="136.0" x2="31.0" y2="151.0" />
		<line x1="46.0" y1="136.0" x2="46.0" y2="151.0" />
		<line x1="61.0" y1="136.0" x2="61.0" y2="151.0" />
		<line x1="61.0" y1="151.0" x2="76.0" y2="151.0" />
		<line x1="76.0" y1="151.0" x2="91.0" y2="151.0" />
		<line x1="91.0" y1="151.0" x2="106.0" y2="151.0" />
		<line x1="106.0" y1="136.0" x2="106.0" y2="151.0" />
		<line x1="106.0" y1="151.0" x2="121.0" y2="151.0" />
		<line x1="121.0" y1="151.0" x2="136.0" y2="151.0" />
		<line x1="151.0" y1="151.0" x2="166.0" y2="151.0" />
		<line x1="166.0" y1="136.0" x2="166.0" y2="151.0" />
		<line x1="181.0" y1="136.0" x2="181.0" y2="151.0" />
		<line x1="196.0" y1="136.0" x2="196.0" y2="151.0" />
		<line x1="211.0" y1="136.0" x2="211.0" y2="151.0" />
		<line x1="226.0" y1="136.0" x2="226.0" y2="151.0" />
		<line x1="241.0" y1="136.0" x2="241.0" y2="151.0" />
		<line x1="16.0" y1="151.0" x2="16.0" y2="166.0" />
		<line x1="1.0" y1="151.0" x2="1.0" y2="166.0" />
		<line x1="31.0" y1="151.0" x2="31.0" y2="166.0" />
		<line x1="46.0" y1="151.0" x2="46.0" y2="166.0" />
		<line x1="61.0" y1="151.0" x2="61.0" y2="166.0" />
		<line x1="76.0" y1="166.0" x2="91.0" y2="166.0" />
		<line x1="91.0" y1="166.0" x2="106.0" y2="166.0" />
		<line x1="106.0" y1="166.0" x2="121.0" y2="166.0" />
		<line x1="136.0" y1="151.0" x2="136.0" y2="166.0" />
		<line x1="136.0" y1="166.0" x2="151.0" y2="166.0" />
		<line x1="166.0" y1="151.0" x2="166.0" y2="166.0" />
		<line x1="181.0" y1="151.0" x2="181.0" y2="166.0" />
		<line x1="196.0" y1="151.0" x2="196.0" y2="166.0" />
		<line x1="211.0" y1="151.0" x2="211.0" y2="166.0" />
		<line x1="226.0" y1="151.0" x2="226.0" y2="166.0" />
		<line x1="241.0" y1="151.0" x2="241.0" y2="166.0" />
		<line x1="16.0" y1="166.0" x2="16.0" y2="181.0" />
		<line x1="1.0" y1="166.0" x2="1.0" y2="181.0" />
		<line x1="31.0" y1="166.0" x2="31.0" y2="181.0" />
		<line x1="46.0" y1="166.0" x2="46.0" y2="181.0" />
		<line x1="61.0" y1="166.0" x2="61.0" y2="181.0" />
		<line x1="76.0" y1="166.0" x2="76.0" y2="181.0" />
		<line x1="91.0" y1="181.0" x2="106.0" y2="181.0" />
		<line x1="121.0" y1="166.0" x2="121.0" y2="181.0" />
		<line x1="136.0" y1="166.0" x2="136.0" y2="181.0" />
		<line x1="166.0" y1="166.0" x2="166.0" y2="181.0" />
		<line x1="181.0" y1="166.0" x2="181.0" y2="181.0" />
		<line x1="196.0" y1="166.0" x2="196.0" y2="181.0" />
		<line x1="211.0" y1="166.0" x2="211.0" y2="181.0" />
		<line x1="226.0" y1="166.0" x2="226.0" y2="181.0" />
		<line x1="241.0" y1="166.0" x2="241.0" y2="181.0" />
		<line x1="16.0" y1="181.0" x2="16.0" y2="196.0" />
		<line x1="1.0" y1="181.0" x2="1.0" y2="196.0" />
		<line x1="31.0" y1="181.0" x2="31.0" y2="196.0" />
		<line x1="46.0" y1="181.0" x2="46.0" y2="196.0" />
		<line x1="61.0" y1="181.0" x2="61.0" y2="196.0" />
		<line x1="61.0" y1="196.0" x2="76.0" y2="196.0" />
		<line x1="76.0" y1="196.0" x2="91.0" y2="196.0" />
		<line x1="91.0" y1="181.0" x2="91.0" y2="196.0" />
		<line x1="106.0" y1="196.0" x2="121.0" y2="196.0" />
		<line x1="121.0" y1="181.0" x2="121.0" y2="196.0" />
		<line x1="136.0" y1="196.0" x2="151.0" y2="196.0" />
		<line x1="151.0" y1="181.0" x2="151.0" y2="196.0" />
		<line x1="151.0" y1="196.0" x2="166.0" y2="196.0" />
		<line x1="166.0" y1="181.0" x2="166.0" y2="196.0" />
		<line x1="196.0" y1="181.0" x2="196.0" y2="196.0" />
		<line x1="211.0" y1="181.0" x2="211.0" y2="196.0" />
		<line x1="226.0" y1="181.0" x2="226.0" y2="196.0" />
		<line x1="241.0" y1="181.0" x2="241.0" y2="196.0" />
		<line x1="1.0" y1="196.0" x2="1.0" y2="211.0" />
		<line x1="31.0" y1="196.0" x2="31.0" y2="211.0" />
		<line x1="46.0" y1="196.0" x2="46.0" y2="211.0" />
		<line x1="61.0" y1="211.0" x2="76.0" y2="211.0" />
		<line x1="76.0" y1="211.0" x2="91.0" y2="211.0" />
		<line x1="106.0" y1="211.0" x2="121.0" y2="211.0" />
		<line x1="121.0" y1="196.0" x2="121.0" y2="211.0" />
		<line x1="136.0" y1="211.0" x2="151.0" y2="211.0" />
		<line x1="151.0" y1="211.0" x2="166.0" y2="211.0" />
		<line x1="166.0" y1="196.0" x2="166.0" y2="211.0" />
		<line x1="166.0" y1="211.0" x2="181.0" y2="211.0" />
		<line x1="181.0" y1="196.0" x2="181.0" y2="211.0" />
		<line x1="181.0" y1="211.0" x2="196.0" y2="211.0" />
		<line x1="196.0" y1="196.0" x2="196.0" y2="211.0" />
		<line x1="196.0" y1="211.0" x2="211.0" y2="211.0" />
		<line x1="226.0" y1="196.0" x2="226.0" y2="211.0" />
		<line x1="241.0" y1="196.0" x2="241.0" y2="211.0" />
		<line x1="16.0" y1="211.0" x2="16.0" y2="226.0" />
		<line x1="1.0" y1="211.0" x2="1.0" y2="226.0" />
		<line x1="31.0" y1="211.0" x2="31.0" y2="226.0" />
		<line x1="31.0" y1="226.0" x2="46.0" y2="226.0" />
		<line x1="46.0" y1="226.0" x2="61.0" y2="226.0" />
		<line x1="61.0" y1="226.0" x2="76.0" y2="226.0" />
		<line x1="76.0" y1="226.0" x2="91.0" y2="226.0" />
		<line x1="91.0" y1="226.0" x2="106.0" y2="226.0" />
		<line x1="106.0" y1="226.0" x2="121.0" y2="226.0" />
		<line x1="121.0" y1="211.0" x2="121.0" y2="226.0" />
		<line x1="121.0" y1="226.0" x2="136.0" y2="226.0" />
		<line x1="136.0" y1="226.0" x2="151.0" y2="226.0" />
		<line x1="151.0" y1="226.0" x2="166.0" y2="226.0" />
		<line x1="166.0" y1="226.0" x2="181.0" y2="226.0" />
		<line x1="181.0" y1="226.0" x2="196.0" y2="226.0" />
		<line x1="196.0" y1="226.0" x2="211.0" y2="226.0" />
		<line x1="211.0" y1="226.0" x2="226.0" y2="226.0" />
		<line x1="226.0" y1="211.0" x2="226.0" y2="226.0" />
		<line x1="241.0" y1="211.0" x2="241.0" y2="226.0" />
		<line x1="1.0" y1="241.0" x2="16.0" y2="241.0" />
		<line x1="16.0" y1="226.0" x2="16.0" y2="241.0" />
		<line x1="1.0" y1="226.0" x2="1.0" y2="241.0" />
		<line x1="16.0" y1="241.0" x2="31.0" y2="241.0" />
		<line x1="31.0" y1="241.0" x2="46.0" y2="241.0" />
		<line x1="46.0" y1="241.0" x2="61.0" y2="241.0" />
		<line x1="61.0" y1="241.0" x2="76.0" y2="241.0" />
		<line x1="76.0" y1="241.0" x2="91.0" y2="241.0" />
		<line x1="91.0" y1="241.0" x2="106.0" y2="241.0" />
		<line x1="106.0" y1="241.0" x2="121.0" y2="241.0" />
		<line x1="121.0" y1="241.0" x2="136.0" y2="241.0" />
		<line x1="136.0" y1="241.0" x2="151.0" y2="241.0" />
		<line x1="151.0" y1="241.0" x2="166.0" y2="241.0" />
		<line x1="166.0" y1="241.0" x2="181.0" y2="241.0" />
		<line x1="181.0" y1="241.0" x2="196.0" y2="241.0" />
		<line x1="196.0" y1="241.0" x2="211.0" y2="241.0" />
		<line x1="211.0" y1="241.0" x2="226.0" y2="241.0" />
		<line x1="226.0" y1="241.0" x2="241.0" y2="241.0" />
		<line x1="241.0" y1="226.0" x2="241.0" y2="241.0" />
</g></svg>