<svg xmlns="http://www.w3.org/2000/svg" width="242" height="242" fill="none" stroke="#000" stroke-width="2" stroke-linecap="square">
	<line x1="1.0" y1="1.0" x2="16.0" y2="1.0" />
	<line x1="1.0" y1="1.0" x2="1.0" y2="16.0" />
	<line x1="16.0" y1="1.0" x2="31.0" y2="1.0" />
	<line x1="16.0" y1="16.0" x2="31.0" y2="16.0" />
	<line x1="31.0" y1="1.0" x2="46.0" y2="1.0" />
	<line x1="31.0" y1="16.0" x2="46.0" y2="16.0" />
	<line x1="46.0" y1="1.0" x2="61.0" y2="1.0" />
	<line x1="46.0" y1="16.0" x2="61.0" y2="16.0" />
	<line x1="61.0" y1="1.0" x2="76.0" y2="1.0" />
	<line x1="61.0" y1="16.0" x2="76.0" y2="16.0" />
	<line x1="76.0" y1="1.0" x2="91.0" y2="1.0" />
	<line x1="76.0" y1="16.0" x2="91.0" y2="16.0" />
	<line x1="91.0" y1="1.0" x2="106.0" y2="1.0" />
	<line x1="91.0" y1="16.0" x2="106.0" y2="16.0" />
	<line x1="106.0" y1="1.0" x2="121.0" y2="1.0" />
	<line x1="106.0" y1="16.0" x2="121.0" y2="16.0" />
	<line x1="121.0" y1="1.0" x2="136.0" y2="1.0" />
	<line x1="121.0" y1="16.0" x2="136.0" y2="16.0" />
	<line x1="136.0" y1="1.0" x2="151.0" y2="1.0" />
	<line x1="136.0" y1="16.0" x2="151.0" y2="16.0" />
	<line x1="151.0" y1="1.0" x2="166.0" y2="1.0" />
	<line x1="151.0" y1="16.0" x2="166.0" y2="16.0" />
	<line x1="166.0" y1="1.0" x2="181.0" y2="1.0" />
	<line x1="166.0" y1="16.0" x2="181.0" y2="16.0" />
	<line x1="181.0" y1="1.0" x2="196.0" y2="1.0" />
	<line x1="181.0" y1="16.0" x2="196.0" y2="16.0" />
	<line x1="196.0" y1="1.0" x2="211.0" y2="1.0" />
	<line x1="196.0" y1="16.0" x2="211.0" y2="16.0" />
	<line x1="211.0" y1="1.0" x2="226.0" y2="1.0" />
	<line x1="226.0" y1="1.0" x2="241.0" y2="1.0" />
	<line x1="226.0" y1="16.0" x2="241.0" y2="16.0" />
	<line x1="241.0" y1="1.0" x2="241.0" y2="16.0" />
	<line x1="16.0" y1="16.0" x2="16.0" y2="31.0" />
	<line x1="1.0" y1="16.0" x2="1.0" y2="31.0" />
	<line x1="31.0" y1="31.0" x2="46.0" y2="31.0" />
	<line x1="46.0" y1="31.0" x2="61.0" y2="31.0" />
	<line x1="61.0" y1="31.0" x2="76.0" y2="31.0" />
	<line x1="76.0" y1="31.0" x2="91.0" y2="31.0" />
	<line x1="91.0" y1="31.0" x2="106.0" y2="31.0" />
	<line x1="106.0" y1="31.0" x2="121.0" y2="31.0" />
	<line x1="121.0" y1="31.0" x2="136.0" y2="31.0" />
	<line x1="136.0" y1="31.0" x2="151.0" y2="31.0" />
	<line x1="151.0" y1="31.0" x2="166.0" y2="31.0" />
	<line x1="166.0" y1="31.0" x2="181.0" y2="31.0" />
	<line x1="181.0" y1="31.0" x2="196.0" y2="31.0" />
	<line x1="196.0" y1="31.0" x2="211.0" y2="31.0" />
	<line x1="241.0" y1="16.0" x2="241.0" y2="31.0" />
	<line x1="16.0" y1="31.0" x2="16.0" y2="46.0" />
	<line x1="1.0" y1="31.0" x2="1.0" y2="46.0" />
	<line x1="31.0" y1="31.0" x2="31.0" y2="46.0" />
	<line x1="61.0" y1="46.0" x2="76.0" y2="46.0" />
	<line x1="76.0" y1="46.0" x2="91.0" y2="46.0" />
	<line x1="106.0" y1="31.0" x2="106.0" y2="46.0" />
	<line x1="106.0" y1="46.0" x2="121.0" y2="46.0" />
	<line x1="136.0" y1="46.0" x2="151.0" y2="46.0" />
	<line x1="151.0" y1="46.0" x2="166.0" y2="46.0" />
	<line x1="166.0" y1="46.0" x2="181.0" y2="46.0" />
	<line x1="181.0" y1="46.0" x2="196.0" y2="46.0" />
	<line x1="196.0" y1="46.0" x2="211.0" y2="46.0" />
	<line x1="211.0" y1="46.0" x2="226.0" y2="46.0" />
	<line x1="226.0" y1="31.0" x2="226.0" y2="46.0" />
	<line x1="241.0" y1="31.0" x2="241.0" y2="46.0" />
	<line x1="16.0" y1="46.0" x2="16.0" y2="61.0" />
	<line x1="1.0" y1="46.0" x2="1.0" y2="61.0" />
	<line x1="31.0" y1="46.0" x2="31.0" y2="61.0" />
	<line x1="46.0" y1="46.0" x2="46.0" y2="61.0" />
	<line x1="76.0" y1="61.0" x2="91.0" y2="61.0" />
	<line x1="91.0" y1="46.0" x2="91.0" y2="61.0" />
	<line x1="91.0" y1="61.0" x2="106.0" y2="61.0" />
	<line x1="121.0" y1="46.0" x2="121.0" y2="61.0" />
	<line x1="121.0" y1="61.0" x2="136.0" y2="61.0" />
	<line x1="136.0" y1="61.0" x2="151.0" y2="61.0" />
	<line x1="151.0" y1="61.0" x2="166.0" y2="61.0" />
	<line x1="166.0" y1="61.0" x2="181.0" y2="61.0" />
	<line x1="181.0" y1="61.0" x2="196.0" y2="61.0" />
	<line x1="196.0" y1="61.0" x2="211.0" y2="61.0" />
	<line x1="226.0" y1="46.0" x2="226.0" y2="61.0" />
	<line x1="241.0" y1="46.0" x2="241.0" y2="61.0" />
	<line x1="16.0" y1="61.0" x2="16.0" y2="76.0" />
	<line x1="1.0" y1="61.0" x2="1.0" y2="76.0" />
	<line x1="31.0" y1="61.0" x2="31.0" y2="76.0" />
	<line x1="46.0" y1="61.0" x2="46.0" y2="76.0" />
	<line x1="61.0" y1="61.0" x2="61.0" y2="76.0" />
	<line x1="91.0" y1="76.0" x2="106.0" y2="76.0" />
	<line x1="106.0" y1="61.0" x2="106.0" y2="76.0" />
	<line x1="121.0" y1="76.0" x2="136.0" y2="76.0" />
	<line x1="151.0" y1="61.0" x2="151.0" y2="76.0" />
	<line x1="181.0" y1="61.0" x2="181.0" y2="76.0" />
	<line x1="211.0" y1="61.0" x2="211.0" y2="76.0" />
	<line x1="226.0" y1="61.0" x2="226.0" y2="76.0" />
	<line x1="241.0" y1="61.0" x2="241.0" y2="76.0" />
	<line x1="16.0" y1="76.0" x2="16.0" y2="91.0" />
	<line x1="1.0" y1="76.0" x2="1.0" y2="91.0" />
	<line x1="31.0" y1="76.0" x2="31.0" y2="91.0" />
	<line x1="46.0" y1="76.0" x2="46.0" y2="91.0" />
	<line x1="61.0" y1="76.0" x2="61.0" y2="91.0" />
	<line x1="76.0" y1="76.0" x2="76.0" y2="91.0" />
	<line x1="106.0" y1="76.0" x2="106.0" y2="91.0" />
	<line x1="106.0" y1="91.0" x2="121.0" y2="91.0" />
	<line x1="136.0" y1="76.0" x2="136.0" y2="91.0" />
	<line x1="136.0" y1="91.0" x2="151.0" y2="91.0" />
	<line x1="151.0" y1="91.0" x2="166.0" y2="91.0" />
	<line x1="166.0" y1="76.0" x2="166.0" y2="91.0" />
	<line x1="181.0" y1="76.0" x2="181.0" y2="91.0" />
	<line x1="196.0" y1="76.0" x2="196.0" y2="91.0" />
	<line x1="211.0" y1="76.0" x2="211.0" y2="91.0" />
	<line x1="226.0" y1="76.0" x2="226.0" y2="91.0" />
	<line x1="241.0" y1="76.0" x2="241.0" y2="91.0" />
	<line x1="16.0" y1="91.0" x2="16.0" y2="106.0" />
	<line x1="1.0" y1="91.0" x2="1.0" y2="106.0" />
	<line x1="31.0" y1="91.0" x2="31.0" y2="106.0" />
	<line x1="46.0" y1="91.0" x2="46.0" y2="106.0" />
	<line x1="46.0" y1="106.0" x2="61.0" y2="106.0" />
	<line x1="61.0" y1="91.0" x2="61.0" y2="106.0" />
	<line x1="76.0" y1="91.0" x2="76.0" y2="106.0" />
	<line x1="91.0" y1="91.0" x2="91.0" y2="106.0" />
	<line x1="121.0" y1="91.0" x2="121.0" y2="106.0" />
	<line x1="121.0" y1="106.0" x2="136.0" y2="106.0" />
	<line x1="136.0" y1="106.0" x2="151.0" y2="106.0" />
	<line x1="151.0" y1="91.0" x2="151.0" y2="106.0" />
	<line x1="166.0" y1="106.0" x2="181.0" y2="106.0" />
	<line x1="181.0" y1="91.0" x2="181.0" y2="106.0" />
	<line x1="196.0" y1="91.0" x2="196.0" y2="106.0" />
	<line x1="211.0" y1="91.0" x2="211.0" y2="106.0" />
	<line x1="226.0" y1="91.0" x2="226.0" y2="106.0" />
	<line x1="241.0" y1="91.0" x2="241.0" y2="106.0" />
	<line x1="16.0" y1="106.0" x2="16.0" y2="121.0" />
	<line x1="1.0" y1="106.0" x2="1.0" y2="121.0" />
	<line x1="31.0" y1="106.0" x2="31.0" y2="121.0" />
	<line x1="46.0" y1="106.0" x2="46.0" y2="121.0" />
	<line x1="61.0" y1="106.0" x2="61.0" y2="121.0" />
	<line x1="91.0" y1="106.0" x2="91.0" y2="121.0" />
	<line x1="106.0" y1="106.0" x2="106.0" y2="121.0" />
	<line x1="136.0" y1="106.0" x2="136.0" y2="121.0" />
	<line x1="151.0" y1="121.0" x2="166.0" y2="121.0" />
	<line x1="166.0" y1="121.0" x2="181.0" y2="121.0" />
	<line x1="181.0" y1="106.0" x2="181.0" y2="121.0" />
	<line x1="196.0" y1="106.0" x2="196.0" y2="121.0" />
	<line x1="211.0" y1="106.0" x2="211.0" y2="121.0" />
	<line x1="226.0" y1="106.0" x2="226.0" y2="121.0" />
	<line x1="241.0" y1="106.0" x2="241.0" y2="121.0" />
	<line x1="16.0" y1="121.0" x2="16.0" y2="136.0" />
	<line x1="1.0" y1="121.0" x2="1.0" y2="136.0" />
	<line x1="31.0" y1="121.0" x2="31.0" y2="136.0" />
	<line x1="46.0" y1="121.0" x2="46.0" y2="136.0" />
	<line x1="61.0" y1="121.0" x2="61.0" y2="136.0" />
	<line x1="76.0" y1="121.0" x2="76.0" y2="136.0" />
	<line x1="76.0" y1="136.0" x2="91.0" y2="136.0" />
	<line x1="106.0" y1="121.0" x2="106.0" y2="136.0" />
	<line x1="106.0" y1="136.0" x2="121.0" y2="136.0" />
	<line x1="121.0" y1="136.0" x2="136.0" y2="136.0" />
	<line x1="136.0" y1="121.0" x2="136.0" y2="136.0" />
	<line x1="136.0" y1="136.0" x2="151.0" y2="136.0" />
	<line x1="151.0" y1="136.0" x2="166.0" y2="136.0" />
	<line x1="181.0" y1="121.0" x2="181.0" y2="136.0" />
	<line x1="196.0" y1="121.0" x2="196.0" y2="136.0" />
	<line x1="211.0" y1="121.0" x2="211.0" y2="136.0" />
	<line x1="226.0" y1="121.0" x2="226.0" y2="136.0" />
	<line x1="241.0" y1="121.0" x2="241.0" y2="136.0" />
	<line x1="16.0" y1="136.0" x2="16.0" y2="151.0" />
	<line x1="1.0" y1="136.0" x2="1.0" y2="151.0" />
	<line x1="31.0" y1="136.0" x2="31.0" y2="151.0" />
	<line x1="46.0" y1="136.0" x2="46.0" y2="151.0" />
	<line x1="61.0" y1="136.0" x2="61.0" y2="151.0" />
	<line x1="61.0" y1="151.0" x2="76.0" y2="151.0" />
	<line x1="76.0" y1="151.0" x2="91.0" y2="151.0" />
	<line x1="91.0" y1="151.0" x2="106.0" y2="151.0" />
	<line x1="106.0" y1="136.0" x2="106.0" y2="151.0" />
	<line x1="106.0" y1="151.0" x2="121.0" y2="151.0" />
	<line x1="121.0" y1="151.0" x2="136.0" y2="151.0" />
	<line x1="151.0" y1="151.0" x2="166.0" y2="151.0" />
	<line x1="166.0" y1="136.0" x2="166.0" y2="151.0" />
	<line x1="181.0" y1="136.0" x2="181.0" y2="151.0" />
	<line x1="196.0" y1="136.0" x2="196.0" y2="151.0" />
	<line x1="211.0" y1="136.0" x2="211.0" y2="151.0" />
	<line x1="226.0" y1="136.0" x2="226.0" y2="151.0" />
	<line x1="241.0" y1="136.0" x2="241.0" y2="151.0" />
	<line x1="16.0" y1="151.0" x2="16.0" y2="166.0" />
	<line x1="1.0" y1="151.0" x2="1.0" y2="166.0" />
	<line x1="31.0" y1="151.0" x2="31.0" y2="166.0" />
	<line x1="46.0" y1="151.0" x2="46.0" y2="166.0" />
	<line x1="61.0" y1="151.0" x2="61.0" y2="166.0" />
	<line x1="76.0" y1="166.0" x2="91.0" y2="166.0" />
	<line x1="91.0" y1="166.0" x2="106.0" y2="166.0" />
	<line x1="106.0" y1="166.0" x2="121.0" y2="166.0" />
	<line x1="136.0" y1="151.0" x2="136.0" y2="166.0" />
	<line x1="136.0" y1="166.0" x2="151.0" y2="166.0" />
	<line x1="166.0" y1="151.0" x2="166.0" y2="166.0" />
	<line x1="181.0" y1="151.0" x2="181.0" y2="166.0" />
	<line x1="196.0" y1="151.0" x2="196.0" y2="166.0" />
	<line x1="211.0" y1="151.0" x2="211.0" y2="166.0" />
	<line x1="226.0" y1="151.0" x2="226.0" y2="166.0" />
	<line x1="241.0" y1="151.0" x2="241.0" y2="166.0" />
	<line x1="16.0" y1="166.0" x2="16.0" y2="181.0" />
	<line x1="1.0" y1="166.0" x2="1.0" y2="181.0" />
	<line x1="31.0" y1="166.0" x2="31.0" y2="181.0" />
	<line x1="46.0" y1="166.0" x2="46.0" y2="181.0" />
	<line x1="61.0" y1="166.0" x2="61.0" y2="181.0" />
	<line x1="76.0" y1="166.0" x2="76.0" y2="181.0" />
	<line x1="91.0" y1="181.0" x2="106.0" y2="181.0" />
	<line x1="121.0" y1="166.0" x2="121.0" y2="181.0" />
	<line x1="136.0" y1="166.0" x2="136.0" y2="181.0" />
	<line x1="166.0" y1="166.0" x2="166.0" y2="181.0" />
	<line x1="181.0" y1="166.0" x2="181.0" y2="181.0" />
	<line x1="196.0" y1="166.0" x2="196.0" y2="181.0" />
	<line x1="211.0" y1="166.0" x2="211.0" y2="181.0" />
	<line x1="226.0" y1="166.0" x2="226.0" y2="181.0" />
	<line x1="241.0" y1="166.0" x2="241.0" y2="181.0" />
	<line x1="16.0" y1="181.0" x2="16.0" y2="196.0" />
	<line x1="1.0" y1="181.0" x2="1.0" y2="196.0" />
	<line x1="31.0" y1="181.0" x2="31.0" y2="196.0" />
	<line x1="46.0" y1="181.0" x2="46.0" y2="196.0" />
	<line x1="61.0" y1="181.0" x2="61.0" y2="196.0" />
	<line x1="61.0" y1="196.0" x2="76.0" y2="196.0" />
	<line x1="76.0" y1="196.0" x2="91.0" y2="196.0" />
	<line x1="91.0" y1="181.0" x2="91.0" y2="196.0" />
	<line x1="106.0" y1="196.0" x2="121.0" y2="196.0" />
	<line x1="121.0" y1="181.0" x2="121.0" y2="196.0" />
	<line x1="136.0" y1="196.0" x2="151.0" y2="196.0" />
	<line x1="151.0" y1="181.0" x2="151.0" y2="196.0" />
	<line x1="151.0" y1="196.0" x2="166.0" y2="196.0" />
	<line x1="166.0" y1="181.0" x2="166.0" y2="196.0" />
	<line x1="196.0" y1="181.0" x2="196.0" y2="196.0" />
	<line x1="211.0" y1="181.0" x2="211.0" y2="196.0" />
	<line x1="226.0" y1="181.0" x2="226.0" y2="196.0" />
	<line x1="241.0" y1="181.0" x2="241.0" y2="196.0" />
	<line x1="1.0" y1="196.0" x2="1.0" y2="211.0" />
	<line x1="31.0" y1="196.0" x2="31.0" y2="211.0" />
	<line x1="46.0" y1="196.0" x2="46.0" y2="211.0" />
	<line x1="61.0" y1="211.0" x2="76.0" y2="211.0" />
	<line x1="76.0" y1="211.0" x2="91.0" y2="211.0" />
	<line x1="106.0" y1="211.0" x2="121.0" y2="211.0" />
	<line x1="121.0" y1="196.0" x2="121.0" y2="211.0" />
	<line x1="136.0" y1="211.0" x2="151.0" y2="211.0" />
	<line x1="151.0" y1="211.0" x2="166.0" y2="211.0" />
	<line x1="166.0" y1="196.0" x2="166.0" y2="211.0" />
	<line x1="166.0" y1="211.0" x2="181.0" y2="211.0" />
	<line x1="181.0" y1="196.0" x2="181.0" y2="211.0" />
	<line x1="181.0" y1="211.0" x2="196.0" y2="211.0" />
	<line x1="196.0" y1="196.0" x2="196.0" y2="211.0" />
	<line x1="196.0" y1="211.0" x2="211.0" y2="211.0" />
	<line x1="226.0" y1="196.0" x2="226.0" y2="211.0" />
	<line x1="241.0" y1="196.0" x2="241.0" y2="211.0" />
	<line x1="16.0" y1="211.0" x2="16.0" y2="226.0" />
	<line x1="1.0" y1="211.0" x2="1.0" y2="226.0" />
	<line x1="31.0" y1="211.0" x2="31.0" y2="226.0" />
	<line x1="31.0" y1="226.0" x2="46.0" y2="226.0" />
	<line x1="46.0" y1="226.0" x2="61.0" y2="226.0" />
	<line x1="61.0" y1="226.0" x2="76.0" y2="226.0" />
	<line x1="76.0" y1="226.0" x2="91.0" y2="226.0" />
	<line x1="91.0" y1="226.0" x2="106.0" y2="226.0" />
	<line x1="106.0" y1="226.0" x2="121.0" y2="226.0" />
	<line x1="121.0" y1="211.0" x2="121.0" y2="226.0" />
	<line x1="121.0" y1="226.0" x2="136.0" y2="226.0" />
	<line x1="136.0" y1="226.0" x2="151.0" y2="226.0" />
	<line x1="151.0" y1="226.0" x2="166.0" y2="226.0" />
	<line x1="166.0" y1="226.0" x2="181.0" y2="226.0" />
	<line x1="181.0" y1="226.0" x2="196.0" y2="226.0" />
	<line x1="196.0" y1="226.0" x2="211.0" y2="226.0" />
	<line x1="211.0" y1="226.0" x2="226.0" y2="226.0" />
	<line x1="226.0" y1="211.0" x2="226.0" y2="226.0" />
	<line x1="241.0" y1="211.0" x2="241.0" y2="226.0" />
	<line x1="1.0" y1="241.0" x2="16.0" y2="241.0" />
	<line x1="16.0" y1="226.0" x2="16.0" y2="241.0" />
	<line x1="1.0" y1="226.0" x2="1.0" y2="241.0" />
	<line x1="16.0" y1="241.0" x2="31.0" y2="241.0" />
	<line x1="31.0" y1="241.0" x2="46.0" y2="241.0" />
	<line x1="46.0" y1="241.0" x2="61.0" y2="241.0" />
	<line x1="61.0" y1="241.0" x2="76.0" y2="241.0" />
	<line x1="76.0" y1="241.0" x2="91.0" y2="241.0" />
	<line x1="91.0" y1="241.0" x2="106.0" y2="241.0" />
	<line x1="106.0" y1="241.0" x2="121.0" y2="241.0" />
	<line x1="121.0" y1="241.0" x2="136.0" y2="241.0" />
	<line x1="136.0" y1="241.0" x2="151.0" y2="241.0" />
	<line x1="151.0" y1="241.0" x2="166.0" y2="241.0" />
	<line x1="166.0" y1="241.0" x2="181.0" y2="241.0" />
	<line x1="181.0" y1="241.0" x2="196.0" y2="241.0" />
	<line x1="196.0" y1="241.0" x2="211.0" y2="241.0" />
	<line x1="211.0" y1="241.0" x2="226.0" y2="241.0" />
	<line x1="226.0" y1="241.0" x2="241.0" y2="241.0" />
	<line x1="241.0" y1="226.0" x2="241.0" y2="241.0" />
</svg>