<svg xmlns="http://www.w3.org/2000/svg" width="242" height="242" style="background-color: #FFF">
	<path fill="#a50026" d="M1 226h15v15h-15z"/>
	<path fill="#a90426" d="M1 211h15v15h-15z"/>
	<path fill="#ad0826" d="M1 196h15v15h-15z"/>
	<path fill="#b30d26" d="M16 196h15v15h-15z"/>
	<path fill="#b71126" d="M16 181h15v15h-15z"/>
	<path fill="#bd1726" d="M16 166h15v15h-15z"/>
	<path fill="#c01a27" d="M16 151h15v15h-15z"/>
	<path fill="#c62027" d="M16 136h15v15h-15z"/>
	<path fill="#ca2427" d="M16 121h15v15h-15z"/>
	<path fill="#d02927" d="M16 106h15v15h-15z"/>
	<path fill="#d42d27" d="M16 91h15v15h-15z"/>
	<path fill="#d93429" d="M16 76h15v15h-15z"/>
	<path fill="#db382b" d="M16 61h15v15h-15z"/>
	<path fill="#de402e" d="M16 46h15v15h-15z"/>
	<path fill="#e14430" d="M16 31h15v15h-15z"/>
	<path fill="#e44c34" d="M16 16h15v15h-15z"/>
	<path fill="#e65036" d="M31 16h15v15h-15z"/>
	<path fill="#ea5739" d="M46 16h15v15h-15z"/>
	<path fill="#ec5c3b" d="M61 16h15v15h-15z"/>
	<path fill="#ef633f" d="M76 16h15v15h-15z"/>
	<path fill="#f26841" d="M91 16h15v15h-15z"/>
	<path fill="#f47044" d="M106 16h15v15h-15z"/>
	<path fill="#f57547" d="M121 16h15v15h-15z"/>
	<path fill="#f67c4a" d="M136 16h15v15h-15z"/>
	<path fill="#f7814c" d="M151 16h15v15h-15z"/>
	<path fill="#f88950" d="M166 16h15v15h-15z"/>
	<path fill="#f98e52" d="M181 16h15v15h-15z"/>
	<path fill="#fa9656" d="M196 16h15v15h-15z"/>
	<path fill="#fa9b58" d="M211 16h15v15h-15z"/>
	<path fill="#fba35c" d="M211 31h15v15h-15z"/>
	<path fill="#fca85e" d="M196 31h15v15h-15z"/>
	<path fill="#fdaf62" d="M181 31h15v15h-15z"/>
	<path fill="#fdb365" d="M166 31h15v15h-15z"/>
	<path fill="#fdb96a" d="M151 31h15v15h-15z"/>
	<path fill="#fdbd6d" d="M136 31h15v15h-15z"/>
	<path fill="#fdc171" d="M121 31h15v15h-15z"/>
	<path fill="#fdc776" d="M121 46h15v15h-15z"/>
	<path fill="#feca79" d="M136 46h15v15h-15z"/>
	<path fill="#fed07e" d="M151 46h15v15h-15z"/>
	<path fill="#fed481" d="M166 46h15v15h-15z"/>
	<path fill="#feda86" d="M181 46h15v15h-15z"/>
	<path fill="#fede89" d="M196 46h15v15h-15z"/>
	<path fill="#fee28f" d="M211 46h15v15h-15z"/>
	<path fill="#fee593" d="M211 61h15v15h-15z"/>
	<path fill="#fee999" d="M211 76h15v15h-15z"/>
	<path fill="#feeb9d" d="M211 91h15v15h-15z"/>
	<path fill="#feefa3" d="M211 106h15v15h-15z"/>
	<path fill="#fff1a8" d="M211 121h15v15h-15z"/>
	<path fill="#fff5ae" d="M211 136h15v15h-15z"/>
	<path fill="#fff7b2" d="M211 151h15v15h-15z"/>
	<path fill="#fffbb8" d="M211 166h15v15h-15z"/>
	<path fill="#fffdbc" d="M211 181h15v15h-15z"/>
	<path fill="#fdfebc" d="M211 196h15v15h-15z"/>
	<path fill="#fafdb8" d="M211 211h15v15h-15z"/>
	<path fill="#f5fbb2" d="M196 211h15v15h-15z"/>
	<path fill="#f2faae" d="M181 211h15v15h-15z"/>
	<path fill="#eef8a8" d="M166 211h15v15h-15z"/>
	<path fill="#ebf7a3" d="M151 211h15v15h-15z"/>
	<path fill="#e6f59d" d="M136 211h15v15h-15z"/>
	<path fill="#e3f399" d="M121 211h15v15h-15z"/>
	<path fill="#dff293" d="M121 196h15v15h-15z"/>
	<path fill="#dcf08f" d="M121 181h15v15h-15z"/>
	<path fill="#d7ee8a" d="M121 166h15v15h-15z"/>
	<path fill="#d3ec87" d="M121 151h15v15h-15z"/>
	<path fill="#cdea83" d="M106 151h15v15h-15z"/>
	<path fill="#c9e881" d="M91 151h15v15h-15z"/>
	<path fill="#c3e67d" d="M76 151h15v15h-15z"/>
	<path fill="#bfe47a" d="M61 151h15v15h-15z"/>
	<path fill="#b9e176" d="M61 166h15v15h-15z"/>
	<path fill="#b5df74" d="M61 181h15v15h-15z"/>
	<path fill="#b1de71" d="M76 181h15v15h-15z"/>
	<path fill="#abdb6d" d="M76 166h15v15h-15z"/>
	<path fill="#a7d96b" d="M91 166h15v15h-15z"/>
	<path fill="#a0d669" d="M106 166h15v15h-15z"/>
	<path fill="#9bd469" d="M106 181h15v15h-15z"/>
	<path fill="#93d168" d="M91 181h15v15h-15z"/>
	<path fill="#8ecf67" d="M91 196h15v15h-15z"/>
	<path fill="#87cb67" d="M76 196h15v15h-15z"/>
	<path fill="#82c966" d="M61 196h15v15h-15z"/>
	<path fill="#7ac665" d="M46 196h15v15h-15z"/>
	<path fill="#75c465" d="M46 211h15v15h-15z"/>
	<path fill="#6ec064" d="M31 211h15v15h-15z"/>
	<path fill="#69be63" d="M31 196h15v15h-15z"/>
	<path fill="#60ba62" d="M31 181h15v15h-15z"/>
	<path fill="#5ab760" d="M31 166h15v15h-15z"/>
	<path fill="#51b35e" d="M31 151h15v15h-15z"/>
	<path fill="#4bb05c" d="M31 136h15v15h-15z"/>
	<path fill="#42ac5a" d="M31 121h15v15h-15z"/>
	<path fill="#3ca959" d="M31 106h15v15h-15z"/>
	<path fill="#33a456" d="M31 91h15v15h-15z"/>
	<path fill="#2da155" d="M31 76h15v15h-15z"/>
	<path fill="#249d53" d="M31 61h15v15h-15z"/>
	<path fill="#1e9a51" d="M31 46h15v15h-15z"/>
	<path fill="#18954f" d="M31 31h15v15h-15z"/>
	<path fill="#16914d" d="M46 31h15v15h-15z"/>
	<path fill="#138c4a" d="M46 46h15v15h-15z"/>
	<path fill="#118848" d="M61 46h15v15h-15z"/>
	<path fill="#0e8245" d="M61 61h15v15h-15z"/>
	<path fill="#0c7f43" d="M76 61h15v15h-15z"/>
	<path fill="#097940" d="M76 76h15v15h-15z"/>
	<path fill="#07753e" d="M91 76h15v15h-15z"/>
	<path fill="#04703b" d="M91 91h15v15h-15z"/>
	<path fill="#026c39" d="M106 91h15v15h-15z"/>
	<path fill="#006837" d="M106 106h15v15h-15z"/>
	<g fill="none" stroke="#000" stroke-width="2" stroke-linecap="square">
		<line x1="1" y1="1" x2="16" y2="1"/>
		<line x1="1" y1="1" x2="1" y2="16"/>
		<line x1="16" y1="1" x2="31" y2="1"/>
		<line x1="16" y1="16" x2="31" y2="16"/>
		<line x1="31" y1="1" x2="46" y2="1"/>
		<line x1="31" y1="16" x2="46" y2="16"/>
		<line x1="46" y1="1" x2="61" y2="1"/>
		<line x1="46" y1="16" x2="61" y2="16"/>
		<line x1="61" y1="1" x2="76" y2="1"/>
		<line x1="61" y1="16" x2="76" y2="16"/>
		<line x1="76" y1="1" x2="91" y2="1"/>
		<line x1="76" y1="16" x2="91" y2="16"/>
		<line x1="91" y1="1" x2="106" y2="1"/>
		<line x1="91" y1="16" x2="106" y2="16"/>
		<line x1="106" y1="1" x2="121" y2="1"/>
		<line x1="106" y1="16" x2="121" y2="16"/>
		<line x1="121" y1="1" x2="136" y2="1"/>
		<line x1="121" y1="16" x2="136" y2="16"/>
		<line x1="136" y1="1" x2="151" y2="1"/>
		<line x1="136" y1="16" x2="151" y2="16"/>
		<line x1="151" y1="1" x2="166" y2="1"/>
		<line x1="151" y1="16" x2="166" y2="16"/>
		<line x1="166" y1="1" x2="181" y2="1"/>
		<line x1="166" y1="16" x2="181" y2="16"/>
		<line x1="181" y1="1" x2="196" y2="1"/>
		<line x1="181" y1="16" x2="196" y2="16"/>
		<line x1="196" y1="1" x2="211" y2="1"/>
		<line x1="196" y1="16" x2="211" y2="16"/>
		<line x1="211" y1="1" x2="226" y2="1"/>
		<line x1="226" y1="1" x2="241" y2="1"/>
		<line x1="226" y1="16" x2="241" y2="16"/>
		<line x1="241" y1="1" x2="241" y2="16"/>
		<line x1="16" y1="16" x2="16" y2="31"/>
		<line x1="1" y1="16" x2="1" y2="31"/>
		<line x1="31" y1="31" x2="46" y2="31"/>
		<line x1="46" y1="31" x2="61" y2="31"/>
		<line x1="61" y1="31" x2="76" y2="31"/>
		<line x1="76" y1="31" x2="91" y2="31"/>
		<line x1="91" y1="31" x2="106" y2="31"/>
		<line x1="106" y1="31" x2="121" y2="31"/>
		<line x1="121" y1="31" x2="136" y2="31"/>
		<line x1="136" y1="31" x2="151" y2="31"/>
		<line x1="151" y1="31" x2="166" y2="31"/>
		<line x1="166" y1="31" x2="181" y2="31"/>
		<line x1="181" y1="31" x2="196" y2="31"/>
		<line x1="196" y1="31" x2="211" y2="31"/>
		<line x1="241" y1="16" x2="241" y2="31"/>
		<line x1="16" y1="31" x2="16" y2="46"/>
		<line x1="1" y1="31" x2="1" y2="46"/>
		<line x1="31" y1="31" x2="31" y2="46"/>
		<line x1="61" y1="46" x2="76" y2="46"/>
		<line x1="76" y1="46" x2="91" y2="46"/>
		<line x1="106" y1="31" x2="106" y2="46"/>
		<line x1="106" y1="46" x2="121" y2="46"/>
		<line x1="136" y1="46" x2="151" y2="46"/>
		<line x1="151" y1="46" x2="166" y2="46"/>
		<line x1="166" y1="46" x2="181" y2="46"/>
		<line x1="181" y1="46" x2="196" y2="46"/>
		<line x1="196" y1="46" x2="211" y2="46"/>
		<line x1="211" y1="46" x2="226" y2="46"/>
		<line x1="226" y1="31" x2="226" y2="46"/>
		<line x1="241" y1="31" x2="241" y2="46"/>
		<line x1="16" y1="46" x2="16" y2="61"/>
		<line x1="1" y1="46" x2="1" y2="61"/>
		<line x1="31" y1="46" x2="31" y2="61"/>
		<line x1="46" y1="46" x2="46" y2="61"/>
		<line x1="76" y1="61" x2="91" y2="61"/>
		<line x1="91" y1="46" x2="91" y2="61"/>
		<line x1="91" y1="61" x2="106" y2="61"/>
		<line x1="121" y1="46" x2="121" y2="61"/>
		<line x1="121" y1="61" x2="136" y2="61"/>
		<line x1="136" y1="61" x2="151" y2="61"/>
		<line x1="151" y1="61" x2="166" y2="61"/>
		<line x1="166" y1="61" x2="181" y2="61"/>
		<line x1="181" y1="61" x2="196" y2="61"/>
		<line x1="196" y1="61" x2="211" y2="61"/>
		<line x1="226" y1="46" x2="226" y2="61"/>
		<line x1="241" y1="46" x2="241" y2="61"/>
		<line x1="16" y1="61" x2="16" y2="76"/>
		<line x1="1" y1="61" x2="1" y2="76"/>
		<line x1="31" y1="61" x2="31" y2="76"/>
		<line x1="46" y1="61" x2="46" y2="76"/>
		<line x1="61" y1="61" x2="61" y2="76"/>
		<line x1="91" y1="76" x2="106" y2="76"/>
		<line x1="106" y1="61" x2="106" y2="76"/>
		<line x1="121" y1="76" x2="136" y2="76"/>
		<line x1="151" y1="61" x2="151" y2="76"/>
		<line x1="181" y1="61" x2="181" y2="76"/>
		<line x1="211" y1="61" x2="211" y2="76"/>
		<line x1="226" y1="61" x2="226" y2="76"/>
		<line x1="241" y1="61" x2="241" y2="76"/>
		<line x1="16" y1="76" x2="16" y2="91"/>
		<line x1="1" y1="76" x2="1" y2="91"/>
		<line x1="31" y1="76" x2="31" y2="91"/>
		<line x1="46" y1="76" x2="46" y2="91"/>
		<line x1="61" y1="76" x2="61" y2="91"/>
		<line x1="76" y1="76" x2="76" y2="91"/>
		<line x1="106" y1="76" x2="106" y2="91"/>
		<line x1="106" y1="91" x2="121" y2="91"/>
		<line x1="136" y1="76" x2="136" y2="91"/>
		<line x1="136" y1="91" x2="151" y2="91"/>
		<line x1="151" y1="91" x2="166" y2="91"/>
		<line x1="166" y1="76" x2="166" y2="91"/>
		<line x1="181" y1="76" x2="181" y2="91"/>
		<line x1="196" y1="76" x2="196" y2="91"/>
		<line x1="211" y1="76" x2="211" y2="91"/>
		<line x1="226" y1="76" x2="226" y2="91"/>
		<line x1="241" y1="76" x2="241" y2="91"/>
		<line x1="16" y1="91" x2="16" y2="106"/>
		<line x1="1" y1="91" x2="1" y2="106"/>
		<line x1="31" y1="91" x2="31" y2="106"/>
		<line x1="46" y1="91" x2="46" y2="106"/>
		<line x1="46" y1="106" x2="61" y2="106"/>
		<line x1="61" y1="91" x2="61" y2="106"/>
		<line x1="76" y1="91" x2="76" y2="106"/>
		<line x1="91" y1="91" x2="91" y2="106"/>
		<line x1="121" y1="91" x2="121" y2="106"/>
		<line x1="121" y1="106" x2="136" y2="106"/>
		<line x1="136" y1="106" x2="151" y2="106"/>
		<line x1="151" y1="91" x2="151" y2="106"/>
		<line x1="166" y1="106" x2="181" y2="106"/>
		<line x1="181" y1="91" x2="181" y2="106"/>
		<line x1="196" y1="91" x2="196" y2="106"/>
		<line x1="211" y1="91" x2="211" y2="106"/>
		<line x1="226" y1="91" x2="226" y2="106"/>
		<line x1="241" y1="91" x2="241" y2="106"/>
		<line x1="16" y1="106" x2="16" y2="121"/>
		<line x1="1" y1="106" x2="1" y2="121"/>
		<line x1="31" y1="106" x2="31" y2="121"/>
		<line x1="46" y1="106" x2="46" y2="121"/>
		<line x1="61" y1="106" x2="61" y2="121"/>
		<line x1="91" y1="106" x2="91" y2="121"/>
		<line x1="106" y1="106" x2="106" y2="121"/>
		<line x1="136" y1="106" x2="136" y2="121"/>
		<line x1="151" y1="121" x2="166" y2="121"/>
		<line x1="166" y1="121" x2="181" y2="121"/>
		<line x1="181" y1="106" x2="181" y2="121"/>
		<line x1="196" y1="106" x2="196" y2="121"/>
		<line x1="211" y1="106" x2="211" y2="121"/>
		<line x1="226" y1="106" x2="226" y2="121"/>
		<line x1="241" y1="106" x2="241" y2="121"/>
		<line x1="16" y1="121" x2="16" y2="136"/>
		<line x1="1" y1="121" x2="1" y2="136"/>
		<line x1="31" y1="121" x2="31" y2="136"/>
		<line x1="46" y1="121" x2="46" y2="136"/>
		<line x1="61" y1="121" x2="61" y2="136"/>
		<line x1="76" y1="121" x2="76" y2="136"/>
		<line x1="76" y1="136" x2="91" y2="136"/>
		<line x1="106" y1="121" x2="106" y2="136"/>
		<line x1="106" y1="136" x2="121" y2="136"/>
		<line x1="121" y1="136" x2="136" y2="136"/>
		<line x1="136" y1="121" x2="136" y2="136"/>
		<line x1="136" y1="136" x2="151" y2="136"/>
		<line x1="151" y1="136" x2="166" y2="136"/>
		<line x1="181" y1="121" x2="181" y2="136"/>
		<line x1="196" y1="121" x2="196" y2="136"/>
		<line x1="211" y1="121" x2="211" y2="136"/>
		<line x1="226" y1="121" x2="226" y2="136"/>
		<line x1="241" y1="121" x2="241" y2="136"/>
		<line x1="16" y1="136" x2="16" y2="151"/>
		<line x1="1" y1="136" x2="1" y2="151"/>
		<line x1="31" y1="136" x2="31" y2="151"/>
		<line x1="46" y1="136" x2="46" y2="151"/>
		<line x1="61" y1="136" x2="61" y2="151"/>
		<line x1="61" y1="151" x2="76" y2="151"/>
		<line x1="76" y1="151" x2="91" y2="151"/>
		<line x1="91" y1="151" x2="106" y2="151"/>
		<line x1="106" y1="136" x2="106" y2="151"/>
		<line x1="106" y1="151" x2="121" y2="151"/>
		<line x1="121" y1="151" x2="136" y2="151"/>
		<line x1="151" y1="151" x2="166" y2="151"/>
		<line x1="166" y1="136" x2="166" y2="151"/>
		<line x1="181" y1="136" x2="181" y2="151"/>
		<line x1="196" y1="136" x2="196" y2="151"/>
		<line x1="211" y1="136" x2="211" y2="151"/>
		<line x1="226" y1="136" x2="226" y2="151"/>
		<line x1="241" y1="136" x2="241" y2="151"/>
		<line x1="16" y1="151" x2="16" y2="166"/>
		<line x1="1" y1="151" x2="1" y2="166"/>
		<line x1="31" y1="151" x2="31" y2="166"/>
		<line x1="46" y1="151" x2="46" y2="166"/>
		<line x1="61" y1="151" x2="61" y2="166"/>
		<line x1="76" y1="166" x2="91" y2="166"/>
		<line x1="91" y1="166" x2="106" y2="166"/>
		<line x1="106" y1="166" x2="121" y2="166"/>
		<line x1="136" y1="151" x2="136" y2="166"/>
		<line x1="136" y1="166" x2="151" y2="166"/>
		<line x1="166" y1="151" x2="166" y2="166"/>
		<line x1="181" y1="151" x2="181" y2="166"/>
		<line x1="196" y1="151" x2="196" y2="166"/>
		<line x1="211" y1="151" x2="211" y2="166"/>
		<line x1="226" y1="151" x2="226" y2="166"/>
		<line x1="241" y1="151" x2="241" y2="166"/>
		<line x1="16" y1="166" x2="16" y2="181"/>
		<line x1="1" y1="166" x2="1" y2="181"/>
		<line x1="31" y1="166" x2="31" y2="181"/>
		<line x1="46" y1="166" x2="46" y2="181"/>
		<line x1="61" y1="166" x2="61" y2="181"/>
		<line x1="76" y1="166" x2="76" y2="181"/>
		<line x1="91" y1="181" x2="106" y2="181"/>
		<line x1="121" y1="166" x2="121" y2="181"/>
		<line x1="136" y1="166" x2="136" y2="181"/>
		<line x1="166" y1="166" x2="166" y2="181"/>
		<line x1="181" y1="166" x2="181" y2="181"/>
		<line x1="196" y1="166" x2="196" y2="181"/>
		<line x1="211" y1="166" x2="211" y2="181"/>
		<line x1="226" y1="166" x2="226" y2="181"/>
		<line x1="241" y1="166" x2="241" y2="181"/>
		<line x1="16" y1="181" x2="16" y2="196"/>
		<line x1="1" y1="181" x2="1" y2="196"/>
		<line x1="31" y1="181" x2="31" y2="196"/>
		<line x1="46" y1="181" x2="46" y2="196"/>
		<line x1="61" y1="181" x2="61" y2="196"/>
		<line x1="61" y1="196" x2="76" y2="196"/>
		<line x1="76" y1="196" x2="91" y2="196"/>
		<line x1="91" y1="181" x2="91" y2="196"/>
		<line x1="106" y1="196" x2="121" y2="196"/>
		<line x1="121" y1="181" x2="121" y2="196"/>
		<line x1="136" y1="196" x2="151" y2="196"/>
		<line x1="151" y1="181" x2="151" y2="196"/>
		<line x1="151" y1="196" x2="166" y2="196"/>
		<line x1="166" y1="181" x2="166" y2="196"/>
		<line x1="196" y1="181" x2="196" y2="196"/>
		<line x1="211" y1="181" x2="211" y2="196"/>
		<line x1="226" y1="181" x2="226" y2="196"/>
		<line x1="241" y1="181" x2="241" y2="196"/>
		<line x1="1" y1="196" x2="1" y2="211"/>
		<line x1="31" y1="196" x2="31" y2="211"/>
		<line x1="46" y1="196" x2="46" y2="211"/>
		<line x1="61" y1="211" x2="76" y2="211"/>
		<line x1="76" y1="211" x2="91" y2="211"/>
		<line x1="106" y1="211" x2="121" y2="211"/>
		<line x1="121" y1="196" x2="121" y2="211"/>
		<line x1="136" y1="211" x2="151" y2="211"/>
		<line x1="151" y1="211" x2="166" y2="211"/>
		<line x1="166" y1="196" x2="166" y2="211"/>
		<line x1="166" y1="211" x2="181" y2="211"/>
		<line x1="181" y1="196" x2="181" y2="211"/>
		<line x1="181" y1="211" x2="196" y2="211"/>
		<line x1="196" y1="196" x2="196" y2="211"/>
		<line x1="196" y1="211" x2="211" y2="211"/>
		<line x1="226" y1="196" x2="226" y2="211"/>
		<line x1="241" y1="196" x2="241" y2="211"/>
		<line x1="16" y1="211" x2="16" y2="226"/>
		<line x1="1" y1="211" x2="1" y2="226"/>
		<line x1="31" y1="211" x2="31" y2="226"/>
		<line x1="31" y1="226" x2="46" y2="226"/>
		<line x1="46" y1="226" x2="61" y2="226"/>
		<line x1="61" y1="226" x2="76" y2="226"/>
		<line x1="76" y1="226" x2="91" y2="226"/>
		<line x1="91" y1="226" x2="106" y2="226"/>
		<line x1="106" y1="226" x2="121" y2="226"/>
		<line x1="121" y1="211" x2="121" y2="226"/>
		<line x1="121" y1="226" x2="136" y2="226"/>
		<line x1="136" y1="226" x2="151" y2="226"/>
		<line x1="151" y1="226" x2="166" y2="226"/>
		<line x1="166" y1="226" x2="181" y2="226"/>
		<line x1="181" y1="226" x2="196" y2="226"/>
		<line x1="196" y1="226" x2="211" y2="226"/>
		<line x1="211" y1="226" x2="226" y2="226"/>
		<line x1="226" y1="211" x2="226" y2="226"/>
		<line x1="241" y1="211" x2="241" y2="226"/>
		<line x1="1" y1="241" x2="16" y2="241"/>
		<line x1="16" y1="226" x2="16" y2="241"/>
		<line x1="1" y1="226" x2="1" y2="241"/>
		<line x1="16" y1="241" x2="31" y2="241"/>
		<line x1="31" y1="241" x2="46" y2="241"/>
		<line x1="46" y1="241" x2="61" y2="241"/>
		<line x1="61" y1="241" x2="76" y2="241"/>
		<line x1="76" y1="241" x2="91" y2="241"/>
		<line x1="91" y1="241" x2="106" y2="241"/>
		<line x1="106" y1="241" x2="121" y2="241"/>
		<line x1="121" y1="241" x2="136" y2="241"/>
		<line x1="136" y1="241" x2="151" y2="241"/>
		<line x1="151" y1="241" x2="166" y2="241"/>
		<line x1="166" y1="241" x2="181" y2="241"/>
		<line x1="181" y1="241" x2="196" y2="241"/>
		<line x1="196" y1="241" x2="211" y2="241"/>
		<line x1="211" y1="241" x2="226" y2="241"/>
		<line x1="226" y1="241" x2="241" y2="241"/>
		<line x1="241" y1="226" x2="241" y2="241"/>
	</g>
</svg>