<svg xmlns="http://www.w3.org/2000/svg" width="482" height="482" fill="none" stroke="#000" stroke-width="2" stroke-linecap="square" style="background-color: #FFF">
	<line x1="1" y1="1" x2="16" y2="1"/>
	<line x1="16" y1="1" x2="16" y2="16"/>
	<line x1="1" y1="1" x2="1" y2="16"/>
	<line x1="16" y1="1" x2="31" y2="1"/>
	<line x1="31" y1="1" x2="46" y2="1"/>
	<line x1="31" y1="16" x2="46" y2="16"/>
	<line x1="46" y1="1" x2="61" y2="1"/>
	<line x1="46" y1="16" x2="61" y2="16"/>
	<line x1="61" y1="1" x2="76" y2="1"/>
	<line x1="61" y1="16" x2="76" y2="16"/>
	<line x1="76" y1="1" x2="91" y2="1"/>
	<line x1="76" y1="16" x2="91" y2="16"/>
	<line x1="91" y1="1" x2="106" y2="1"/>
	<line x1="91" y1="16" x2="106" y2="16"/>
	<line x1="106" y1="1" x2="121" y2="1"/>
	<line x1="106" y1="16" x2="121" y2="16"/>
	<line x1="121" y1="1" x2="136" y2="1"/>
	<line x1="136" y1="1" x2="136" y2="16"/>
	<line x1="136" y1="1" x2="151" y2="1"/>
	<line x1="151" y1="1" x2="166" y2="1"/>
	<line x1="151" y1="16" x2="166" y2="16"/>
	<line x1="166" y1="1" x2="181" y2="1"/>
	<line x1="166" y1="16" x2="181" y2="16"/>
	<line x1="181" y1="1" x2="196" y2="1"/>
	<line x1="181" y1="16" x2="196" y2="16"/>
	<line x1="196" y1="1" x2="211" y2="1"/>
	<line x1="196" y1="16" x2="211" y2="16"/>
	<line x1="211" y1="1" x2="226" y2="1"/>
	<line x1="211" y1="16" x2="226" y2="16"/>
	<line x1="226" y1="1" x2="241" y2="1"/>
	<line x1="226" y1="16" x2="241" y2="16"/>
	<line x1="241" y1="1" x2="256" y2="1"/>
	<line x1="241" y1="16" x2="256" y2="16"/>
	<line x1="256" y1="1" x2="271" y2="1"/>
	<line x1="256" y1="16" x2="271" y2="16"/>
	<line x1="271" y1="1" x2="286" y2="1"/>
	<line x1="271" y1="16" x2="286" y2="16"/>
	<line x1="286" y1="1" x2="301" y2="1"/>
	<line x1="286" y1="16" x2="301" y2="16"/>
	<line x1="301" y1="1" x2="316" y2="1"/>
	<line x1="301" y1="16" x2="316" y2="16"/>
	<line x1="316" y1="1" x2="331" y2="1"/>
	<line x1="316" y1="16" x2="331" y2="16"/>
	<line x1="331" y1="1" x2="346" y2="1"/>
	<line x1="331" y1="16" x2="346" y2="16"/>
	<line x1="346" y1="1" x2="361" y2="1"/>
	<line x1="346" y1="16" x2="361" y2="16"/>
	<line x1="361" y1="1" x2="376" y2="1"/>
	<line x1="361" y1="16" x2="376" y2="16"/>
	<line x1="376" y1="1" x2="391" y2="1"/>
	<line x1="376" y1="16" x2="391" y2="16"/>
	<line x1="391" y1="1" x2="406" y2="1"/>
	<line x1="391" y1="16" x2="406" y2="16"/>
	<line x1="406" y1="1" x2="421" y2="1"/>
	<line x1="406" y1="16" x2="421" y2="16"/>
	<line x1="421" y1="1" x2="436" y2="1"/>
	<line x1="421" y1="16" x2="436" y2="16"/>
	<line x1="436" y1="1" x2="451" y2="1"/>
	<line x1="451" y1="1" x2="466" y2="1"/>
	<line x1="466" y1="1" x2="481" y2="1"/>
	<line x1="481" y1="1" x2="481" y2="16"/>
	<line x1="1" y1="16" x2="1" y2="31"/>
	<line x1="16" y1="31" x2="31" y2="31"/>
	<line x1="31" y1="16" x2="31" y2="31"/>
	<line x1="46" y1="31" x2="61" y2="31"/>
	<line x1="61" y1="31" x2="76" y2="31"/>
	<line x1="91" y1="16" x2="91" y2="31"/>
	<line x1="121" y1="16" x2="121" y2="31"/>
	<line x1="136" y1="16" x2="136" y2="31"/>
	<line x1="151" y1="16" x2="151" y2="31"/>
	<line x1="166" y1="16" x2="166" y2="31"/>
	<line x1="181" y1="16" x2="181" y2="31"/>
	<line x1="196" y1="16" x2="196" y2="31"/>
	<line x1="211" y1="16" x2="211" y2="31"/>
	<line x1="226" y1="16" x2="226" y2="31"/>
	<line x1="241" y1="16" x2="241" y2="31"/>
	<line x1="316" y1="16" x2="316" y2="31"/>
	<line x1="331" y1="16" x2="331" y2="31"/>
	<line x1="331" y1="31" x2="346" y2="31"/>
	<line x1="361" y1="31" x2="376" y2="31"/>
	<line x1="391" y1="31" x2="406" y2="31"/>
	<line x1="421" y1="16" x2="421" y2="31"/>
	<line x1="436" y1="16" x2="436" y2="31"/>
	<line x1="436" y1="31" x2="451" y2="31"/>
	<line x1="451" y1="16" x2="451" y2="31"/>
	<line x1="466" y1="16" x2="466" y2="31"/>
	<line x1="481" y1="16" x2="481" y2="31"/>
	<line x1="1" y1="31" x2="1" y2="46"/>
	<line x1="16" y1="46" x2="31" y2="46"/>
	<line x1="31" y1="31" x2="31" y2="46"/>
	<line x1="46" y1="31" x2="46" y2="46"/>
	<line x1="61" y1="46" x2="76" y2="46"/>
	<line x1="76" y1="46" x2="91" y2="46"/>
	<line x1="91" y1="31" x2="91" y2="46"/>
	<line x1="106" y1="31" x2="106" y2="46"/>
	<line x1="121" y1="31" x2="121" y2="46"/>
	<line x1="121" y1="46" x2="136" y2="46"/>
	<line x1="136" y1="46" x2="151" y2="46"/>
	<line x1="151" y1="31" x2="151" y2="46"/>
	<line x1="241" y1="31" x2="241" y2="46"/>
	<line x1="316" y1="31" x2="316" y2="46"/>
	<line x1="361" y1="31" x2="361" y2="46"/>
	<line x1="376" y1="46" x2="391" y2="46"/>
	<line x1="391" y1="31" x2="391" y2="46"/>
	<line x1="421" y1="46" x2="436" y2="46"/>
	<line x1="451" y1="46" x2="466" y2="46"/>
	<line x1="481" y1="31" x2="481" y2="46"/>
	<line x1="1" y1="46" x2="1" y2="61"/>
	<line x1="16" y1="61" x2="31" y2="61"/>
	<line x1="31" y1="46" x2="31" y2="61"/>
	<line x1="46" y1="46" x2="46" y2="61"/>
	<line x1="46" y1="61" x2="61" y2="61"/>
	<line x1="61" y1="61" x2="76" y2="61"/>
	<line x1="76" y1="61" x2="91" y2="61"/>
	<line x1="91" y1="61" x2="106" y2="61"/>
	<line x1="106" y1="46" x2="106" y2="61"/>
	<line x1="106" y1="61" x2="121" y2="61"/>
	<line x1="121" y1="61" x2="136" y2="61"/>
	<line x1="151" y1="46" x2="151" y2="61"/>
	<line x1="166" y1="46" x2="166" y2="61"/>
	<line x1="166" y1="61" x2="181" y2="61"/>
	<line x1="181" y1="46" x2="181" y2="61"/>
	<line x1="181" y1="61" x2="196" y2="61"/>
	<line x1="196" y1="46" x2="196" y2="61"/>
	<line x1="196" y1="61" x2="211" y2="61"/>
	<line x1="211" y1="46" x2="211" y2="61"/>
	<line x1="211" y1="61" x2="226" y2="61"/>
	<line x1="226" y1="46" x2="226" y2="61"/>
	<line x1="241" y1="46" x2="241" y2="61"/>
	<line x1="316" y1="46" x2="316" y2="61"/>
	<line x1="316" y1="61" x2="331" y2="61"/>
	<line x1="331" y1="46" x2="331" y2="61"/>
	<line x1="346" y1="46" x2="346" y2="61"/>
	<line x1="376" y1="46" x2="376" y2="61"/>
	<line x1="406" y1="46" x2="406" y2="61"/>
	<line x1="406" y1="61" x2="421" y2="61"/>
	<line x1="436" y1="46" x2="436" y2="61"/>
	<line x1="451" y1="46" x2="451" y2="61"/>
	<line x1="451" y1="61" x2="466" y2="61"/>
	<line x1="481" y1="46" x2="481" y2="61"/>
	<line x1="16" y1="61" x2="16" y2="76"/>
	<line x1="1" y1="61" x2="1" y2="76"/>
	<line x1="31" y1="76" x2="46" y2="76"/>
	<line x1="46" y1="61" x2="46" y2="76"/>
	<line x1="61" y1="76" x2="76" y2="76"/>
	<line x1="76" y1="76" x2="91" y2="76"/>
	<line x1="91" y1="76" x2="106" y2="76"/>
	<line x1="106" y1="76" x2="121" y2="76"/>
	<line x1="121" y1="76" x2="136" y2="76"/>
	<line x1="136" y1="76" x2="151" y2="76"/>
	<line x1="151" y1="61" x2="151" y2="76"/>
	<line x1="151" y1="76" x2="166" y2="76"/>
	<line x1="166" y1="76" x2="181" y2="76"/>
	<line x1="196" y1="61" x2="196" y2="76"/>
	<line x1="196" y1="76" x2="211" y2="76"/>
	<line x1="226" y1="76" x2="241" y2="76"/>
	<line x1="241" y1="61" x2="241" y2="76"/>
	<line x1="316" y1="61" x2="316" y2="76"/>
	<line x1="331" y1="76" x2="346" y2="76"/>
	<line x1="346" y1="61" x2="346" y2="76"/>
	<line x1="361" y1="61" x2="361" y2="76"/>
	<line x1="361" y1="76" x2="376" y2="76"/>
	<line x1="391" y1="61" x2="391" y2="76"/>
	<line x1="391" y1="76" x2="406" y2="76"/>
	<line x1="421" y1="76" x2="436" y2="76"/>
	<line x1="451" y1="61" x2="451" y2="76"/>
	<line x1="481" y1="61" x2="481" y2="76"/>
	<line x1="16" y1="76" x2="16" y2="91"/>
	<line x1="1" y1="76" x2="1" y2="91"/>
	<line x1="31" y1="76" x2="31" y2="91"/>
	<line x1="46" y1="91" x2="61" y2="91"/>
	<line x1="61" y1="76" x2="61" y2="91"/>
	<line x1="151" y1="76" x2="151" y2="91"/>
	<line x1="181" y1="76" x2="181" y2="91"/>
	<line x1="181" y1="91" x2="196" y2="91"/>
	<line x1="211" y1="76" x2="211" y2="91"/>
	<line x1="211" y1="91" x2="226" y2="91"/>
	<line x1="241" y1="76" x2="241" y2="91"/>
	<line x1="241" y1="91" x2="256" y2="91"/>
	<line x1="256" y1="91" x2="271" y2="91"/>
	<line x1="271" y1="91" x2="286" y2="91"/>
	<line x1="286" y1="91" x2="301" y2="91"/>
	<line x1="301" y1="91" x2="316" y2="91"/>
	<line x1="316" y1="76" x2="316" y2="91"/>
	<line x1="316" y1="91" x2="331" y2="91"/>
	<line x1="346" y1="91" x2="361" y2="91"/>
	<line x1="376" y1="76" x2="376" y2="91"/>
	<line x1="376" y1="91" x2="391" y2="91"/>
	<line x1="391" y1="91" x2="406" y2="91"/>
	<line x1="406" y1="91" x2="421" y2="91"/>
	<line x1="436" y1="76" x2="436" y2="91"/>
	<line x1="466" y1="76" x2="466" y2="91"/>
	<line x1="481" y1="76" x2="481" y2="91"/>
	<line x1="16" y1="91" x2="16" y2="106"/>
	<line x1="1" y1="91" x2="1" y2="106"/>
	<line x1="31" y1="91" x2="31" y2="106"/>
	<line x1="46" y1="91" x2="46" y2="106"/>
	<line x1="151" y1="91" x2="151" y2="106"/>
	<line x1="166" y1="91" x2="166" y2="106"/>
	<line x1="196" y1="91" x2="196" y2="106"/>
	<line x1="196" y1="106" x2="211" y2="106"/>
	<line x1="226" y1="91" x2="226" y2="106"/>
	<line x1="226" y1="106" x2="241" y2="106"/>
	<line x1="241" y1="106" x2="256" y2="106"/>
	<line x1="256" y1="106" x2="271" y2="106"/>
	<line x1="271" y1="106" x2="286" y2="106"/>
	<line x1="286" y1="106" x2="301" y2="106"/>
	<line x1="316" y1="91" x2="316" y2="106"/>
	<line x1="331" y1="91" x2="331" y2="106"/>
	<line x1="346" y1="91" x2="346" y2="106"/>
	<line x1="376" y1="91" x2="376" y2="106"/>
	<line x1="421" y1="91" x2="421" y2="106"/>
	<line x1="436" y1="106" x2="451" y2="106"/>
	<line x1="451" y1="91" x2="451" y2="106"/>
	<line x1="466" y1="91" x2="466" y2="106"/>
	<line x1="481" y1="91" x2="481" y2="106"/>
	<line x1="16" y1="106" x2="16" y2="121"/>
	<line x1="1" y1="106" x2="1" y2="121"/>
	<line x1="31" y1="106" x2="31" y2="121"/>
	<line x1="46" y1="106" x2="46" y2="121"/>
	<line x1="151" y1="106" x2="151" y2="121"/>
	<line x1="166" y1="106" x2="166" y2="121"/>
	<line x1="181" y1="106" x2="181" y2="121"/>
	<line x1="211" y1="106" x2="211" y2="121"/>
	<line x1="211" y1="121" x2="226" y2="121"/>
	<line x1="241" y1="106" x2="241" y2="121"/>
	<line x1="241" y1="121" x2="256" y2="121"/>
	<line x1="271" y1="121" x2="286" y2="121"/>
	<line x1="286" y1="121" x2="301" y2="121"/>
	<line x1="301" y1="121" x2="316" y2="121"/>
	<line x1="316" y1="106" x2="316" y2="121"/>
	<line x1="331" y1="121" x2="346" y2="121"/>
	<line x1="346" y1="121" x2="361" y2="121"/>
	<line x1="361" y1="106" x2="361" y2="121"/>
	<line x1="376" y1="106" x2="376" y2="121"/>
	<line x1="421" y1="106" x2="421" y2="121"/>
	<line x1="421" y1="121" x2="436" y2="121"/>
	<line x1="466" y1="106" x2="466" y2="121"/>
	<line x1="481" y1="106" x2="481" y2="121"/>
	<line x1="16" y1="121" x2="16" y2="136"/>
	<line x1="1" y1="121" x2="1" y2="136"/>
	<line x1="31" y1="121" x2="31" y2="136"/>
	<line x1="46" y1="121" x2="46" y2="136"/>
	<line x1="151" y1="121" x2="151" y2="136"/>
	<line x1="166" y1="121" x2="166" y2="136"/>
	<line x1="181" y1="121" x2="181" y2="136"/>
	<line x1="181" y1="136" x2="196" y2="136"/>
	<line x1="196" y1="121" x2="196" y2="136"/>
	<line x1="196" y1="136" x2="211" y2="136"/>
	<line x1="226" y1="121" x2="226" y2="136"/>
	<line x1="226" y1="136" x2="241" y2="136"/>
	<line x1="256" y1="121" x2="256" y2="136"/>
	<line x1="256" y1="136" x2="271" y2="136"/>
	<line x1="271" y1="136" x2="286" y2="136"/>
	<line x1="286" y1="136" x2="301" y2="136"/>
	<line x1="316" y1="121" x2="316" y2="136"/>
	<line x1="346" y1="136" x2="361" y2="136"/>
	<line x1="361" y1="136" x2="376" y2="136"/>
	<line x1="376" y1="121" x2="376" y2="136"/>
	<line x1="376" y1="136" x2="391" y2="136"/>
	<line x1="391" y1="136" x2="406" y2="136"/>
	<line x1="406" y1="136" x2="421" y2="136"/>
	<line x1="421" y1="121" x2="421" y2="136"/>
	<line x1="436" y1="121" x2="436" y2="136"/>
	<line x1="451" y1="121" x2="451" y2="136"/>
	<line x1="451" y1="136" x2="466" y2="136"/>
	<line x1="466" y1="121" x2="466" y2="136"/>
	<line x1="481" y1="121" x2="481" y2="136"/>
	<line x1="16" y1="136" x2="16" y2="151"/>
	<line x1="1" y1="136" x2="1" y2="151"/>
	<line x1="31" y1="136" x2="31" y2="151"/>
	<line x1="46" y1="136" x2="46" y2="151"/>
	<line x1="151" y1="136" x2="151" y2="151"/>
	<line x1="166" y1="136" x2="166" y2="151"/>
	<line x1="166" y1="151" x2="181" y2="151"/>
	<line x1="181" y1="151" x2="196" y2="151"/>
	<line x1="211" y1="136" x2="211" y2="151"/>
	<line x1="211" y1="151" x2="226" y2="151"/>
	<line x1="241" y1="136" x2="241" y2="151"/>
	<line x1="241" y1="151" x2="256" y2="151"/>
	<line x1="271" y1="136" x2="271" y2="151"/>
	<line x1="301" y1="136" x2="301" y2="151"/>
	<line x1="316" y1="136" x2="316" y2="151"/>
	<line x1="331" y1="136" x2="331" y2="151"/>
	<line x1="346" y1="136" x2="346" y2="151"/>
	<line x1="376" y1="151" x2="391" y2="151"/>
	<line x1="391" y1="136" x2="391" y2="151"/>
	<line x1="406" y1="136" x2="406" y2="151"/>
	<line x1="406" y1="151" x2="421" y2="151"/>
	<line x1="436" y1="151" x2="451" y2="151"/>
	<line x1="466" y1="136" x2="466" y2="151"/>
	<line x1="481" y1="136" x2="481" y2="151"/>
	<line x1="16" y1="151" x2="16" y2="166"/>
	<line x1="1" y1="151" x2="1" y2="166"/>
	<line x1="31" y1="151" x2="31" y2="166"/>
	<line x1="46" y1="151" x2="46" y2="166"/>
	<line x1="151" y1="151" x2="151" y2="166"/>
	<line x1="166" y1="151" x2="166" y2="166"/>
	<line x1="181" y1="166" x2="196" y2="166"/>
	<line x1="196" y1="166" x2="211" y2="166"/>
	<line x1="211" y1="151" x2="211" y2="166"/>
	<line x1="211" y1="166" x2="226" y2="166"/>
	<line x1="226" y1="166" x2="241" y2="166"/>
	<line x1="256" y1="151" x2="256" y2="166"/>
	<line x1="256" y1="166" x2="271" y2="166"/>
	<line x1="286" y1="151" x2="286" y2="166"/>
	<line x1="301" y1="151" x2="301" y2="166"/>
	<line x1="316" y1="151" x2="316" y2="166"/>
	<line x1="331" y1="151" x2="331" y2="166"/>
	<line x1="331" y1="166" x2="346" y2="166"/>
	<line x1="361" y1="151" x2="361" y2="166"/>
	<line x1="361" y1="166" x2="376" y2="166"/>
	<line x1="391" y1="166" x2="406" y2="166"/>
	<line x1="421" y1="166" x2="436" y2="166"/>
	<line x1="451" y1="151" x2="451" y2="166"/>
	<line x1="466" y1="151" x2="466" y2="166"/>
	<line x1="481" y1="151" x2="481" y2="166"/>
	<line x1="16" y1="166" x2="16" y2="181"/>
	<line x1="1" y1="166" x2="1" y2="181"/>
	<line x1="31" y1="166" x2="31" y2="181"/>
	<line x1="46" y1="166" x2="46" y2="181"/>
	<line x1="46" y1="181" x2="61" y2="181"/>
	<line x1="61" y1="181" x2="76" y2="181"/>
	<line x1="76" y1="181" x2="91" y2="181"/>
	<line x1="91" y1="181" x2="106" y2="181"/>
	<line x1="106" y1="181" x2="121" y2="181"/>
	<line x1="121" y1="181" x2="136" y2="181"/>
	<line x1="136" y1="181" x2="151" y2="181"/>
	<line x1="151" y1="166" x2="151" y2="181"/>
	<line x1="166" y1="166" x2="166" y2="181"/>
	<line x1="181" y1="166" x2="181" y2="181"/>
	<line x1="196" y1="181" x2="211" y2="181"/>
	<line x1="211" y1="181" x2="226" y2="181"/>
	<line x1="226" y1="181" x2="241" y2="181"/>
	<line x1="241" y1="181" x2="256" y2="181"/>
	<line x1="256" y1="181" x2="271" y2="181"/>
	<line x1="271" y1="166" x2="271" y2="181"/>
	<line x1="271" y1="181" x2="286" y2="181"/>
	<line x1="286" y1="166" x2="286" y2="181"/>
	<line x1="301" y1="166" x2="301" y2="181"/>
	<line x1="316" y1="166" x2="316" y2="181"/>
	<line x1="346" y1="166" x2="346" y2="181"/>
	<line x1="346" y1="181" x2="361" y2="181"/>
	<line x1="376" y1="166" x2="376" y2="181"/>
	<line x1="376" y1="181" x2="391" y2="181"/>
	<line x1="391" y1="166" x2="391" y2="181"/>
	<line x1="391" y1="181" x2="406" y2="181"/>
	<line x1="406" y1="181" x2="421" y2="181"/>
	<line x1="421" y1="181" x2="436" y2="181"/>
	<line x1="436" y1="166" x2="436" y2="181"/>
	<line x1="436" y1="181" x2="451" y2="181"/>
	<line x1="451" y1="181" x2="466" y2="181"/>
	<line x1="466" y1="166" x2="466" y2="181"/>
	<line x1="481" y1="166" x2="481" y2="181"/>
	<line x1="16" y1="181" x2="16" y2="196"/>
	<line x1="1" y1="181" x2="1" y2="196"/>
	<line x1="31" y1="181" x2="31" y2="196"/>
	<line x1="31" y1="196" x2="46" y2="196"/>
	<line x1="46" y1="196" x2="61" y2="196"/>
	<line x1="61" y1="196" x2="76" y2="196"/>
	<line x1="76" y1="196" x2="91" y2="196"/>
	<line x1="91" y1="196" x2="106" y2="196"/>
	<line x1="106" y1="196" x2="121" y2="196"/>
	<line x1="136" y1="181" x2="136" y2="196"/>
	<line x1="136" y1="196" x2="151" y2="196"/>
	<line x1="166" y1="181" x2="166" y2="196"/>
	<line x1="181" y1="181" x2="181" y2="196"/>
	<line x1="181" y1="196" x2="196" y2="196"/>
	<line x1="196" y1="196" x2="211" y2="196"/>
	<line x1="211" y1="196" x2="226" y2="196"/>
	<line x1="226" y1="196" x2="241" y2="196"/>
	<line x1="241" y1="196" x2="256" y2="196"/>
	<line x1="256" y1="196" x2="271" y2="196"/>
	<line x1="271" y1="196" x2="286" y2="196"/>
	<line x1="286" y1="196" x2="301" y2="196"/>
	<line x1="301" y1="181" x2="301" y2="196"/>
	<line x1="301" y1="196" x2="316" y2="196"/>
	<line x1="316" y1="196" x2="331" y2="196"/>
	<line x1="331" y1="181" x2="331" y2="196"/>
	<line x1="331" y1="196" x2="346" y2="196"/>
	<line x1="361" y1="181" x2="361" y2="196"/>
	<line x1="361" y1="196" x2="376" y2="196"/>
	<line x1="376" y1="196" x2="391" y2="196"/>
	<line x1="391" y1="196" x2="406" y2="196"/>
	<line x1="406" y1="196" x2="421" y2="196"/>
	<line x1="421" y1="196" x2="436" y2="196"/>
	<line x1="436" y1="196" x2="451" y2="196"/>
	<line x1="466" y1="181" x2="466" y2="196"/>
	<line x1="481" y1="181" x2="481" y2="196"/>
	<line x1="16" y1="196" x2="16" y2="211"/>
	<line x1="1" y1="196" x2="1" y2="211"/>
	<line x1="31" y1="196" x2="31" y2="211"/>
	<line x1="46" y1="211" x2="61" y2="211"/>
	<line x1="61" y1="211" x2="76" y2="211"/>
	<line x1="76" y1="211" x2="91" y2="211"/>
	<line x1="91" y1="211" x2="106" y2="211"/>
	<line x1="106" y1="211" x2="121" y2="211"/>
	<line x1="121" y1="196" x2="121" y2="211"/>
	<line x1="136" y1="196" x2="136" y2="211"/>
	<line x1="151" y1="211" x2="166" y2="211"/>
	<line x1="166" y1="196" x2="166" y2="211"/>
	<line x1="166" y1="211" x2="181" y2="211"/>
	<line x1="181" y1="211" x2="196" y2="211"/>
	<line x1="196" y1="211" x2="211" y2="211"/>
	<line x1="211" y1="211" x2="226" y2="211"/>
	<line x1="226" y1="211" x2="241" y2="211"/>
	<line x1="241" y1="211" x2="256" y2="211"/>
	<line x1="256" y1="211" x2="271" y2="211"/>
	<line x1="271" y1="211" x2="286" y2="211"/>
	<line x1="286" y1="211" x2="301" y2="211"/>
	<line x1="316" y1="196" x2="316" y2="211"/>
	<line x1="316" y1="211" x2="331" y2="211"/>
	<line x1="331" y1="211" x2="346" y2="211"/>
	<line x1="346" y1="211" x2="361" y2="211"/>
	<line x1="361" y1="211" x2="376" y2="211"/>
	<line x1="376" y1="211" x2="391" y2="211"/>
	<line x1="391" y1="211" x2="406" y2="211"/>
	<line x1="406" y1="211" x2="421" y2="211"/>
	<line x1="421" y1="211" x2="436" y2="211"/>
	<line x1="451" y1="196" x2="451" y2="211"/>
	<line x1="466" y1="196" x2="466" y2="211"/>
	<line x1="481" y1="196" x2="481" y2="211"/>
	<line x1="16" y1="211" x2="16" y2="226"/>
	<line x1="1" y1="211" x2="1" y2="226"/>
	<line x1="31" y1="211" x2="31" y2="226"/>
	<line x1="31" y1="226" x2="46" y2="226"/>
	<line x1="46" y1="226" x2="61" y2="226"/>
	<line x1="76" y1="226" x2="91" y2="226"/>
	<line x1="91" y1="226" x2="106" y2="226"/>
	<line x1="121" y1="211" x2="121" y2="226"/>
	<line x1="136" y1="211" x2="136" y2="226"/>
	<line x1="151" y1="211" x2="151" y2="226"/>
	<line x1="196" y1="211" x2="196" y2="226"/>
	<line x1="211" y1="211" x2="211" y2="226"/>
	<line x1="226" y1="226" x2="241" y2="226"/>
	<line x1="241" y1="226" x2="256" y2="226"/>
	<line x1="256" y1="226" x2="271" y2="226"/>
	<line x1="271" y1="226" x2="286" y2="226"/>
	<line x1="286" y1="226" x2="301" y2="226"/>
	<line x1="301" y1="226" x2="316" y2="226"/>
	<line x1="316" y1="211" x2="316" y2="226"/>
	<line x1="331" y1="226" x2="346" y2="226"/>
	<line x1="361" y1="211" x2="361" y2="226"/>
	<line x1="361" y1="226" x2="376" y2="226"/>
	<line x1="376" y1="226" x2="391" y2="226"/>
	<line x1="391" y1="226" x2="406" y2="226"/>
	<line x1="406" y1="226" x2="421" y2="226"/>
	<line x1="421" y1="226" x2="436" y2="226"/>
	<line x1="451" y1="211" x2="451" y2="226"/>
	<line x1="466" y1="211" x2="466" y2="226"/>
	<line x1="481" y1="211" x2="481" y2="226"/>
	<line x1="16" y1="226" x2="16" y2="241"/>
	<line x1="1" y1="226" x2="1" y2="241"/>
	<line x1="16" y1="241" x2="31" y2="241"/>
	<line x1="31" y1="241" x2="46" y2="241"/>
	<line x1="61" y1="226" x2="61" y2="241"/>
	<line x1="76" y1="241" x2="91" y2="241"/>
	<line x1="91" y1="241" x2="106" y2="241"/>
	<line x1="106" y1="241" x2="121" y2="241"/>
	<line x1="121" y1="226" x2="121" y2="241"/>
	<line x1="136" y1="226" x2="136" y2="241"/>
	<line x1="151" y1="226" x2="151" y2="241"/>
	<line x1="166" y1="226" x2="166" y2="241"/>
	<line x1="181" y1="226" x2="181" y2="241"/>
	<line x1="226" y1="226" x2="226" y2="241"/>
	<line x1="241" y1="226" x2="241" y2="241"/>
	<line x1="256" y1="241" x2="271" y2="241"/>
	<line x1="271" y1="241" x2="286" y2="241"/>
	<line x1="286" y1="241" x2="301" y2="241"/>
	<line x1="316" y1="226" x2="316" y2="241"/>
	<line x1="331" y1="226" x2="331" y2="241"/>
	<line x1="346" y1="241" x2="361" y2="241"/>
	<line x1="361" y1="226" x2="361" y2="241"/>
	<line x1="436" y1="226" x2="436" y2="241"/>
	<line x1="451" y1="226" x2="451" y2="241"/>
	<line x1="466" y1="226" x2="466" y2="241"/>
	<line x1="481" y1="226" x2="481" y2="241"/>
	<line x1="16" y1="241" x2="16" y2="256"/>
	<line x1="1" y1="241" x2="1" y2="256"/>
	<line x1="31" y1="256" x2="46" y2="256"/>
	<line x1="61" y1="241" x2="61" y2="256"/>
	<line x1="76" y1="256" x2="91" y2="256"/>
	<line x1="91" y1="241" x2="91" y2="256"/>
	<line x1="106" y1="256" x2="121" y2="256"/>
	<line x1="121" y1="256" x2="136" y2="256"/>
	<line x1="136" y1="241" x2="136" y2="256"/>
	<line x1="151" y1="241" x2="151" y2="256"/>
	<line x1="196" y1="241" x2="196" y2="256"/>
	<line x1="211" y1="241" x2="211" y2="256"/>
	<line x1="256" y1="241" x2="256" y2="256"/>
	<line x1="301" y1="241" x2="301" y2="256"/>
	<line x1="316" y1="241" x2="316" y2="256"/>
	<line x1="331" y1="241" x2="331" y2="256"/>
	<line x1="331" y1="256" x2="346" y2="256"/>
	<line x1="361" y1="241" x2="361" y2="256"/>
	<line x1="436" y1="241" x2="436" y2="256"/>
	<line x1="451" y1="241" x2="451" y2="256"/>
	<line x1="466" y1="241" x2="466" y2="256"/>
	<line x1="481" y1="241" x2="481" y2="256"/>
	<line x1="16" y1="256" x2="16" y2="271"/>
	<line x1="1" y1="256" x2="1" y2="271"/>
	<line x1="31" y1="256" x2="31" y2="271"/>
	<line x1="46" y1="271" x2="61" y2="271"/>
	<line x1="61" y1="256" x2="61" y2="271"/>
	<line x1="76" y1="271" x2="91" y2="271"/>
	<line x1="91" y1="256" x2="91" y2="271"/>
	<line x1="106" y1="271" x2="121" y2="271"/>
	<line x1="121" y1="271" x2="136" y2="271"/>
	<line x1="136" y1="256" x2="136" y2="271"/>
	<line x1="166" y1="256" x2="166" y2="271"/>
	<line x1="181" y1="256" x2="181" y2="271"/>
	<line x1="226" y1="256" x2="226" y2="271"/>
	<line x1="241" y1="256" x2="241" y2="271"/>
	<line x1="301" y1="256" x2="301" y2="271"/>
	<line x1="316" y1="256" x2="316" y2="271"/>
	<line x1="331" y1="256" x2="331" y2="271"/>
	<line x1="346" y1="271" x2="361" y2="271"/>
	<line x1="361" y1="256" x2="361" y2="271"/>
	<line x1="436" y1="256" x2="436" y2="271"/>
	<line x1="451" y1="256" x2="451" y2="271"/>
	<line x1="466" y1="256" x2="466" y2="271"/>
	<line x1="481" y1="256" x2="481" y2="271"/>
	<line x1="16" y1="271" x2="16" y2="286"/>
	<line x1="1" y1="271" x2="1" y2="286"/>
	<line x1="31" y1="271" x2="31" y2="286"/>
	<line x1="46" y1="271" x2="46" y2="286"/>
	<line x1="61" y1="286" x2="76" y2="286"/>
	<line x1="76" y1="286" x2="91" y2="286"/>
	<line x1="91" y1="286" x2="106" y2="286"/>
	<line x1="106" y1="286" x2="121" y2="286"/>
	<line x1="121" y1="286" x2="136" y2="286"/>
	<line x1="136" y1="271" x2="136" y2="286"/>
	<line x1="151" y1="271" x2="151" y2="286"/>
	<line x1="196" y1="271" x2="196" y2="286"/>
	<line x1="211" y1="271" x2="211" y2="286"/>
	<line x1="256" y1="271" x2="256" y2="286"/>
	<line x1="256" y1="286" x2="271" y2="286"/>
	<line x1="271" y1="286" x2="286" y2="286"/>
	<line x1="286" y1="286" x2="301" y2="286"/>
	<line x1="301" y1="271" x2="301" y2="286"/>
	<line x1="316" y1="271" x2="316" y2="286"/>
	<line x1="331" y1="271" x2="331" y2="286"/>
	<line x1="331" y1="286" x2="346" y2="286"/>
	<line x1="361" y1="271" x2="361" y2="286"/>
	<line x1="436" y1="271" x2="436" y2="286"/>
	<line x1="451" y1="271" x2="451" y2="286"/>
	<line x1="466" y1="271" x2="466" y2="286"/>
	<line x1="481" y1="271" x2="481" y2="286"/>
	<line x1="16" y1="286" x2="16" y2="301"/>
	<line x1="1" y1="286" x2="1" y2="301"/>
	<line x1="31" y1="286" x2="31" y2="301"/>
	<line x1="46" y1="286" x2="46" y2="301"/>
	<line x1="61" y1="286" x2="61" y2="301"/>
	<line x1="136" y1="286" x2="136" y2="301"/>
	<line x1="151" y1="286" x2="151" y2="301"/>
	<line x1="166" y1="286" x2="166" y2="301"/>
	<line x1="181" y1="286" x2="181" y2="301"/>
	<line x1="226" y1="286" x2="226" y2="301"/>
	<line x1="226" y1="301" x2="241" y2="301"/>
	<line x1="241" y1="286" x2="241" y2="301"/>
	<line x1="241" y1="301" x2="256" y2="301"/>
	<line x1="256" y1="301" x2="271" y2="301"/>
	<line x1="271" y1="301" x2="286" y2="301"/>
	<line x1="286" y1="301" x2="301" y2="301"/>
	<line x1="301" y1="301" x2="316" y2="301"/>
	<line x1="316" y1="286" x2="316" y2="301"/>
	<line x1="331" y1="286" x2="331" y2="301"/>
	<line x1="346" y1="301" x2="361" y2="301"/>
	<line x1="361" y1="286" x2="361" y2="301"/>
	<line x1="361" y1="301" x2="376" y2="301"/>
	<line x1="376" y1="301" x2="391" y2="301"/>
	<line x1="391" y1="301" x2="406" y2="301"/>
	<line x1="406" y1="301" x2="421" y2="301"/>
	<line x1="421" y1="301" x2="436" y2="301"/>
	<line x1="436" y1="286" x2="436" y2="301"/>
	<line x1="451" y1="286" x2="451" y2="301"/>
	<line x1="466" y1="286" x2="466" y2="301"/>
	<line x1="481" y1="286" x2="481" y2="301"/>
	<line x1="16" y1="301" x2="16" y2="316"/>
	<line x1="1" y1="301" x2="1" y2="316"/>
	<line x1="31" y1="316" x2="46" y2="316"/>
	<line x1="46" y1="301" x2="46" y2="316"/>
	<line x1="61" y1="301" x2="61" y2="316"/>
	<line x1="136" y1="301" x2="136" y2="316"/>
	<line x1="151" y1="301" x2="151" y2="316"/>
	<line x1="166" y1="316" x2="181" y2="316"/>
	<line x1="181" y1="316" x2="196" y2="316"/>
	<line x1="196" y1="301" x2="196" y2="316"/>
	<line x1="196" y1="316" x2="211" y2="316"/>
	<line x1="211" y1="301" x2="211" y2="316"/>
	<line x1="211" y1="316" x2="226" y2="316"/>
	<line x1="226" y1="316" x2="241" y2="316"/>
	<line x1="241" y1="316" x2="256" y2="316"/>
	<line x1="256" y1="316" x2="271" y2="316"/>
	<line x1="271" y1="316" x2="286" y2="316"/>
	<line x1="301" y1="316" x2="316" y2="316"/>
	<line x1="331" y1="301" x2="331" y2="316"/>
	<line x1="331" y1="316" x2="346" y2="316"/>
	<line x1="361" y1="301" x2="361" y2="316"/>
	<line x1="361" y1="316" x2="376" y2="316"/>
	<line x1="376" y1="316" x2="391" y2="316"/>
	<line x1="391" y1="316" x2="406" y2="316"/>
	<line x1="406" y1="316" x2="421" y2="316"/>
	<line x1="421" y1="316" x2="436" y2="316"/>
	<line x1="451" y1="301" x2="451" y2="316"/>
	<line x1="466" y1="301" x2="466" y2="316"/>
	<line x1="481" y1="301" x2="481" y2="316"/>
	<line x1="16" y1="316" x2="16" y2="331"/>
	<line x1="1" y1="316" x2="1" y2="331"/>
	<line x1="31" y1="316" x2="31" y2="331"/>
	<line x1="46" y1="331" x2="61" y2="331"/>
	<line x1="61" y1="316" x2="61" y2="331"/>
	<line x1="136" y1="316" x2="136" y2="331"/>
	<line x1="151" y1="316" x2="151" y2="331"/>
	<line x1="151" y1="331" x2="166" y2="331"/>
	<line x1="166" y1="316" x2="166" y2="331"/>
	<line x1="166" y1="331" x2="181" y2="331"/>
	<line x1="196" y1="331" x2="211" y2="331"/>
	<line x1="211" y1="331" x2="226" y2="331"/>
	<line x1="226" y1="331" x2="241" y2="331"/>
	<line x1="241" y1="331" x2="256" y2="331"/>
	<line x1="256" y1="331" x2="271" y2="331"/>
	<line x1="286" y1="316" x2="286" y2="331"/>
	<line x1="286" y1="331" x2="301" y2="331"/>
	<line x1="301" y1="331" x2="316" y2="331"/>
	<line x1="316" y1="331" x2="331" y2="331"/>
	<line x1="331" y1="316" x2="331" y2="331"/>
	<line x1="346" y1="331" x2="361" y2="331"/>
	<line x1="361" y1="316" x2="361" y2="331"/>
	<line x1="376" y1="316" x2="376" y2="331"/>
	<line x1="391" y1="316" x2="391" y2="331"/>
	<line x1="406" y1="316" x2="406" y2="331"/>
	<line x1="421" y1="331" x2="436" y2="331"/>
	<line x1="436" y1="331" x2="451" y2="331"/>
	<line x1="451" y1="316" x2="451" y2="331"/>
	<line x1="466" y1="316" x2="466" y2="331"/>
	<line x1="481" y1="316" x2="481" y2="331"/>
	<line x1="16" y1="331" x2="16" y2="346"/>
	<line x1="1" y1="331" x2="1" y2="346"/>
	<line x1="31" y1="331" x2="31" y2="346"/>
	<line x1="46" y1="331" x2="46" y2="346"/>
	<line x1="61" y1="331" x2="61" y2="346"/>
	<line x1="136" y1="331" x2="136" y2="346"/>
	<line x1="136" y1="346" x2="151" y2="346"/>
	<line x1="151" y1="346" x2="166" y2="346"/>
	<line x1="181" y1="331" x2="181" y2="346"/>
	<line x1="181" y1="346" x2="196" y2="346"/>
	<line x1="211" y1="346" x2="226" y2="346"/>
	<line x1="226" y1="346" x2="241" y2="346"/>
	<line x1="256" y1="346" x2="271" y2="346"/>
	<line x1="271" y1="331" x2="271" y2="346"/>
	<line x1="286" y1="331" x2="286" y2="346"/>
	<line x1="301" y1="346" x2="316" y2="346"/>
	<line x1="316" y1="346" x2="331" y2="346"/>
	<line x1="331" y1="346" x2="346" y2="346"/>
	<line x1="346" y1="331" x2="346" y2="346"/>
	<line x1="361" y1="346" x2="376" y2="346"/>
	<line x1="376" y1="346" x2="391" y2="346"/>
	<line x1="406" y1="331" x2="406" y2="346"/>
	<line x1="421" y1="331" x2="421" y2="346"/>
	<line x1="436" y1="346" x2="451" y2="346"/>
	<line x1="451" y1="346" x2="466" y2="346"/>
	<line x1="466" y1="331" x2="466" y2="346"/>
	<line x1="481" y1="331" x2="481" y2="346"/>
	<line x1="16" y1="346" x2="16" y2="361"/>
	<line x1="1" y1="346" x2="1" y2="361"/>
	<line x1="31" y1="346" x2="31" y2="361"/>
	<line x1="46" y1="346" x2="46" y2="361"/>
	<line x1="61" y1="346" x2="61" y2="361"/>
	<line x1="61" y1="361" x2="76" y2="361"/>
	<line x1="76" y1="361" x2="91" y2="361"/>
	<line x1="91" y1="361" x2="106" y2="361"/>
	<line x1="106" y1="361" x2="121" y2="361"/>
	<line x1="121" y1="361" x2="136" y2="361"/>
	<line x1="136" y1="346" x2="136" y2="361"/>
	<line x1="166" y1="346" x2="166" y2="361"/>
	<line x1="166" y1="361" x2="181" y2="361"/>
	<line x1="196" y1="346" x2="196" y2="361"/>
	<line x1="196" y1="361" x2="211" y2="361"/>
	<line x1="211" y1="361" x2="226" y2="361"/>
	<line x1="226" y1="361" x2="241" y2="361"/>
	<line x1="241" y1="361" x2="256" y2="361"/>
	<line x1="286" y1="346" x2="286" y2="361"/>
	<line x1="301" y1="346" x2="301" y2="361"/>
	<line x1="316" y1="361" x2="331" y2="361"/>
	<line x1="346" y1="346" x2="346" y2="361"/>
	<line x1="346" y1="361" x2="361" y2="361"/>
	<line x1="361" y1="361" x2="376" y2="361"/>
	<line x1="391" y1="346" x2="391" y2="361"/>
	<line x1="421" y1="346" x2="421" y2="361"/>
	<line x1="436" y1="346" x2="436" y2="361"/>
	<line x1="451" y1="361" x2="466" y2="361"/>
	<line x1="466" y1="361" x2="481" y2="361"/>
	<line x1="481" y1="346" x2="481" y2="361"/>
	<line x1="1" y1="376" x2="16" y2="376"/>
	<line x1="1" y1="361" x2="1" y2="376"/>
	<line x1="31" y1="361" x2="31" y2="376"/>
	<line x1="31" y1="376" x2="46" y2="376"/>
	<line x1="46" y1="376" x2="61" y2="376"/>
	<line x1="61" y1="376" x2="76" y2="376"/>
	<line x1="76" y1="376" x2="91" y2="376"/>
	<line x1="91" y1="376" x2="106" y2="376"/>
	<line x1="121" y1="361" x2="121" y2="376"/>
	<line x1="136" y1="361" x2="136" y2="376"/>
	<line x1="151" y1="361" x2="151" y2="376"/>
	<line x1="166" y1="361" x2="166" y2="376"/>
	<line x1="181" y1="361" x2="181" y2="376"/>
	<line x1="181" y1="376" x2="196" y2="376"/>
	<line x1="196" y1="376" x2="211" y2="376"/>
	<line x1="211" y1="376" x2="226" y2="376"/>
	<line x1="226" y1="376" x2="241" y2="376"/>
	<line x1="256" y1="361" x2="256" y2="376"/>
	<line x1="271" y1="361" x2="271" y2="376"/>
	<line x1="286" y1="361" x2="286" y2="376"/>
	<line x1="301" y1="361" x2="301" y2="376"/>
	<line x1="316" y1="361" x2="316" y2="376"/>
	<line x1="331" y1="376" x2="346" y2="376"/>
	<line x1="346" y1="376" x2="361" y2="376"/>
	<line x1="361" y1="376" x2="376" y2="376"/>
	<line x1="376" y1="376" x2="391" y2="376"/>
	<line x1="391" y1="361" x2="391" y2="376"/>
	<line x1="391" y1="376" x2="406" y2="376"/>
	<line x1="406" y1="361" x2="406" y2="376"/>
	<line x1="421" y1="361" x2="421" y2="376"/>
	<line x1="436" y1="361" x2="436" y2="376"/>
	<line x1="436" y1="376" x2="451" y2="376"/>
	<line x1="451" y1="376" x2="466" y2="376"/>
	<line x1="481" y1="361" x2="481" y2="376"/>
	<line x1="1" y1="376" x2="1" y2="391"/>
	<line x1="31" y1="376" x2="31" y2="391"/>
	<line x1="61" y1="376" x2="61" y2="391"/>
	<line x1="76" y1="376" x2="76" y2="391"/>
	<line x1="106" y1="391" x2="121" y2="391"/>
	<line x1="121" y1="376" x2="121" y2="391"/>
	<line x1="136" y1="376" x2="136" y2="391"/>
	<line x1="151" y1="391" x2="166" y2="391"/>
	<line x1="166" y1="376" x2="166" y2="391"/>
	<line x1="181" y1="376" x2="181" y2="391"/>
	<line x1="241" y1="376" x2="241" y2="391"/>
	<line x1="256" y1="376" x2="256" y2="391"/>
	<line x1="271" y1="376" x2="271" y2="391"/>
	<line x1="271" y1="391" x2="286" y2="391"/>
	<line x1="301" y1="376" x2="301" y2="391"/>
	<line x1="316" y1="376" x2="316" y2="391"/>
	<line x1="316" y1="391" x2="331" y2="391"/>
	<line x1="331" y1="376" x2="331" y2="391"/>
	<line x1="346" y1="391" x2="361" y2="391"/>
	<line x1="361" y1="391" x2="376" y2="391"/>
	<line x1="376" y1="391" x2="391" y2="391"/>
	<line x1="406" y1="376" x2="406" y2="391"/>
	<line x1="406" y1="391" x2="421" y2="391"/>
	<line x1="421" y1="391" x2="436" y2="391"/>
	<line x1="436" y1="391" x2="451" y2="391"/>
	<line x1="451" y1="391" x2="466" y2="391"/>
	<line x1="466" y1="376" x2="466" y2="391"/>
	<line x1="481" y1="376" x2="481" y2="391"/>
	<line x1="16" y1="391" x2="16" y2="406"/>
	<line x1="1" y1="391" x2="1" y2="406"/>
	<line x1="31" y1="391" x2="31" y2="406"/>
	<line x1="46" y1="391" x2="46" y2="406"/>
	<line x1="61" y1="391" x2="61" y2="406"/>
	<line x1="76" y1="406" x2="91" y2="406"/>
	<line x1="91" y1="391" x2="91" y2="406"/>
	<line x1="106" y1="391" x2="106" y2="406"/>
	<line x1="121" y1="406" x2="136" y2="406"/>
	<line x1="136" y1="391" x2="136" y2="406"/>
	<line x1="151" y1="391" x2="151" y2="406"/>
	<line x1="166" y1="391" x2="166" y2="406"/>
	<line x1="181" y1="391" x2="181" y2="406"/>
	<line x1="241" y1="391" x2="241" y2="406"/>
	<line x1="256" y1="391" x2="256" y2="406"/>
	<line x1="256" y1="406" x2="271" y2="406"/>
	<line x1="286" y1="391" x2="286" y2="406"/>
	<line x1="301" y1="391" x2="301" y2="406"/>
	<line x1="301" y1="406" x2="316" y2="406"/>
	<line x1="331" y1="391" x2="331" y2="406"/>
	<line x1="346" y1="391" x2="346" y2="406"/>
	<line x1="391" y1="391" x2="391" y2="406"/>
	<line x1="406" y1="406" x2="421" y2="406"/>
	<line x1="421" y1="406" x2="436" y2="406"/>
	<line x1="436" y1="406" x2="451" y2="406"/>
	<line x1="466" y1="391" x2="466" y2="406"/>
	<line x1="481" y1="391" x2="481" y2="406"/>
	<line x1="16" y1="406" x2="16" y2="421"/>
	<line x1="1" y1="406" x2="1" y2="421"/>
	<line x1="16" y1="421" x2="31" y2="421"/>
	<line x1="46" y1="406" x2="46" y2="421"/>
	<line x1="61" y1="406" x2="61" y2="421"/>
	<line x1="91" y1="406" x2="91" y2="421"/>
	<line x1="106" y1="406" x2="106" y2="421"/>
	<line x1="106" y1="421" x2="121" y2="421"/>
	<line x1="136" y1="406" x2="136" y2="421"/>
	<line x1="151" y1="406" x2="151" y2="421"/>
	<line x1="181" y1="406" x2="181" y2="421"/>
	<line x1="241" y1="406" x2="241" y2="421"/>
	<line x1="241" y1="421" x2="256" y2="421"/>
	<line x1="256" y1="421" x2="271" y2="421"/>
	<line x1="271" y1="421" x2="286" y2="421"/>
	<line x1="286" y1="406" x2="286" y2="421"/>
	<line x1="301" y1="406" x2="301" y2="421"/>
	<line x1="316" y1="421" x2="331" y2="421"/>
	<line x1="331" y1="406" x2="331" y2="421"/>
	<line x1="346" y1="406" x2="346" y2="421"/>
	<line x1="391" y1="406" x2="391" y2="421"/>
	<line x1="406" y1="406" x2="406" y2="421"/>
	<line x1="421" y1="421" x2="436" y2="421"/>
	<line x1="436" y1="421" x2="451" y2="421"/>
	<line x1="451" y1="421" x2="466" y2="421"/>
	<line x1="466" y1="406" x2="466" y2="421"/>
	<line x1="481" y1="406" x2="481" y2="421"/>
	<line x1="1" y1="421" x2="1" y2="436"/>
	<line x1="31" y1="421" x2="31" y2="436"/>
	<line x1="46" y1="421" x2="46" y2="436"/>
	<line x1="46" y1="436" x2="61" y2="436"/>
	<line x1="76" y1="421" x2="76" y2="436"/>
	<line x1="76" y1="436" x2="91" y2="436"/>
	<line x1="91" y1="436" x2="106" y2="436"/>
	<line x1="121" y1="436" x2="136" y2="436"/>
	<line x1="136" y1="436" x2="151" y2="436"/>
	<line x1="151" y1="436" x2="166" y2="436"/>
	<line x1="166" y1="421" x2="166" y2="436"/>
	<line x1="181" y1="421" x2="181" y2="436"/>
	<line x1="181" y1="436" x2="196" y2="436"/>
	<line x1="196" y1="436" x2="211" y2="436"/>
	<line x1="211" y1="436" x2="226" y2="436"/>
	<line x1="226" y1="436" x2="241" y2="436"/>
	<line x1="241" y1="421" x2="241" y2="436"/>
	<line x1="271" y1="421" x2="271" y2="436"/>
	<line x1="286" y1="421" x2="286" y2="436"/>
	<line x1="301" y1="421" x2="301" y2="436"/>
	<line x1="301" y1="436" x2="316" y2="436"/>
	<line x1="331" y1="421" x2="331" y2="436"/>
	<line x1="346" y1="421" x2="346" y2="436"/>
	<line x1="346" y1="436" x2="361" y2="436"/>
	<line x1="361" y1="436" x2="376" y2="436"/>
	<line x1="376" y1="436" x2="391" y2="436"/>
	<line x1="391" y1="421" x2="391" y2="436"/>
	<line x1="406" y1="421" x2="406" y2="436"/>
	<line x1="421" y1="421" x2="421" y2="436"/>
	<line x1="436" y1="436" x2="451" y2="436"/>
	<line x1="451" y1="436" x2="466" y2="436"/>
	<line x1="481" y1="421" x2="481" y2="436"/>
	<line x1="16" y1="436" x2="16" y2="451"/>
	<line x1="1" y1="436" x2="1" y2="451"/>
	<line x1="31" y1="436" x2="31" y2="451"/>
	<line x1="31" y1="451" x2="46" y2="451"/>
	<line x1="46" y1="451" x2="61" y2="451"/>
	<line x1="61" y1="451" x2="76" y2="451"/>
	<line x1="76" y1="451" x2="91" y2="451"/>
	<line x1="91" y1="451" x2="106" y2="451"/>
	<line x1="106" y1="451" x2="121" y2="451"/>
	<line x1="121" y1="451" x2="136" y2="451"/>
	<line x1="136" y1="451" x2="151" y2="451"/>
	<line x1="151" y1="451" x2="166" y2="451"/>
	<line x1="166" y1="451" x2="181" y2="451"/>
	<line x1="181" y1="451" x2="196" y2="451"/>
	<line x1="196" y1="451" x2="211" y2="451"/>
	<line x1="211" y1="451" x2="226" y2="451"/>
	<line x1="226" y1="451" x2="241" y2="451"/>
	<line x1="241" y1="451" x2="256" y2="451"/>
	<line x1="256" y1="436" x2="256" y2="451"/>
	<line x1="256" y1="451" x2="271" y2="451"/>
	<line x1="286" y1="436" x2="286" y2="451"/>
	<line x1="286" y1="451" x2="301" y2="451"/>
	<line x1="301" y1="451" x2="316" y2="451"/>
	<line x1="316" y1="451" x2="331" y2="451"/>
	<line x1="331" y1="436" x2="331" y2="451"/>
	<line x1="331" y1="451" x2="346" y2="451"/>
	<line x1="346" y1="451" x2="361" y2="451"/>
	<line x1="361" y1="451" x2="376" y2="451"/>
	<line x1="376" y1="451" x2="391" y2="451"/>
	<line x1="391" y1="451" x2="406" y2="451"/>
	<line x1="406" y1="436" x2="406" y2="451"/>
	<line x1="421" y1="436" x2="421" y2="451"/>
	<line x1="436" y1="436" x2="436" y2="451"/>
	<line x1="451" y1="436" x2="451" y2="451"/>
	<line x1="466" y1="436" x2="466" y2="451"/>
	<line x1="481" y1="436" x2="481" y2="451"/>
	<line x1="16" y1="451" x2="16" y2="466"/>
	<line x1="1" y1="451" x2="1" y2="466"/>
	<line x1="46" y1="466" x2="61" y2="466"/>
	<line x1="61" y1="466" x2="76" y2="466"/>
	<line x1="76" y1="466" x2="91" y2="466"/>
	<line x1="91" y1="466" x2="106" y2="466"/>
	<line x1="106" y1="466" x2="121" y2="466"/>
	<line x1="121" y1="466" x2="136" y2="466"/>
	<line x1="136" y1="466" x2="151" y2="466"/>
	<line x1="151" y1="466" x2="166" y2="466"/>
	<line x1="166" y1="466" x2="181" y2="466"/>
	<line x1="181" y1="466" x2="196" y2="466"/>
	<line x1="196" y1="466" x2="211" y2="466"/>
	<line x1="211" y1="466" x2="226" y2="466"/>
	<line x1="226" y1="466" x2="241" y2="466"/>
	<line x1="241" y1="466" x2="256" y2="466"/>
	<line x1="256" y1="466" x2="271" y2="466"/>
	<line x1="271" y1="466" x2="286" y2="466"/>
	<line x1="286" y1="466" x2="301" y2="466"/>
	<line x1="301" y1="466" x2="316" y2="466"/>
	<line x1="316" y1="466" x2="331" y2="466"/>
	<line x1="331" y1="466" x2="346" y2="466"/>
	<line x1="346" y1="466" x2="361" y2="466"/>
	<line x1="361" y1="466" x2="376" y2="466"/>
	<line x1="376" y1="466" x2="391" y2="466"/>
	<line x1="391" y1="466" x2="406" y2="466"/>
	<line x1="406" y1="466" x2="421" y2="466"/>
	<line x1="421" y1="451" x2="421" y2="466"/>
	<line x1="436" y1="451" x2="436" y2="466"/>
	<line x1="466" y1="451" x2="466" y2="466"/>
	<line x1="481" y1="451" x2="481" y2="466"/>
	<line x1="1" y1="481" x2="16" y2="481"/>
	<line x1="16" y1="466" x2="16" y2="481"/>
	<line x1="1" y1="466" x2="1" y2="481"/>
	<line x1="16" y1="481" x2="31" y2="481"/>
	<line x1="31" y1="466" x2="31" y2="481"/>
	<line x1="31" y1="481" x2="46" y2="481"/>
	<line x1="46" y1="481" x2="61" y2="481"/>
	<line x1="61" y1="481" x2="76" y2="481"/>
	<line x1="76" y1="481" x2="91" y2="481"/>
	<line x1="91" y1="481" x2="106" y2="481"/>
	<line x1="106" y1="481" x2="121" y2="481"/>
	<line x1="121" y1="481" x2="136" y2="481"/>
	<line x1="136" y1="481" x2="151" y2="481"/>
	<line x1="151" y1="481" x2="166" y2="481"/>
	<line x1="166" y1="481" x2="181" y2="481"/>
	<line x1="181" y1="481" x2="196" y2="481"/>
	<line x1="196" y1="481" x2="211" y2="481"/>
	<line x1="211" y1="481" x2="226" y2="481"/>
	<line x1="226" y1="481" x2="241" y2="481"/>
	<line x1="241" y1="481" x2="256" y2="481"/>
	<line x1="256" y1="481" x2="271" y2="481"/>
	<line x1="271" y1="481" x2="286" y2="481"/>
	<line x1="286" y1="481" x2="301" y2="481"/>
	<line x1="301" y1="481" x2="316" y2="481"/>
	<line x1="316" y1="481" x2="331" y2="481"/>
	<line x1="331" y1="481" x2="346" y2="481"/>
	<line x1="346" y1="481" x2="361" y2="481"/>
	<line x1="361" y1="481" x2="376" y2="481"/>
	<line x1="376" y1="481" x2="391" y2="481"/>
	<line x1="391" y1="481" x2="406" y2="481"/>
	<line x1="406" y1="481" x2="421" y2="481"/>
	<line x1="421" y1="481" x2="436" y2="481"/>
	<line x1="436" y1="481" x2="451" y2="481"/>
	<line x1="451" y1="466" x2="451" y2="481"/>
	<line x1="451" y1="481" x2="466" y2="481"/>
	<line x1="466" y1="481" x2="481" y2="481"/>
	<line x1="481" y1="466" x2="481" y2="481"/>
</svg>