<svg xmlns="http://www.w3.org/2000/svg" width="482" height="482" fill="none" stroke="#000" stroke-width="2" stroke-linecap="square">
	<line x1="1.0" y1="1.0" x2="16.0" y2="1.0" />
	<line x1="16.0" y1="1.0" x2="16.0" y2="16.0" />
	<line x1="1.0" y1="1.0" x2="1.0" y2="16.0" />
	<line x1="16.0" y1="1.0" x2="31.0" y2="1.0" />
	<line x1="31.0" y1="1.0" x2="46.0" y2="1.0" />
	<line x1="31.0" y1="16.0" x2="46.0" y2="16.0" />
	<line x1="46.0" y1="1.0" x2="61.0" y2="1.0" />
	<line x1="46.0" y1="16.0" x2="61.0" y2="16.0" />
	<line x1="61.0" y1="1.0" x2="76.0" y2="1.0" />
	<line x1="61.0" y1="16.0" x2="76.0" y2="16.0" />
	<line x1="76.0" y1="1.0" x2="91.0" y2="1.0" />
	<line x1="76.0" y1="16.0" x2="91.0" y2="16.0" />
	<line x1="91.0" y1="1.0" x2="106.0" y2="1.0" />
	<line x1="91.0" y1="16.0" x2="106.0" y2="16.0" />
	<line x1="106.0" y1="1.0" x2="121.0" y2="1.0" />
	<line x1="106.0" y1="16.0" x2="121.0" y2="16.0" />
	<line x1="121.0" y1="1.0" x2="136.0" y2="1.0" />
	<line x1="136.0" y1="1.0" x2="136.0" y2="16.0" />
	<line x1="136.0" y1="1.0" x2="151.0" y2="1.0" />
	<line x1="151.0" y1="1.0" x2="166.0" y2="1.0" />
	<line x1="151.0" y1="16.0" x2="166.0" y2="16.0" />
	<line x1="166.0" y1="1.0" x2="181.0" y2="1.0" />
	<line x1="166.0" y1="16.0" x2="181.0" y2="16.0" />
	<line x1="181.0" y1="1.0" x2="196.0" y2="1.0" />
	<line x1="181.0" y1="16.0" x2="196.0" y2="16.0" />
	<line x1="196.0" y1="1.0" x2="211.0" y2="1.0" />
	<line x1="196.0" y1="16.0" x2="211.0" y2="16.0" />
	<line x1="211.0" y1="1.0" x2="226.0" y2="1.0" />
	<line x1="211.0" y1="16.0" x2="226.0" y2="16.0" />
	<line x1="226.0" y1="1.0" x2="241.0" y2="1.0" />
	<line x1="226.0" y1="16.0" x2="241.0" y2="16.0" />
	<line x1="241.0" y1="1.0" x2="256.0" y2="1.0" />
	<line x1="241.0" y1="16.0" x2="256.0" y2="16.0" />
	<line x1="256.0" y1="1.0" x2="271.0" y2="1.0" />
	<line x1="256.0" y1="16.0" x2="271.0" y2="16.0" />
	<line x1="271.0" y1="1.0" x2="286.0" y2="1.0" />
	<line x1="271.0" y1="16.0" x2="286.0" y2="16.0" />
	<line x1="286.0" y1="1.0" x2="301.0" y2="1.0" />
	<line x1="286.0" y1="16.0" x2="301.0" y2="16.0" />
	<line x1="301.0" y1="1.0" x2="316.0" y2="1.0" />
	<line x1="301.0" y1="16.0" x2="316.0" y2="16.0" />
	<line x1="316.0" y1="1.0" x2="331.0" y2="1.0" />
	<line x1="316.0" y1="16.0" x2="331.0" y2="16.0" />
	<line x1="331.0" y1="1.0" x2="346.0" y2="1.0" />
	<line x1="331.0" y1="16.0" x2="346.0" y2="16.0" />
	<line x1="346.0" y1="1.0" x2="361.0" y2="1.0" />
	<line x1="346.0" y1="16.0" x2="361.0" y2="16.0" />
	<line x1="361.0" y1="1.0" x2="376.0" y2="1.0" />
	<line x1="361.0" y1="16.0" x2="376.0" y2="16.0" />
	<line x1="376.0" y1="1.0" x2="391.0" y2="1.0" />
	<line x1="376.0" y1="16.0" x2="391.0" y2="16.0" />
	<line x1="391.0" y1="1.0" x2="406.0" y2="1.0" />
	<line x1="391.0" y1="16.0" x2="406.0" y2="16.0" />
	<line x1="406.0" y1="1.0" x2="421.0" y2="1.0" />
	<line x1="406.0" y1="16.0" x2="421.0" y2="16.0" />
	<line x1="421.0" y1="1.0" x2="436.0" y2="1.0" />
	<line x1="421.0" y1="16.0" x2="436.0" y2="16.0" />
	<line x1="436.0" y1="1.0" x2="451.0" y2="1.0" />
	<line x1="451.0" y1="1.0" x2="466.0" y2="1.0" />
	<line x1="466.0" y1="1.0" x2="481.0" y2="1.0" />
	<line x1="481.0" y1="1.0" x2="481.0" y2="16.0" />
	<line x1="1.0" y1="16.0" x2="1.0" y2="31.0" />
	<line x1="16.0" y1="31.0" x2="31.0" y2="31.0" />
	<line x1="31.0" y1="16.0" x2="31.0" y2="31.0" />
	<line x1="46.0" y1="31.0" x2="61.0" y2="31.0" />
	<line x1="61.0" y1="31.0" x2="76.0" y2="31.0" />
	<line x1="91.0" y1="16.0" x2="91.0" y2="31.0" />
	<line x1="121.0" y1="16.0" x2="121.0" y2="31.0" />
	<line x1="136.0" y1="16.0" x2="136.0" y2="31.0" />
	<line x1="151.0" y1="16.0" x2="151.0" y2="31.0" />
	<line x1="166.0" y1="16.0" x2="166.0" y2="31.0" />
	<line x1="181.0" y1="16.0" x2="181.0" y2="31.0" />
	<line x1="196.0" y1="16.0" x2="196.0" y2="31.0" />
	<line x1="211.0" y1="16.0" x2="211.0" y2="31.0" />
	<line x1="226.0" y1="16.0" x2="226.0" y2="31.0" />
	<line x1="241.0" y1="16.0" x2="241.0" y2="31.0" />
	<line x1="316.0" y1="16.0" x2="316.0" y2="31.0" />
	<line x1="331.0" y1="16.0" x2="331.0" y2="31.0" />
	<line x1="331.0" y1="31.0" x2="346.0" y2="31.0" />
	<line x1="361.0" y1="31.0" x2="376.0" y2="31.0" />
	<line x1="391.0" y1="31.0" x2="406.0" y2="31.0" />
	<line x1="421.0" y1="16.0" x2="421.0" y2="31.0" />
	<line x1="436.0" y1="16.0" x2="436.0" y2="31.0" />
	<line x1="436.0" y1="31.0" x2="451.0" y2="31.0" />
	<line x1="451.0" y1="16.0" x2="451.0" y2="31.0" />
	<line x1="466.0" y1="16.0" x2="466.0" y2="31.0" />
	<line x1="481.0" y1="16.0" x2="481.0" y2="31.0" />
	<line x1="1.0" y1="31.0" x2="1.0" y2="46.0" />
	<line x1="16.0" y1="46.0" x2="31.0" y2="46.0" />
	<line x1="31.0" y1="31.0" x2="31.0" y2="46.0" />
	<line x1="46.0" y1="31.0" x2="46.0" y2="46.0" />
	<line x1="61.0" y1="46.0" x2="76.0" y2="46.0" />
	<line x1="76.0" y1="46.0" x2="91.0" y2="46.0" />
	<line x1="91.0" y1="31.0" x2="91.0" y2="46.0" />
	<line x1="106.0" y1="31.0" x2="106.0" y2="46.0" />
	<line x1="121.0" y1="31.0" x2="121.0" y2="46.0" />
	<line x1="121.0" y1="46.0" x2="136.0" y2="46.0" />
	<line x1="136.0" y1="46.0" x2="151.0" y2="46.0" />
	<line x1="151.0" y1="31.0" x2="151.0" y2="46.0" />
	<line x1="241.0" y1="31.0" x2="241.0" y2="46.0" />
	<line x1="316.0" y1="31.0" x2="316.0" y2="46.0" />
	<line x1="361.0" y1="31.0" x2="361.0" y2="46.0" />
	<line x1="376.0" y1="46.0" x2="391.0" y2="46.0" />
	<line x1="391.0" y1="31.0" x2="391.0" y2="46.0" />
	<line x1="421.0" y1="46.0" x2="436.0" y2="46.0" />
	<line x1="451.0" y1="46.0" x2="466.0" y2="46.0" />
	<line x1="481.0" y1="31.0" x2="481.0" y2="46.0" />
	<line x1="1.0" y1="46.0" x2="1.0" y2="61.0" />
	<line x1="16.0" y1="61.0" x2="31.0" y2="61.0" />
	<line x1="31.0" y1="46.0" x2="31.0" y2="61.0" />
	<line x1="46.0" y1="46.0" x2="46.0" y2="61.0" />
	<line x1="46.0" y1="61.0" x2="61.0" y2="61.0" />
	<line x1="61.0" y1="61.0" x2="76.0" y2="61.0" />
	<line x1="76.0" y1="61.0" x2="91.0" y2="61.0" />
	<line x1="91.0" y1="61.0" x2="106.0" y2="61.0" />
	<line x1="106.0" y1="46.0" x2="106.0" y2="61.0" />
	<line x1="106.0" y1="61.0" x2="121.0" y2="61.0" />
	<line x1="121.0" y1="61.0" x2="136.0" y2="61.0" />
	<line x1="151.0" y1="46.0" x2="151.0" y2="61.0" />
	<line x1="166.0" y1="46.0" x2="166.0" y2="61.0" />
	<line x1="166.0" y1="61.0" x2="181.0" y2="61.0" />
	<line x1="181.0" y1="46.0" x2="181.0" y2="61.0" />
	<line x1="181.0" y1="61.0" x2="196.0" y2="61.0" />
	<line x1="196.0" y1="46.0" x2="196.0" y2="61.0" />
	<line x1="196.0" y1="61.0" x2="211.0" y2="61.0" />
	<line x1="211.0" y1="46.0" x2="211.0" y2="61.0" />
	<line x1="211.0" y1="61.0" x2="226.0" y2="61.0" />
	<line x1="226.0" y1="46.0" x2="226.0" y2="61.0" />
	<line x1="241.0" y1="46.0" x2="241.0" y2="61.0" />
	<line x1="316.0" y1="46.0" x2="316.0" y2="61.0" />
	<line x1="316.0" y1="61.0" x2="331.0" y2="61.0" />
	<line x1="331.0" y1="46.0" x2="331.0" y2="61.0" />
	<line x1="346.0" y1="46.0" x2="346.0" y2="61.0" />
	<line x1="376.0" y1="46.0" x2="376.0" y2="61.0" />
	<line x1="406.0" y1="46.0" x2="406.0" y2="61.0" />
	<line x1="406.0" y1="61.0" x2="421.0" y2="61.0" />
	<line x1="436.0" y1="46.0" x2="436.0" y2="61.0" />
	<line x1="451.0" y1="46.0" x2="451.0" y2="61.0" />
	<line x1="451.0" y1="61.0" x2="466.0" y2="61.0" />
	<line x1="481.0" y1="46.0" x2="481.0" y2="61.0" />
	<line x1="16.0" y1="61.0" x2="16.0" y2="76.0" />
	<line x1="1.0" y1="61.0" x2="1.0" y2="76.0" />
	<line x1="31.0" y1="76.0" x2="46.0" y2="76.0" />
	<line x1="46.0" y1="61.0" x2="46.0" y2="76.0" />
	<line x1="61.0" y1="76.0" x2="76.0" y2="76.0" />
	<line x1="76.0" y1="76.0" x2="91.0" y2="76.0" />
	<line x1="91.0" y1="76.0" x2="106.0" y2="76.0" />
	<line x1="106.0" y1="76.0" x2="121.0" y2="76.0" />
	<line x1="121.0" y1="76.0" x2="136.0" y2="76.0" />
	<line x1="136.0" y1="76.0" x2="151.0" y2="76.0" />
	<line x1="151.0" y1="61.0" x2="151.0" y2="76.0" />
	<line x1="151.0" y1="76.0" x2="166.0" y2="76.0" />
	<line x1="166.0" y1="76.0" x2="181.0" y2="76.0" />
	<line x1="196.0" y1="61.0" x2="196.0" y2="76.0" />
	<line x1="196.0" y1="76.0" x2="211.0" y2="76.0" />
	<line x1="226.0" y1="76.0" x2="241.0" y2="76.0" />
	<line x1="241.0" y1="61.0" x2="241.0" y2="76.0" />
	<line x1="316.0" y1="61.0" x2="316.0" y2="76.0" />
	<line x1="331.0" y1="76.0" x2="346.0" y2="76.0" />
	<line x1="346.0" y1="61.0" x2="346.0" y2="76.0" />
	<line x1="361.0" y1="61.0" x2="361.0" y2="76.0" />
	<line x1="361.0" y1="76.0" x2="376.0" y2="76.0" />
	<line x1="391.0" y1="61.0" x2="391.0" y2="76.0" />
	<line x1="391.0" y1="76.0" x2="406.0" y2="76.0" />
	<line x1="421.0" y1="76.0" x2="436.0" y2="76.0" />
	<line x1="451.0" y1="61.0" x2="451.0" y2="76.0" />
	<line x1="481.0" y1="61.0" x2="481.0" y2="76.0" />
	<line x1="16.0" y1="76.0" x2="16.0" y2="91.0" />
	<line x1="1.0" y1="76.0" x2="1.0" y2="91.0" />
	<line x1="31.0" y1="76.0" x2="31.0" y2="91.0" />
	<line x1="46.0" y1="91.0" x2="61.0" y2="91.0" />
	<line x1="61.0" y1="76.0" x2="61.0" y2="91.0" />
	<line x1="151.0" y1="76.0" x2="151.0" y2="91.0" />
	<line x1="181.0" y1="76.0" x2="181.0" y2="91.0" />
	<line x1="181.0" y1="91.0" x2="196.0" y2="91.0" />
	<line x1="211.0" y1="76.0" x2="211.0" y2="91.0" />
	<line x1="211.0" y1="91.0" x2="226.0" y2="91.0" />
	<line x1="241.0" y1="76.0" x2="241.0" y2="91.0" />
	<line x1="241.0" y1="91.0" x2="256.0" y2="91.0" />
	<line x1="256.0" y1="91.0" x2="271.0" y2="91.0" />
	<line x1="271.0" y1="91.0" x2="286.0" y2="91.0" />
	<line x1="286.0" y1="91.0" x2="301.0" y2="91.0" />
	<line x1="301.0" y1="91.0" x2="316.0" y2="91.0" />
	<line x1="316.0" y1="76.0" x2="316.0" y2="91.0" />
	<line x1="316.0" y1="91.0" x2="331.0" y2="91.0" />
	<line x1="346.0" y1="91.0" x2="361.0" y2="91.0" />
	<line x1="376.0" y1="76.0" x2="376.0" y2="91.0" />
	<line x1="376.0" y1="91.0" x2="391.0" y2="91.0" />
	<line x1="391.0" y1="91.0" x2="406.0" y2="91.0" />
	<line x1="406.0" y1="91.0" x2="421.0" y2="91.0" />
	<line x1="436.0" y1="76.0" x2="436.0" y2="91.0" />
	<line x1="466.0" y1="76.0" x2="466.0" y2="91.0" />
	<line x1="481.0" y1="76.0" x2="481.0" y2="91.0" />
	<line x1="16.0" y1="91.0" x2="16.0" y2="106.0" />
	<line x1="1.0" y1="91.0" x2="1.0" y2="106.0" />
	<line x1="31.0" y1="91.0" x2="31.0" y2="106.0" />
	<line x1="46.0" y1="91.0" x2="46.0" y2="106.0" />
	<line x1="151.0" y1="91.0" x2="151.0" y2="106.0" />
	<line x1="166.0" y1="91.0" x2="166.0" y2="106.0" />
	<line x1="196.0" y1="91.0" x2="196.0" y2="106.0" />
	<line x1="196.0" y1="106.0" x2="211.0" y2="106.0" />
	<line x1="226.0" y1="91.0" x2="226.0" y2="106.0" />
	<line x1="226.0" y1="106.0" x2="241.0" y2="106.0" />
	<line x1="241.0" y1="106.0" x2="256.0" y2="106.0" />
	<line x1="256.0" y1="106.0" x2="271.0" y2="106.0" />
	<line x1="271.0" y1="106.0" x2="286.0" y2="106.0" />
	<line x1="286.0" y1="106.0" x2="301.0" y2="106.0" />
	<line x1="316.0" y1="91.0" x2="316.0" y2="106.0" />
	<line x1="331.0" y1="91.0" x2="331.0" y2="106.0" />
	<line x1="346.0" y1="91.0" x2="346.0" y2="106.0" />
	<line x1="376.0" y1="91.0" x2="376.0" y2="106.0" />
	<line x1="421.0" y1="91.0" x2="421.0" y2="106.0" />
	<line x1="436.0" y1="106.0" x2="451.0" y2="106.0" />
	<line x1="451.0" y1="91.0" x2="451.0" y2="106.0" />
	<line x1="466.0" y1="91.0" x2="466.0" y2="106.0" />
	<line x1="481.0" y1="91.0" x2="481.0" y2="106.0" />
	<line x1="16.0" y1="106.0" x2="16.0" y2="121.0" />
	<line x1="1.0" y1="106.0" x2="1.0" y2="121.0" />
	<line x1="31.0" y1="106.0" x2="31.0" y2="121.0" />
	<line x1="46.0" y1="106.0" x2="46.0" y2="121.0" />
	<line x1="151.0" y1="106.0" x2="151.0" y2="121.0" />
	<line x1="166.0" y1="106.0" x2="166.0" y2="121.0" />
	<line x1="181.0" y1="106.0" x2="181.0" y2="121.0" />
	<line x1="211.0" y1="106.0" x2="211.0" y2="121.0" />
	<line x1="211.0" y1="121.0" x2="226.0" y2="121.0" />
	<line x1="241.0" y1="106.0" x2="241.0" y2="121.0" />
	<line x1="241.0" y1="121.0" x2="256.0" y2="121.0" />
	<line x1="271.0" y1="121.0" x2="286.0" y2="121.0" />
	<line x1="286.0" y1="121.0" x2="301.0" y2="121.0" />
	<line x1="301.0" y1="121.0" x2="316.0" y2="121.0" />
	<line x1="316.0" y1="106.0" x2="316.0" y2="121.0" />
	<line x1="331.0" y1="121.0" x2="346.0" y2="121.0" />
	<line x1="346.0" y1="121.0" x2="361.0" y2="121.0" />
	<line x1="361.0" y1="106.0" x2="361.0" y2="121.0" />
	<line x1="376.0" y1="106.0" x2="376.0" y2="121.0" />
	<line x1="421.0" y1="106.0" x2="421.0" y2="121.0" />
	<line x1="421.0" y1="121.0" x2="436.0" y2="121.0" />
	<line x1="466.0" y1="106.0" x2="466.0" y2="121.0" />
	<line x1="481.0" y1="106.0" x2="481.0" y2="121.0" />
	<line x1="16.0" y1="121.0" x2="16.0" y2="136.0" />
	<line x1="1.0" y1="121.0" x2="1.0" y2="136.0" />
	<line x1="31.0" y1="121.0" x2="31.0" y2="136.0" />
	<line x1="46.0" y1="121.0" x2="46.0" y2="136.0" />
	<line x1="151.0" y1="121.0" x2="151.0" y2="136.0" />
	<line x1="166.0" y1="121.0" x2="166.0" y2="136.0" />
	<line x1="181.0" y1="121.0" x2="181.0" y2="136.0" />
	<line x1="181.0" y1="136.0" x2="196.0" y2="136.0" />
	<line x1="196.0" y1="121.0" x2="196.0" y2="136.0" />
	<line x1="196.0" y1="136.0" x2="211.0" y2="136.0" />
	<line x1="226.0" y1="121.0" x2="226.0" y2="136.0" />
	<line x1="226.0" y1="136.0" x2="241.0" y2="136.0" />
	<line x1="256.0" y1="121.0" x2="256.0" y2="136.0" />
	<line x1="256.0" y1="136.0" x2="271.0" y2="136.0" />
	<line x1="271.0" y1="136.0" x2="286.0" y2="136.0" />
	<line x1="286.0" y1="136.0" x2="301.0" y2="136.0" />
	<line x1="316.0" y1="121.0" x2="316.0" y2="136.0" />
	<line x1="346.0" y1="136.0" x2="361.0" y2="136.0" />
	<line x1="361.0" y1="136.0" x2="376.0" y2="136.0" />
	<line x1="376.0" y1="121.0" x2="376.0" y2="136.0" />
	<line x1="376.0" y1="136.0" x2="391.0" y2="136.0" />
	<line x1="391.0" y1="136.0" x2="406.0" y2="136.0" />
	<line x1="406.0" y1="136.0" x2="421.0" y2="136.0" />
	<line x1="421.0" y1="121.0" x2="421.0" y2="136.0" />
	<line x1="436.0" y1="121.0" x2="436.0" y2="136.0" />
	<line x1="451.0" y1="121.0" x2="451.0" y2="136.0" />
	<line x1="451.0" y1="136.0" x2="466.0" y2="136.0" />
	<line x1="466.0" y1="121.0" x2="466.0" y2="136.0" />
	<line x1="481.0" y1="121.0" x2="481.0" y2="136.0" />
	<line x1="16.0" y1="136.0" x2="16.0" y2="151.0" />
	<line x1="1.0" y1="136.0" x2="1.0" y2="151.0" />
	<line x1="31.0" y1="136.0" x2="31.0" y2="151.0" />
	<line x1="46.0" y1="136.0" x2="46.0" y2="151.0" />
	<line x1="151.0" y1="136.0" x2="151.0" y2="151.0" />
	<line x1="166.0" y1="136.0" x2="166.0" y2="151.0" />
	<line x1="166.0" y1="151.0" x2="181.0" y2="151.0" />
	<line x1="181.0" y1="151.0" x2="196.0" y2="151.0" />
	<line x1="211.0" y1="136.0" x2="211.0" y2="151.0" />
	<line x1="211.0" y1="151.0" x2="226.0" y2="151.0" />
	<line x1="241.0" y1="136.0" x2="241.0" y2="151.0" />
	<line x1="241.0" y1="151.0" x2="256.0" y2="151.0" />
	<line x1="271.0" y1="136.0" x2="271.0" y2="151.0" />
	<line x1="301.0" y1="136.0" x2="301.0" y2="151.0" />
	<line x1="316.0" y1="136.0" x2="316.0" y2="151.0" />
	<line x1="331.0" y1="136.0" x2="331.0" y2="151.0" />
	<line x1="346.0" y1="136.0" x2="346.0" y2="151.0" />
	<line x1="376.0" y1="151.0" x2="391.0" y2="151.0" />
	<line x1="391.0" y1="136.0" x2="391.0" y2="151.0" />
	<line x1="406.0" y1="136.0" x2="406.0" y2="151.0" />
	<line x1="406.0" y1="151.0" x2="421.0" y2="151.0" />
	<line x1="436.0" y1="151.0" x2="451.0" y2="151.0" />
	<line x1="466.0" y1="136.0" x2="466.0" y2="151.0" />
	<line x1="481.0" y1="136.0" x2="481.0" y2="151.0" />
	<line x1="16.0" y1="151.0" x2="16.0" y2="166.0" />
	<line x1="1.0" y1="151.0" x2="1.0" y2="166.0" />
	<line x1="31.0" y1="151.0" x2="31.0" y2="166.0" />
	<line x1="46.0" y1="151.0" x2="46.0" y2="166.0" />
	<line x1="151.0" y1="151.0" x2="151.0" y2="166.0" />
	<line x1="166.0" y1="151.0" x2="166.0" y2="166.0" />
	<line x1="181.0" y1="166.0" x2="196.0" y2="166.0" />
	<line x1="196.0" y1="166.0" x2="211.0" y2="166.0" />
	<line x1="211.0" y1="151.0" x2="211.0" y2="166.0" />
	<line x1="211.0" y1="166.0" x2="226.0" y2="166.0" />
	<line x1="226.0" y1="166.0" x2="241.0" y2="166.0" />
	<line x1="256.0" y1="151.0" x2="256.0" y2="166.0" />
	<line x1="256.0" y1="166.0" x2="271.0" y2="166.0" />
	<line x1="286.0" y1="151.0" x2="286.0" y2="166.0" />
	<line x1="301.0" y1="151.0" x2="301.0" y2="166.0" />
	<line x1="316.0" y1="151.0" x2="316.0" y2="166.0" />
	<line x1="331.0" y1="151.0" x2="331.0" y2="166.0" />
	<line x1="331.0" y1="166.0" x2="346.0" y2="166.0" />
	<line x1="361.0" y1="151.0" x2="361.0" y2="166.0" />
	<line x1="361.0" y1="166.0" x2="376.0" y2="166.0" />
	<line x1="391.0" y1="166.0" x2="406.0" y2="166.0" />
	<line x1="421.0" y1="166.0" x2="436.0" y2="166.0" />
	<line x1="451.0" y1="151.0" x2="451.0" y2="166.0" />
	<line x1="466.0" y1="151.0" x2="466.0" y2="166.0" />
	<line x1="481.0" y1="151.0" x2="481.0" y2="166.0" />
	<line x1="16.0" y1="166.0" x2="16.0" y2="181.0" />
	<line x1="1.0" y1="166.0" x2="1.0" y2="181.0" />
	<line x1="31.0" y1="166.0" x2="31.0" y2="181.0" />
	<line x1="46.0" y1="166.0" x2="46.0" y2="181.0" />
	<line x1="46.0" y1="181.0" x2="61.0" y2="181.0" />
	<line x1="61.0" y1="181.0" x2="76.0" y2="181.0" />
	<line x1="76.0" y1="181.0" x2="91.0" y2="181.0" />
	<line x1="91.0" y1="181.0" x2="106.0" y2="181.0" />
	<line x1="106.0" y1="181.0" x2="121.0" y2="181.0" />
	<line x1="121.0" y1="181.0" x2="136.0" y2="181.0" />
	<line x1="136.0" y1="181.0" x2="151.0" y2="181.0" />
	<line x1="151.0" y1="166.0" x2="151.0" y2="181.0" />
	<line x1="166.0" y1="166.0" x2="166.0" y2="181.0" />
	<line x1="181.0" y1="166.0" x2="181.0" y2="181.0" />
	<line x1="196.0" y1="181.0" x2="211.0" y2="181.0" />
	<line x1="211.0" y1="181.0" x2="226.0" y2="181.0" />
	<line x1="226.0" y1="181.0" x2="241.0" y2="181.0" />
	<line x1="241.0" y1="181.0" x2="256.0" y2="181.0" />
	<line x1="256.0" y1="181.0" x2="271.0" y2="181.0" />
	<line x1="271.0" y1="166.0" x2="271.0" y2="181.0" />
	<line x1="271.0" y1="181.0" x2="286.0" y2="181.0" />
	<line x1="286.0" y1="166.0" x2="286.0" y2="181.0" />
	<line x1="301.0" y1="166.0" x2="301.0" y2="181.0" />
	<line x1="316.0" y1="166.0" x2="316.0" y2="181.0" />
	<line x1="346.0" y1="166.0" x2="346.0" y2="181.0" />
	<line x1="346.0" y1="181.0" x2="361.0" y2="181.0" />
	<line x1="376.0" y1="166.0" x2="376.0" y2="181.0" />
	<line x1="376.0" y1="181.0" x2="391.0" y2="181.0" />
	<line x1="391.0" y1="166.0" x2="391.0" y2="181.0" />
	<line x1="391.0" y1="181.0" x2="406.0" y2="181.0" />
	<line x1="406.0" y1="181.0" x2="421.0" y2="181.0" />
	<line x1="421.0" y1="181.0" x2="436.0" y2="181.0" />
	<line x1="436.0" y1="166.0" x2="436.0" y2="181.0" />
	<line x1="436.0" y1="181.0" x2="451.0" y2="181.0" />
	<line x1="451.0" y1="181.0" x2="466.0" y2="181.0" />
	<line x1="466.0" y1="166.0" x2="466.0" y2="181.0" />
	<line x1="481.0" y1="166.0" x2="481.0" y2="181.0" />
	<line x1="16.0" y1="181.0" x2="16.0" y2="196.0" />
	<line x1="1.0" y1="181.0" x2="1.0" y2="196.0" />
	<line x1="31.0" y1="181.0" x2="31.0" y2="196.0" />
	<line x1="31.0" y1="196.0" x2="46.0" y2="196.0" />
	<line x1="46.0" y1="196.0" x2="61.0" y2="196.0" />
	<line x1="61.0" y1="196.0" x2="76.0" y2="196.0" />
	<line x1="76.0" y1="196.0" x2="91.0" y2="196.0" />
	<line x1="91.0" y1="196.0" x2="106.0" y2="196.0" />
	<line x1="106.0" y1="196.0" x2="121.0" y2="196.0" />
	<line x1="136.0" y1="181.0" x2="136.0" y2="196.0" />
	<line x1="136.0" y1="196.0" x2="151.0" y2="196.0" />
	<line x1="166.0" y1="181.0" x2="166.0" y2="196.0" />
	<line x1="181.0" y1="181.0" x2="181.0" y2="196.0" />
	<line x1="181.0" y1="196.0" x2="196.0" y2="196.0" />
	<line x1="196.0" y1="196.0" x2="211.0" y2="196.0" />
	<line x1="211.0" y1="196.0" x2="226.0" y2="196.0" />
	<line x1="226.0" y1="196.0" x2="241.0" y2="196.0" />
	<line x1="241.0" y1="196.0" x2="256.0" y2="196.0" />
	<line x1="256.0" y1="196.0" x2="271.0" y2="196.0" />
	<line x1="271.0" y1="196.0" x2="286.0" y2="196.0" />
	<line x1="286.0" y1="196.0" x2="301.0" y2="196.0" />
	<line x1="301.0" y1="181.0" x2="301.0" y2="196.0" />
	<line x1="301.0" y1="196.0" x2="316.0" y2="196.0" />
	<line x1="316.0" y1="196.0" x2="331.0" y2="196.0" />
	<line x1="331.0" y1="181.0" x2="331.0" y2="196.0" />
	<line x1="331.0" y1="196.0" x2="346.0" y2="196.0" />
	<line x1="361.0" y1="181.0" x2="361.0" y2="196.0" />
	<line x1="361.0" y1="196.0" x2="376.0" y2="196.0" />
	<line x1="376.0" y1="196.0" x2="391.0" y2="196.0" />
	<line x1="391.0" y1="196.0" x2="406.0" y2="196.0" />
	<line x1="406.0" y1="196.0" x2="421.0" y2="196.0" />
	<line x1="421.0" y1="196.0" x2="436.0" y2="196.0" />
	<line x1="436.0" y1="196.0" x2="451.0" y2="196.0" />
	<line x1="466.0" y1="181.0" x2="466.0" y2="196.0" />
	<line x1="481.0" y1="181.0" x2="481.0" y2="196.0" />
	<line x1="16.0" y1="196.0" x2="16.0" y2="211.0" />
	<line x1="1.0" y1="196.0" x2="1.0" y2="211.0" />
	<line x1="31.0" y1="196.0" x2="31.0" y2="211.0" />
	<line x1="46.0" y1="211.0" x2="61.0" y2="211.0" />
	<line x1="61.0" y1="211.0" x2="76.0" y2="211.0" />
	<line x1="76.0" y1="211.0" x2="91.0" y2="211.0" />
	<line x1="91.0" y1="211.0" x2="106.0" y2="211.0" />
	<line x1="106.0" y1="211.0" x2="121.0" y2="211.0" />
	<line x1="121.0" y1="196.0" x2="121.0" y2="211.0" />
	<line x1="136.0" y1="196.0" x2="136.0" y2="211.0" />
	<line x1="151.0" y1="211.0" x2="166.0" y2="211.0" />
	<line x1="166.0" y1="196.0" x2="166.0" y2="211.0" />
	<line x1="166.0" y1="211.0" x2="181.0" y2="211.0" />
	<line x1="181.0" y1="211.0" x2="196.0" y2="211.0" />
	<line x1="196.0" y1="211.0" x2="211.0" y2="211.0" />
	<line x1="211.0" y1="211.0" x2="226.0" y2="211.0" />
	<line x1="226.0" y1="211.0" x2="241.0" y2="211.0" />
	<line x1="241.0" y1="211.0" x2="256.0" y2="211.0" />
	<line x1="256.0" y1="211.0" x2="271.0" y2="211.0" />
	<line x1="271.0" y1="211.0" x2="286.0" y2="211.0" />
	<line x1="286.0" y1="211.0" x2="301.0" y2="211.0" />
	<line x1="316.0" y1="196.0" x2="316.0" y2="211.0" />
	<line x1="316.0" y1="211.0" x2="331.0" y2="211.0" />
	<line x1="331.0" y1="211.0" x2="346.0" y2="211.0" />
	<line x1="346.0" y1="211.0" x2="361.0" y2="211.0" />
	<line x1="361.0" y1="211.0" x2="376.0" y2="211.0" />
	<line x1="376.0" y1="211.0" x2="391.0" y2="211.0" />
	<line x1="391.0" y1="211.0" x2="406.0" y2="211.0" />
	<line x1="406.0" y1="211.0" x2="421.0" y2="211.0" />
	<line x1="421.0" y1="211.0" x2="436.0" y2="211.0" />
	<line x1="451.0" y1="196.0" x2="451.0" y2="211.0" />
	<line x1="466.0" y1="196.0" x2="466.0" y2="211.0" />
	<line x1="481.0" y1="196.0" x2="481.0" y2="211.0" />
	<line x1="16.0" y1="211.0" x2="16.0" y2="226.0" />
	<line x1="1.0" y1="211.0" x2="1.0" y2="226.0" />
	<line x1="31.0" y1="211.0" x2="31.0" y2="226.0" />
	<line x1="31.0" y1="226.0" x2="46.0" y2="226.0" />
	<line x1="46.0" y1="226.0" x2="61.0" y2="226.0" />
	<line x1="76.0" y1="226.0" x2="91.0" y2="226.0" />
	<line x1="91.0" y1="226.0" x2="106.0" y2="226.0" />
	<line x1="121.0" y1="211.0" x2="121.0" y2="226.0" />
	<line x1="136.0" y1="211.0" x2="136.0" y2="226.0" />
	<line x1="151.0" y1="211.0" x2="151.0" y2="226.0" />
	<line x1="196.0" y1="211.0" x2="196.0" y2="226.0" />
	<line x1="211.0" y1="211.0" x2="211.0" y2="226.0" />
	<line x1="226.0" y1="226.0" x2="241.0" y2="226.0" />
	<line x1="241.0" y1="226.0" x2="256.0" y2="226.0" />
	<line x1="256.0" y1="226.0" x2="271.0" y2="226.0" />
	<line x1="271.0" y1="226.0" x2="286.0" y2="226.0" />
	<line x1="286.0" y1="226.0" x2="301.0" y2="226.0" />
	<line x1="301.0" y1="226.0" x2="316.0" y2="226.0" />
	<line x1="316.0" y1="211.0" x2="316.0" y2="226.0" />
	<line x1="331.0" y1="226.0" x2="346.0" y2="226.0" />
	<line x1="361.0" y1="211.0" x2="361.0" y2="226.0" />
	<line x1="361.0" y1="226.0" x2="376.0" y2="226.0" />
	<line x1="376.0" y1="226.0" x2="391.0" y2="226.0" />
	<line x1="391.0" y1="226.0" x2="406.0" y2="226.0" />
	<line x1="406.0" y1="226.0" x2="421.0" y2="226.0" />
	<line x1="421.0" y1="226.0" x2="436.0" y2="226.0" />
	<line x1="451.0" y1="211.0" x2="451.0" y2="226.0" />
	<line x1="466.0" y1="211.0" x2="466.0" y2="226.0" />
	<line x1="481.0" y1="211.0" x2="481.0" y2="226.0" />
	<line x1="16.0" y1="226.0" x2="16.0" y2="241.0" />
	<line x1="1.0" y1="226.0" x2="1.0" y2="241.0" />
	<line x1="16.0" y1="241.0" x2="31.0" y2="241.0" />
	<line x1="31.0" y1="241.0" x2="46.0" y2="241.0" />
	<line x1="61.0" y1="226.0" x2="61.0" y2="241.0" />
	<line x1="76.0" y1="241.0" x2="91.0" y2="241.0" />
	<line x1="91.0" y1="241.0" x2="106.0" y2="241.0" />
	<line x1="106.0" y1="241.0" x2="121.0" y2="241.0" />
	<line x1="121.0" y1="226.0" x2="121.0" y2="241.0" />
	<line x1="136.0" y1="226.0" x2="136.0" y2="241.0" />
	<line x1="151.0" y1="226.0" x2="151.0" y2="241.0" />
	<line x1="166.0" y1="226.0" x2="166.0" y2="241.0" />
	<line x1="181.0" y1="226.0" x2="181.0" y2="241.0" />
	<line x1="226.0" y1="226.0" x2="226.0" y2="241.0" />
	<line x1="241.0" y1="226.0" x2="241.0" y2="241.0" />
	<line x1="256.0" y1="241.0" x2="271.0" y2="241.0" />
	<line x1="271.0" y1="241.0" x2="286.0" y2="241.0" />
	<line x1="286.0" y1="241.0" x2="301.0" y2="241.0" />
	<line x1="316.0" y1="226.0" x2="316.0" y2="241.0" />
	<line x1="331.0" y1="226.0" x2="331.0" y2="241.0" />
	<line x1="346.0" y1="241.0" x2="361.0" y2="241.0" />
	<line x1="361.0" y1="226.0" x2="361.0" y2="241.0" />
	<line x1="436.0" y1="226.0" x2="436.0" y2="241.0" />
	<line x1="451.0" y1="226.0" x2="451.0" y2="241.0" />
	<line x1="466.0" y1="226.0" x2="466.0" y2="241.0" />
	<line x1="481.0" y1="226.0" x2="481.0" y2="241.0" />
	<line x1="16.0" y1="241.0" x2="16.0" y2="256.0" />
	<line x1="1.0" y1="241.0" x2="1.0" y2="256.0" />
	<line x1="31.0" y1="256.0" x2="46.0" y2="256.0" />
	<line x1="61.0" y1="241.0" x2="61.0" y2="256.0" />
	<line x1="76.0" y1="256.0" x2="91.0" y2="256.0" />
	<line x1="91.0" y1="241.0" x2="91.0" y2="256.0" />
	<line x1="106.0" y1="256.0" x2="121.0" y2="256.0" />
	<line x1="121.0" y1="256.0" x2="136.0" y2="256.0" />
	<line x1="136.0" y1="241.0" x2="136.0" y2="256.0" />
	<line x1="151.0" y1="241.0" x2="151.0" y2="256.0" />
	<line x1="196.0" y1="241.0" x2="196.0" y2="256.0" />
	<line x1="211.0" y1="241.0" x2="211.0" y2="256.0" />
	<line x1="256.0" y1="241.0" x2="256.0" y2="256.0" />
	<line x1="301.0" y1="241.0" x2="301.0" y2="256.0" />
	<line x1="316.0" y1="241.0" x2="316.0" y2="256.0" />
	<line x1="331.0" y1="241.0" x2="331.0" y2="256.0" />
	<line x1="331.0" y1="256.0" x2="346.0" y2="256.0" />
	<line x1="361.0" y1="241.0" x2="361.0" y2="256.0" />
	<line x1="436.0" y1="241.0" x2="436.0" y2="256.0" />
	<line x1="451.0" y1="241.0" x2="451.0" y2="256.0" />
	<line x1="466.0" y1="241.0" x2="466.0" y2="256.0" />
	<line x1="481.0" y1="241.0" x2="481.0" y2="256.0" />
	<line x1="16.0" y1="256.0" x2="16.0" y2="271.0" />
	<line x1="1.0" y1="256.0" x2="1.0" y2="271.0" />
	<line x1="31.0" y1="256.0" x2="31.0" y2="271.0" />
	<line x1="46.0" y1="271.0" x2="61.0" y2="271.0" />
	<line x1="61.0" y1="256.0" x2="61.0" y2="271.0" />
	<line x1="76.0" y1="271.0" x2="91.0" y2="271.0" />
	<line x1="91.0" y1="256.0" x2="91.0" y2="271.0" />
	<line x1="106.0" y1="271.0" x2="121.0" y2="271.0" />
	<line x1="121.0" y1="271.0" x2="136.0" y2="271.0" />
	<line x1="136.0" y1="256.0" x2="136.0" y2="271.0" />
	<line x1="166.0" y1="256.0" x2="166.0" y2="271.0" />
	<line x1="181.0" y1="256.0" x2="181.0" y2="271.0" />
	<line x1="226.0" y1="256.0" x2="226.0" y2="271.0" />
	<line x1="241.0" y1="256.0" x2="241.0" y2="271.0" />
	<line x1="301.0" y1="256.0" x2="301.0" y2="271.0" />
	<line x1="316.0" y1="256.0" x2="316.0" y2="271.0" />
	<line x1="331.0" y1="256.0" x2="331.0" y2="271.0" />
	<line x1="346.0" y1="271.0" x2="361.0" y2="271.0" />
	<line x1="361.0" y1="256.0" x2="361.0" y2="271.0" />
	<line x1="436.0" y1="256.0" x2="436.0" y2="271.0" />
	<line x1="451.0" y1="256.0" x2="451.0" y2="271.0" />
	<line x1="466.0" y1="256.0" x2="466.0" y2="271.0" />
	<line x1="481.0" y1="256.0" x2="481.0" y2="271.0" />
	<line x1="16.0" y1="271.0" x2="16.0" y2="286.0" />
	<line x1="1.0" y1="271.0" x2="1.0" y2="286.0" />
	<line x1="31.0" y1="271.0" x2="31.0" y2="286.0" />
	<line x1="46.0" y1="271.0" x2="46.0" y2="286.0" />
	<line x1="61.0" y1="286.0" x2="76.0" y2="286.0" />
	<line x1="76.0" y1="286.0" x2="91.0" y2="286.0" />
	<line x1="91.0" y1="286.0" x2="106.0" y2="286.0" />
	<line x1="106.0" y1="286.0" x2="121.0" y2="286.0" />
	<line x1="121.0" y1="286.0" x2="136.0" y2="286.0" />
	<line x1="136.0" y1="271.0" x2="136.0" y2="286.0" />
	<line x1="151.0" y1="271.0" x2="151.0" y2="286.0" />
	<line x1="196.0" y1="271.0" x2="196.0" y2="286.0" />
	<line x1="211.0" y1="271.0" x2="211.0" y2="286.0" />
	<line x1="256.0" y1="271.0" x2="256.0" y2="286.0" />
	<line x1="256.0" y1="286.0" x2="271.0" y2="286.0" />
	<line x1="271.0" y1="286.0" x2="286.0" y2="286.0" />
	<line x1="286.0" y1="286.0" x2="301.0" y2="286.0" />
	<line x1="301.0" y1="271.0" x2="301.0" y2="286.0" />
	<line x1="316.0" y1="271.0" x2="316.0" y2="286.0" />
	<line x1="331.0" y1="271.0" x2="331.0" y2="286.0" />
	<line x1="331.0" y1="286.0" x2="346.0" y2="286.0" />
	<line x1="361.0" y1="271.0" x2="361.0" y2="286.0" />
	<line x1="436.0" y1="271.0" x2="436.0" y2="286.0" />
	<line x1="451.0" y1="271.0" x2="451.0" y2="286.0" />
	<line x1="466.0" y1="271.0" x2="466.0" y2="286.0" />
	<line x1="481.0" y1="271.0" x2="481.0" y2="286.0" />
	<line x1="16.0" y1="286.0" x2="16.0" y2="301.0" />
	<line x1="1.0" y1="286.0" x2="1.0" y2="301.0" />
	<line x1="31.0" y1="286.0" x2="31.0" y2="301.0" />
	<line x1="46.0" y1="286.0" x2="46.0" y2="301.0" />
	<line x1="61.0" y1="286.0" x2="61.0" y2="301.0" />
	<line x1="136.0" y1="286.0" x2="136.0" y2="301.0" />
	<line x1="151.0" y1="286.0" x2="151.0" y2="301.0" />
	<line x1="166.0" y1="286.0" x2="166.0" y2="301.0" />
	<line x1="181.0" y1="286.0" x2="181.0" y2="301.0" />
	<line x1="226.0" y1="286.0" x2="226.0" y2="301.0" />
	<line x1="226.0" y1="301.0" x2="241.0" y2="301.0" />
	<line x1="241.0" y1="286.0" x2="241.0" y2="301.0" />
	<line x1="241.0" y1="301.0" x2="256.0" y2="301.0" />
	<line x1="256.0" y1="301.0" x2="271.0" y2="301.0" />
	<line x1="271.0" y1="301.0" x2="286.0" y2="301.0" />
	<line x1="286.0" y1="301.0" x2="301.0" y2="301.0" />
	<line x1="301.0" y1="301.0" x2="316.0" y2="301.0" />
	<line x1="316.0" y1="286.0" x2="316.0" y2="301.0" />
	<line x1="331.0" y1="286.0" x2="331.0" y2="301.0" />
	<line x1="346.0" y1="301.0" x2="361.0" y2="301.0" />
	<line x1="361.0" y1="286.0" x2="361.0" y2="301.0" />
	<line x1="361.0" y1="301.0" x2="376.0" y2="301.0" />
	<line x1="376.0" y1="301.0" x2="391.0" y2="301.0" />
	<line x1="391.0" y1="301.0" x2="406.0" y2="301.0" />
	<line x1="406.0" y1="301.0" x2="421.0" y2="301.0" />
	<line x1="421.0" y1="301.0" x2="436.0" y2="301.0" />
	<line x1="436.0" y1="286.0" x2="436.0" y2="301.0" />
	<line x1="451.0" y1="286.0" x2="451.0" y2="301.0" />
	<line x1="466.0" y1="286.0" x2="466.0" y2="301.0" />
	<line x1="481.0" y1="286.0" x2="481.0" y2="301.0" />
	<line x1="16.0" y1="301.0" x2="16.0" y2="316.0" />
	<line x1="1.0" y1="301.0" x2="1.0" y2="316.0" />
	<line x1="31.0" y1="316.0" x2="46.0" y2="316.0" />
	<line x1="46.0" y1="301.0" x2="46.0" y2="316.0" />
	<line x1="61.0" y1="301.0" x2="61.0" y2="316.0" />
	<line x1="136.0" y1="301.0" x2="136.0" y2="316.0" />
	<line x1="151.0" y1="301.0" x2="151.0" y2="316.0" />
	<line x1="166.0" y1="316.0" x2="181.0" y2="316.0" />
	<line x1="181.0" y1="316.0" x2="196.0" y2="316.0" />
	<line x1="196.0" y1="301.0" x2="196.0" y2="316.0" />
	<line x1="196.0" y1="316.0" x2="211.0" y2="316.0" />
	<line x1="211.0" y1="301.0" x2="211.0" y2="316.0" />
	<line x1="211.0" y1="316.0" x2="226.0" y2="316.0" />
	<line x1="226.0" y1="316.0" x2="241.0" y2="316.0" />
	<line x1="241.0" y1="316.0" x2="256.0" y2="316.0" />
	<line x1="256.0" y1="316.0" x2="271.0" y2="316.0" />
	<line x1="271.0" y1="316.0" x2="286.0" y2="316.0" />
	<line x1="301.0" y1="316.0" x2="316.0" y2="316.0" />
	<line x1="331.0" y1="301.0" x2="331.0" y2="316.0" />
	<line x1="331.0" y1="316.0" x2="346.0" y2="316.0" />
	<line x1="361.0" y1="301.0" x2="361.0" y2="316.0" />
	<line x1="361.0" y1="316.0" x2="376.0" y2="316.0" />
	<line x1="376.0" y1="316.0" x2="391.0" y2="316.0" />
	<line x1="391.0" y1="316.0" x2="406.0" y2="316.0" />
	<line x1="406.0" y1="316.0" x2="421.0" y2="316.0" />
	<line x1="421.0" y1="316.0" x2="436.0" y2="316.0" />
	<line x1="451.0" y1="301.0" x2="451.0" y2="316.0" />
	<line x1="466.0" y1="301.0" x2="466.0" y2="316.0" />
	<line x1="481.0" y1="301.0" x2="481.0" y2="316.0" />
	<line x1="16.0" y1="316.0" x2="16.0" y2="331.0" />
	<line x1="1.0" y1="316.0" x2="1.0" y2="331.0" />
	<line x1="31.0" y1="316.0" x2="31.0" y2="331.0" />
	<line x1="46.0" y1="331.0" x2="61.0" y2="331.0" />
	<line x1="61.0" y1="316.0" x2="61.0" y2="331.0" />
	<line x1="136.0" y1="316.0" x2="136.0" y2="331.0" />
	<line x1="151.0" y1="316.0" x2="151.0" y2="331.0" />
	<line x1="151.0" y1="331.0" x2="166.0" y2="331.0" />
	<line x1="166.0" y1="316.0" x2="166.0" y2="331.0" />
	<line x1="166.0" y1="331.0" x2="181.0" y2="331.0" />
	<line x1="196.0" y1="331.0" x2="211.0" y2="331.0" />
	<line x1="211.0" y1="331.0" x2="226.0" y2="331.0" />
	<line x1="226.0" y1="331.0" x2="241.0" y2="331.0" />
	<line x1="241.0" y1="331.0" x2="256.0" y2="331.0" />
	<line x1="256.0" y1="331.0" x2="271.0" y2="331.0" />
	<line x1="286.0" y1="316.0" x2="286.0" y2="331.0" />
	<line x1="286.0" y1="331.0" x2="301.0" y2="331.0" />
	<line x1="301.0" y1="331.0" x2="316.0" y2="331.0" />
	<line x1="316.0" y1="331.0" x2="331.0" y2="331.0" />
	<line x1="331.0" y1="316.0" x2="331.0" y2="331.0" />
	<line x1="346.0" y1="331.0" x2="361.0" y2="331.0" />
	<line x1="361.0" y1="316.0" x2="361.0" y2="331.0" />
	<line x1="376.0" y1="316.0" x2="376.0" y2="331.0" />
	<line x1="391.0" y1="316.0" x2="391.0" y2="331.0" />
	<line x1="406.0" y1="316.0" x2="406.0" y2="331.0" />
	<line x1="421.0" y1="331.0" x2="436.0" y2="331.0" />
	<line x1="436.0" y1="331.0" x2="451.0" y2="331.0" />
	<line x1="451.0" y1="316.0" x2="451.0" y2="331.0" />
	<line x1="466.0" y1="316.0" x2="466.0" y2="331.0" />
	<line x1="481.0" y1="316.0" x2="481.0" y2="331.0" />
	<line x1="16.0" y1="331.0" x2="16.0" y2="346.0" />
	<line x1="1.0" y1="331.0" x2="1.0" y2="346.0" />
	<line x1="31.0" y1="331.0" x2="31.0" y2="346.0" />
	<line x1="46.0" y1="331.0" x2="46.0" y2="346.0" />
	<line x1="61.0" y1="331.0" x2="61.0" y2="346.0" />
	<line x1="136.0" y1="331.0" x2="136.0" y2="346.0" />
	<line x1="136.0" y1="346.0" x2="151.0" y2="346.0" />
	<line x1="151.0" y1="346.0" x2="166.0" y2="346.0" />
	<line x1="181.0" y1="331.0" x2="181.0" y2="346.0" />
	<line x1="181.0" y1="346.0" x2="196.0" y2="346.0" />
	<line x1="211.0" y1="346.0" x2="226.0" y2="346.0" />
	<line x1="226.0" y1="346.0" x2="241.0" y2="346.0" />
	<line x1="256.0" y1="346.0" x2="271.0" y2="346.0" />
	<line x1="271.0" y1="331.0" x2="271.0" y2="346.0" />
	<line x1="286.0" y1="331.0" x2="286.0" y2="346.0" />
	<line x1="301.0" y1="346.0" x2="316.0" y2="346.0" />
	<line x1="316.0" y1="346.0" x2="331.0" y2="346.0" />
	<line x1="331.0" y1="346.0" x2="346.0" y2="346.0" />
	<line x1="346.0" y1="331.0" x2="346.0" y2="346.0" />
	<line x1="361.0" y1="346.0" x2="376.0" y2="346.0" />
	<line x1="376.0" y1="346.0" x2="391.0" y2="346.0" />
	<line x1="406.0" y1="331.0" x2="406.0" y2="346.0" />
	<line x1="421.0" y1="331.0" x2="421.0" y2="346.0" />
	<line x1="436.0" y1="346.0" x2="451.0" y2="346.0" />
	<line x1="451.0" y1="346.0" x2="466.0" y2="346.0" />
	<line x1="466.0" y1="331.0" x2="466.0" y2="346.0" />
	<line x1="481.0" y1="331.0" x2="481.0" y2="346.0" />
	<line x1="16.0" y1="346.0" x2="16.0" y2="361.0" />
	<line x1="1.0" y1="346.0" x2="1.0" y2="361.0" />
	<line x1="31.0" y1="346.0" x2="31.0" y2="361.0" />
	<line x1="46.0" y1="346.0" x2="46.0" y2="361.0" />
	<line x1="61.0" y1="346.0" x2="61.0" y2="361.0" />
	<line x1="61.0" y1="361.0" x2="76.0" y2="361.0" />
	<line x1="76.0" y1="361.0" x2="91.0" y2="361.0" />
	<line x1="91.0" y1="361.0" x2="106.0" y2="361.0" />
	<line x1="106.0" y1="361.0" x2="121.0" y2="361.0" />
	<line x1="121.0" y1="361.0" x2="136.0" y2="361.0" />
	<line x1="136.0" y1="346.0" x2="136.0" y2="361.0" />
	<line x1="166.0" y1="346.0" x2="166.0" y2="361.0" />
	<line x1="166.0" y1="361.0" x2="181.0" y2="361.0" />
	<line x1="196.0" y1="346.0" x2="196.0" y2="361.0" />
	<line x1="196.0" y1="361.0" x2="211.0" y2="361.0" />
	<line x1="211.0" y1="361.0" x2="226.0" y2="361.0" />
	<line x1="226.0" y1="361.0" x2="241.0" y2="361.0" />
	<line x1="241.0" y1="361.0" x2="256.0" y2="361.0" />
	<line x1="286.0" y1="346.0" x2="286.0" y2="361.0" />
	<line x1="301.0" y1="346.0" x2="301.0" y2="361.0" />
	<line x1="316.0" y1="361.0" x2="331.0" y2="361.0" />
	<line x1="346.0" y1="346.0" x2="346.0" y2="361.0" />
	<line x1="346.0" y1="361.0" x2="361.0" y2="361.0" />
	<line x1="361.0" y1="361.0" x2="376.0" y2="361.0" />
	<line x1="391.0" y1="346.0" x2="391.0" y2="361.0" />
	<line x1="421.0" y1="346.0" x2="421.0" y2="361.0" />
	<line x1="436.0" y1="346.0" x2="436.0" y2="361.0" />
	<line x1="451.0" y1="361.0" x2="466.0" y2="361.0" />
	<line x1="466.0" y1="361.0" x2="481.0" y2="361.0" />
	<line x1="481.0" y1="346.0" x2="481.0" y2="361.0" />
	<line x1="1.0" y1="376.0" x2="16.0" y2="376.0" />
	<line x1="1.0" y1="361.0" x2="1.0" y2="376.0" />
	<line x1="31.0" y1="361.0" x2="31.0" y2="376.0" />
	<line x1="31.0" y1="376.0" x2="46.0" y2="376.0" />
	<line x1="46.0" y1="376.0" x2="61.0" y2="376.0" />
	<line x1="61.0" y1="376.0" x2="76.0" y2="376.0" />
	<line x1="76.0" y1="376.0" x2="91.0" y2="376.0" />
	<line x1="91.0" y1="376.0" x2="106.0" y2="376.0" />
	<line x1="121.0" y1="361.0" x2="121.0" y2="376.0" />
	<line x1="136.0" y1="361.0" x2="136.0" y2="376.0" />
	<line x1="151.0" y1="361.0" x2="151.0" y2="376.0" />
	<line x1="166.0" y1="361.0" x2="166.0" y2="376.0" />
	<line x1="181.0" y1="361.0" x2="181.0" y2="376.0" />
	<line x1="181.0" y1="376.0" x2="196.0" y2="376.0" />
	<line x1="196.0" y1="376.0" x2="211.0" y2="376.0" />
	<line x1="211.0" y1="376.0" x2="226.0" y2="376.0" />
	<line x1="226.0" y1="376.0" x2="241.0" y2="376.0" />
	<line x1="256.0" y1="361.0" x2="256.0" y2="376.0" />
	<line x1="271.0" y1="361.0" x2="271.0" y2="376.0" />
	<line x1="286.0" y1="361.0" x2="286.0" y2="376.0" />
	<line x1="301.0" y1="361.0" x2="301.0" y2="376.0" />
	<line x1="316.0" y1="361.0" x2="316.0" y2="376.0" />
	<line x1="331.0" y1="376.0" x2="346.0" y2="376.0" />
	<line x1="346.0" y1="376.0" x2="361.0" y2="376.0" />
	<line x1="361.0" y1="376.0" x2="376.0" y2="376.0" />
	<line x1="376.0" y1="376.0" x2="391.0" y2="376.0" />
	<line x1="391.0" y1="361.0" x2="391.0" y2="376.0" />
	<line x1="391.0" y1="376.0" x2="406.0" y2="376.0" />
	<line x1="406.0" y1="361.0" x2="406.0" y2="376.0" />
	<line x1="421.0" y1="361.0" x2="421.0" y2="376.0" />
	<line x1="436.0" y1="361.0" x2="436.0" y2="376.0" />
	<line x1="436.0" y1="376.0" x2="451.0" y2="376.0" />
	<line x1="451.0" y1="376.0" x2="466.0" y2="376.0" />
	<line x1="481.0" y1="361.0" x2="481.0" y2="376.0" />
	<line x1="1.0" y1="376.0" x2="1.0" y2="391.0" />
	<line x1="31.0" y1="376.0" x2="31.0" y2="391.0" />
	<line x1="61.0" y1="376.0" x2="61.0" y2="391.0" />
	<line x1="76.0" y1="376.0" x2="76.0" y2="391.0" />
	<line x1="106.0" y1="391.0" x2="121.0" y2="391.0" />
	<line x1="121.0" y1="376.0" x2="121.0" y2="391.0" />
	<line x1="136.0" y1="376.0" x2="136.0" y2="391.0" />
	<line x1="151.0" y1="391.0" x2="166.0" y2="391.0" />
	<line x1="166.0" y1="376.0" x2="166.0" y2="391.0" />
	<line x1="181.0" y1="376.0" x2="181.0" y2="391.0" />
	<line x1="241.0" y1="376.0" x2="241.0" y2="391.0" />
	<line x1="256.0" y1="376.0" x2="256.0" y2="391.0" />
	<line x1="271.0" y1="376.0" x2="271.0" y2="391.0" />
	<line x1="271.0" y1="391.0" x2="286.0" y2="391.0" />
	<line x1="301.0" y1="376.0" x2="301.0" y2="391.0" />
	<line x1="316.0" y1="376.0" x2="316.0" y2="391.0" />
	<line x1="316.0" y1="391.0" x2="331.0" y2="391.0" />
	<line x1="331.0" y1="376.0" x2="331.0" y2="391.0" />
	<line x1="346.0" y1="391.0" x2="361.0" y2="391.0" />
	<line x1="361.0" y1="391.0" x2="376.0" y2="391.0" />
	<line x1="376.0" y1="391.0" x2="391.0" y2="391.0" />
	<line x1="406.0" y1="376.0" x2="406.0" y2="391.0" />
	<line x1="406.0" y1="391.0" x2="421.0" y2="391.0" />
	<line x1="421.0" y1="391.0" x2="436.0" y2="391.0" />
	<line x1="436.0" y1="391.0" x2="451.0" y2="391.0" />
	<line x1="451.0" y1="391.0" x2="466.0" y2="391.0" />
	<line x1="466.0" y1="376.0" x2="466.0" y2="391.0" />
	<line x1="481.0" y1="376.0" x2="481.0" y2="391.0" />
	<line x1="16.0" y1="391.0" x2="16.0" y2="406.0" />
	<line x1="1.0" y1="391.0" x2="1.0" y2="406.0" />
	<line x1="31.0" y1="391.0" x2="31.0" y2="406.0" />
	<line x1="46.0" y1="391.0" x2="46.0" y2="406.0" />
	<line x1="61.0" y1="391.0" x2="61.0" y2="406.0" />
	<line x1="76.0" y1="406.0" x2="91.0" y2="406.0" />
	<line x1="91.0" y1="391.0" x2="91.0" y2="406.0" />
	<line x1="106.0" y1="391.0" x2="106.0" y2="406.0" />
	<line x1="121.0" y1="406.0" x2="136.0" y2="406.0" />
	<line x1="136.0" y1="391.0" x2="136.0" y2="406.0" />
	<line x1="151.0" y1="391.0" x2="151.0" y2="406.0" />
	<line x1="166.0" y1="391.0" x2="166.0" y2="406.0" />
	<line x1="181.0" y1="391.0" x2="181.0" y2="406.0" />
	<line x1="241.0" y1="391.0" x2="241.0" y2="406.0" />
	<line x1="256.0" y1="391.0" x2="256.0" y2="406.0" />
	<line x1="256.0" y1="406.0" x2="271.0" y2="406.0" />
	<line x1="286.0" y1="391.0" x2="286.0" y2="406.0" />
	<line x1="301.0" y1="391.0" x2="301.0" y2="406.0" />
	<line x1="301.0" y1="406.0" x2="316.0" y2="406.0" />
	<line x1="331.0" y1="391.0" x2="331.0" y2="406.0" />
	<line x1="346.0" y1="391.0" x2="346.0" y2="406.0" />
	<line x1="391.0" y1="391.0" x2="391.0" y2="406.0" />
	<line x1="406.0" y1="406.0" x2="421.0" y2="406.0" />
	<line x1="421.0" y1="406.0" x2="436.0" y2="406.0" />
	<line x1="436.0" y1="406.0" x2="451.0" y2="406.0" />
	<line x1="466.0" y1="391.0" x2="466.0" y2="406.0" />
	<line x1="481.0" y1="391.0" x2="481.0" y2="406.0" />
	<line x1="16.0" y1="406.0" x2="16.0" y2="421.0" />
	<line x1="1.0" y1="406.0" x2="1.0" y2="421.0" />
	<line x1="16.0" y1="421.0" x2="31.0" y2="421.0" />
	<line x1="46.0" y1="406.0" x2="46.0" y2="421.0" />
	<line x1="61.0" y1="406.0" x2="61.0" y2="421.0" />
	<line x1="91.0" y1="406.0" x2="91.0" y2="421.0" />
	<line x1="106.0" y1="406.0" x2="106.0" y2="421.0" />
	<line x1="106.0" y1="421.0" x2="121.0" y2="421.0" />
	<line x1="136.0" y1="406.0" x2="136.0" y2="421.0" />
	<line x1="151.0" y1="406.0" x2="151.0" y2="421.0" />
	<line x1="181.0" y1="406.0" x2="181.0" y2="421.0" />
	<line x1="241.0" y1="406.0" x2="241.0" y2="421.0" />
	<line x1="241.0" y1="421.0" x2="256.0" y2="421.0" />
	<line x1="256.0" y1="421.0" x2="271.0" y2="421.0" />
	<line x1="271.0" y1="421.0" x2="286.0" y2="421.0" />
	<line x1="286.0" y1="406.0" x2="286.0" y2="421.0" />
	<line x1="301.0" y1="406.0" x2="301.0" y2="421.0" />
	<line x1="316.0" y1="421.0" x2="331.0" y2="421.0" />
	<line x1="331.0" y1="406.0" x2="331.0" y2="421.0" />
	<line x1="346.0" y1="406.0" x2="346.0" y2="421.0" />
	<line x1="391.0" y1="406.0" x2="391.0" y2="421.0" />
	<line x1="406.0" y1="406.0" x2="406.0" y2="421.0" />
	<line x1="421.0" y1="421.0" x2="436.0" y2="421.0" />
	<line x1="436.0" y1="421.0" x2="451.0" y2="421.0" />
	<line x1="451.0" y1="421.0" x2="466.0" y2="421.0" />
	<line x1="466.0" y1="406.0" x2="466.0" y2="421.0" />
	<line x1="481.0" y1="406.0" x2="481.0" y2="421.0" />
	<line x1="1.0" y1="421.0" x2="1.0" y2="436.0" />
	<line x1="31.0" y1="421.0" x2="31.0" y2="436.0" />
	<line x1="46.0" y1="421.0" x2="46.0" y2="436.0" />
	<line x1="46.0" y1="436.0" x2="61.0" y2="436.0" />
	<line x1="76.0" y1="421.0" x2="76.0" y2="436.0" />
	<line x1="76.0" y1="436.0" x2="91.0" y2="436.0" />
	<line x1="91.0" y1="436.0" x2="106.0" y2="436.0" />
	<line x1="121.0" y1="436.0" x2="136.0" y2="436.0" />
	<line x1="136.0" y1="436.0" x2="151.0" y2="436.0" />
	<line x1="151.0" y1="436.0" x2="166.0" y2="436.0" />
	<line x1="166.0" y1="421.0" x2="166.0" y2="436.0" />
	<line x1="181.0" y1="421.0" x2="181.0" y2="436.0" />
	<line x1="181.0" y1="436.0" x2="196.0" y2="436.0" />
	<line x1="196.0" y1="436.0" x2="211.0" y2="436.0" />
	<line x1="211.0" y1="436.0" x2="226.0" y2="436.0" />
	<line x1="226.0" y1="436.0" x2="241.0" y2="436.0" />
	<line x1="241.0" y1="421.0" x2="241.0" y2="436.0" />
	<line x1="271.0" y1="421.0" x2="271.0" y2="436.0" />
	<line x1="286.0" y1="421.0" x2="286.0" y2="436.0" />
	<line x1="301.0" y1="421.0" x2="301.0" y2="436.0" />
	<line x1="301.0" y1="436.0" x2="316.0" y2="436.0" />
	<line x1="331.0" y1="421.0" x2="331.0" y2="436.0" />
	<line x1="346.0" y1="421.0" x2="346.0" y2="436.0" />
	<line x1="346.0" y1="436.0" x2="361.0" y2="436.0" />
	<line x1="361.0" y1="436.0" x2="376.0" y2="436.0" />
	<line x1="376.0" y1="436.0" x2="391.0" y2="436.0" />
	<line x1="391.0" y1="421.0" x2="391.0" y2="436.0" />
	<line x1="406.0" y1="421.0" x2="406.0" y2="436.0" />
	<line x1="421.0" y1="421.0" x2="421.0" y2="436.0" />
	<line x1="436.0" y1="436.0" x2="451.0" y2="436.0" />
	<line x1="451.0" y1="436.0" x2="466.0" y2="436.0" />
	<line x1="481.0" y1="421.0" x2="481.0" y2="436.0" />
	<line x1="16.0" y1="436.0" x2="16.0" y2="451.0" />
	<line x1="1.0" y1="436.0" x2="1.0" y2="451.0" />
	<line x1="31.0" y1="436.0" x2="31.0" y2="451.0" />
	<line x1="31.0" y1="451.0" x2="46.0" y2="451.0" />
	<line x1="46.0" y1="451.0" x2="61.0" y2="451.0" />
	<line x1="61.0" y1="451.0" x2="76.0" y2="451.0" />
	<line x1="76.0" y1="451.0" x2="91.0" y2="451.0" />
	<line x1="91.0" y1="451.0" x2="106.0" y2="451.0" />
	<line x1="106.0" y1="451.0" x2="121.0" y2="451.0" />
	<line x1="121.0" y1="451.0" x2="136.0" y2="451.0" />
	<line x1="136.0" y1="451.0" x2="151.0" y2="451.0" />
	<line x1="151.0" y1="451.0" x2="166.0" y2="451.0" />
	<line x1="166.0" y1="451.0" x2="181.0" y2="451.0" />
	<line x1="181.0" y1="451.0" x2="196.0" y2="451.0" />
	<line x1="196.0" y1="451.0" x2="211.0" y2="451.0" />
	<line x1="211.0" y1="451.0" x2="226.0" y2="451.0" />
	<line x1="226.0" y1="451.0" x2="241.0" y2="451.0" />
	<line x1="241.0" y1="451.0" x2="256.0" y2="451.0" />
	<line x1="256.0" y1="436.0" x2="256.0" y2="451.0" />
	<line x1="256.0" y1="451.0" x2="271.0" y2="451.0" />
	<line x1="286.0" y1="436.0" x2="286.0" y2="451.0" />
	<line x1="286.0" y1="451.0" x2="301.0" y2="451.0" />
	<line x1="301.0" y1="451.0" x2="316.0" y2="451.0" />
	<line x1="316.0" y1="451.0" x2="331.0" y2="451.0" />
	<line x1="331.0" y1="436.0" x2="331.0" y2="451.0" />
	<line x1="331.0" y1="451.0" x2="346.0" y2="451.0" />
	<line x1="346.0" y1="451.0" x2="361.0" y2="451.0" />
	<line x1="361.0" y1="451.0" x2="376.0" y2="451.0" />
	<line x1="376.0" y1="451.0" x2="391.0" y2="451.0" />
	<line x1="391.0" y1="451.0" x2="406.0" y2="451.0" />
	<line x1="406.0" y1="436.0" x2="406.0" y2="451.0" />
	<line x1="421.0" y1="436.0" x2="421.0" y2="451.0" />
	<line x1="436.0" y1="436.0" x2="436.0" y2="451.0" />
	<line x1="451.0" y1="436.0" x2="451.0" y2="451.0" />
	<line x1="466.0" y1="436.0" x2="466.0" y2="451.0" />
	<line x1="481.0" y1="436.0" x2="481.0" y2="451.0" />
	<line x1="16.0" y1="451.0" x2="16.0" y2="466.0" />
	<line x1="1.0" y1="451.0" x2="1.0" y2="466.0" />
	<line x1="46.0" y1="466.0" x2="61.0" y2="466.0" />
	<line x1="61.0" y1="466.0" x2="76.0" y2="466.0" />
	<line x1="76.0" y1="466.0" x2="91.0" y2="466.0" />
	<line x1="91.0" y1="466.0" x2="106.0" y2="466.0" />
	<line x1="106.0" y1="466.0" x2="121.0" y2="466.0" />
	<line x1="121.0" y1="466.0" x2="136.0" y2="466.0" />
	<line x1="136.0" y1="466.0" x2="151.0" y2="466.0" />
	<line x1="151.0" y1="466.0" x2="166.0" y2="466.0" />
	<line x1="166.0" y1="466.0" x2="181.0" y2="466.0" />
	<line x1="181.0" y1="466.0" x2="196.0" y2="466.0" />
	<line x1="196.0" y1="466.0" x2="211.0" y2="466.0" />
	<line x1="211.0" y1="466.0" x2="226.0" y2="466.0" />
	<line x1="226.0" y1="466.0" x2="241.0" y2="466.0" />
	<line x1="241.0" y1="466.0" x2="256.0" y2="466.0" />
	<line x1="256.0" y1="466.0" x2="271.0" y2="466.0" />
	<line x1="271.0" y1="466.0" x2="286.0" y2="466.0" />
	<line x1="286.0" y1="466.0" x2="301.0" y2="466.0" />
	<line x1="301.0" y1="466.0" x2="316.0" y2="466.0" />
	<line x1="316.0" y1="466.0" x2="331.0" y2="466.0" />
	<line x1="331.0" y1="466.0" x2="346.0" y2="466.0" />
	<line x1="346.0" y1="466.0" x2="361.0" y2="466.0" />
	<line x1="361.0" y1="466.0" x2="376.0" y2="466.0" />
	<line x1="376.0" y1="466.0" x2="391.0" y2="466.0" />
	<line x1="391.0" y1="466.0" x2="406.0" y2="466.0" />
	<line x1="406.0" y1="466.0" x2="421.0" y2="466.0" />
	<line x1="421.0" y1="451.0" x2="421.0" y2="466.0" />
	<line x1="436.0" y1="451.0" x2="436.0" y2="466.0" />
	<line x1="466.0" y1="451.0" x2="466.0" y2="466.0" />
	<line x1="481.0" y1="451.0" x2="481.0" y2="466.0" />
	<line x1="1.0" y1="481.0" x2="16.0" y2="481.0" />
	<line x1="16.0" y1="466.0" x2="16.0" y2="481.0" />
	<line x1="1.0" y1="466.0" x2="1.0" y2="481.0" />
	<line x1="16.0" y1="481.0" x2="31.0" y2="481.0" />
	<line x1="31.0" y1="466.0" x2="31.0" y2="481.0" />
	<line x1="31.0" y1="481.0" x2="46.0" y2="481.0" />
	<line x1="46.0" y1="481.0" x2="61.0" y2="481.0" />
	<line x1="61.0" y1="481.0" x2="76.0" y2="481.0" />
	<line x1="76.0" y1="481.0" x2="91.0" y2="481.0" />
	<line x1="91.0" y1="481.0" x2="106.0" y2="481.0" />
	<line x1="106.0" y1="481.0" x2="121.0" y2="481.0" />
	<line x1="121.0" y1="481.0" x2="136.0" y2="481.0" />
	<line x1="136.0" y1="481.0" x2="151.0" y2="481.0" />
	<line x1="151.0" y1="481.0" x2="166.0" y2="481.0" />
	<line x1="166.0" y1="481.0" x2="181.0" y2="481.0" />
	<line x1="181.0" y1="481.0" x2="196.0" y2="481.0" />
	<line x1="196.0" y1="481.0" x2="211.0" y2="481.0" />
	<line x1="211.0" y1="481.0" x2="226.0" y2="481.0" />
	<line x1="226.0" y1="481.0" x2="241.0" y2="481.0" />
	<line x1="241.0" y1="481.0" x2="256.0" y2="481.0" />
	<line x1="256.0" y1="481.0" x2="271.0" y2="481.0" />
	<line x1="271.0" y1="481.0" x2="286.0" y2="481.0" />
	<line x1="286.0" y1="481.0" x2="301.0" y2="481.0" />
	<line x1="301.0" y1="481.0" x2="316.0" y2="481.0" />
	<line x1="316.0" y1="481.0" x2="331.0" y2="481.0" />
	<line x1="331.0" y1="481.0" x2="346.0" y2="481.0" />
	<line x1="346.0" y1="481.0" x2="361.0" y2="481.0" />
	<line x1="361.0" y1="481.0" x2="376.0" y2="481.0" />
	<line x1="376.0" y1="481.0" x2="391.0" y2="481.0" />
	<line x1="391.0" y1="481.0" x2="406.0" y2="481.0" />
	<line x1="406.0" y1="481.0" x2="421.0" y2="481.0" />
	<line x1="421.0" y1="481.0" x2="436.0" y2="481.0" />
	<line x1="436.0" y1="481.0" x2="451.0" y2="481.0" />
	<line x1="451.0" y1="466.0" x2="451.0" y2="481.0" />
	<line x1="451.0" y1="481.0" x2="466.0" y2="481.0" />
	<line x1="466.0" y1="481.0" x2="481.0" y2="481.0" />
	<line x1="481.0" y1="466.0" x2="481.0" y2="481.0" />
</svg>