<svg xmlns="http://www.w3.org/2000/svg" width="482" height="482">
	<path fill="#a50026" d="M1.0 466.0h15v15h-15z" />
	<path fill="#a70226" d="M1.0 451.0h15v15h-15z" />
	<path fill="#a90426" d="M1.0 436.0h15v15h-15z" />
	<path fill="#ad0826" d="M1.0 421.0h15v15h-15z" />
	<path fill="#af0926" d="M16.0 421.0h15v15h-15z" />
	<path fill="#b30d26" d="M16.0 436.0h15v15h-15z" />
	<path fill="#b50f26" d="M16.0 451.0h15v15h-15z" />
	<path fill="#b71126" d="M31.0 451.0h15v15h-15z" />
	<path fill="#bb1526" d="M31.0 466.0h15v15h-15z" />
	<path fill="#bd1726" d="M46.0 466.0h15v15h-15z" />
	<path fill="#c01a27" d="M61.0 466.0h15v15h-15z" />
	<path fill="#c21c27" d="M76.0 466.0h15v15h-15z" />
	<path fill="#c41e27" d="M91.0 466.0h15v15h-15z" />
	<path fill="#c82227" d="M106.0 466.0h15v15h-15z" />
	<path fill="#ca2427" d="M121.0 466.0h15v15h-15z" />
	<path fill="#ce2827" d="M136.0 466.0h15v15h-15z" />
	<path fill="#d02927" d="M151.0 466.0h15v15h-15z" />
	<path fill="#d42d27" d="M166.0 466.0h15v15h-15z" />
	<path fill="#d62f27" d="M181.0 466.0h15v15h-15z" />
	<path fill="#d83128" d="M196.0 466.0h15v15h-15z" />
	<path fill="#da362a" d="M211.0 466.0h15v15h-15z" />
	<path fill="#db382b" d="M226.0 466.0h15v15h-15z" />
	<path fill="#dd3d2d" d="M241.0 466.0h15v15h-15z" />
	<path fill="#de402e" d="M256.0 466.0h15v15h-15z" />
	<path fill="#e0422f" d="M271.0 466.0h15v15h-15z" />
	<path fill="#e24731" d="M286.0 466.0h15v15h-15z" />
	<path fill="#e34933" d="M301.0 466.0h15v15h-15z" />
	<path fill="#e54e35" d="M316.0 466.0h15v15h-15z" />
	<path fill="#e65036" d="M331.0 466.0h15v15h-15z" />
	<path fill="#e95538" d="M346.0 466.0h15v15h-15z" />
	<path fill="#ea5739" d="M361.0 466.0h15v15h-15z" />
	<path fill="#eb5a3a" d="M376.0 466.0h15v15h-15z" />
	<path fill="#ed5f3c" d="M391.0 466.0h15v15h-15z" />
	<path fill="#ee613e" d="M406.0 466.0h15v15h-15z" />
	<path fill="#f16640" d="M421.0 466.0h15v15h-15z" />
	<path fill="#f26841" d="M421.0 451.0h15v15h-15z" />
	<path fill="#f36b42" d="M421.0 436.0h15v15h-15z" />
	<path fill="#f47044" d="M421.0 421.0h15v15h-15z" />
	<path fill="#f57245" d="M436.0 421.0h15v15h-15z" />
	<path fill="#f57748" d="M451.0 421.0h15v15h-15z" />
	<path fill="#f67a49" d="M466.0 421.0h15v15h-15z" />
	<path fill="#f67c4a" d="M466.0 406.0h15v15h-15z" />
	<path fill="#f7814c" d="M466.0 391.0h15v15h-15z" />
	<path fill="#f7844e" d="M466.0 376.0h15v15h-15z" />
	<path fill="#f88950" d="M466.0 361.0h15v15h-15z" />
	<path fill="#f88c51" d="M451.0 361.0h15v15h-15z" />
	<path fill="#f99153" d="M436.0 361.0h15v15h-15z" />
	<path fill="#f99355" d="M436.0 346.0h15v15h-15z" />
	<path fill="#fa9656" d="M451.0 346.0h15v15h-15z" />
	<path fill="#fa9b58" d="M466.0 346.0h15v15h-15z" />
	<path fill="#fb9d59" d="M466.0 331.0h15v15h-15z" />
	<path fill="#fba35c" d="M466.0 316.0h15v15h-15z" />
	<path fill="#fca55d" d="M466.0 301.0h15v15h-15z" />
	<path fill="#fca85e" d="M466.0 286.0h15v15h-15z" />
	<path fill="#fdad60" d="M466.0 271.0h15v15h-15z" />
	<path fill="#fdaf62" d="M466.0 256.0h15v15h-15z" />
	<path fill="#fdb365" d="M466.0 241.0h15v15h-15z" />
	<path fill="#fdb567" d="M466.0 226.0h15v15h-15z" />
	<path fill="#fdb96a" d="M466.0 211.0h15v15h-15z" />
	<path fill="#fdbb6c" d="M466.0 196.0h15v15h-15z" />
	<path fill="#fdbd6d" d="M466.0 181.0h15v15h-15z" />
	<path fill="#fdc171" d="M466.0 166.0h15v15h-15z" />
	<path fill="#fdc372" d="M466.0 151.0h15v15h-15z" />
	<path fill="#fdc776" d="M466.0 136.0h15v15h-15z" />
	<path fill="#fec877" d="M466.0 121.0h15v15h-15z" />
	<path fill="#feca79" d="M466.0 106.0h15v15h-15z" />
	<path fill="#fece7c" d="M466.0 91.0h15v15h-15z" />
	<path fill="#fed07e" d="M466.0 76.0h15v15h-15z" />
	<path fill="#fed481" d="M466.0 61.0h15v15h-15z" />
	<path fill="#fed683" d="M451.0 61.0h15v15h-15z" />
	<path fill="#feda86" d="M451.0 76.0h15v15h-15z" />
	<path fill="#fedc88" d="M451.0 91.0h15v15h-15z" />
	<path fill="#fede89" d="M451.0 106.0h15v15h-15z" />
	<path fill="#fee18d" d="M436.0 106.0h15v15h-15z" />
	<path fill="#fee28f" d="M436.0 121.0h15v15h-15z" />
	<path fill="#fee593" d="M436.0 136.0h15v15h-15z" />
	<path fill="#fee695" d="M421.0 136.0h15v15h-15z" />
	<path fill="#fee797" d="M421.0 151.0h15v15h-15z" />
	<path fill="#feea9b" d="M406.0 151.0h15v15h-15z" />
	<path fill="#feeb9d" d="M391.0 151.0h15v15h-15z" />
	<path fill="#feeda1" d="M376.0 151.0h15v15h-15z" />
	<path fill="#feefa3" d="M361.0 151.0h15v15h-15z" />
	<path fill="#fff0a6" d="M361.0 136.0h15v15h-15z" />
	<path fill="#fff2aa" d="M346.0 136.0h15v15h-15z" />
	<path fill="#fff3ac" d="M346.0 151.0h15v15h-15z" />
	<path fill="#fff6b0" d="M346.0 166.0h15v15h-15z" />
	<path fill="#fff7b2" d="M361.0 166.0h15v15h-15z" />
	<path fill="#fffab6" d="M361.0 181.0h15v15h-15z" />
	<path fill="#fffbb8" d="M376.0 181.0h15v15h-15z" />
	<path fill="#fffcba" d="M391.0 181.0h15v15h-15z" />
	<path fill="#fffebe" d="M406.0 181.0h15v15h-15z" />
	<path fill="#feffbe" d="M421.0 181.0h15v15h-15z" />
	<path fill="#fbfdba" d="M436.0 181.0h15v15h-15z" />
	<path fill="#fafdb8" d="M451.0 181.0h15v15h-15z" />
	<path fill="#f8fcb6" d="M451.0 196.0h15v15h-15z" />
	<path fill="#f5fbb2" d="M451.0 211.0h15v15h-15z" />
	<path fill="#f4fab0" d="M451.0 226.0h15v15h-15z" />
	<path fill="#f1f9ac" d="M451.0 241.0h15v15h-15z" />
	<path fill="#eff8aa" d="M451.0 256.0h15v15h-15z" />
	<path fill="#ecf7a6" d="M451.0 271.0h15v15h-15z" />
	<path fill="#ebf7a3" d="M451.0 286.0h15v15h-15z" />
	<path fill="#e9f6a1" d="M451.0 301.0h15v15h-15z" />
	<path fill="#e6f59d" d="M451.0 316.0h15v15h-15z" />
	<path fill="#e5f49b" d="M451.0 331.0h15v15h-15z" />
	<path fill="#e2f397" d="M436.0 331.0h15v15h-15z" />
	<path fill="#e0f295" d="M421.0 331.0h15v15h-15z" />
	<path fill="#dff293" d="M421.0 346.0h15v15h-15z" />
	<path fill="#dcf08f" d="M421.0 361.0h15v15h-15z" />
	<path fill="#daf08d" d="M421.0 376.0h15v15h-15z" />
	<path fill="#d7ee8a" d="M406.0 376.0h15v15h-15z" />
	<path fill="#d5ed88" d="M406.0 361.0h15v15h-15z" />
	<path fill="#d3ec87" d="M406.0 346.0h15v15h-15z" />
	<path fill="#cfeb85" d="M391.0 346.0h15v15h-15z" />
	<path fill="#cdea83" d="M391.0 331.0h15v15h-15z" />
	<path fill="#c9e881" d="M376.0 331.0h15v15h-15z" />
	<path fill="#c7e77f" d="M361.0 331.0h15v15h-15z" />
	<path fill="#c3e67d" d="M346.0 331.0h15v15h-15z" />
	<path fill="#c1e57b" d="M346.0 346.0h15v15h-15z" />
	<path fill="#bfe47a" d="M361.0 346.0h15v15h-15z" />
	<path fill="#bbe278" d="M376.0 346.0h15v15h-15z" />
	<path fill="#b9e176" d="M376.0 361.0h15v15h-15z" />
	<path fill="#b5df74" d="M361.0 361.0h15v15h-15z" />
	<path fill="#b3df72" d="M346.0 361.0h15v15h-15z" />
	<path fill="#b1de71" d="M331.0 361.0h15v15h-15z" />
	<path fill="#addc6f" d="M331.0 346.0h15v15h-15z" />
	<path fill="#abdb6d" d="M316.0 346.0h15v15h-15z" />
	<path fill="#a7d96b" d="M301.0 346.0h15v15h-15z" />
	<path fill="#a5d86a" d="M301.0 361.0h15v15h-15z" />
	<path fill="#a0d669" d="M301.0 376.0h15v15h-15z" />
	<path fill="#9dd569" d="M301.0 391.0h15v15h-15z" />
	<path fill="#9bd469" d="M316.0 391.0h15v15h-15z" />
	<path fill="#96d268" d="M316.0 406.0h15v15h-15z" />
	<path fill="#93d168" d="M301.0 406.0h15v15h-15z" />
	<path fill="#8ecf67" d="M301.0 421.0h15v15h-15z" />
	<path fill="#8ccd67" d="M316.0 421.0h15v15h-15z" />
	<path fill="#89cc67" d="M316.0 436.0h15v15h-15z" />
	<path fill="#84ca66" d="M301.0 436.0h15v15h-15z" />
	<path fill="#82c966" d="M286.0 436.0h15v15h-15z" />
	<path fill="#7dc765" d="M286.0 421.0h15v15h-15z" />
	<path fill="#7ac665" d="M286.0 406.0h15v15h-15z" />
	<path fill="#75c465" d="M286.0 391.0h15v15h-15z" />
	<path fill="#73c264" d="M286.0 376.0h15v15h-15z" />
	<path fill="#70c164" d="M271.0 376.0h15v15h-15z" />
	<path fill="#6bbf64" d="M271.0 361.0h15v15h-15z" />
	<path fill="#69be63" d="M271.0 346.0h15v15h-15z" />
	<path fill="#63bc62" d="M256.0 346.0h15v15h-15z" />
	<path fill="#60ba62" d="M256.0 361.0h15v15h-15z" />
	<path fill="#5db961" d="M256.0 376.0h15v15h-15z" />
	<path fill="#57b65f" d="M256.0 391.0h15v15h-15z" />
	<path fill="#54b45f" d="M271.0 391.0h15v15h-15z" />
	<path fill="#4eb15d" d="M271.0 406.0h15v15h-15z" />
	<path fill="#4bb05c" d="M256.0 406.0h15v15h-15z" />
	<path fill="#48ae5c" d="M241.0 406.0h15v15h-15z" />
	<path fill="#42ac5a" d="M241.0 391.0h15v15h-15z" />
	<path fill="#3faa59" d="M241.0 376.0h15v15h-15z" />
	<path fill="#39a758" d="M241.0 361.0h15v15h-15z" />
	<path fill="#36a657" d="M226.0 361.0h15v15h-15z" />
	<path fill="#30a356" d="M211.0 361.0h15v15h-15z" />
	<path fill="#2da155" d="M196.0 361.0h15v15h-15z" />
	<path fill="#2aa054" d="M181.0 361.0h15v15h-15z" />
	<path fill="#249d53" d="M181.0 346.0h15v15h-15z" />
	<path fill="#219c52" d="M166.0 346.0h15v15h-15z" />
	<path fill="#1b9950" d="M166.0 331.0h15v15h-15z" />
	<path fill="#199750" d="M151.0 331.0h15v15h-15z" />
	<path fill="#18954f" d="M136.0 331.0h15v15h-15z" />
	<path fill="#16914d" d="M136.0 316.0h15v15h-15z" />
	<path fill="#15904c" d="M136.0 301.0h15v15h-15z" />
	<path fill="#138c4a" d="M136.0 286.0h15v15h-15z" />
	<path fill="#128a49" d="M136.0 271.0h15v15h-15z" />
	<path fill="#108647" d="M136.0 256.0h15v15h-15z" />
	<path fill="#0f8446" d="M151.0 256.0h15v15h-15z" />
	<path fill="#0e8245" d="M151.0 271.0h15v15h-15z" />
	<path fill="#0c7f43" d="M166.0 271.0h15v15h-15z" />
	<path fill="#0b7d42" d="M181.0 271.0h15v15h-15z" />
	<path fill="#097940" d="M181.0 286.0h15v15h-15z" />
	<path fill="#08773f" d="M196.0 286.0h15v15h-15z" />
	<path fill="#07753e" d="M211.0 286.0h15v15h-15z" />
	<path fill="#05713c" d="M211.0 271.0h15v15h-15z" />
	<path fill="#04703b" d="M226.0 271.0h15v15h-15z" />
	<path fill="#026c39" d="M241.0 271.0h15v15h-15z" />
	<path fill="#016a38" d="M241.0 256.0h15v15h-15z" />
	<path fill="#006837" d="M256.0 256.0h15v15h-15z" />
	<g fill="none" stroke="#000" stroke-width="2" stroke-linecap="square">		<line x1="1.0" y1="1.0" x2="16.0" y2="1.0" />
		<line x1="16.0" y1="1.0" x2="16.0" y2="16.0" />
		<line x1="1.0" y1="1.0" x2="1.0" y2="16.0" />
		<line x1="16.0" y1="1.0" x2="31.0" y2="1.0" />
		<line x1="31.0" y1="1.0" x2="46.0" y2="1.0" />
		<line x1="31.0" y1="16.0" x2="46.0" y2="16.0" />
		<line x1="46.0" y1="1.0" x2="61.0" y2="1.0" />
		<line x1="46.0" y1="16.0" x2="61.0" y2="16.0" />
		<line x1="61.0" y1="1.0" x2="76.0" y2="1.0" />
		<line x1="61.0" y1="16.0" x2="76.0" y2="16.0" />
		<line x1="76.0" y1="1.0" x2="91.0" y2="1.0" />
		<line x1="76.0" y1="16.0" x2="91.0" y2="16.0" />
		<line x1="91.0" y1="1.0" x2="106.0" y2="1.0" />
		<line x1="91.0" y1="16.0" x2="106.0" y2="16.0" />
		<line x1="106.0" y1="1.0" x2="121.0" y2="1.0" />
		<line x1="106.0" y1="16.0" x2="121.0" y2="16.0" />
		<line x1="121.0" y1="1.0" x2="136.0" y2="1.0" />
		<line x1="136.0" y1="1.0" x2="136.0" y2="16.0" />
		<line x1="136.0" y1="1.0" x2="151.0" y2="1.0" />
		<line x1="151.0" y1="1.0" x2="166.0" y2="1.0" />
		<line x1="151.0" y1="16.0" x2="166.0" y2="16.0" />
		<line x1="166.0" y1="1.0" x2="181.0" y2="1.0" />
		<line x1="166.0" y1="16.0" x2="181.0" y2="16.0" />
		<line x1="181.0" y1="1.0" x2="196.0" y2="1.0" />
		<line x1="181.0" y1="16.0" x2="196.0" y2="16.0" />
		<line x1="196.0" y1="1.0" x2="211.0" y2="1.0" />
		<line x1="196.0" y1="16.0" x2="211.0" y2="16.0" />
		<line x1="211.0" y1="1.0" x2="226.0" y2="1.0" />
		<line x1="211.0" y1="16.0" x2="226.0" y2="16.0" />
		<line x1="226.0" y1="1.0" x2="241.0" y2="1.0" />
		<line x1="226.0" y1="16.0" x2="241.0" y2="16.0" />
		<line x1="241.0" y1="1.0" x2="256.0" y2="1.0" />
		<line x1="241.0" y1="16.0" x2="256.0" y2="16.0" />
		<line x1="256.0" y1="1.0" x2="271.0" y2="1.0" />
		<line x1="256.0" y1="16.0" x2="271.0" y2="16.0" />
		<line x1="271.0" y1="1.0" x2="286.0" y2="1.0" />
		<line x1="271.0" y1="16.0" x2="286.0" y2="16.0" />
		<line x1="286.0" y1="1.0" x2="301.0" y2="1.0" />
		<line x1="286.0" y1="16.0" x2="301.0" y2="16.0" />
		<line x1="301.0" y1="1.0" x2="316.0" y2="1.0" />
		<line x1="301.0" y1="16.0" x2="316.0" y2="16.0" />
		<line x1="316.0" y1="1.0" x2="331.0" y2="1.0" />
		<line x1="316.0" y1="16.0" x2="331.0" y2="16.0" />
		<line x1="331.0" y1="1.0" x2="346.0" y2="1.0" />
		<line x1="331.0" y1="16.0" x2="346.0" y2="16.0" />
		<line x1="346.0" y1="1.0" x2="361.0" y2="1.0" />
		<line x1="346.0" y1="16.0" x2="361.0" y2="16.0" />
		<line x1="361.0" y1="1.0" x2="376.0" y2="1.0" />
		<line x1="361.0" y1="16.0" x2="376.0" y2="16.0" />
		<line x1="376.0" y1="1.0" x2="391.0" y2="1.0" />
		<line x1="376.0" y1="16.0" x2="391.0" y2="16.0" />
		<line x1="391.0" y1="1.0" x2="406.0" y2="1.0" />
		<line x1="391.0" y1="16.0" x2="406.0" y2="16.0" />
		<line x1="406.0" y1="1.0" x2="421.0" y2="1.0" />
		<line x1="406.0" y1="16.0" x2="421.0" y2="16.0" />
		<line x1="421.0" y1="1.0" x2="436.0" y2="1.0" />
		<line x1="421.0" y1="16.0" x2="436.0" y2="16.0" />
		<line x1="436.0" y1="1.0" x2="451.0" y2="1.0" />
		<line x1="451.0" y1="1.0" x2="466.0" y2="1.0" />
		<line x1="466.0" y1="1.0" x2="481.0" y2="1.0" />
		<line x1="481.0" y1="1.0" x2="481.0" y2="16.0" />
		<line x1="1.0" y1="16.0" x2="1.0" y2="31.0" />
		<line x1="16.0" y1="31.0" x2="31.0" y2="31.0" />
		<line x1="31.0" y1="16.0" x2="31.0" y2="31.0" />
		<line x1="46.0" y1="31.0" x2="61.0" y2="31.0" />
		<line x1="61.0" y1="31.0" x2="76.0" y2="31.0" />
		<line x1="91.0" y1="16.0" x2="91.0" y2="31.0" />
		<line x1="121.0" y1="16.0" x2="121.0" y2="31.0" />
		<line x1="136.0" y1="16.0" x2="136.0" y2="31.0" />
		<line x1="151.0" y1="16.0" x2="151.0" y2="31.0" />
		<line x1="166.0" y1="16.0" x2="166.0" y2="31.0" />
		<line x1="181.0" y1="16.0" x2="181.0" y2="31.0" />
		<line x1="196.0" y1="16.0" x2="196.0" y2="31.0" />
		<line x1="211.0" y1="16.0" x2="211.0" y2="31.0" />
		<line x1="226.0" y1="16.0" x2="226.0" y2="31.0" />
		<line x1="241.0" y1="16.0" x2="241.0" y2="31.0" />
		<line x1="316.0" y1="16.0" x2="316.0" y2="31.0" />
		<line x1="331.0" y1="16.0" x2="331.0" y2="31.0" />
		<line x1="331.0" y1="31.0" x2="346.0" y2="31.0" />
		<line x1="361.0" y1="31.0" x2="376.0" y2="31.0" />
		<line x1="391.0" y1="31.0" x2="406.0" y2="31.0" />
		<line x1="421.0" y1="16.0" x2="421.0" y2="31.0" />
		<line x1="436.0" y1="16.0" x2="436.0" y2="31.0" />
		<line x1="436.0" y1="31.0" x2="451.0" y2="31.0" />
		<line x1="451.0" y1="16.0" x2="451.0" y2="31.0" />
		<line x1="466.0" y1="16.0" x2="466.0" y2="31.0" />
		<line x1="481.0" y1="16.0" x2="481.0" y2="31.0" />
		<line x1="1.0" y1="31.0" x2="1.0" y2="46.0" />
		<line x1="16.0" y1="46.0" x2="31.0" y2="46.0" />
		<line x1="31.0" y1="31.0" x2="31.0" y2="46.0" />
		<line x1="46.0" y1="31.0" x2="46.0" y2="46.0" />
		<line x1="61.0" y1="46.0" x2="76.0" y2="46.0" />
		<line x1="76.0" y1="46.0" x2="91.0" y2="46.0" />
		<line x1="91.0" y1="31.0" x2="91.0" y2="46.0" />
		<line x1="106.0" y1="31.0" x2="106.0" y2="46.0" />
		<line x1="121.0" y1="31.0" x2="121.0" y2="46.0" />
		<line x1="121.0" y1="46.0" x2="136.0" y2="46.0" />
		<line x1="136.0" y1="46.0" x2="151.0" y2="46.0" />
		<line x1="151.0" y1="31.0" x2="151.0" y2="46.0" />
		<line x1="241.0" y1="31.0" x2="241.0" y2="46.0" />
		<line x1="316.0" y1="31.0" x2="316.0" y2="46.0" />
		<line x1="361.0" y1="31.0" x2="361.0" y2="46.0" />
		<line x1="376.0" y1="46.0" x2="391.0" y2="46.0" />
		<line x1="391.0" y1="31.0" x2="391.0" y2="46.0" />
		<line x1="421.0" y1="46.0" x2="436.0" y2="46.0" />
		<line x1="451.0" y1="46.0" x2="466.0" y2="46.0" />
		<line x1="481.0" y1="31.0" x2="481.0" y2="46.0" />
		<line x1="1.0" y1="46.0" x2="1.0" y2="61.0" />
		<line x1="16.0" y1="61.0" x2="31.0" y2="61.0" />
		<line x1="31.0" y1="46.0" x2="31.0" y2="61.0" />
		<line x1="46.0" y1="46.0" x2="46.0" y2="61.0" />
		<line x1="46.0" y1="61.0" x2="61.0" y2="61.0" />
		<line x1="61.0" y1="61.0" x2="76.0" y2="61.0" />
		<line x1="76.0" y1="61.0" x2="91.0" y2="61.0" />
		<line x1="91.0" y1="61.0" x2="106.0" y2="61.0" />
		<line x1="106.0" y1="46.0" x2="106.0" y2="61.0" />
		<line x1="106.0" y1="61.0" x2="121.0" y2="61.0" />
		<line x1="121.0" y1="61.0" x2="136.0" y2="61.0" />
		<line x1="151.0" y1="46.0" x2="151.0" y2="61.0" />
		<line x1="166.0" y1="46.0" x2="166.0" y2="61.0" />
		<line x1="166.0" y1="61.0" x2="181.0" y2="61.0" />
		<line x1="181.0" y1="46.0" x2="181.0" y2="61.0" />
		<line x1="181.0" y1="61.0" x2="196.0" y2="61.0" />
		<line x1="196.0" y1="46.0" x2="196.0" y2="61.0" />
		<line x1="196.0" y1="61.0" x2="211.0" y2="61.0" />
		<line x1="211.0" y1="46.0" x2="211.0" y2="61.0" />
		<line x1="211.0" y1="61.0" x2="226.0" y2="61.0" />
		<line x1="226.0" y1="46.0" x2="226.0" y2="61.0" />
		<line x1="241.0" y1="46.0" x2="241.0" y2="61.0" />
		<line x1="316.0" y1="46.0" x2="316.0" y2="61.0" />
		<line x1="316.0" y1="61.0" x2="331.0" y2="61.0" />
		<line x1="331.0" y1="46.0" x2="331.0" y2="61.0" />
		<line x1="346.0" y1="46.0" x2="346.0" y2="61.0" />
		<line x1="376.0" y1="46.0" x2="376.0" y2="61.0" />
		<line x1="406.0" y1="46.0" x2="406.0" y2="61.0" />
		<line x1="406.0" y1="61.0" x2="421.0" y2="61.0" />
		<line x1="436.0" y1="46.0" x2="436.0" y2="61.0" />
		<line x1="451.0" y1="46.0" x2="451.0" y2="61.0" />
		<line x1="451.0" y1="61.0" x2="466.0" y2="61.0" />
		<line x1="481.0" y1="46.0" x2="481.0" y2="61.0" />
		<line x1="16.0" y1="61.0" x2="16.0" y2="76.0" />
		<line x1="1.0" y1="61.0" x2="1.0" y2="76.0" />
		<line x1="31.0" y1="76.0" x2="46.0" y2="76.0" />
		<line x1="46.0" y1="61.0" x2="46.0" y2="76.0" />
		<line x1="61.0" y1="76.0" x2="76.0" y2="76.0" />
		<line x1="76.0" y1="76.0" x2="91.0" y2="76.0" />
		<line x1="91.0" y1="76.0" x2="106.0" y2="76.0" />
		<line x1="106.0" y1="76.0" x2="121.0" y2="76.0" />
		<line x1="121.0" y1="76.0" x2="136.0" y2="76.0" />
		<line x1="136.0" y1="76.0" x2="151.0" y2="76.0" />
		<line x1="151.0" y1="61.0" x2="151.0" y2="76.0" />
		<line x1="151.0" y1="76.0" x2="166.0" y2="76.0" />
		<line x1="166.0" y1="76.0" x2="181.0" y2="76.0" />
		<line x1="196.0" y1="61.0" x2="196.0" y2="76.0" />
		<line x1="196.0" y1="76.0" x2="211.0" y2="76.0" />
		<line x1="226.0" y1="76.0" x2="241.0" y2="76.0" />
		<line x1="241.0" y1="61.0" x2="241.0" y2="76.0" />
		<line x1="316.0" y1="61.0" x2="316.0" y2="76.0" />
		<line x1="331.0" y1="76.0" x2="346.0" y2="76.0" />
		<line x1="346.0" y1="61.0" x2="346.0" y2="76.0" />
		<line x1="361.0" y1="61.0" x2="361.0" y2="76.0" />
		<line x1="361.0" y1="76.0" x2="376.0" y2="76.0" />
		<line x1="391.0" y1="61.0" x2="391.0" y2="76.0" />
		<line x1="391.0" y1="76.0" x2="406.0" y2="76.0" />
		<line x1="421.0" y1="76.0" x2="436.0" y2="76.0" />
		<line x1="451.0" y1="61.0" x2="451.0" y2="76.0" />
		<line x1="481.0" y1="61.0" x2="481.0" y2="76.0" />
		<line x1="16.0" y1="76.0" x2="16.0" y2="91.0" />
		<line x1="1.0" y1="76.0" x2="1.0" y2="91.0" />
		<line x1="31.0" y1="76.0" x2="31.0" y2="91.0" />
		<line x1="46.0" y1="91.0" x2="61.0" y2="91.0" />
		<line x1="61.0" y1="76.0" x2="61.0" y2="91.0" />
		<line x1="151.0" y1="76.0" x2="151.0" y2="91.0" />
		<line x1="181.0" y1="76.0" x2="181.0" y2="91.0" />
		<line x1="181.0" y1="91.0" x2="196.0" y2="91.0" />
		<line x1="211.0" y1="76.0" x2="211.0" y2="91.0" />
		<line x1="211.0" y1="91.0" x2="226.0" y2="91.0" />
		<line x1="241.0" y1="76.0" x2="241.0" y2="91.0" />
		<line x1="241.0" y1="91.0" x2="256.0" y2="91.0" />
		<line x1="256.0" y1="91.0" x2="271.0" y2="91.0" />
		<line x1="271.0" y1="91.0" x2="286.0" y2="91.0" />
		<line x1="286.0" y1="91.0" x2="301.0" y2="91.0" />
		<line x1="301.0" y1="91.0" x2="316.0" y2="91.0" />
		<line x1="316.0" y1="76.0" x2="316.0" y2="91.0" />
		<line x1="316.0" y1="91.0" x2="331.0" y2="91.0" />
		<line x1="346.0" y1="91.0" x2="361.0" y2="91.0" />
		<line x1="376.0" y1="76.0" x2="376.0" y2="91.0" />
		<line x1="376.0" y1="91.0" x2="391.0" y2="91.0" />
		<line x1="391.0" y1="91.0" x2="406.0" y2="91.0" />
		<line x1="406.0" y1="91.0" x2="421.0" y2="91.0" />
		<line x1="436.0" y1="76.0" x2="436.0" y2="91.0" />
		<line x1="466.0" y1="76.0" x2="466.0" y2="91.0" />
		<line x1="481.0" y1="76.0" x2="481.0" y2="91.0" />
		<line x1="16.0" y1="91.0" x2="16.0" y2="106.0" />
		<line x1="1.0" y1="91.0" x2="1.0" y2="106.0" />
		<line x1="31.0" y1="91.0" x2="31.0" y2="106.0" />
		<line x1="46.0" y1="91.0" x2="46.0" y2="106.0" />
		<line x1="151.0" y1="91.0" x2="151.0" y2="106.0" />
		<line x1="166.0" y1="91.0" x2="166.0" y2="106.0" />
		<line x1="196.0" y1="91.0" x2="196.0" y2="106.0" />
		<line x1="196.0" y1="106.0" x2="211.0" y2="106.0" />
		<line x1="226.0" y1="91.0" x2="226.0" y2="106.0" />
		<line x1="226.0" y1="106.0" x2="241.0" y2="106.0" />
		<line x1="241.0" y1="106.0" x2="256.0" y2="106.0" />
		<line x1="256.0" y1="106.0" x2="271.0" y2="106.0" />
		<line x1="271.0" y1="106.0" x2="286.0" y2="106.0" />
		<line x1="286.0" y1="106.0" x2="301.0" y2="106.0" />
		<line x1="316.0" y1="91.0" x2="316.0" y2="106.0" />
		<line x1="331.0" y1="91.0" x2="331.0" y2="106.0" />
		<line x1="346.0" y1="91.0" x2="346.0" y2="106.0" />
		<line x1="376.0" y1="91.0" x2="376.0" y2="106.0" />
		<line x1="421.0" y1="91.0" x2="421.0" y2="106.0" />
		<line x1="436.0" y1="106.0" x2="451.0" y2="106.0" />
		<line x1="451.0" y1="91.0" x2="451.0" y2="106.0" />
		<line x1="466.0" y1="91.0" x2="466.0" y2="106.0" />
		<line x1="481.0" y1="91.0" x2="481.0" y2="106.0" />
		<line x1="16.0" y1="106.0" x2="16.0" y2="121.0" />
		<line x1="1.0" y1="106.0" x2="1.0" y2="121.0" />
		<line x1="31.0" y1="106.0" x2="31.0" y2="121.0" />
		<line x1="46.0" y1="106.0" x2="46.0" y2="121.0" />
		<line x1="151.0" y1="106.0" x2="151.0" y2="121.0" />
		<line x1="166.0" y1="106.0" x2="166.0" y2="121.0" />
		<line x1="181.0" y1="106.0" x2="181.0" y2="121.0" />
		<line x1="211.0" y1="106.0" x2="211.0" y2="121.0" />
		<line x1="211.0" y1="121.0" x2="226.0" y2="121.0" />
		<line x1="241.0" y1="106.0" x2="241.0" y2="121.0" />
		<line x1="241.0" y1="121.0" x2="256.0" y2="121.0" />
		<line x1="271.0" y1="121.0" x2="286.0" y2="121.0" />
		<line x1="286.0" y1="121.0" x2="301.0" y2="121.0" />
		<line x1="301.0" y1="121.0" x2="316.0" y2="121.0" />
		<line x1="316.0" y1="106.0" x2="316.0" y2="121.0" />
		<line x1="331.0" y1="121.0" x2="346.0" y2="121.0" />
		<line x1="346.0" y1="121.0" x2="361.0" y2="121.0" />
		<line x1="361.0" y1="106.0" x2="361.0" y2="121.0" />
		<line x1="376.0" y1="106.0" x2="376.0" y2="121.0" />
		<line x1="421.0" y1="106.0" x2="421.0" y2="121.0" />
		<line x1="421.0" y1="121.0" x2="436.0" y2="121.0" />
		<line x1="466.0" y1="106.0" x2="466.0" y2="121.0" />
		<line x1="481.0" y1="106.0" x2="481.0" y2="121.0" />
		<line x1="16.0" y1="121.0" x2="16.0" y2="136.0" />
		<line x1="1.0" y1="121.0" x2="1.0" y2="136.0" />
		<line x1="31.0" y1="121.0" x2="31.0" y2="136.0" />
		<line x1="46.0" y1="121.0" x2="46.0" y2="136.0" />
		<line x1="151.0" y1="121.0" x2="151.0" y2="136.0" />
		<line x1="166.0" y1="121.0" x2="166.0" y2="136.0" />
		<line x1="181.0" y1="121.0" x2="181.0" y2="136.0" />
		<line x1="181.0" y1="136.0" x2="196.0" y2="136.0" />
		<line x1="196.0" y1="121.0" x2="196.0" y2="136.0" />
		<line x1="196.0" y1="136.0" x2="211.0" y2="136.0" />
		<line x1="226.0" y1="121.0" x2="226.0" y2="136.0" />
		<line x1="226.0" y1="136.0" x2="241.0" y2="136.0" />
		<line x1="256.0" y1="121.0" x2="256.0" y2="136.0" />
		<line x1="256.0" y1="136.0" x2="271.0" y2="136.0" />
		<line x1="271.0" y1="136.0" x2="286.0" y2="136.0" />
		<line x1="286.0" y1="136.0" x2="301.0" y2="136.0" />
		<line x1="316.0" y1="121.0" x2="316.0" y2="136.0" />
		<line x1="346.0" y1="136.0" x2="361.0" y2="136.0" />
		<line x1="361.0" y1="136.0" x2="376.0" y2="136.0" />
		<line x1="376.0" y1="121.0" x2="376.0" y2="136.0" />
		<line x1="376.0" y1="136.0" x2="391.0" y2="136.0" />
		<line x1="391.0" y1="136.0" x2="406.0" y2="136.0" />
		<line x1="406.0" y1="136.0" x2="421.0" y2="136.0" />
		<line x1="421.0" y1="121.0" x2="421.0" y2="136.0" />
		<line x1="436.0" y1="121.0" x2="436.0" y2="136.0" />
		<line x1="451.0" y1="121.0" x2="451.0" y2="136.0" />
		<line x1="451.0" y1="136.0" x2="466.0" y2="136.0" />
		<line x1="466.0" y1="121.0" x2="466.0" y2="136.0" />
		<line x1="481.0" y1="121.0" x2="481.0" y2="136.0" />
		<line x1="16.0" y1="136.0" x2="16.0" y2="151.0" />
		<line x1="1.0" y1="136.0" x2="1.0" y2="151.0" />
		<line x1="31.0" y1="136.0" x2="31.0" y2="151.0" />
		<line x1="46.0" y1="136.0" x2="46.0" y2="151.0" />
		<line x1="151.0" y1="136.0" x2="151.0" y2="151.0" />
		<line x1="166.0" y1="136.0" x2="166.0" y2="151.0" />
		<line x1="166.0" y1="151.0" x2="181.0" y2="151.0" />
		<line x1="181.0" y1="151.0" x2="196.0" y2="151.0" />
		<line x1="211.0" y1="136.0" x2="211.0" y2="151.0" />
		<line x1="211.0" y1="151.0" x2="226.0" y2="151.0" />
		<line x1="241.0" y1="136.0" x2="241.0" y2="151.0" />
		<line x1="241.0" y1="151.0" x2="256.0" y2="151.0" />
		<line x1="271.0" y1="136.0" x2="271.0" y2="151.0" />
		<line x1="301.0" y1="136.0" x2="301.0" y2="151.0" />
		<line x1="316.0" y1="136.0" x2="316.0" y2="151.0" />
		<line x1="331.0" y1="136.0" x2="331.0" y2="151.0" />
		<line x1="346.0" y1="136.0" x2="346.0" y2="151.0" />
		<line x1="376.0" y1="151.0" x2="391.0" y2="151.0" />
		<line x1="391.0" y1="136.0" x2="391.0" y2="151.0" />
		<line x1="406.0" y1="136.0" x2="406.0" y2="151.0" />
		<line x1="406.0" y1="151.0" x2="421.0" y2="151.0" />
		<line x1="436.0" y1="151.0" x2="451.0" y2="151.0" />
		<line x1="466.0" y1="136.0" x2="466.0" y2="151.0" />
		<line x1="481.0" y1="136.0" x2="481.0" y2="151.0" />
		<line x1="16.0" y1="151.0" x2="16.0" y2="166.0" />
		<line x1="1.0" y1="151.0" x2="1.0" y2="166.0" />
		<line x1="31.0" y1="151.0" x2="31.0" y2="166.0" />
		<line x1="46.0" y1="151.0" x2="46.0" y2="166.0" />
		<line x1="151.0" y1="151.0" x2="151.0" y2="166.0" />
		<line x1="166.0" y1="151.0" x2="166.0" y2="166.0" />
		<line x1="181.0" y1="166.0" x2="196.0" y2="166.0" />
		<line x1="196.0" y1="166.0" x2="211.0" y2="166.0" />
		<line x1="211.0" y1="151.0" x2="211.0" y2="166.0" />
		<line x1="211.0" y1="166.0" x2="226.0" y2="166.0" />
		<line x1="226.0" y1="166.0" x2="241.0" y2="166.0" />
		<line x1="256.0" y1="151.0" x2="256.0" y2="166.0" />
		<line x1="256.0" y1="166.0" x2="271.0" y2="166.0" />
		<line x1="286.0" y1="151.0" x2="286.0" y2="166.0" />
		<line x1="301.0" y1="151.0" x2="301.0" y2="166.0" />
		<line x1="316.0" y1="151.0" x2="316.0" y2="166.0" />
		<line x1="331.0" y1="151.0" x2="331.0" y2="166.0" />
		<line x1="331.0" y1="166.0" x2="346.0" y2="166.0" />
		<line x1="361.0" y1="151.0" x2="361.0" y2="166.0" />
		<line x1="361.0" y1="166.0" x2="376.0" y2="166.0" />
		<line x1="391.0" y1="166.0" x2="406.0" y2="166.0" />
		<line x1="421.0" y1="166.0" x2="436.0" y2="166.0" />
		<line x1="451.0" y1="151.0" x2="451.0" y2="166.0" />
		<line x1="466.0" y1="151.0" x2="466.0" y2="166.0" />
		<line x1="481.0" y1="151.0" x2="481.0" y2="166.0" />
		<line x1="16.0" y1="166.0" x2="16.0" y2="181.0" />
		<line x1="1.0" y1="166.0" x2="1.0" y2="181.0" />
		<line x1="31.0" y1="166.0" x2="31.0" y2="181.0" />
		<line x1="46.0" y1="166.0" x2="46.0" y2="181.0" />
		<line x1="46.0" y1="181.0" x2="61.0" y2="181.0" />
		<line x1="61.0" y1="181.0" x2="76.0" y2="181.0" />
		<line x1="76.0" y1="181.0" x2="91.0" y2="181.0" />
		<line x1="91.0" y1="181.0" x2="106.0" y2="181.0" />
		<line x1="106.0" y1="181.0" x2="121.0" y2="181.0" />
		<line x1="121.0" y1="181.0" x2="136.0" y2="181.0" />
		<line x1="136.0" y1="181.0" x2="151.0" y2="181.0" />
		<line x1="151.0" y1="166.0" x2="151.0" y2="181.0" />
		<line x1="166.0" y1="166.0" x2="166.0" y2="181.0" />
		<line x1="181.0" y1="166.0" x2="181.0" y2="181.0" />
		<line x1="196.0" y1="181.0" x2="211.0" y2="181.0" />
		<line x1="211.0" y1="181.0" x2="226.0" y2="181.0" />
		<line x1="226.0" y1="181.0" x2="241.0" y2="181.0" />
		<line x1="241.0" y1="181.0" x2="256.0" y2="181.0" />
		<line x1="256.0" y1="181.0" x2="271.0" y2="181.0" />
		<line x1="271.0" y1="166.0" x2="271.0" y2="181.0" />
		<line x1="271.0" y1="181.0" x2="286.0" y2="181.0" />
		<line x1="286.0" y1="166.0" x2="286.0" y2="181.0" />
		<line x1="301.0" y1="166.0" x2="301.0" y2="181.0" />
		<line x1="316.0" y1="166.0" x2="316.0" y2="181.0" />
		<line x1="346.0" y1="166.0" x2="346.0" y2="181.0" />
		<line x1="346.0" y1="181.0" x2="361.0" y2="181.0" />
		<line x1="376.0" y1="166.0" x2="376.0" y2="181.0" />
		<line x1="376.0" y1="181.0" x2="391.0" y2="181.0" />
		<line x1="391.0" y1="166.0" x2="391.0" y2="181.0" />
		<line x1="391.0" y1="181.0" x2="406.0" y2="181.0" />
		<line x1="406.0" y1="181.0" x2="421.0" y2="181.0" />
		<line x1="421.0" y1="181.0" x2="436.0" y2="181.0" />
		<line x1="436.0" y1="166.0" x2="436.0" y2="181.0" />
		<line x1="436.0" y1="181.0" x2="451.0" y2="181.0" />
		<line x1="451.0" y1="181.0" x2="466.0" y2="181.0" />
		<line x1="466.0" y1="166.0" x2="466.0" y2="181.0" />
		<line x1="481.0" y1="166.0" x2="481.0" y2="181.0" />
		<line x1="16.0" y1="181.0" x2="16.0" y2="196.0" />
		<line x1="1.0" y1="181.0" x2="1.0" y2="196.0" />
		<line x1="31.0" y1="181.0" x2="31.0" y2="196.0" />
		<line x1="31.0" y1="196.0" x2="46.0" y2="196.0" />
		<line x1="46.0" y1="196.0" x2="61.0" y2="196.0" />
		<line x1="61.0" y1="196.0" x2="76.0" y2="196.0" />
		<line x1="76.0" y1="196.0" x2="91.0" y2="196.0" />
		<line x1="91.0" y1="196.0" x2="106.0" y2="196.0" />
		<line x1="106.0" y1="196.0" x2="121.0" y2="196.0" />
		<line x1="136.0" y1="181.0" x2="136.0" y2="196.0" />
		<line x1="136.0" y1="196.0" x2="151.0" y2="196.0" />
		<line x1="166.0" y1="181.0" x2="166.0" y2="196.0" />
		<line x1="181.0" y1="181.0" x2="181.0" y2="196.0" />
		<line x1="181.0" y1="196.0" x2="196.0" y2="196.0" />
		<line x1="196.0" y1="196.0" x2="211.0" y2="196.0" />
		<line x1="211.0" y1="196.0" x2="226.0" y2="196.0" />
		<line x1="226.0" y1="196.0" x2="241.0" y2="196.0" />
		<line x1="241.0" y1="196.0" x2="256.0" y2="196.0" />
		<line x1="256.0" y1="196.0" x2="271.0" y2="196.0" />
		<line x1="271.0" y1="196.0" x2="286.0" y2="196.0" />
		<line x1="286.0" y1="196.0" x2="301.0" y2="196.0" />
		<line x1="301.0" y1="181.0" x2="301.0" y2="196.0" />
		<line x1="301.0" y1="196.0" x2="316.0" y2="196.0" />
		<line x1="316.0" y1="196.0" x2="331.0" y2="196.0" />
		<line x1="331.0" y1="181.0" x2="331.0" y2="196.0" />
		<line x1="331.0" y1="196.0" x2="346.0" y2="196.0" />
		<line x1="361.0" y1="181.0" x2="361.0" y2="196.0" />
		<line x1="361.0" y1="196.0" x2="376.0" y2="196.0" />
		<line x1="376.0" y1="196.0" x2="391.0" y2="196.0" />
		<line x1="391.0" y1="196.0" x2="406.0" y2="196.0" />
		<line x1="406.0" y1="196.0" x2="421.0" y2="196.0" />
		<line x1="421.0" y1="196.0" x2="436.0" y2="196.0" />
		<line x1="436.0" y1="196.0" x2="451.0" y2="196.0" />
		<line x1="466.0" y1="181.0" x2="466.0" y2="196.0" />
		<line x1="481.0" y1="181.0" x2="481.0" y2="196.0" />
		<line x1="16.0" y1="196.0" x2="16.0" y2="211.0" />
		<line x1="1.0" y1="196.0" x2="1.0" y2="211.0" />
		<line x1="31.0" y1="196.0" x2="31.0" y2="211.0" />
		<line x1="46.0" y1="211.0" x2="61.0" y2="211.0" />
		<line x1="61.0" y1="211.0" x2="76.0" y2="211.0" />
		<line x1="76.0" y1="211.0" x2="91.0" y2="211.0" />
		<line x1="91.0" y1="211.0" x2="106.0" y2="211.0" />
		<line x1="106.0" y1="211.0" x2="121.0" y2="211.0" />
		<line x1="121.0" y1="196.0" x2="121.0" y2="211.0" />
		<line x1="136.0" y1="196.0" x2="136.0" y2="211.0" />
		<line x1="151.0" y1="211.0" x2="166.0" y2="211.0" />
		<line x1="166.0" y1="196.0" x2="166.0" y2="211.0" />
		<line x1="166.0" y1="211.0" x2="181.0" y2="211.0" />
		<line x1="181.0" y1="211.0" x2="196.0" y2="211.0" />
		<line x1="196.0" y1="211.0" x2="211.0" y2="211.0" />
		<line x1="211.0" y1="211.0" x2="226.0" y2="211.0" />
		<line x1="226.0" y1="211.0" x2="241.0" y2="211.0" />
		<line x1="241.0" y1="211.0" x2="256.0" y2="211.0" />
		<line x1="256.0" y1="211.0" x2="271.0" y2="211.0" />
		<line x1="271.0" y1="211.0" x2="286.0" y2="211.0" />
		<line x1="286.0" y1="211.0" x2="301.0" y2="211.0" />
		<line x1="316.0" y1="196.0" x2="316.0" y2="211.0" />
		<line x1="316.0" y1="211.0" x2="331.0" y2="211.0" />
		<line x1="331.0" y1="211.0" x2="346.0" y2="211.0" />
		<line x1="346.0" y1="211.0" x2="361.0" y2="211.0" />
		<line x1="361.0" y1="211.0" x2="376.0" y2="211.0" />
		<line x1="376.0" y1="211.0" x2="391.0" y2="211.0" />
		<line x1="391.0" y1="211.0" x2="406.0" y2="211.0" />
		<line x1="406.0" y1="211.0" x2="421.0" y2="211.0" />
		<line x1="421.0" y1="211.0" x2="436.0" y2="211.0" />
		<line x1="451.0" y1="196.0" x2="451.0" y2="211.0" />
		<line x1="466.0" y1="196.0" x2="466.0" y2="211.0" />
		<line x1="481.0" y1="196.0" x2="481.0" y2="211.0" />
		<line x1="16.0" y1="211.0" x2="16.0" y2="226.0" />
		<line x1="1.0" y1="211.0" x2="1.0" y2="226.0" />
		<line x1="31.0" y1="211.0" x2="31.0" y2="226.0" />
		<line x1="31.0" y1="226.0" x2="46.0" y2="226.0" />
		<line x1="46.0" y1="226.0" x2="61.0" y2="226.0" />
		<line x1="76.0" y1="226.0" x2="91.0" y2="226.0" />
		<line x1="91.0" y1="226.0" x2="106.0" y2="226.0" />
		<line x1="121.0" y1="211.0" x2="121.0" y2="226.0" />
		<line x1="136.0" y1="211.0" x2="136.0" y2="226.0" />
		<line x1="151.0" y1="211.0" x2="151.0" y2="226.0" />
		<line x1="196.0" y1="211.0" x2="196.0" y2="226.0" />
		<line x1="211.0" y1="211.0" x2="211.0" y2="226.0" />
		<line x1="226.0" y1="226.0" x2="241.0" y2="226.0" />
		<line x1="241.0" y1="226.0" x2="256.0" y2="226.0" />
		<line x1="256.0" y1="226.0" x2="271.0" y2="226.0" />
		<line x1="271.0" y1="226.0" x2="286.0" y2="226.0" />
		<line x1="286.0" y1="226.0" x2="301.0" y2="226.0" />
		<line x1="301.0" y1="226.0" x2="316.0" y2="226.0" />
		<line x1="316.0" y1="211.0" x2="316.0" y2="226.0" />
		<line x1="331.0" y1="226.0" x2="346.0" y2="226.0" />
		<line x1="361.0" y1="211.0" x2="361.0" y2="226.0" />
		<line x1="361.0" y1="226.0" x2="376.0" y2="226.0" />
		<line x1="376.0" y1="226.0" x2="391.0" y2="226.0" />
		<line x1="391.0" y1="226.0" x2="406.0" y2="226.0" />
		<line x1="406.0" y1="226.0" x2="421.0" y2="226.0" />
		<line x1="421.0" y1="226.0" x2="436.0" y2="226.0" />
		<line x1="451.0" y1="211.0" x2="451.0" y2="226.0" />
		<line x1="466.0" y1="211.0" x2="466.0" y2="226.0" />
		<line x1="481.0" y1="211.0" x2="481.0" y2="226.0" />
		<line x1="16.0" y1="226.0" x2="16.0" y2="241.0" />
		<line x1="1.0" y1="226.0" x2="1.0" y2="241.0" />
		<line x1="16.0" y1="241.0" x2="31.0" y2="241.0" />
		<line x1="31.0" y1="241.0" x2="46.0" y2="241.0" />
		<line x1="61.0" y1="226.0" x2="61.0" y2="241.0" />
		<line x1="76.0" y1="241.0" x2="91.0" y2="241.0" />
		<line x1="91.0" y1="241.0" x2="106.0" y2="241.0" />
		<line x1="106.0" y1="241.0" x2="121.0" y2="241.0" />
		<line x1="121.0" y1="226.0" x2="121.0" y2="241.0" />
		<line x1="136.0" y1="226.0" x2="136.0" y2="241.0" />
		<line x1="151.0" y1="226.0" x2="151.0" y2="241.0" />
		<line x1="166.0" y1="226.0" x2="166.0" y2="241.0" />
		<line x1="181.0" y1="226.0" x2="181.0" y2="241.0" />
		<line x1="226.0" y1="226.0" x2="226.0" y2="241.0" />
		<line x1="241.0" y1="226.0" x2="241.0" y2="241.0" />
		<line x1="256.0" y1="241.0" x2="271.0" y2="241.0" />
		<line x1="271.0" y1="241.0" x2="286.0" y2="241.0" />
		<line x1="286.0" y1="241.0" x2="301.0" y2="241.0" />
		<line x1="316.0" y1="226.0" x2="316.0" y2="241.0" />
		<line x1="331.0" y1="226.0" x2="331.0" y2="241.0" />
		<line x1="346.0" y1="241.0" x2="361.0" y2="241.0" />
		<line x1="361.0" y1="226.0" x2="361.0" y2="241.0" />
		<line x1="436.0" y1="226.0" x2="436.0" y2="241.0" />
		<line x1="451.0" y1="226.0" x2="451.0" y2="241.0" />
		<line x1="466.0" y1="226.0" x2="466.0" y2="241.0" />
		<line x1="481.0" y1="226.0" x2="481.0" y2="241.0" />
		<line x1="16.0" y1="241.0" x2="16.0" y2="256.0" />
		<line x1="1.0" y1="241.0" x2="1.0" y2="256.0" />
		<line x1="31.0" y1="256.0" x2="46.0" y2="256.0" />
		<line x1="61.0" y1="241.0" x2="61.0" y2="256.0" />
		<line x1="76.0" y1="256.0" x2="91.0" y2="256.0" />
		<line x1="91.0" y1="241.0" x2="91.0" y2="256.0" />
		<line x1="106.0" y1="256.0" x2="121.0" y2="256.0" />
		<line x1="121.0" y1="256.0" x2="136.0" y2="256.0" />
		<line x1="136.0" y1="241.0" x2="136.0" y2="256.0" />
		<line x1="151.0" y1="241.0" x2="151.0" y2="256.0" />
		<line x1="196.0" y1="241.0" x2="196.0" y2="256.0" />
		<line x1="211.0" y1="241.0" x2="211.0" y2="256.0" />
		<line x1="256.0" y1="241.0" x2="256.0" y2="256.0" />
		<line x1="301.0" y1="241.0" x2="301.0" y2="256.0" />
		<line x1="316.0" y1="241.0" x2="316.0" y2="256.0" />
		<line x1="331.0" y1="241.0" x2="331.0" y2="256.0" />
		<line x1="331.0" y1="256.0" x2="346.0" y2="256.0" />
		<line x1="361.0" y1="241.0" x2="361.0" y2="256.0" />
		<line x1="436.0" y1="241.0" x2="436.0" y2="256.0" />
		<line x1="451.0" y1="241.0" x2="451.0" y2="256.0" />
		<line x1="466.0" y1="241.0" x2="466.0" y2="256.0" />
		<line x1="481.0" y1="241.0" x2="481.0" y2="256.0" />
		<line x1="16.0" y1="256.0" x2="16.0" y2="271.0" />
		<line x1="1.0" y1="256.0" x2="1.0" y2="271.0" />
		<line x1="31.0" y1="256.0" x2="31.0" y2="271.0" />
		<line x1="46.0" y1="271.0" x2="61.0" y2="271.0" />
		<line x1="61.0" y1="256.0" x2="61.0" y2="271.0" />
		<line x1="76.0" y1="271.0" x2="91.0" y2="271.0" />
		<line x1="91.0" y1="256.0" x2="91.0" y2="271.0" />
		<line x1="106.0" y1="271.0" x2="121.0" y2="271.0" />
		<line x1="121.0" y1="271.0" x2="136.0" y2="271.0" />
		<line x1="136.0" y1="256.0" x2="136.0" y2="271.0" />
		<line x1="166.0" y1="256.0" x2="166.0" y2="271.0" />
		<line x1="181.0" y1="256.0" x2="181.0" y2="271.0" />
		<line x1="226.0" y1="256.0" x2="226.0" y2="271.0" />
		<line x1="241.0" y1="256.0" x2="241.0" y2="271.0" />
		<line x1="301.0" y1="256.0" x2="301.0" y2="271.0" />
		<line x1="316.0" y1="256.0" x2="316.0" y2="271.0" />
		<line x1="331.0" y1="256.0" x2="331.0" y2="271.0" />
		<line x1="346.0" y1="271.0" x2="361.0" y2="271.0" />
		<line x1="361.0" y1="256.0" x2="361.0" y2="271.0" />
		<line x1="436.0" y1="256.0" x2="436.0" y2="271.0" />
		<line x1="451.0" y1="256.0" x2="451.0" y2="271.0" />
		<line x1="466.0" y1="256.0" x2="466.0" y2="271.0" />
		<line x1="481.0" y1="256.0" x2="481.0" y2="271.0" />
		<line x1="16.0" y1="271.0" x2="16.0" y2="286.0" />
		<line x1="1.0" y1="271.0" x2="1.0" y2="286.0" />
		<line x1="31.0" y1="271.0" x2="31.0" y2="286.0" />
		<line x1="46.0" y1="271.0" x2="46.0" y2="286.0" />
		<line x1="61.0" y1="286.0" x2="76.0" y2="286.0" />
		<line x1="76.0" y1="286.0" x2="91.0" y2="286.0" />
		<line x1="91.0" y1="286.0" x2="106.0" y2="286.0" />
		<line x1="106.0" y1="286.0" x2="121.0" y2="286.0" />
		<line x1="121.0" y1="286.0" x2="136.0" y2="286.0" />
		<line x1="136.0" y1="271.0" x2="136.0" y2="286.0" />
		<line x1="151.0" y1="271.0" x2="151.0" y2="286.0" />
		<line x1="196.0" y1="271.0" x2="196.0" y2="286.0" />
		<line x1="211.0" y1="271.0" x2="211.0" y2="286.0" />
		<line x1="256.0" y1="271.0" x2="256.0" y2="286.0" />
		<line x1="256.0" y1="286.0" x2="271.0" y2="286.0" />
		<line x1="271.0" y1="286.0" x2="286.0" y2="286.0" />
		<line x1="286.0" y1="286.0" x2="301.0" y2="286.0" />
		<line x1="301.0" y1="271.0" x2="301.0" y2="286.0" />
		<line x1="316.0" y1="271.0" x2="316.0" y2="286.0" />
		<line x1="331.0" y1="271.0" x2="331.0" y2="286.0" />
		<line x1="331.0" y1="286.0" x2="346.0" y2="286.0" />
		<line x1="361.0" y1="271.0" x2="361.0" y2="286.0" />
		<line x1="436.0" y1="271.0" x2="436.0" y2="286.0" />
		<line x1="451.0" y1="271.0" x2="451.0" y2="286.0" />
		<line x1="466.0" y1="271.0" x2="466.0" y2="286.0" />
		<line x1="481.0" y1="271.0" x2="481.0" y2="286.0" />
		<line x1="16.0" y1="286.0" x2="16.0" y2="301.0" />
		<line x1="1.0" y1="286.0" x2="1.0" y2="301.0" />
		<line x1="31.0" y1="286.0" x2="31.0" y2="301.0" />
		<line x1="46.0" y1="286.0" x2="46.0" y2="301.0" />
		<line x1="61.0" y1="286.0" x2="61.0" y2="301.0" />
		<line x1="136.0" y1="286.0" x2="136.0" y2="301.0" />
		<line x1="151.0" y1="286.0" x2="151.0" y2="301.0" />
		<line x1="166.0" y1="286.0" x2="166.0" y2="301.0" />
		<line x1="181.0" y1="286.0" x2="181.0" y2="301.0" />
		<line x1="226.0" y1="286.0" x2="226.0" y2="301.0" />
		<line x1="226.0" y1="301.0" x2="241.0" y2="301.0" />
		<line x1="241.0" y1="286.0" x2="241.0" y2="301.0" />
		<line x1="241.0" y1="301.0" x2="256.0" y2="301.0" />
		<line x1="256.0" y1="301.0" x2="271.0" y2="301.0" />
		<line x1="271.0" y1="301.0" x2="286.0" y2="301.0" />
		<line x1="286.0" y1="301.0" x2="301.0" y2="301.0" />
		<line x1="301.0" y1="301.0" x2="316.0" y2="301.0" />
		<line x1="316.0" y1="286.0" x2="316.0" y2="301.0" />
		<line x1="331.0" y1="286.0" x2="331.0" y2="301.0" />
		<line x1="346.0" y1="301.0" x2="361.0" y2="301.0" />
		<line x1="361.0" y1="286.0" x2="361.0" y2="301.0" />
		<line x1="361.0" y1="301.0" x2="376.0" y2="301.0" />
		<line x1="376.0" y1="301.0" x2="391.0" y2="301.0" />
		<line x1="391.0" y1="301.0" x2="406.0" y2="301.0" />
		<line x1="406.0" y1="301.0" x2="421.0" y2="301.0" />
		<line x1="421.0" y1="301.0" x2="436.0" y2="301.0" />
		<line x1="436.0" y1="286.0" x2="436.0" y2="301.0" />
		<line x1="451.0" y1="286.0" x2="451.0" y2="301.0" />
		<line x1="466.0" y1="286.0" x2="466.0" y2="301.0" />
		<line x1="481.0" y1="286.0" x2="481.0" y2="301.0" />
		<line x1="16.0" y1="301.0" x2="16.0" y2="316.0" />
		<line x1="1.0" y1="301.0" x2="1.0" y2="316.0" />
		<line x1="31.0" y1="316.0" x2="46.0" y2="316.0" />
		<line x1="46.0" y1="301.0" x2="46.0" y2="316.0" />
		<line x1="61.0" y1="301.0" x2="61.0" y2="316.0" />
		<line x1="136.0" y1="301.0" x2="136.0" y2="316.0" />
		<line x1="151.0" y1="301.0" x2="151.0" y2="316.0" />
		<line x1="166.0" y1="316.0" x2="181.0" y2="316.0" />
		<line x1="181.0" y1="316.0" x2="196.0" y2="316.0" />
		<line x1="196.0" y1="301.0" x2="196.0" y2="316.0" />
		<line x1="196.0" y1="316.0" x2="211.0" y2="316.0" />
		<line x1="211.0" y1="301.0" x2="211.0" y2="316.0" />
		<line x1="211.0" y1="316.0" x2="226.0" y2="316.0" />
		<line x1="226.0" y1="316.0" x2="241.0" y2="316.0" />
		<line x1="241.0" y1="316.0" x2="256.0" y2="316.0" />
		<line x1="256.0" y1="316.0" x2="271.0" y2="316.0" />
		<line x1="271.0" y1="316.0" x2="286.0" y2="316.0" />
		<line x1="301.0" y1="316.0" x2="316.0" y2="316.0" />
		<line x1="331.0" y1="301.0" x2="331.0" y2="316.0" />
		<line x1="331.0" y1="316.0" x2="346.0" y2="316.0" />
		<line x1="361.0" y1="301.0" x2="361.0" y2="316.0" />
		<line x1="361.0" y1="316.0" x2="376.0" y2="316.0" />
		<line x1="376.0" y1="316.0" x2="391.0" y2="316.0" />
		<line x1="391.0" y1="316.0" x2="406.0" y2="316.0" />
		<line x1="406.0" y1="316.0" x2="421.0" y2="316.0" />
		<line x1="421.0" y1="316.0" x2="436.0" y2="316.0" />
		<line x1="451.0" y1="301.0" x2="451.0" y2="316.0" />
		<line x1="466.0" y1="301.0" x2="466.0" y2="316.0" />
		<line x1="481.0" y1="301.0" x2="481.0" y2="316.0" />
		<line x1="16.0" y1="316.0" x2="16.0" y2="331.0" />
		<line x1="1.0" y1="316.0" x2="1.0" y2="331.0" />
		<line x1="31.0" y1="316.0" x2="31.0" y2="331.0" />
		<line x1="46.0" y1="331.0" x2="61.0" y2="331.0" />
		<line x1="61.0" y1="316.0" x2="61.0" y2="331.0" />
		<line x1="136.0" y1="316.0" x2="136.0" y2="331.0" />
		<line x1="151.0" y1="316.0" x2="151.0" y2="331.0" />
		<line x1="151.0" y1="331.0" x2="166.0" y2="331.0" />
		<line x1="166.0" y1="316.0" x2="166.0" y2="331.0" />
		<line x1="166.0" y1="331.0" x2="181.0" y2="331.0" />
		<line x1="196.0" y1="331.0" x2="211.0" y2="331.0" />
		<line x1="211.0" y1="331.0" x2="226.0" y2="331.0" />
		<line x1="226.0" y1="331.0" x2="241.0" y2="331.0" />
		<line x1="241.0" y1="331.0" x2="256.0" y2="331.0" />
		<line x1="256.0" y1="331.0" x2="271.0" y2="331.0" />
		<line x1="286.0" y1="316.0" x2="286.0" y2="331.0" />
		<line x1="286.0" y1="331.0" x2="301.0" y2="331.0" />
		<line x1="301.0" y1="331.0" x2="316.0" y2="331.0" />
		<line x1="316.0" y1="331.0" x2="331.0" y2="331.0" />
		<line x1="331.0" y1="316.0" x2="331.0" y2="331.0" />
		<line x1="346.0" y1="331.0" x2="361.0" y2="331.0" />
		<line x1="361.0" y1="316.0" x2="361.0" y2="331.0" />
		<line x1="376.0" y1="316.0" x2="376.0" y2="331.0" />
		<line x1="391.0" y1="316.0" x2="391.0" y2="331.0" />
		<line x1="406.0" y1="316.0" x2="406.0" y2="331.0" />
		<line x1="421.0" y1="331.0" x2="436.0" y2="331.0" />
		<line x1="436.0" y1="331.0" x2="451.0" y2="331.0" />
		<line x1="451.0" y1="316.0" x2="451.0" y2="331.0" />
		<line x1="466.0" y1="316.0" x2="466.0" y2="331.0" />
		<line x1="481.0" y1="316.0" x2="481.0" y2="331.0" />
		<line x1="16.0" y1="331.0" x2="16.0" y2="346.0" />
		<line x1="1.0" y1="331.0" x2="1.0" y2="346.0" />
		<line x1="31.0" y1="331.0" x2="31.0" y2="346.0" />
		<line x1="46.0" y1="331.0" x2="46.0" y2="346.0" />
		<line x1="61.0" y1="331.0" x2="61.0" y2="346.0" />
		<line x1="136.0" y1="331.0" x2="136.0" y2="346.0" />
		<line x1="136.0" y1="346.0" x2="151.0" y2="346.0" />
		<line x1="151.0" y1="346.0" x2="166.0" y2="346.0" />
		<line x1="181.0" y1="331.0" x2="181.0" y2="346.0" />
		<line x1="181.0" y1="346.0" x2="196.0" y2="346.0" />
		<line x1="211.0" y1="346.0" x2="226.0" y2="346.0" />
		<line x1="226.0" y1="346.0" x2="241.0" y2="346.0" />
		<line x1="256.0" y1="346.0" x2="271.0" y2="346.0" />
		<line x1="271.0" y1="331.0" x2="271.0" y2="346.0" />
		<line x1="286.0" y1="331.0" x2="286.0" y2="346.0" />
		<line x1="301.0" y1="346.0" x2="316.0" y2="346.0" />
		<line x1="316.0" y1="346.0" x2="331.0" y2="346.0" />
		<line x1="331.0" y1="346.0" x2="346.0" y2="346.0" />
		<line x1="346.0" y1="331.0" x2="346.0" y2="346.0" />
		<line x1="361.0" y1="346.0" x2="376.0" y2="346.0" />
		<line x1="376.0" y1="346.0" x2="391.0" y2="346.0" />
		<line x1="406.0" y1="331.0" x2="406.0" y2="346.0" />
		<line x1="421.0" y1="331.0" x2="421.0" y2="346.0" />
		<line x1="436.0" y1="346.0" x2="451.0" y2="346.0" />
		<line x1="451.0" y1="346.0" x2="466.0" y2="346.0" />
		<line x1="466.0" y1="331.0" x2="466.0" y2="346.0" />
		<line x1="481.0" y1="331.0" x2="481.0" y2="346.0" />
		<line x1="16.0" y1="346.0" x2="16.0" y2="361.0" />
		<line x1="1.0" y1="346.0" x2="1.0" y2="361.0" />
		<line x1="31.0" y1="346.0" x2="31.0" y2="361.0" />
		<line x1="46.0" y1="346.0" x2="46.0" y2="361.0" />
		<line x1="61.0" y1="346.0" x2="61.0" y2="361.0" />
		<line x1="61.0" y1="361.0" x2="76.0" y2="361.0" />
		<line x1="76.0" y1="361.0" x2="91.0" y2="361.0" />
		<line x1="91.0" y1="361.0" x2="106.0" y2="361.0" />
		<line x1="106.0" y1="361.0" x2="121.0" y2="361.0" />
		<line x1="121.0" y1="361.0" x2="136.0" y2="361.0" />
		<line x1="136.0" y1="346.0" x2="136.0" y2="361.0" />
		<line x1="166.0" y1="346.0" x2="166.0" y2="361.0" />
		<line x1="166.0" y1="361.0" x2="181.0" y2="361.0" />
		<line x1="196.0" y1="346.0" x2="196.0" y2="361.0" />
		<line x1="196.0" y1="361.0" x2="211.0" y2="361.0" />
		<line x1="211.0" y1="361.0" x2="226.0" y2="361.0" />
		<line x1="226.0" y1="361.0" x2="241.0" y2="361.0" />
		<line x1="241.0" y1="361.0" x2="256.0" y2="361.0" />
		<line x1="286.0" y1="346.0" x2="286.0" y2="361.0" />
		<line x1="301.0" y1="346.0" x2="301.0" y2="361.0" />
		<line x1="316.0" y1="361.0" x2="331.0" y2="361.0" />
		<line x1="346.0" y1="346.0" x2="346.0" y2="361.0" />
		<line x1="346.0" y1="361.0" x2="361.0" y2="361.0" />
		<line x1="361.0" y1="361.0" x2="376.0" y2="361.0" />
		<line x1="391.0" y1="346.0" x2="391.0" y2="361.0" />
		<line x1="421.0" y1="346.0" x2="421.0" y2="361.0" />
		<line x1="436.0" y1="346.0" x2="436.0" y2="361.0" />
		<line x1="451.0" y1="361.0" x2="466.0" y2="361.0" />
		<line x1="466.0" y1="361.0" x2="481.0" y2="361.0" />
		<line x1="481.0" y1="346.0" x2="481.0" y2="361.0" />
		<line x1="1.0" y1="376.0" x2="16.0" y2="376.0" />
		<line x1="1.0" y1="361.0" x2="1.0" y2="376.0" />
		<line x1="31.0" y1="361.0" x2="31.0" y2="376.0" />
		<line x1="31.0" y1="376.0" x2="46.0" y2="376.0" />
		<line x1="46.0" y1="376.0" x2="61.0" y2="376.0" />
		<line x1="61.0" y1="376.0" x2="76.0" y2="376.0" />
		<line x1="76.0" y1="376.0" x2="91.0" y2="376.0" />
		<line x1="91.0" y1="376.0" x2="106.0" y2="376.0" />
		<line x1="121.0" y1="361.0" x2="121.0" y2="376.0" />
		<line x1="136.0" y1="361.0" x2="136.0" y2="376.0" />
		<line x1="151.0" y1="361.0" x2="151.0" y2="376.0" />
		<line x1="166.0" y1="361.0" x2="166.0" y2="376.0" />
		<line x1="181.0" y1="361.0" x2="181.0" y2="376.0" />
		<line x1="181.0" y1="376.0" x2="196.0" y2="376.0" />
		<line x1="196.0" y1="376.0" x2="211.0" y2="376.0" />
		<line x1="211.0" y1="376.0" x2="226.0" y2="376.0" />
		<line x1="226.0" y1="376.0" x2="241.0" y2="376.0" />
		<line x1="256.0" y1="361.0" x2="256.0" y2="376.0" />
		<line x1="271.0" y1="361.0" x2="271.0" y2="376.0" />
		<line x1="286.0" y1="361.0" x2="286.0" y2="376.0" />
		<line x1="301.0" y1="361.0" x2="301.0" y2="376.0" />
		<line x1="316.0" y1="361.0" x2="316.0" y2="376.0" />
		<line x1="331.0" y1="376.0" x2="346.0" y2="376.0" />
		<line x1="346.0" y1="376.0" x2="361.0" y2="376.0" />
		<line x1="361.0" y1="376.0" x2="376.0" y2="376.0" />
		<line x1="376.0" y1="376.0" x2="391.0" y2="376.0" />
		<line x1="391.0" y1="361.0" x2="391.0" y2="376.0" />
		<line x1="391.0" y1="376.0" x2="406.0" y2="376.0" />
		<line x1="406.0" y1="361.0" x2="406.0" y2="376.0" />
		<line x1="421.0" y1="361.0" x2="421.0" y2="376.0" />
		<line x1="436.0" y1="361.0" x2="436.0" y2="376.0" />
		<line x1="436.0" y1="376.0" x2="451.0" y2="376.0" />
		<line x1="451.0" y1="376.0" x2="466.0" y2="376.0" />
		<line x1="481.0" y1="361.0" x2="481.0" y2="376.0" />
		<line x1="1.0" y1="376.0" x2="1.0" y2="391.0" />
		<line x1="31.0" y1="376.0" x2="31.0" y2="391.0" />
		<line x1="61.0" y1="376.0" x2="61.0" y2="391.0" />
		<line x1="76.0" y1="376.0" x2="76.0" y2="391.0" />
		<line x1="106.0" y1="391.0" x2="121.0" y2="391.0" />
		<line x1="121.0" y1="376.0" x2="121.0" y2="391.0" />
		<line x1="136.0" y1="376.0" x2="136.0" y2="391.0" />
		<line x1="151.0" y1="391.0" x2="166.0" y2="391.0" />
		<line x1="166.0" y1="376.0" x2="166.0" y2="391.0" />
		<line x1="181.0" y1="376.0" x2="181.0" y2="391.0" />
		<line x1="241.0" y1="376.0" x2="241.0" y2="391.0" />
		<line x1="256.0" y1="376.0" x2="256.0" y2="391.0" />
		<line x1="271.0" y1="376.0" x2="271.0" y2="391.0" />
		<line x1="271.0" y1="391.0" x2="286.0" y2="391.0" />
		<line x1="301.0" y1="376.0" x2="301.0" y2="391.0" />
		<line x1="316.0" y1="376.0" x2="316.0" y2="391.0" />
		<line x1="316.0" y1="391.0" x2="331.0" y2="391.0" />
		<line x1="331.0" y1="376.0" x2="331.0" y2="391.0" />
		<line x1="346.0" y1="391.0" x2="361.0" y2="391.0" />
		<line x1="361.0" y1="391.0" x2="376.0" y2="391.0" />
		<line x1="376.0" y1="391.0" x2="391.0" y2="391.0" />
		<line x1="406.0" y1="376.0" x2="406.0" y2="391.0" />
		<line x1="406.0" y1="391.0" x2="421.0" y2="391.0" />
		<line x1="421.0" y1="391.0" x2="436.0" y2="391.0" />
		<line x1="436.0" y1="391.0" x2="451.0" y2="391.0" />
		<line x1="451.0" y1="391.0" x2="466.0" y2="391.0" />
		<line x1="466.0" y1="376.0" x2="466.0" y2="391.0" />
		<line x1="481.0" y1="376.0" x2="481.0" y2="391.0" />
		<line x1="16.0" y1="391.0" x2="16.0" y2="406.0" />
		<line x1="1.0" y1="391.0" x2="1.0" y2="406.0" />
		<line x1="31.0" y1="391.0" x2="31.0" y2="406.0" />
		<line x1="46.0" y1="391.0" x2="46.0" y2="406.0" />
		<line x1="61.0" y1="391.0" x2="61.0" y2="406.0" />
		<line x1="76.0" y1="406.0" x2="91.0" y2="406.0" />
		<line x1="91.0" y1="391.0" x2="91.0" y2="406.0" />
		<line x1="106.0" y1="391.0" x2="106.0" y2="406.0" />
		<line x1="121.0" y1="406.0" x2="136.0" y2="406.0" />
		<line x1="136.0" y1="391.0" x2="136.0" y2="406.0" />
		<line x1="151.0" y1="391.0" x2="151.0" y2="406.0" />
		<line x1="166.0" y1="391.0" x2="166.0" y2="406.0" />
		<line x1="181.0" y1="391.0" x2="181.0" y2="406.0" />
		<line x1="241.0" y1="391.0" x2="241.0" y2="406.0" />
		<line x1="256.0" y1="391.0" x2="256.0" y2="406.0" />
		<line x1="256.0" y1="406.0" x2="271.0" y2="406.0" />
		<line x1="286.0" y1="391.0" x2="286.0" y2="406.0" />
		<line x1="301.0" y1="391.0" x2="301.0" y2="406.0" />
		<line x1="301.0" y1="406.0" x2="316.0" y2="406.0" />
		<line x1="331.0" y1="391.0" x2="331.0" y2="406.0" />
		<line x1="346.0" y1="391.0" x2="346.0" y2="406.0" />
		<line x1="391.0" y1="391.0" x2="391.0" y2="406.0" />
		<line x1="406.0" y1="406.0" x2="421.0" y2="406.0" />
		<line x1="421.0" y1="406.0" x2="436.0" y2="406.0" />
		<line x1="436.0" y1="406.0" x2="451.0" y2="406.0" />
		<line x1="466.0" y1="391.0" x2="466.0" y2="406.0" />
		<line x1="481.0" y1="391.0" x2="481.0" y2="406.0" />
		<line x1="16.0" y1="406.0" x2="16.0" y2="421.0" />
		<line x1="1.0" y1="406.0" x2="1.0" y2="421.0" />
		<line x1="16.0" y1="421.0" x2="31.0" y2="421.0" />
		<line x1="46.0" y1="406.0" x2="46.0" y2="421.0" />
		<line x1="61.0" y1="406.0" x2="61.0" y2="421.0" />
		<line x1="91.0" y1="406.0" x2="91.0" y2="421.0" />
		<line x1="106.0" y1="406.0" x2="106.0" y2="421.0" />
		<line x1="106.0" y1="421.0" x2="121.0" y2="421.0" />
		<line x1="136.0" y1="406.0" x2="136.0" y2="421.0" />
		<line x1="151.0" y1="406.0" x2="151.0" y2="421.0" />
		<line x1="181.0" y1="406.0" x2="181.0" y2="421.0" />
		<line x1="241.0" y1="406.0" x2="241.0" y2="421.0" />
		<line x1="241.0" y1="421.0" x2="256.0" y2="421.0" />
		<line x1="256.0" y1="421.0" x2="271.0" y2="421.0" />
		<line x1="271.0" y1="421.0" x2="286.0" y2="421.0" />
		<line x1="286.0" y1="406.0" x2="286.0" y2="421.0" />
		<line x1="301.0" y1="406.0" x2="301.0" y2="421.0" />
		<line x1="316.0" y1="421.0" x2="331.0" y2="421.0" />
		<line x1="331.0" y1="406.0" x2="331.0" y2="421.0" />
		<line x1="346.0" y1="406.0" x2="346.0" y2="421.0" />
		<line x1="391.0" y1="406.0" x2="391.0" y2="421.0" />
		<line x1="406.0" y1="406.0" x2="406.0" y2="421.0" />
		<line x1="421.0" y1="421.0" x2="436.0" y2="421.0" />
		<line x1="436.0" y1="421.0" x2="451.0" y2="421.0" />
		<line x1="451.0" y1="421.0" x2="466.0" y2="421.0" />
		<line x1="466.0" y1="406.0" x2="466.0" y2="421.0" />
		<line x1="481.0" y1="406.0" x2="481.0" y2="421.0" />
		<line x1="1.0" y1="421.0" x2="1.0" y2="436.0" />
		<line x1="31.0" y1="421.0" x2="31.0" y2="436.0" />
		<line x1="46.0" y1="421.0" x2="46.0" y2="436.0" />
		<line x1="46.0" y1="436.0" x2="61.0" y2="436.0" />
		<line x1="76.0" y1="421.0" x2="76.0" y2="436.0" />
		<line x1="76.0" y1="436.0" x2="91.0" y2="436.0" />
		<line x1="91.0" y1="436.0" x2="106.0" y2="436.0" />
		<line x1="121.0" y1="436.0" x2="136.0" y2="436.0" />
		<line x1="136.0" y1="436.0" x2="151.0" y2="436.0" />
		<line x1="151.0" y1="436.0" x2="166.0" y2="436.0" />
		<line x1="166.0" y1="421.0" x2="166.0" y2="436.0" />
		<line x1="181.0" y1="421.0" x2="181.0" y2="436.0" />
		<line x1="181.0" y1="436.0" x2="196.0" y2="436.0" />
		<line x1="196.0" y1="436.0" x2="211.0" y2="436.0" />
		<line x1="211.0" y1="436.0" x2="226.0" y2="436.0" />
		<line x1="226.0" y1="436.0" x2="241.0" y2="436.0" />
		<line x1="241.0" y1="421.0" x2="241.0" y2="436.0" />
		<line x1="271.0" y1="421.0" x2="271.0" y2="436.0" />
		<line x1="286.0" y1="421.0" x2="286.0" y2="436.0" />
		<line x1="301.0" y1="421.0" x2="301.0" y2="436.0" />
		<line x1="301.0" y1="436.0" x2="316.0" y2="436.0" />
		<line x1="331.0" y1="421.0" x2="331.0" y2="436.0" />
		<line x1="346.0" y1="421.0" x2="346.0" y2="436.0" />
		<line x1="346.0" y1="436.0" x2="361.0" y2="436.0" />
		<line x1="361.0" y1="436.0" x2="376.0" y2="436.0" />
		<line x1="376.0" y1="436.0" x2="391.0" y2="436.0" />
		<line x1="391.0" y1="421.0" x2="391.0" y2="436.0" />
		<line x1="406.0" y1="421.0" x2="406.0" y2="436.0" />
		<line x1="421.0" y1="421.0" x2="421.0" y2="436.0" />
		<line x1="436.0" y1="436.0" x2="451.0" y2="436.0" />
		<line x1="451.0" y1="436.0" x2="466.0" y2="436.0" />
		<line x1="481.0" y1="421.0" x2="481.0" y2="436.0" />
		<line x1="16.0" y1="436.0" x2="16.0" y2="451.0" />
		<line x1="1.0" y1="436.0" x2="1.0" y2="451.0" />
		<line x1="31.0" y1="436.0" x2="31.0" y2="451.0" />
		<line x1="31.0" y1="451.0" x2="46.0" y2="451.0" />
		<line x1="46.0" y1="451.0" x2="61.0" y2="451.0" />
		<line x1="61.0" y1="451.0" x2="76.0" y2="451.0" />
		<line x1="76.0" y1="451.0" x2="91.0" y2="451.0" />
		<line x1="91.0" y1="451.0" x2="106.0" y2="451.0" />
		<line x1="106.0" y1="451.0" x2="121.0" y2="451.0" />
		<line x1="121.0" y1="451.0" x2="136.0" y2="451.0" />
		<line x1="136.0" y1="451.0" x2="151.0" y2="451.0" />
		<line x1="151.0" y1="451.0" x2="166.0" y2="451.0" />
		<line x1="166.0" y1="451.0" x2="181.0" y2="451.0" />
		<line x1="181.0" y1="451.0" x2="196.0" y2="451.0" />
		<line x1="196.0" y1="451.0" x2="211.0" y2="451.0" />
		<line x1="211.0" y1="451.0" x2="226.0" y2="451.0" />
		<line x1="226.0" y1="451.0" x2="241.0" y2="451.0" />
		<line x1="241.0" y1="451.0" x2="256.0" y2="451.0" />
		<line x1="256.0" y1="436.0" x2="256.0" y2="451.0" />
		<line x1="256.0" y1="451.0" x2="271.0" y2="451.0" />
		<line x1="286.0" y1="436.0" x2="286.0" y2="451.0" />
		<line x1="286.0" y1="451.0" x2="301.0" y2="451.0" />
		<line x1="301.0" y1="451.0" x2="316.0" y2="451.0" />
		<line x1="316.0" y1="451.0" x2="331.0" y2="451.0" />
		<line x1="331.0" y1="436.0" x2="331.0" y2="451.0" />
		<line x1="331.0" y1="451.0" x2="346.0" y2="451.0" />
		<line x1="346.0" y1="451.0" x2="361.0" y2="451.0" />
		<line x1="361.0" y1="451.0" x2="376.0" y2="451.0" />
		<line x1="376.0" y1="451.0" x2="391.0" y2="451.0" />
		<line x1="391.0" y1="451.0" x2="406.0" y2="451.0" />
		<line x1="406.0" y1="436.0" x2="406.0" y2="451.0" />
		<line x1="421.0" y1="436.0" x2="421.0" y2="451.0" />
		<line x1="436.0" y1="436.0" x2="436.0" y2="451.0" />
		<line x1="451.0" y1="436.0" x2="451.0" y2="451.0" />
		<line x1="466.0" y1="436.0" x2="466.0" y2="451.0" />
		<line x1="481.0" y1="436.0" x2="481.0" y2="451.0" />
		<line x1="16.0" y1="451.0" x2="16.0" y2="466.0" />
		<line x1="1.0" y1="451.0" x2="1.0" y2="466.0" />
		<line x1="46.0" y1="466.0" x2="61.0" y2="466.0" />
		<line x1="61.0" y1="466.0" x2="76.0" y2="466.0" />
		<line x1="76.0" y1="466.0" x2="91.0" y2="466.0" />
		<line x1="91.0" y1="466.0" x2="106.0" y2="466.0" />
		<line x1="106.0" y1="466.0" x2="121.0" y2="466.0" />
		<line x1="121.0" y1="466.0" x2="136.0" y2="466.0" />
		<line x1="136.0" y1="466.0" x2="151.0" y2="466.0" />
		<line x1="151.0" y1="466.0" x2="166.0" y2="466.0" />
		<line x1="166.0" y1="466.0" x2="181.0" y2="466.0" />
		<line x1="181.0" y1="466.0" x2="196.0" y2="466.0" />
		<line x1="196.0" y1="466.0" x2="211.0" y2="466.0" />
		<line x1="211.0" y1="466.0" x2="226.0" y2="466.0" />
		<line x1="226.0" y1="466.0" x2="241.0" y2="466.0" />
		<line x1="241.0" y1="466.0" x2="256.0" y2="466.0" />
		<line x1="256.0" y1="466.0" x2="271.0" y2="466.0" />
		<line x1="271.0" y1="466.0" x2="286.0" y2="466.0" />
		<line x1="286.0" y1="466.0" x2="301.0" y2="466.0" />
		<line x1="301.0" y1="466.0" x2="316.0" y2="466.0" />
		<line x1="316.0" y1="466.0" x2="331.0" y2="466.0" />
		<line x1="331.0" y1="466.0" x2="346.0" y2="466.0" />
		<line x1="346.0" y1="466.0" x2="361.0" y2="466.0" />
		<line x1="361.0" y1="466.0" x2="376.0" y2="466.0" />
		<line x1="376.0" y1="466.0" x2="391.0" y2="466.0" />
		<line x1="391.0" y1="466.0" x2="406.0" y2="466.0" />
		<line x1="406.0" y1="466.0" x2="421.0" y2="466.0" />
		<line x1="421.0" y1="451.0" x2="421.0" y2="466.0" />
		<line x1="436.0" y1="451.0" x2="436.0" y2="466.0" />
		<line x1="466.0" y1="451.0" x2="466.0" y2="466.0" />
		<line x1="481.0" y1="451.0" x2="481.0" y2="466.0" />
		<line x1="1.0" y1="481.0" x2="16.0" y2="481.0" />
		<line x1="16.0" y1="466.0" x2="16.0" y2="481.0" />
		<line x1="1.0" y1="466.0" x2="1.0" y2="481.0" />
		<line x1="16.0" y1="481.0" x2="31.0" y2="481.0" />
		<line x1="31.0" y1="466.0" x2="31.0" y2="481.0" />
		<line x1="31.0" y1="481.0" x2="46.0" y2="481.0" />
		<line x1="46.0" y1="481.0" x2="61.0" y2="481.0" />
		<line x1="61.0" y1="481.0" x2="76.0" y2="481.0" />
		<line x1="76.0" y1="481.0" x2="91.0" y2="481.0" />
		<line x1="91.0" y1="481.0" x2="106.0" y2="481.0" />
		<line x1="106.0" y1="481.0" x2="121.0" y2="481.0" />
		<line x1="121.0" y1="481.0" x2="136.0" y2="481.0" />
		<line x1="136.0" y1="481.0" x2="151.0" y2="481.0" />
		<line x1="151.0" y1="481.0" x2="166.0" y2="481.0" />
		<line x1="166.0" y1="481.0" x2="181.0" y2="481.0" />
		<line x1="181.0" y1="481.0" x2="196.0" y2="481.0" />
		<line x1="196.0" y1="481.0" x2="211.0" y2="481.0" />
		<line x1="211.0" y1="481.0" x2="226.0" y2="481.0" />
		<line x1="226.0" y1="481.0" x2="241.0" y2="481.0" />
		<line x1="241.0" y1="481.0" x2="256.0" y2="481.0" />
		<line x1="256.0" y1="481.0" x2="271.0" y2="481.0" />
		<line x1="271.0" y1="481.0" x2="286.0" y2="481.0" />
		<line x1="286.0" y1="481.0" x2="301.0" y2="481.0" />
		<line x1="301.0" y1="481.0" x2="316.0" y2="481.0" />
		<line x1="316.0" y1="481.0" x2="331.0" y2="481.0" />
		<line x1="331.0" y1="481.0" x2="346.0" y2="481.0" />
		<line x1="346.0" y1="481.0" x2="361.0" y2="481.0" />
		<line x1="361.0" y1="481.0" x2="376.0" y2="481.0" />
		<line x1="376.0" y1="481.0" x2="391.0" y2="481.0" />
		<line x1="391.0" y1="481.0" x2="406.0" y2="481.0" />
		<line x1="406.0" y1="481.0" x2="421.0" y2="481.0" />
		<line x1="421.0" y1="481.0" x2="436.0" y2="481.0" />
		<line x1="436.0" y1="481.0" x2="451.0" y2="481.0" />
		<line x1="451.0" y1="466.0" x2="451.0" y2="481.0" />
		<line x1="451.0" y1="481.0" x2="466.0" y2="481.0" />
		<line x1="466.0" y1="481.0" x2="481.0" y2="481.0" />
		<line x1="481.0" y1="466.0" x2="481.0" y2="481.0" />
</g></svg>