<svg xmlns="http://www.w3.org/2000/svg" width="482" height="482">
	<path fill="#a50026" d="M1.0 1.0h15v15h-15z" />
	<path fill="#a90426" d="M1.0 16.0h15v15h-15z" />
	<path fill="#ad0826" d="M16.0 16.0h15v15h-15z" />
	<path fill="#b10b26" d="M31.0 16.0h15v15h-15z" />
	<path fill="#b50f26" d="M31.0 1.0h15v15h-15z" />
	<path fill="#b91326" d="M46.0 1.0h15v15h-15z" />
	<path fill="#bd1726" d="M61.0 1.0h15v15h-15z" />
	<path fill="#c01a27" d="M76.0 1.0h15v15h-15z" />
	<path fill="#c41e27" d="M91.0 1.0h15v15h-15z" />
	<path fill="#c82227" d="M91.0 16.0h15v15h-15z" />
	<path fill="#cc2627" d="M91.0 31.0h15v15h-15z" />
	<path fill="#d02927" d="M91.0 46.0h15v15h-15z" />
	<path fill="#d42d27" d="M106.0 46.0h15v15h-15z" />
	<path fill="#d83128" d="M106.0 31.0h15v15h-15z" />
	<path fill="#da362a" d="M121.0 31.0h15v15h-15z" />
	<path fill="#dc3b2c" d="M136.0 31.0h15v15h-15z" />
	<path fill="#de402e" d="M151.0 31.0h15v15h-15z" />
	<path fill="#e14430" d="M166.0 31.0h15v15h-15z" />
	<path fill="#e34933" d="M166.0 16.0h15v15h-15z" />
	<path fill="#e54e35" d="M166.0 1.0h15v15h-15z" />
	<path fill="#e75337" d="M181.0 1.0h15v15h-15z" />
	<path fill="#ea5739" d="M196.0 1.0h15v15h-15z" />
	<path fill="#ec5c3b" d="M211.0 1.0h15v15h-15z" />
	<path fill="#ee613e" d="M226.0 1.0h15v15h-15z" />
	<path fill="#f16640" d="M241.0 1.0h15v15h-15z" />
	<path fill="#f36b42" d="M241.0 16.0h15v15h-15z" />
	<path fill="#f47044" d="M226.0 16.0h15v15h-15z" />
	<path fill="#f57547" d="M211.0 16.0h15v15h-15z" />
	<path fill="#f67a49" d="M196.0 16.0h15v15h-15z" />
	<path fill="#f67f4b" d="M196.0 31.0h15v15h-15z" />
	<path fill="#f7844e" d="M196.0 46.0h15v15h-15z" />
	<path fill="#f88950" d="M181.0 46.0h15v15h-15z" />
	<path fill="#f98e52" d="M181.0 61.0h15v15h-15z" />
	<path fill="#f99355" d="M166.0 61.0h15v15h-15z" />
	<path fill="#fa9857" d="M151.0 61.0h15v15h-15z" />
	<path fill="#fb9d59" d="M151.0 76.0h15v15h-15z" />
	<path fill="#fba35c" d="M151.0 91.0h15v15h-15z" />
	<path fill="#fca85e" d="M151.0 106.0h15v15h-15z" />
	<path fill="#fdad60" d="M136.0 106.0h15v15h-15z" />
	<path fill="#fdb163" d="M136.0 121.0h15v15h-15z" />
	<path fill="#fdb567" d="M136.0 136.0h15v15h-15z" />
	<path fill="#fdb96a" d="M136.0 151.0h15v15h-15z" />
	<path fill="#fdbd6d" d="M151.0 151.0h15v15h-15z" />
	<path fill="#fdc171" d="M166.0 151.0h15v15h-15z" />
	<path fill="#fdc574" d="M181.0 151.0h15v15h-15z" />
	<path fill="#fec877" d="M181.0 166.0h15v15h-15z" />
	<path fill="#fecc7b" d="M196.0 166.0h15v15h-15z" />
	<path fill="#fed07e" d="M211.0 166.0h15v15h-15z" />
	<path fill="#fed481" d="M211.0 181.0h15v15h-15z" />
	<path fill="#fed884" d="M226.0 181.0h15v15h-15z" />
	<path fill="#fedc88" d="M226.0 166.0h15v15h-15z" />
	<path fill="#fee08b" d="M241.0 166.0h15v15h-15z" />
	<path fill="#fee28f" d="M256.0 166.0h15v15h-15z" />
	<path fill="#fee593" d="M271.0 166.0h15v15h-15z" />
	<path fill="#fee797" d="M286.0 166.0h15v15h-15z" />
	<path fill="#feea9b" d="M286.0 181.0h15v15h-15z" />
	<path fill="#feec9f" d="M286.0 196.0h15v15h-15z" />
	<path fill="#feefa3" d="M301.0 196.0h15v15h-15z" />
	<path fill="#fff1a8" d="M316.0 196.0h15v15h-15z" />
	<path fill="#fff3ac" d="M316.0 211.0h15v15h-15z" />
	<path fill="#fff6b0" d="M331.0 211.0h15v15h-15z" />
	<path fill="#fff8b4" d="M331.0 226.0h15v15h-15z" />
	<path fill="#fffbb8" d="M346.0 226.0h15v15h-15z" />
	<path fill="#fffdbc" d="M346.0 241.0h15v15h-15z" />
	<path fill="#feffbe" d="M361.0 241.0h15v15h-15z" />
	<path fill="#fbfdba" d="M376.0 241.0h15v15h-15z" />
	<path fill="#f8fcb6" d="M376.0 226.0h15v15h-15z" />
	<path fill="#f5fbb2" d="M376.0 211.0h15v15h-15z" />
	<path fill="#f2faae" d="M361.0 211.0h15v15h-15z" />
	<path fill="#eff8aa" d="M346.0 211.0h15v15h-15z" />
	<path fill="#ecf7a6" d="M346.0 196.0h15v15h-15z" />
	<path fill="#e9f6a1" d="M346.0 181.0h15v15h-15z" />
	<path fill="#e6f59d" d="M361.0 181.0h15v15h-15z" />
	<path fill="#e3f399" d="M361.0 196.0h15v15h-15z" />
	<path fill="#e0f295" d="M376.0 196.0h15v15h-15z" />
	<path fill="#ddf191" d="M391.0 196.0h15v15h-15z" />
	<path fill="#daf08d" d="M406.0 196.0h15v15h-15z" />
	<path fill="#d7ee8a" d="M406.0 211.0h15v15h-15z" />
	<path fill="#d3ec87" d="M406.0 226.0h15v15h-15z" />
	<path fill="#cfeb85" d="M406.0 241.0h15v15h-15z" />
	<path fill="#cbe982" d="M391.0 241.0h15v15h-15z" />
	<path fill="#c7e77f" d="M391.0 256.0h15v15h-15z" />
	<path fill="#c3e67d" d="M376.0 256.0h15v15h-15z" />
	<path fill="#bfe47a" d="M361.0 256.0h15v15h-15z" />
	<path fill="#bbe278" d="M346.0 256.0h15v15h-15z" />
	<path fill="#b7e075" d="M331.0 256.0h15v15h-15z" />
	<path fill="#b3df72" d="M316.0 256.0h15v15h-15z" />
	<path fill="#afdd70" d="M316.0 271.0h15v15h-15z" />
	<path fill="#abdb6d" d="M331.0 271.0h15v15h-15z" />
	<path fill="#a7d96b" d="M346.0 271.0h15v15h-15z" />
	<path fill="#a2d76a" d="M361.0 271.0h15v15h-15z" />
	<path fill="#9dd569" d="M361.0 286.0h15v15h-15z" />
	<path fill="#98d368" d="M376.0 286.0h15v15h-15z" />
	<path fill="#93d168" d="M391.0 286.0h15v15h-15z" />
	<path fill="#8ecf67" d="M391.0 271.0h15v15h-15z" />
	<path fill="#89cc67" d="M406.0 271.0h15v15h-15z" />
	<path fill="#84ca66" d="M406.0 286.0h15v15h-15z" />
	<path fill="#7fc866" d="M421.0 286.0h15v15h-15z" />
	<path fill="#7ac665" d="M421.0 301.0h15v15h-15z" />
	<path fill="#75c465" d="M436.0 301.0h15v15h-15z" />
	<path fill="#70c164" d="M436.0 316.0h15v15h-15z" />
	<path fill="#6bbf64" d="M436.0 331.0h15v15h-15z" />
	<path fill="#66bd63" d="M451.0 331.0h15v15h-15z" />
	<path fill="#60ba62" d="M451.0 316.0h15v15h-15z" />
	<path fill="#5ab760" d="M451.0 301.0h15v15h-15z" />
	<path fill="#54b45f" d="M466.0 301.0h15v15h-15z" />
	<path fill="#4eb15d" d="M466.0 316.0h15v15h-15z" />
	<path fill="#48ae5c" d="M466.0 331.0h15v15h-15z" />
	<path fill="#42ac5a" d="M466.0 346.0h15v15h-15z" />
	<path fill="#3ca959" d="M466.0 361.0h15v15h-15z" />
	<path fill="#36a657" d="M466.0 376.0h15v15h-15z" />
	<path fill="#30a356" d="M466.0 391.0h15v15h-15z" />
	<path fill="#2aa054" d="M466.0 406.0h15v15h-15z" />
	<path fill="#249d53" d="M466.0 421.0h15v15h-15z" />
	<path fill="#1e9a51" d="M451.0 421.0h15v15h-15z" />
	<path fill="#199750" d="M436.0 421.0h15v15h-15z" />
	<path fill="#17934e" d="M421.0 421.0h15v15h-15z" />
	<path fill="#15904c" d="M406.0 421.0h15v15h-15z" />
	<path fill="#138c4a" d="M391.0 421.0h15v15h-15z" />
	<path fill="#118848" d="M391.0 436.0h15v15h-15z" />
	<path fill="#0f8446" d="M391.0 451.0h15v15h-15z" />
	<path fill="#0d8044" d="M406.0 451.0h15v15h-15z" />
	<path fill="#0b7d42" d="M406.0 436.0h15v15h-15z" />
	<path fill="#097940" d="M421.0 436.0h15v15h-15z" />
	<path fill="#07753e" d="M421.0 451.0h15v15h-15z" />
	<path fill="#05713c" d="M436.0 451.0h15v15h-15z" />
	<path fill="#036e3a" d="M451.0 451.0h15v15h-15z" />
	<path fill="#016a38" d="M466.0 451.0h15v15h-15z" />
	<path fill="#006837" d="M466.0 466.0h15v15h-15z" />
	<g fill="none" stroke="#000" stroke-width="2" stroke-linecap="square">		<line x1="1.0" y1="1.0" x2="16.0" y2="1.0" />
		<line x1="1.0" y1="1.0" x2="1.0" y2="16.0" />
		<line x1="16.0" y1="1.0" x2="31.0" y2="1.0" />
		<line x1="16.0" y1="16.0" x2="31.0" y2="16.0" />
		<line x1="31.0" y1="1.0" x2="31.0" y2="16.0" />
		<line x1="31.0" y1="1.0" x2="46.0" y2="1.0" />
		<line x1="46.0" y1="1.0" x2="61.0" y2="1.0" />
		<line x1="46.0" y1="16.0" x2="61.0" y2="16.0" />
		<line x1="61.0" y1="1.0" x2="76.0" y2="1.0" />
		<line x1="61.0" y1="16.0" x2="76.0" y2="16.0" />
		<line x1="76.0" y1="1.0" x2="91.0" y2="1.0" />
		<line x1="91.0" y1="1.0" x2="106.0" y2="1.0" />
		<line x1="106.0" y1="1.0" x2="121.0" y2="1.0" />
		<line x1="106.0" y1="16.0" x2="121.0" y2="16.0" />
		<line x1="121.0" y1="1.0" x2="136.0" y2="1.0" />
		<line x1="136.0" y1="1.0" x2="136.0" y2="16.0" />
		<line x1="136.0" y1="1.0" x2="151.0" y2="1.0" />
		<line x1="136.0" y1="16.0" x2="151.0" y2="16.0" />
		<line x1="151.0" y1="1.0" x2="166.0" y2="1.0" />
		<line x1="166.0" y1="1.0" x2="166.0" y2="16.0" />
		<line x1="166.0" y1="1.0" x2="181.0" y2="1.0" />
		<line x1="181.0" y1="1.0" x2="196.0" y2="1.0" />
		<line x1="181.0" y1="16.0" x2="196.0" y2="16.0" />
		<line x1="196.0" y1="1.0" x2="211.0" y2="1.0" />
		<line x1="196.0" y1="16.0" x2="211.0" y2="16.0" />
		<line x1="211.0" y1="1.0" x2="226.0" y2="1.0" />
		<line x1="211.0" y1="16.0" x2="226.0" y2="16.0" />
		<line x1="226.0" y1="1.0" x2="241.0" y2="1.0" />
		<line x1="226.0" y1="16.0" x2="241.0" y2="16.0" />
		<line x1="241.0" y1="1.0" x2="256.0" y2="1.0" />
		<line x1="256.0" y1="1.0" x2="271.0" y2="1.0" />
		<line x1="256.0" y1="16.0" x2="271.0" y2="16.0" />
		<line x1="271.0" y1="1.0" x2="286.0" y2="1.0" />
		<line x1="286.0" y1="1.0" x2="286.0" y2="16.0" />
		<line x1="286.0" y1="1.0" x2="301.0" y2="1.0" />
		<line x1="286.0" y1="16.0" x2="301.0" y2="16.0" />
		<line x1="301.0" y1="1.0" x2="316.0" y2="1.0" />
		<line x1="316.0" y1="1.0" x2="331.0" y2="1.0" />
		<line x1="331.0" y1="1.0" x2="331.0" y2="16.0" />
		<line x1="331.0" y1="1.0" x2="346.0" y2="1.0" />
		<line x1="331.0" y1="16.0" x2="346.0" y2="16.0" />
		<line x1="346.0" y1="1.0" x2="361.0" y2="1.0" />
		<line x1="361.0" y1="1.0" x2="376.0" y2="1.0" />
		<line x1="361.0" y1="16.0" x2="376.0" y2="16.0" />
		<line x1="376.0" y1="1.0" x2="391.0" y2="1.0" />
		<line x1="391.0" y1="1.0" x2="391.0" y2="16.0" />
		<line x1="391.0" y1="1.0" x2="406.0" y2="1.0" />
		<line x1="391.0" y1="16.0" x2="406.0" y2="16.0" />
		<line x1="406.0" y1="1.0" x2="421.0" y2="1.0" />
		<line x1="421.0" y1="1.0" x2="436.0" y2="1.0" />
		<line x1="436.0" y1="1.0" x2="451.0" y2="1.0" />
		<line x1="436.0" y1="16.0" x2="451.0" y2="16.0" />
		<line x1="451.0" y1="1.0" x2="466.0" y2="1.0" />
		<line x1="466.0" y1="1.0" x2="466.0" y2="16.0" />
		<line x1="466.0" y1="1.0" x2="481.0" y2="1.0" />
		<line x1="481.0" y1="1.0" x2="481.0" y2="16.0" />
		<line x1="1.0" y1="16.0" x2="1.0" y2="31.0" />
		<line x1="16.0" y1="31.0" x2="31.0" y2="31.0" />
		<line x1="31.0" y1="31.0" x2="46.0" y2="31.0" />
		<line x1="46.0" y1="16.0" x2="46.0" y2="31.0" />
		<line x1="76.0" y1="16.0" x2="76.0" y2="31.0" />
		<line x1="91.0" y1="16.0" x2="91.0" y2="31.0" />
		<line x1="106.0" y1="16.0" x2="106.0" y2="31.0" />
		<line x1="106.0" y1="31.0" x2="121.0" y2="31.0" />
		<line x1="121.0" y1="31.0" x2="136.0" y2="31.0" />
		<line x1="136.0" y1="31.0" x2="151.0" y2="31.0" />
		<line x1="151.0" y1="31.0" x2="166.0" y2="31.0" />
		<line x1="166.0" y1="16.0" x2="166.0" y2="31.0" />
		<line x1="181.0" y1="16.0" x2="181.0" y2="31.0" />
		<line x1="196.0" y1="16.0" x2="196.0" y2="31.0" />
		<line x1="211.0" y1="31.0" x2="226.0" y2="31.0" />
		<line x1="226.0" y1="31.0" x2="241.0" y2="31.0" />
		<line x1="241.0" y1="31.0" x2="256.0" y2="31.0" />
		<line x1="256.0" y1="16.0" x2="256.0" y2="31.0" />
		<line x1="271.0" y1="31.0" x2="286.0" y2="31.0" />
		<line x1="286.0" y1="16.0" x2="286.0" y2="31.0" />
		<line x1="301.0" y1="31.0" x2="316.0" y2="31.0" />
		<line x1="316.0" y1="16.0" x2="316.0" y2="31.0" />
		<line x1="316.0" y1="31.0" x2="331.0" y2="31.0" />
		<line x1="346.0" y1="16.0" x2="346.0" y2="31.0" />
		<line x1="376.0" y1="16.0" x2="376.0" y2="31.0" />
		<line x1="376.0" y1="31.0" x2="391.0" y2="31.0" />
		<line x1="406.0" y1="16.0" x2="406.0" y2="31.0" />
		<line x1="406.0" y1="31.0" x2="421.0" y2="31.0" />
		<line x1="421.0" y1="16.0" x2="421.0" y2="31.0" />
		<line x1="421.0" y1="31.0" x2="436.0" y2="31.0" />
		<line x1="451.0" y1="16.0" x2="451.0" y2="31.0" />
		<line x1="451.0" y1="31.0" x2="466.0" y2="31.0" />
		<line x1="481.0" y1="16.0" x2="481.0" y2="31.0" />
		<line x1="16.0" y1="31.0" x2="16.0" y2="46.0" />
		<line x1="1.0" y1="31.0" x2="1.0" y2="46.0" />
		<line x1="31.0" y1="46.0" x2="46.0" y2="46.0" />
		<line x1="46.0" y1="46.0" x2="61.0" y2="46.0" />
		<line x1="61.0" y1="31.0" x2="61.0" y2="46.0" />
		<line x1="76.0" y1="31.0" x2="76.0" y2="46.0" />
		<line x1="76.0" y1="46.0" x2="91.0" y2="46.0" />
		<line x1="91.0" y1="31.0" x2="91.0" y2="46.0" />
		<line x1="106.0" y1="31.0" x2="106.0" y2="46.0" />
		<line x1="121.0" y1="46.0" x2="136.0" y2="46.0" />
		<line x1="136.0" y1="46.0" x2="151.0" y2="46.0" />
		<line x1="151.0" y1="46.0" x2="166.0" y2="46.0" />
		<line x1="166.0" y1="46.0" x2="181.0" y2="46.0" />
		<line x1="181.0" y1="46.0" x2="196.0" y2="46.0" />
		<line x1="196.0" y1="31.0" x2="196.0" y2="46.0" />
		<line x1="211.0" y1="31.0" x2="211.0" y2="46.0" />
		<line x1="211.0" y1="46.0" x2="226.0" y2="46.0" />
		<line x1="256.0" y1="31.0" x2="256.0" y2="46.0" />
		<line x1="256.0" y1="46.0" x2="271.0" y2="46.0" />
		<line x1="271.0" y1="46.0" x2="286.0" y2="46.0" />
		<line x1="286.0" y1="46.0" x2="301.0" y2="46.0" />
		<line x1="301.0" y1="31.0" x2="301.0" y2="46.0" />
		<line x1="316.0" y1="31.0" x2="316.0" y2="46.0" />
		<line x1="331.0" y1="46.0" x2="346.0" y2="46.0" />
		<line x1="346.0" y1="31.0" x2="346.0" y2="46.0" />
		<line x1="361.0" y1="31.0" x2="361.0" y2="46.0" />
		<line x1="376.0" y1="31.0" x2="376.0" y2="46.0" />
		<line x1="376.0" y1="46.0" x2="391.0" y2="46.0" />
		<line x1="391.0" y1="46.0" x2="406.0" y2="46.0" />
		<line x1="406.0" y1="46.0" x2="421.0" y2="46.0" />
		<line x1="436.0" y1="31.0" x2="436.0" y2="46.0" />
		<line x1="436.0" y1="46.0" x2="451.0" y2="46.0" />
		<line x1="466.0" y1="31.0" x2="466.0" y2="46.0" />
		<line x1="481.0" y1="31.0" x2="481.0" y2="46.0" />
		<line x1="16.0" y1="46.0" x2="16.0" y2="61.0" />
		<line x1="1.0" y1="46.0" x2="1.0" y2="61.0" />
		<line x1="31.0" y1="46.0" x2="31.0" y2="61.0" />
		<line x1="31.0" y1="61.0" x2="46.0" y2="61.0" />
		<line x1="61.0" y1="46.0" x2="61.0" y2="61.0" />
		<line x1="61.0" y1="61.0" x2="76.0" y2="61.0" />
		<line x1="91.0" y1="46.0" x2="91.0" y2="61.0" />
		<line x1="106.0" y1="61.0" x2="121.0" y2="61.0" />
		<line x1="121.0" y1="46.0" x2="121.0" y2="61.0" />
		<line x1="151.0" y1="61.0" x2="166.0" y2="61.0" />
		<line x1="166.0" y1="61.0" x2="181.0" y2="61.0" />
		<line x1="181.0" y1="46.0" x2="181.0" y2="61.0" />
		<line x1="196.0" y1="61.0" x2="211.0" y2="61.0" />
		<line x1="211.0" y1="46.0" x2="211.0" y2="61.0" />
		<line x1="226.0" y1="61.0" x2="241.0" y2="61.0" />
		<line x1="241.0" y1="46.0" x2="241.0" y2="61.0" />
		<line x1="241.0" y1="61.0" x2="256.0" y2="61.0" />
		<line x1="256.0" y1="61.0" x2="271.0" y2="61.0" />
		<line x1="286.0" y1="46.0" x2="286.0" y2="61.0" />
		<line x1="301.0" y1="61.0" x2="316.0" y2="61.0" />
		<line x1="316.0" y1="46.0" x2="316.0" y2="61.0" />
		<line x1="316.0" y1="61.0" x2="331.0" y2="61.0" />
		<line x1="346.0" y1="46.0" x2="346.0" y2="61.0" />
		<line x1="346.0" y1="61.0" x2="361.0" y2="61.0" />
		<line x1="361.0" y1="46.0" x2="361.0" y2="61.0" />
		<line x1="361.0" y1="61.0" x2="376.0" y2="61.0" />
		<line x1="376.0" y1="61.0" x2="391.0" y2="61.0" />
		<line x1="406.0" y1="46.0" x2="406.0" y2="61.0" />
		<line x1="421.0" y1="61.0" x2="436.0" y2="61.0" />
		<line x1="436.0" y1="46.0" x2="436.0" y2="61.0" />
		<line x1="451.0" y1="61.0" x2="466.0" y2="61.0" />
		<line x1="466.0" y1="46.0" x2="466.0" y2="61.0" />
		<line x1="481.0" y1="46.0" x2="481.0" y2="61.0" />
		<line x1="16.0" y1="61.0" x2="16.0" y2="76.0" />
		<line x1="1.0" y1="61.0" x2="1.0" y2="76.0" />
		<line x1="16.0" y1="76.0" x2="31.0" y2="76.0" />
		<line x1="31.0" y1="76.0" x2="46.0" y2="76.0" />
		<line x1="46.0" y1="76.0" x2="61.0" y2="76.0" />
		<line x1="76.0" y1="61.0" x2="76.0" y2="76.0" />
		<line x1="91.0" y1="61.0" x2="91.0" y2="76.0" />
		<line x1="106.0" y1="61.0" x2="106.0" y2="76.0" />
		<line x1="106.0" y1="76.0" x2="121.0" y2="76.0" />
		<line x1="136.0" y1="61.0" x2="136.0" y2="76.0" />
		<line x1="151.0" y1="61.0" x2="151.0" y2="76.0" />
		<line x1="166.0" y1="76.0" x2="181.0" y2="76.0" />
		<line x1="181.0" y1="76.0" x2="196.0" y2="76.0" />
		<line x1="196.0" y1="61.0" x2="196.0" y2="76.0" />
		<line x1="196.0" y1="76.0" x2="211.0" y2="76.0" />
		<line x1="226.0" y1="61.0" x2="226.0" y2="76.0" />
		<line x1="256.0" y1="61.0" x2="256.0" y2="76.0" />
		<line x1="271.0" y1="61.0" x2="271.0" y2="76.0" />
		<line x1="286.0" y1="61.0" x2="286.0" y2="76.0" />
		<line x1="301.0" y1="61.0" x2="301.0" y2="76.0" />
		<line x1="316.0" y1="76.0" x2="331.0" y2="76.0" />
		<line x1="331.0" y1="76.0" x2="346.0" y2="76.0" />
		<line x1="346.0" y1="61.0" x2="346.0" y2="76.0" />
		<line x1="376.0" y1="61.0" x2="376.0" y2="76.0" />
		<line x1="391.0" y1="76.0" x2="406.0" y2="76.0" />
		<line x1="406.0" y1="61.0" x2="406.0" y2="76.0" />
		<line x1="406.0" y1="76.0" x2="421.0" y2="76.0" />
		<line x1="436.0" y1="61.0" x2="436.0" y2="76.0" />
		<line x1="466.0" y1="61.0" x2="466.0" y2="76.0" />
		<line x1="481.0" y1="61.0" x2="481.0" y2="76.0" />
		<line x1="16.0" y1="76.0" x2="16.0" y2="91.0" />
		<line x1="1.0" y1="76.0" x2="1.0" y2="91.0" />
		<line x1="46.0" y1="76.0" x2="46.0" y2="91.0" />
		<line x1="61.0" y1="91.0" x2="76.0" y2="91.0" />
		<line x1="76.0" y1="76.0" x2="76.0" y2="91.0" />
		<line x1="91.0" y1="76.0" x2="91.0" y2="91.0" />
		<line x1="91.0" y1="91.0" x2="106.0" y2="91.0" />
		<line x1="106.0" y1="91.0" x2="121.0" y2="91.0" />
		<line x1="121.0" y1="91.0" x2="136.0" y2="91.0" />
		<line x1="136.0" y1="76.0" x2="136.0" y2="91.0" />
		<line x1="151.0" y1="76.0" x2="151.0" y2="91.0" />
		<line x1="166.0" y1="76.0" x2="166.0" y2="91.0" />
		<line x1="181.0" y1="91.0" x2="196.0" y2="91.0" />
		<line x1="196.0" y1="91.0" x2="211.0" y2="91.0" />
		<line x1="211.0" y1="91.0" x2="226.0" y2="91.0" />
		<line x1="226.0" y1="76.0" x2="226.0" y2="91.0" />
		<line x1="241.0" y1="76.0" x2="241.0" y2="91.0" />
		<line x1="241.0" y1="91.0" x2="256.0" y2="91.0" />
		<line x1="256.0" y1="91.0" x2="271.0" y2="91.0" />
		<line x1="271.0" y1="76.0" x2="271.0" y2="91.0" />
		<line x1="286.0" y1="76.0" x2="286.0" y2="91.0" />
		<line x1="301.0" y1="76.0" x2="301.0" y2="91.0" />
		<line x1="316.0" y1="76.0" x2="316.0" y2="91.0" />
		<line x1="346.0" y1="76.0" x2="346.0" y2="91.0" />
		<line x1="361.0" y1="76.0" x2="361.0" y2="91.0" />
		<line x1="361.0" y1="91.0" x2="376.0" y2="91.0" />
		<line x1="376.0" y1="91.0" x2="391.0" y2="91.0" />
		<line x1="391.0" y1="76.0" x2="391.0" y2="91.0" />
		<line x1="406.0" y1="76.0" x2="406.0" y2="91.0" />
		<line x1="421.0" y1="91.0" x2="436.0" y2="91.0" />
		<line x1="436.0" y1="76.0" x2="436.0" y2="91.0" />
		<line x1="451.0" y1="76.0" x2="451.0" y2="91.0" />
		<line x1="466.0" y1="76.0" x2="466.0" y2="91.0" />
		<line x1="466.0" y1="91.0" x2="481.0" y2="91.0" />
		<line x1="481.0" y1="76.0" x2="481.0" y2="91.0" />
		<line x1="16.0" y1="91.0" x2="16.0" y2="106.0" />
		<line x1="1.0" y1="91.0" x2="1.0" y2="106.0" />
		<line x1="31.0" y1="91.0" x2="31.0" y2="106.0" />
		<line x1="46.0" y1="91.0" x2="46.0" y2="106.0" />
		<line x1="61.0" y1="91.0" x2="61.0" y2="106.0" />
		<line x1="76.0" y1="91.0" x2="76.0" y2="106.0" />
		<line x1="91.0" y1="91.0" x2="91.0" y2="106.0" />
		<line x1="106.0" y1="106.0" x2="121.0" y2="106.0" />
		<line x1="121.0" y1="106.0" x2="136.0" y2="106.0" />
		<line x1="136.0" y1="91.0" x2="136.0" y2="106.0" />
		<line x1="136.0" y1="106.0" x2="151.0" y2="106.0" />
		<line x1="151.0" y1="91.0" x2="151.0" y2="106.0" />
		<line x1="166.0" y1="91.0" x2="166.0" y2="106.0" />
		<line x1="196.0" y1="91.0" x2="196.0" y2="106.0" />
		<line x1="226.0" y1="91.0" x2="226.0" y2="106.0" />
		<line x1="241.0" y1="106.0" x2="256.0" y2="106.0" />
		<line x1="256.0" y1="106.0" x2="271.0" y2="106.0" />
		<line x1="271.0" y1="106.0" x2="286.0" y2="106.0" />
		<line x1="286.0" y1="106.0" x2="301.0" y2="106.0" />
		<line x1="301.0" y1="91.0" x2="301.0" y2="106.0" />
		<line x1="316.0" y1="91.0" x2="316.0" y2="106.0" />
		<line x1="331.0" y1="91.0" x2="331.0" y2="106.0" />
		<line x1="331.0" y1="106.0" x2="346.0" y2="106.0" />
		<line x1="346.0" y1="106.0" x2="361.0" y2="106.0" />
		<line x1="361.0" y1="91.0" x2="361.0" y2="106.0" />
		<line x1="376.0" y1="106.0" x2="391.0" y2="106.0" />
		<line x1="391.0" y1="106.0" x2="406.0" y2="106.0" />
		<line x1="406.0" y1="91.0" x2="406.0" y2="106.0" />
		<line x1="406.0" y1="106.0" x2="421.0" y2="106.0" />
		<line x1="436.0" y1="91.0" x2="436.0" y2="106.0" />
		<line x1="436.0" y1="106.0" x2="451.0" y2="106.0" />
		<line x1="451.0" y1="91.0" x2="451.0" y2="106.0" />
		<line x1="451.0" y1="106.0" x2="466.0" y2="106.0" />
		<line x1="481.0" y1="91.0" x2="481.0" y2="106.0" />
		<line x1="16.0" y1="106.0" x2="16.0" y2="121.0" />
		<line x1="1.0" y1="106.0" x2="1.0" y2="121.0" />
		<line x1="16.0" y1="121.0" x2="31.0" y2="121.0" />
		<line x1="31.0" y1="106.0" x2="31.0" y2="121.0" />
		<line x1="46.0" y1="106.0" x2="46.0" y2="121.0" />
		<line x1="61.0" y1="106.0" x2="61.0" y2="121.0" />
		<line x1="76.0" y1="106.0" x2="76.0" y2="121.0" />
		<line x1="91.0" y1="106.0" x2="91.0" y2="121.0" />
		<line x1="91.0" y1="121.0" x2="106.0" y2="121.0" />
		<line x1="106.0" y1="121.0" x2="121.0" y2="121.0" />
		<line x1="136.0" y1="106.0" x2="136.0" y2="121.0" />
		<line x1="151.0" y1="121.0" x2="166.0" y2="121.0" />
		<line x1="166.0" y1="106.0" x2="166.0" y2="121.0" />
		<line x1="181.0" y1="106.0" x2="181.0" y2="121.0" />
		<line x1="196.0" y1="106.0" x2="196.0" y2="121.0" />
		<line x1="211.0" y1="106.0" x2="211.0" y2="121.0" />
		<line x1="211.0" y1="121.0" x2="226.0" y2="121.0" />
		<line x1="226.0" y1="121.0" x2="241.0" y2="121.0" />
		<line x1="241.0" y1="121.0" x2="256.0" y2="121.0" />
		<line x1="256.0" y1="106.0" x2="256.0" y2="121.0" />
		<line x1="271.0" y1="121.0" x2="286.0" y2="121.0" />
		<line x1="286.0" y1="121.0" x2="301.0" y2="121.0" />
		<line x1="301.0" y1="121.0" x2="316.0" y2="121.0" />
		<line x1="316.0" y1="106.0" x2="316.0" y2="121.0" />
		<line x1="331.0" y1="106.0" x2="331.0" y2="121.0" />
		<line x1="346.0" y1="121.0" x2="361.0" y2="121.0" />
		<line x1="376.0" y1="106.0" x2="376.0" y2="121.0" />
		<line x1="406.0" y1="121.0" x2="421.0" y2="121.0" />
		<line x1="421.0" y1="106.0" x2="421.0" y2="121.0" />
		<line x1="421.0" y1="121.0" x2="436.0" y2="121.0" />
		<line x1="436.0" y1="121.0" x2="451.0" y2="121.0" />
		<line x1="451.0" y1="121.0" x2="466.0" y2="121.0" />
		<line x1="481.0" y1="106.0" x2="481.0" y2="121.0" />
		<line x1="1.0" y1="136.0" x2="16.0" y2="136.0" />
		<line x1="1.0" y1="121.0" x2="1.0" y2="136.0" />
		<line x1="31.0" y1="121.0" x2="31.0" y2="136.0" />
		<line x1="46.0" y1="121.0" x2="46.0" y2="136.0" />
		<line x1="61.0" y1="121.0" x2="61.0" y2="136.0" />
		<line x1="76.0" y1="121.0" x2="76.0" y2="136.0" />
		<line x1="76.0" y1="136.0" x2="91.0" y2="136.0" />
		<line x1="91.0" y1="136.0" x2="106.0" y2="136.0" />
		<line x1="106.0" y1="136.0" x2="121.0" y2="136.0" />
		<line x1="121.0" y1="136.0" x2="136.0" y2="136.0" />
		<line x1="136.0" y1="121.0" x2="136.0" y2="136.0" />
		<line x1="151.0" y1="121.0" x2="151.0" y2="136.0" />
		<line x1="166.0" y1="121.0" x2="166.0" y2="136.0" />
		<line x1="181.0" y1="121.0" x2="181.0" y2="136.0" />
		<line x1="196.0" y1="121.0" x2="196.0" y2="136.0" />
		<line x1="196.0" y1="136.0" x2="211.0" y2="136.0" />
		<line x1="211.0" y1="136.0" x2="226.0" y2="136.0" />
		<line x1="226.0" y1="136.0" x2="241.0" y2="136.0" />
		<line x1="241.0" y1="121.0" x2="241.0" y2="136.0" />
		<line x1="256.0" y1="136.0" x2="271.0" y2="136.0" />
		<line x1="271.0" y1="121.0" x2="271.0" y2="136.0" />
		<line x1="286.0" y1="136.0" x2="301.0" y2="136.0" />
		<line x1="316.0" y1="136.0" x2="331.0" y2="136.0" />
		<line x1="331.0" y1="121.0" x2="331.0" y2="136.0" />
		<line x1="346.0" y1="121.0" x2="346.0" y2="136.0" />
		<line x1="361.0" y1="136.0" x2="376.0" y2="136.0" />
		<line x1="376.0" y1="121.0" x2="376.0" y2="136.0" />
		<line x1="391.0" y1="121.0" x2="391.0" y2="136.0" />
		<line x1="391.0" y1="136.0" x2="406.0" y2="136.0" />
		<line x1="406.0" y1="136.0" x2="421.0" y2="136.0" />
		<line x1="436.0" y1="136.0" x2="451.0" y2="136.0" />
		<line x1="466.0" y1="121.0" x2="466.0" y2="136.0" />
		<line x1="481.0" y1="121.0" x2="481.0" y2="136.0" />
		<line x1="1.0" y1="151.0" x2="16.0" y2="151.0" />
		<line x1="1.0" y1="136.0" x2="1.0" y2="151.0" />
		<line x1="16.0" y1="151.0" x2="31.0" y2="151.0" />
		<line x1="31.0" y1="151.0" x2="46.0" y2="151.0" />
		<line x1="46.0" y1="136.0" x2="46.0" y2="151.0" />
		<line x1="61.0" y1="136.0" x2="61.0" y2="151.0" />
		<line x1="91.0" y1="136.0" x2="91.0" y2="151.0" />
		<line x1="121.0" y1="136.0" x2="121.0" y2="151.0" />
		<line x1="151.0" y1="136.0" x2="151.0" y2="151.0" />
		<line x1="151.0" y1="151.0" x2="166.0" y2="151.0" />
		<line x1="166.0" y1="151.0" x2="181.0" y2="151.0" />
		<line x1="181.0" y1="136.0" x2="181.0" y2="151.0" />
		<line x1="181.0" y1="151.0" x2="196.0" y2="151.0" />
		<line x1="211.0" y1="151.0" x2="226.0" y2="151.0" />
		<line x1="241.0" y1="136.0" x2="241.0" y2="151.0" />
		<line x1="241.0" y1="151.0" x2="256.0" y2="151.0" />
		<line x1="271.0" y1="136.0" x2="271.0" y2="151.0" />
		<line x1="271.0" y1="151.0" x2="286.0" y2="151.0" />
		<line x1="286.0" y1="151.0" x2="301.0" y2="151.0" />
		<line x1="301.0" y1="136.0" x2="301.0" y2="151.0" />
		<line x1="301.0" y1="151.0" x2="316.0" y2="151.0" />
		<line x1="331.0" y1="136.0" x2="331.0" y2="151.0" />
		<line x1="331.0" y1="151.0" x2="346.0" y2="151.0" />
		<line x1="346.0" y1="136.0" x2="346.0" y2="151.0" />
		<line x1="361.0" y1="136.0" x2="361.0" y2="151.0" />
		<line x1="376.0" y1="151.0" x2="391.0" y2="151.0" />
		<line x1="391.0" y1="136.0" x2="391.0" y2="151.0" />
		<line x1="421.0" y1="136.0" x2="421.0" y2="151.0" />
		<line x1="421.0" y1="151.0" x2="436.0" y2="151.0" />
		<line x1="451.0" y1="136.0" x2="451.0" y2="151.0" />
		<line x1="451.0" y1="151.0" x2="466.0" y2="151.0" />
		<line x1="466.0" y1="136.0" x2="466.0" y2="151.0" />
		<line x1="481.0" y1="136.0" x2="481.0" y2="151.0" />
		<line x1="1.0" y1="151.0" x2="1.0" y2="166.0" />
		<line x1="31.0" y1="151.0" x2="31.0" y2="166.0" />
		<line x1="46.0" y1="166.0" x2="61.0" y2="166.0" />
		<line x1="61.0" y1="151.0" x2="61.0" y2="166.0" />
		<line x1="76.0" y1="151.0" x2="76.0" y2="166.0" />
		<line x1="76.0" y1="166.0" x2="91.0" y2="166.0" />
		<line x1="91.0" y1="151.0" x2="91.0" y2="166.0" />
		<line x1="106.0" y1="151.0" x2="106.0" y2="166.0" />
		<line x1="106.0" y1="166.0" x2="121.0" y2="166.0" />
		<line x1="121.0" y1="166.0" x2="136.0" y2="166.0" />
		<line x1="136.0" y1="151.0" x2="136.0" y2="166.0" />
		<line x1="136.0" y1="166.0" x2="151.0" y2="166.0" />
		<line x1="151.0" y1="166.0" x2="166.0" y2="166.0" />
		<line x1="196.0" y1="151.0" x2="196.0" y2="166.0" />
		<line x1="196.0" y1="166.0" x2="211.0" y2="166.0" />
		<line x1="211.0" y1="166.0" x2="226.0" y2="166.0" />
		<line x1="226.0" y1="151.0" x2="226.0" y2="166.0" />
		<line x1="226.0" y1="166.0" x2="241.0" y2="166.0" />
		<line x1="241.0" y1="166.0" x2="256.0" y2="166.0" />
		<line x1="256.0" y1="166.0" x2="271.0" y2="166.0" />
		<line x1="271.0" y1="166.0" x2="286.0" y2="166.0" />
		<line x1="286.0" y1="166.0" x2="301.0" y2="166.0" />
		<line x1="316.0" y1="151.0" x2="316.0" y2="166.0" />
		<line x1="316.0" y1="166.0" x2="331.0" y2="166.0" />
		<line x1="346.0" y1="151.0" x2="346.0" y2="166.0" />
		<line x1="361.0" y1="151.0" x2="361.0" y2="166.0" />
		<line x1="376.0" y1="151.0" x2="376.0" y2="166.0" />
		<line x1="376.0" y1="166.0" x2="391.0" y2="166.0" />
		<line x1="406.0" y1="151.0" x2="406.0" y2="166.0" />
		<line x1="421.0" y1="151.0" x2="421.0" y2="166.0" />
		<line x1="436.0" y1="151.0" x2="436.0" y2="166.0" />
		<line x1="451.0" y1="151.0" x2="451.0" y2="166.0" />
		<line x1="466.0" y1="166.0" x2="481.0" y2="166.0" />
		<line x1="481.0" y1="151.0" x2="481.0" y2="166.0" />
		<line x1="16.0" y1="166.0" x2="16.0" y2="181.0" />
		<line x1="1.0" y1="166.0" x2="1.0" y2="181.0" />
		<line x1="31.0" y1="166.0" x2="31.0" y2="181.0" />
		<line x1="46.0" y1="166.0" x2="46.0" y2="181.0" />
		<line x1="46.0" y1="181.0" x2="61.0" y2="181.0" />
		<line x1="61.0" y1="181.0" x2="76.0" y2="181.0" />
		<line x1="91.0" y1="181.0" x2="106.0" y2="181.0" />
		<line x1="106.0" y1="166.0" x2="106.0" y2="181.0" />
		<line x1="106.0" y1="181.0" x2="121.0" y2="181.0" />
		<line x1="136.0" y1="166.0" x2="136.0" y2="181.0" />
		<line x1="166.0" y1="166.0" x2="166.0" y2="181.0" />
		<line x1="181.0" y1="166.0" x2="181.0" y2="181.0" />
		<line x1="181.0" y1="181.0" x2="196.0" y2="181.0" />
		<line x1="196.0" y1="181.0" x2="211.0" y2="181.0" />
		<line x1="226.0" y1="166.0" x2="226.0" y2="181.0" />
		<line x1="241.0" y1="181.0" x2="256.0" y2="181.0" />
		<line x1="256.0" y1="181.0" x2="271.0" y2="181.0" />
		<line x1="301.0" y1="166.0" x2="301.0" y2="181.0" />
		<line x1="301.0" y1="181.0" x2="316.0" y2="181.0" />
		<line x1="331.0" y1="166.0" x2="331.0" y2="181.0" />
		<line x1="346.0" y1="166.0" x2="346.0" y2="181.0" />
		<line x1="346.0" y1="181.0" x2="361.0" y2="181.0" />
		<line x1="361.0" y1="181.0" x2="376.0" y2="181.0" />
		<line x1="391.0" y1="166.0" x2="391.0" y2="181.0" />
		<line x1="406.0" y1="166.0" x2="406.0" y2="181.0" />
		<line x1="421.0" y1="166.0" x2="421.0" y2="181.0" />
		<line x1="436.0" y1="166.0" x2="436.0" y2="181.0" />
		<line x1="451.0" y1="166.0" x2="451.0" y2="181.0" />
		<line x1="451.0" y1="181.0" x2="466.0" y2="181.0" />
		<line x1="481.0" y1="166.0" x2="481.0" y2="181.0" />
		<line x1="16.0" y1="181.0" x2="16.0" y2="196.0" />
		<line x1="1.0" y1="181.0" x2="1.0" y2="196.0" />
		<line x1="31.0" y1="181.0" x2="31.0" y2="196.0" />
		<line x1="31.0" y1="196.0" x2="46.0" y2="196.0" />
		<line x1="46.0" y1="196.0" x2="61.0" y2="196.0" />
		<line x1="76.0" y1="181.0" x2="76.0" y2="196.0" />
		<line x1="76.0" y1="196.0" x2="91.0" y2="196.0" />
		<line x1="91.0" y1="196.0" x2="106.0" y2="196.0" />
		<line x1="106.0" y1="196.0" x2="121.0" y2="196.0" />
		<line x1="121.0" y1="196.0" x2="136.0" y2="196.0" />
		<line x1="136.0" y1="181.0" x2="136.0" y2="196.0" />
		<line x1="151.0" y1="181.0" x2="151.0" y2="196.0" />
		<line x1="166.0" y1="181.0" x2="166.0" y2="196.0" />
		<line x1="166.0" y1="196.0" x2="181.0" y2="196.0" />
		<line x1="181.0" y1="196.0" x2="196.0" y2="196.0" />
		<line x1="196.0" y1="196.0" x2="211.0" y2="196.0" />
		<line x1="211.0" y1="181.0" x2="211.0" y2="196.0" />
		<line x1="211.0" y1="196.0" x2="226.0" y2="196.0" />
		<line x1="226.0" y1="196.0" x2="241.0" y2="196.0" />
		<line x1="241.0" y1="181.0" x2="241.0" y2="196.0" />
		<line x1="271.0" y1="181.0" x2="271.0" y2="196.0" />
		<line x1="271.0" y1="196.0" x2="286.0" y2="196.0" />
		<line x1="286.0" y1="181.0" x2="286.0" y2="196.0" />
		<line x1="301.0" y1="181.0" x2="301.0" y2="196.0" />
		<line x1="301.0" y1="196.0" x2="316.0" y2="196.0" />
		<line x1="316.0" y1="196.0" x2="331.0" y2="196.0" />
		<line x1="346.0" y1="181.0" x2="346.0" y2="196.0" />
		<line x1="376.0" y1="181.0" x2="376.0" y2="196.0" />
		<line x1="376.0" y1="196.0" x2="391.0" y2="196.0" />
		<line x1="391.0" y1="196.0" x2="406.0" y2="196.0" />
		<line x1="406.0" y1="181.0" x2="406.0" y2="196.0" />
		<line x1="406.0" y1="196.0" x2="421.0" y2="196.0" />
		<line x1="436.0" y1="181.0" x2="436.0" y2="196.0" />
		<line x1="436.0" y1="196.0" x2="451.0" y2="196.0" />
		<line x1="466.0" y1="181.0" x2="466.0" y2="196.0" />
		<line x1="481.0" y1="181.0" x2="481.0" y2="196.0" />
		<line x1="16.0" y1="196.0" x2="16.0" y2="211.0" />
		<line x1="1.0" y1="196.0" x2="1.0" y2="211.0" />
		<line x1="16.0" y1="211.0" x2="31.0" y2="211.0" />
		<line x1="31.0" y1="211.0" x2="46.0" y2="211.0" />
		<line x1="46.0" y1="211.0" x2="61.0" y2="211.0" />
		<line x1="61.0" y1="211.0" x2="76.0" y2="211.0" />
		<line x1="76.0" y1="196.0" x2="76.0" y2="211.0" />
		<line x1="91.0" y1="211.0" x2="106.0" y2="211.0" />
		<line x1="106.0" y1="211.0" x2="121.0" y2="211.0" />
		<line x1="121.0" y1="211.0" x2="136.0" y2="211.0" />
		<line x1="136.0" y1="211.0" x2="151.0" y2="211.0" />
		<line x1="151.0" y1="196.0" x2="151.0" y2="211.0" />
		<line x1="166.0" y1="196.0" x2="166.0" y2="211.0" />
		<line x1="196.0" y1="196.0" x2="196.0" y2="211.0" />
		<line x1="211.0" y1="211.0" x2="226.0" y2="211.0" />
		<line x1="226.0" y1="211.0" x2="241.0" y2="211.0" />
		<line x1="241.0" y1="211.0" x2="256.0" y2="211.0" />
		<line x1="256.0" y1="196.0" x2="256.0" y2="211.0" />
		<line x1="256.0" y1="211.0" x2="271.0" y2="211.0" />
		<line x1="286.0" y1="196.0" x2="286.0" y2="211.0" />
		<line x1="286.0" y1="211.0" x2="301.0" y2="211.0" />
		<line x1="301.0" y1="211.0" x2="316.0" y2="211.0" />
		<line x1="331.0" y1="196.0" x2="331.0" y2="211.0" />
		<line x1="331.0" y1="211.0" x2="346.0" y2="211.0" />
		<line x1="346.0" y1="196.0" x2="346.0" y2="211.0" />
		<line x1="361.0" y1="196.0" x2="361.0" y2="211.0" />
		<line x1="361.0" y1="211.0" x2="376.0" y2="211.0" />
		<line x1="376.0" y1="211.0" x2="391.0" y2="211.0" />
		<line x1="391.0" y1="211.0" x2="406.0" y2="211.0" />
		<line x1="421.0" y1="196.0" x2="421.0" y2="211.0" />
		<line x1="421.0" y1="211.0" x2="436.0" y2="211.0" />
		<line x1="451.0" y1="196.0" x2="451.0" y2="211.0" />
		<line x1="451.0" y1="211.0" x2="466.0" y2="211.0" />
		<line x1="466.0" y1="211.0" x2="481.0" y2="211.0" />
		<line x1="481.0" y1="196.0" x2="481.0" y2="211.0" />
		<line x1="1.0" y1="226.0" x2="16.0" y2="226.0" />
		<line x1="1.0" y1="211.0" x2="1.0" y2="226.0" />
		<line x1="31.0" y1="211.0" x2="31.0" y2="226.0" />
		<line x1="31.0" y1="226.0" x2="46.0" y2="226.0" />
		<line x1="46.0" y1="226.0" x2="61.0" y2="226.0" />
		<line x1="61.0" y1="226.0" x2="76.0" y2="226.0" />
		<line x1="91.0" y1="211.0" x2="91.0" y2="226.0" />
		<line x1="91.0" y1="226.0" x2="106.0" y2="226.0" />
		<line x1="106.0" y1="226.0" x2="121.0" y2="226.0" />
		<line x1="121.0" y1="226.0" x2="136.0" y2="226.0" />
		<line x1="136.0" y1="226.0" x2="151.0" y2="226.0" />
		<line x1="151.0" y1="226.0" x2="166.0" y2="226.0" />
		<line x1="166.0" y1="226.0" x2="181.0" y2="226.0" />
		<line x1="181.0" y1="211.0" x2="181.0" y2="226.0" />
		<line x1="181.0" y1="226.0" x2="196.0" y2="226.0" />
		<line x1="196.0" y1="226.0" x2="211.0" y2="226.0" />
		<line x1="211.0" y1="211.0" x2="211.0" y2="226.0" />
		<line x1="241.0" y1="211.0" x2="241.0" y2="226.0" />
		<line x1="256.0" y1="226.0" x2="271.0" y2="226.0" />
		<line x1="271.0" y1="211.0" x2="271.0" y2="226.0" />
		<line x1="286.0" y1="211.0" x2="286.0" y2="226.0" />
		<line x1="316.0" y1="211.0" x2="316.0" y2="226.0" />
		<line x1="316.0" y1="226.0" x2="331.0" y2="226.0" />
		<line x1="346.0" y1="211.0" x2="346.0" y2="226.0" />
		<line x1="346.0" y1="226.0" x2="361.0" y2="226.0" />
		<line x1="361.0" y1="226.0" x2="376.0" y2="226.0" />
		<line x1="391.0" y1="211.0" x2="391.0" y2="226.0" />
		<line x1="406.0" y1="211.0" x2="406.0" y2="226.0" />
		<line x1="421.0" y1="211.0" x2="421.0" y2="226.0" />
		<line x1="436.0" y1="226.0" x2="451.0" y2="226.0" />
		<line x1="451.0" y1="211.0" x2="451.0" y2="226.0" />
		<line x1="481.0" y1="211.0" x2="481.0" y2="226.0" />
		<line x1="1.0" y1="226.0" x2="1.0" y2="241.0" />
		<line x1="16.0" y1="241.0" x2="31.0" y2="241.0" />
		<line x1="31.0" y1="226.0" x2="31.0" y2="241.0" />
		<line x1="46.0" y1="241.0" x2="61.0" y2="241.0" />
		<line x1="61.0" y1="241.0" x2="76.0" y2="241.0" />
		<line x1="91.0" y1="226.0" x2="91.0" y2="241.0" />
		<line x1="121.0" y1="226.0" x2="121.0" y2="241.0" />
		<line x1="151.0" y1="226.0" x2="151.0" y2="241.0" />
		<line x1="181.0" y1="226.0" x2="181.0" y2="241.0" />
		<line x1="211.0" y1="241.0" x2="226.0" y2="241.0" />
		<line x1="226.0" y1="226.0" x2="226.0" y2="241.0" />
		<line x1="226.0" y1="241.0" x2="241.0" y2="241.0" />
		<line x1="241.0" y1="241.0" x2="256.0" y2="241.0" />
		<line x1="256.0" y1="226.0" x2="256.0" y2="241.0" />
		<line x1="271.0" y1="241.0" x2="286.0" y2="241.0" />
		<line x1="286.0" y1="226.0" x2="286.0" y2="241.0" />
		<line x1="301.0" y1="226.0" x2="301.0" y2="241.0" />
		<line x1="301.0" y1="241.0" x2="316.0" y2="241.0" />
		<line x1="331.0" y1="226.0" x2="331.0" y2="241.0" />
		<line x1="361.0" y1="241.0" x2="376.0" y2="241.0" />
		<line x1="376.0" y1="226.0" x2="376.0" y2="241.0" />
		<line x1="391.0" y1="241.0" x2="406.0" y2="241.0" />
		<line x1="406.0" y1="226.0" x2="406.0" y2="241.0" />
		<line x1="421.0" y1="226.0" x2="421.0" y2="241.0" />
		<line x1="436.0" y1="226.0" x2="436.0" y2="241.0" />
		<line x1="451.0" y1="226.0" x2="451.0" y2="241.0" />
		<line x1="466.0" y1="226.0" x2="466.0" y2="241.0" />
		<line x1="481.0" y1="226.0" x2="481.0" y2="241.0" />
		<line x1="16.0" y1="241.0" x2="16.0" y2="256.0" />
		<line x1="1.0" y1="241.0" x2="1.0" y2="256.0" />
		<line x1="46.0" y1="241.0" x2="46.0" y2="256.0" />
		<line x1="46.0" y1="256.0" x2="61.0" y2="256.0" />
		<line x1="61.0" y1="256.0" x2="76.0" y2="256.0" />
		<line x1="76.0" y1="256.0" x2="91.0" y2="256.0" />
		<line x1="91.0" y1="241.0" x2="91.0" y2="256.0" />
		<line x1="106.0" y1="241.0" x2="106.0" y2="256.0" />
		<line x1="106.0" y1="256.0" x2="121.0" y2="256.0" />
		<line x1="121.0" y1="256.0" x2="136.0" y2="256.0" />
		<line x1="136.0" y1="241.0" x2="136.0" y2="256.0" />
		<line x1="151.0" y1="241.0" x2="151.0" y2="256.0" />
		<line x1="166.0" y1="241.0" x2="166.0" y2="256.0" />
		<line x1="166.0" y1="256.0" x2="181.0" y2="256.0" />
		<line x1="181.0" y1="256.0" x2="196.0" y2="256.0" />
		<line x1="196.0" y1="241.0" x2="196.0" y2="256.0" />
		<line x1="196.0" y1="256.0" x2="211.0" y2="256.0" />
		<line x1="211.0" y1="256.0" x2="226.0" y2="256.0" />
		<line x1="241.0" y1="241.0" x2="241.0" y2="256.0" />
		<line x1="256.0" y1="256.0" x2="271.0" y2="256.0" />
		<line x1="271.0" y1="241.0" x2="271.0" y2="256.0" />
		<line x1="286.0" y1="256.0" x2="301.0" y2="256.0" />
		<line x1="301.0" y1="241.0" x2="301.0" y2="256.0" />
		<line x1="316.0" y1="256.0" x2="331.0" y2="256.0" />
		<line x1="331.0" y1="241.0" x2="331.0" y2="256.0" />
		<line x1="331.0" y1="256.0" x2="346.0" y2="256.0" />
		<line x1="346.0" y1="241.0" x2="346.0" y2="256.0" />
		<line x1="346.0" y1="256.0" x2="361.0" y2="256.0" />
		<line x1="361.0" y1="256.0" x2="376.0" y2="256.0" />
		<line x1="376.0" y1="256.0" x2="391.0" y2="256.0" />
		<line x1="391.0" y1="241.0" x2="391.0" y2="256.0" />
		<line x1="406.0" y1="256.0" x2="421.0" y2="256.0" />
		<line x1="421.0" y1="241.0" x2="421.0" y2="256.0" />
		<line x1="436.0" y1="241.0" x2="436.0" y2="256.0" />
		<line x1="436.0" y1="256.0" x2="451.0" y2="256.0" />
		<line x1="466.0" y1="241.0" x2="466.0" y2="256.0" />
		<line x1="481.0" y1="241.0" x2="481.0" y2="256.0" />
		<line x1="16.0" y1="256.0" x2="16.0" y2="271.0" />
		<line x1="1.0" y1="256.0" x2="1.0" y2="271.0" />
		<line x1="31.0" y1="256.0" x2="31.0" y2="271.0" />
		<line x1="31.0" y1="271.0" x2="46.0" y2="271.0" />
		<line x1="61.0" y1="256.0" x2="61.0" y2="271.0" />
		<line x1="76.0" y1="271.0" x2="91.0" y2="271.0" />
		<line x1="91.0" y1="271.0" x2="106.0" y2="271.0" />
		<line x1="106.0" y1="256.0" x2="106.0" y2="271.0" />
		<line x1="136.0" y1="256.0" x2="136.0" y2="271.0" />
		<line x1="151.0" y1="256.0" x2="151.0" y2="271.0" />
		<line x1="151.0" y1="271.0" x2="166.0" y2="271.0" />
		<line x1="166.0" y1="271.0" x2="181.0" y2="271.0" />
		<line x1="181.0" y1="256.0" x2="181.0" y2="271.0" />
		<line x1="196.0" y1="271.0" x2="211.0" y2="271.0" />
		<line x1="226.0" y1="256.0" x2="226.0" y2="271.0" />
		<line x1="241.0" y1="256.0" x2="241.0" y2="271.0" />
		<line x1="241.0" y1="271.0" x2="256.0" y2="271.0" />
		<line x1="256.0" y1="271.0" x2="271.0" y2="271.0" />
		<line x1="271.0" y1="271.0" x2="286.0" y2="271.0" />
		<line x1="286.0" y1="256.0" x2="286.0" y2="271.0" />
		<line x1="301.0" y1="271.0" x2="316.0" y2="271.0" />
		<line x1="316.0" y1="256.0" x2="316.0" y2="271.0" />
		<line x1="331.0" y1="271.0" x2="346.0" y2="271.0" />
		<line x1="346.0" y1="271.0" x2="361.0" y2="271.0" />
		<line x1="361.0" y1="271.0" x2="376.0" y2="271.0" />
		<line x1="391.0" y1="271.0" x2="406.0" y2="271.0" />
		<line x1="406.0" y1="256.0" x2="406.0" y2="271.0" />
		<line x1="406.0" y1="271.0" x2="421.0" y2="271.0" />
		<line x1="421.0" y1="271.0" x2="436.0" y2="271.0" />
		<line x1="451.0" y1="256.0" x2="451.0" y2="271.0" />
		<line x1="451.0" y1="271.0" x2="466.0" y2="271.0" />
		<line x1="466.0" y1="256.0" x2="466.0" y2="271.0" />
		<line x1="481.0" y1="256.0" x2="481.0" y2="271.0" />
		<line x1="16.0" y1="271.0" x2="16.0" y2="286.0" />
		<line x1="1.0" y1="271.0" x2="1.0" y2="286.0" />
		<line x1="16.0" y1="286.0" x2="31.0" y2="286.0" />
		<line x1="31.0" y1="286.0" x2="46.0" y2="286.0" />
		<line x1="46.0" y1="271.0" x2="46.0" y2="286.0" />
		<line x1="46.0" y1="286.0" x2="61.0" y2="286.0" />
		<line x1="76.0" y1="271.0" x2="76.0" y2="286.0" />
		<line x1="91.0" y1="286.0" x2="106.0" y2="286.0" />
		<line x1="106.0" y1="286.0" x2="121.0" y2="286.0" />
		<line x1="121.0" y1="271.0" x2="121.0" y2="286.0" />
		<line x1="136.0" y1="271.0" x2="136.0" y2="286.0" />
		<line x1="136.0" y1="286.0" x2="151.0" y2="286.0" />
		<line x1="166.0" y1="271.0" x2="166.0" y2="286.0" />
		<line x1="181.0" y1="286.0" x2="196.0" y2="286.0" />
		<line x1="196.0" y1="271.0" x2="196.0" y2="286.0" />
		<line x1="196.0" y1="286.0" x2="211.0" y2="286.0" />
		<line x1="211.0" y1="286.0" x2="226.0" y2="286.0" />
		<line x1="226.0" y1="286.0" x2="241.0" y2="286.0" />
		<line x1="241.0" y1="286.0" x2="256.0" y2="286.0" />
		<line x1="256.0" y1="271.0" x2="256.0" y2="286.0" />
		<line x1="271.0" y1="286.0" x2="286.0" y2="286.0" />
		<line x1="286.0" y1="286.0" x2="301.0" y2="286.0" />
		<line x1="301.0" y1="271.0" x2="301.0" y2="286.0" />
		<line x1="301.0" y1="286.0" x2="316.0" y2="286.0" />
		<line x1="316.0" y1="286.0" x2="331.0" y2="286.0" />
		<line x1="331.0" y1="286.0" x2="346.0" y2="286.0" />
		<line x1="376.0" y1="271.0" x2="376.0" y2="286.0" />
		<line x1="376.0" y1="286.0" x2="391.0" y2="286.0" />
		<line x1="391.0" y1="271.0" x2="391.0" y2="286.0" />
		<line x1="421.0" y1="271.0" x2="421.0" y2="286.0" />
		<line x1="421.0" y1="286.0" x2="436.0" y2="286.0" />
		<line x1="436.0" y1="286.0" x2="451.0" y2="286.0" />
		<line x1="466.0" y1="271.0" x2="466.0" y2="286.0" />
		<line x1="481.0" y1="271.0" x2="481.0" y2="286.0" />
		<line x1="1.0" y1="301.0" x2="16.0" y2="301.0" />
		<line x1="1.0" y1="286.0" x2="1.0" y2="301.0" />
		<line x1="16.0" y1="301.0" x2="31.0" y2="301.0" />
		<line x1="31.0" y1="301.0" x2="46.0" y2="301.0" />
		<line x1="61.0" y1="286.0" x2="61.0" y2="301.0" />
		<line x1="61.0" y1="301.0" x2="76.0" y2="301.0" />
		<line x1="76.0" y1="301.0" x2="91.0" y2="301.0" />
		<line x1="91.0" y1="286.0" x2="91.0" y2="301.0" />
		<line x1="106.0" y1="301.0" x2="121.0" y2="301.0" />
		<line x1="121.0" y1="301.0" x2="136.0" y2="301.0" />
		<line x1="136.0" y1="286.0" x2="136.0" y2="301.0" />
		<line x1="151.0" y1="301.0" x2="166.0" y2="301.0" />
		<line x1="166.0" y1="286.0" x2="166.0" y2="301.0" />
		<line x1="181.0" y1="286.0" x2="181.0" y2="301.0" />
		<line x1="196.0" y1="301.0" x2="211.0" y2="301.0" />
		<line x1="211.0" y1="301.0" x2="226.0" y2="301.0" />
		<line x1="226.0" y1="301.0" x2="241.0" y2="301.0" />
		<line x1="256.0" y1="286.0" x2="256.0" y2="301.0" />
		<line x1="256.0" y1="301.0" x2="271.0" y2="301.0" />
		<line x1="271.0" y1="301.0" x2="286.0" y2="301.0" />
		<line x1="301.0" y1="286.0" x2="301.0" y2="301.0" />
		<line x1="316.0" y1="301.0" x2="331.0" y2="301.0" />
		<line x1="346.0" y1="286.0" x2="346.0" y2="301.0" />
		<line x1="346.0" y1="301.0" x2="361.0" y2="301.0" />
		<line x1="361.0" y1="286.0" x2="361.0" y2="301.0" />
		<line x1="361.0" y1="301.0" x2="376.0" y2="301.0" />
		<line x1="391.0" y1="301.0" x2="406.0" y2="301.0" />
		<line x1="406.0" y1="286.0" x2="406.0" y2="301.0" />
		<line x1="406.0" y1="301.0" x2="421.0" y2="301.0" />
		<line x1="436.0" y1="286.0" x2="436.0" y2="301.0" />
		<line x1="436.0" y1="301.0" x2="451.0" y2="301.0" />
		<line x1="451.0" y1="301.0" x2="466.0" y2="301.0" />
		<line x1="466.0" y1="301.0" x2="481.0" y2="301.0" />
		<line x1="481.0" y1="286.0" x2="481.0" y2="301.0" />
		<line x1="1.0" y1="301.0" x2="1.0" y2="316.0" />
		<line x1="16.0" y1="316.0" x2="31.0" y2="316.0" />
		<line x1="31.0" y1="316.0" x2="46.0" y2="316.0" />
		<line x1="46.0" y1="316.0" x2="61.0" y2="316.0" />
		<line x1="61.0" y1="301.0" x2="61.0" y2="316.0" />
		<line x1="76.0" y1="316.0" x2="91.0" y2="316.0" />
		<line x1="91.0" y1="316.0" x2="106.0" y2="316.0" />
		<line x1="106.0" y1="301.0" x2="106.0" y2="316.0" />
		<line x1="121.0" y1="301.0" x2="121.0" y2="316.0" />
		<line x1="136.0" y1="316.0" x2="151.0" y2="316.0" />
		<line x1="151.0" y1="301.0" x2="151.0" y2="316.0" />
		<line x1="166.0" y1="316.0" x2="181.0" y2="316.0" />
		<line x1="181.0" y1="316.0" x2="196.0" y2="316.0" />
		<line x1="196.0" y1="301.0" x2="196.0" y2="316.0" />
		<line x1="226.0" y1="316.0" x2="241.0" y2="316.0" />
		<line x1="241.0" y1="301.0" x2="241.0" y2="316.0" />
		<line x1="241.0" y1="316.0" x2="256.0" y2="316.0" />
		<line x1="256.0" y1="316.0" x2="271.0" y2="316.0" />
		<line x1="271.0" y1="316.0" x2="286.0" y2="316.0" />
		<line x1="286.0" y1="316.0" x2="301.0" y2="316.0" />
		<line x1="301.0" y1="301.0" x2="301.0" y2="316.0" />
		<line x1="301.0" y1="316.0" x2="316.0" y2="316.0" />
		<line x1="331.0" y1="301.0" x2="331.0" y2="316.0" />
		<line x1="331.0" y1="316.0" x2="346.0" y2="316.0" />
		<line x1="346.0" y1="316.0" x2="361.0" y2="316.0" />
		<line x1="376.0" y1="301.0" x2="376.0" y2="316.0" />
		<line x1="391.0" y1="301.0" x2="391.0" y2="316.0" />
		<line x1="421.0" y1="301.0" x2="421.0" y2="316.0" />
		<line x1="421.0" y1="316.0" x2="436.0" y2="316.0" />
		<line x1="451.0" y1="301.0" x2="451.0" y2="316.0" />
		<line x1="481.0" y1="301.0" x2="481.0" y2="316.0" />
		<line x1="16.0" y1="316.0" x2="16.0" y2="331.0" />
		<line x1="1.0" y1="316.0" x2="1.0" y2="331.0" />
		<line x1="31.0" y1="331.0" x2="46.0" y2="331.0" />
		<line x1="61.0" y1="316.0" x2="61.0" y2="331.0" />
		<line x1="76.0" y1="316.0" x2="76.0" y2="331.0" />
		<line x1="91.0" y1="331.0" x2="106.0" y2="331.0" />
		<line x1="121.0" y1="316.0" x2="121.0" y2="331.0" />
		<line x1="121.0" y1="331.0" x2="136.0" y2="331.0" />
		<line x1="151.0" y1="316.0" x2="151.0" y2="331.0" />
		<line x1="166.0" y1="316.0" x2="166.0" y2="331.0" />
		<line x1="196.0" y1="316.0" x2="196.0" y2="331.0" />
		<line x1="196.0" y1="331.0" x2="211.0" y2="331.0" />
		<line x1="211.0" y1="316.0" x2="211.0" y2="331.0" />
		<line x1="211.0" y1="331.0" x2="226.0" y2="331.0" />
		<line x1="241.0" y1="331.0" x2="256.0" y2="331.0" />
		<line x1="271.0" y1="316.0" x2="271.0" y2="331.0" />
		<line x1="271.0" y1="331.0" x2="286.0" y2="331.0" />
		<line x1="286.0" y1="331.0" x2="301.0" y2="331.0" />
		<line x1="316.0" y1="331.0" x2="331.0" y2="331.0" />
		<line x1="331.0" y1="316.0" x2="331.0" y2="331.0" />
		<line x1="346.0" y1="316.0" x2="346.0" y2="331.0" />
		<line x1="361.0" y1="331.0" x2="376.0" y2="331.0" />
		<line x1="376.0" y1="316.0" x2="376.0" y2="331.0" />
		<line x1="376.0" y1="331.0" x2="391.0" y2="331.0" />
		<line x1="391.0" y1="316.0" x2="391.0" y2="331.0" />
		<line x1="406.0" y1="316.0" x2="406.0" y2="331.0" />
		<line x1="406.0" y1="331.0" x2="421.0" y2="331.0" />
		<line x1="436.0" y1="316.0" x2="436.0" y2="331.0" />
		<line x1="451.0" y1="316.0" x2="451.0" y2="331.0" />
		<line x1="466.0" y1="316.0" x2="466.0" y2="331.0" />
		<line x1="481.0" y1="316.0" x2="481.0" y2="331.0" />
		<line x1="16.0" y1="331.0" x2="16.0" y2="346.0" />
		<line x1="1.0" y1="331.0" x2="1.0" y2="346.0" />
		<line x1="31.0" y1="331.0" x2="31.0" y2="346.0" />
		<line x1="46.0" y1="331.0" x2="46.0" y2="346.0" />
		<line x1="61.0" y1="331.0" x2="61.0" y2="346.0" />
		<line x1="76.0" y1="331.0" x2="76.0" y2="346.0" />
		<line x1="91.0" y1="331.0" x2="91.0" y2="346.0" />
		<line x1="106.0" y1="346.0" x2="121.0" y2="346.0" />
		<line x1="121.0" y1="331.0" x2="121.0" y2="346.0" />
		<line x1="136.0" y1="331.0" x2="136.0" y2="346.0" />
		<line x1="151.0" y1="331.0" x2="151.0" y2="346.0" />
		<line x1="166.0" y1="331.0" x2="166.0" y2="346.0" />
		<line x1="181.0" y1="331.0" x2="181.0" y2="346.0" />
		<line x1="196.0" y1="331.0" x2="196.0" y2="346.0" />
		<line x1="226.0" y1="331.0" x2="226.0" y2="346.0" />
		<line x1="256.0" y1="331.0" x2="256.0" y2="346.0" />
		<line x1="256.0" y1="346.0" x2="271.0" y2="346.0" />
		<line x1="271.0" y1="346.0" x2="286.0" y2="346.0" />
		<line x1="301.0" y1="331.0" x2="301.0" y2="346.0" />
		<line x1="316.0" y1="331.0" x2="316.0" y2="346.0" />
		<line x1="331.0" y1="331.0" x2="331.0" y2="346.0" />
		<line x1="346.0" y1="346.0" x2="361.0" y2="346.0" />
		<line x1="361.0" y1="346.0" x2="376.0" y2="346.0" />
		<line x1="376.0" y1="346.0" x2="391.0" y2="346.0" />
		<line x1="391.0" y1="346.0" x2="406.0" y2="346.0" />
		<line x1="406.0" y1="331.0" x2="406.0" y2="346.0" />
		<line x1="421.0" y1="346.0" x2="436.0" y2="346.0" />
		<line x1="436.0" y1="331.0" x2="436.0" y2="346.0" />
		<line x1="451.0" y1="346.0" x2="466.0" y2="346.0" />
		<line x1="466.0" y1="331.0" x2="466.0" y2="346.0" />
		<line x1="481.0" y1="331.0" x2="481.0" y2="346.0" />
		<line x1="1.0" y1="361.0" x2="16.0" y2="361.0" />
		<line x1="1.0" y1="346.0" x2="1.0" y2="361.0" />
		<line x1="16.0" y1="361.0" x2="31.0" y2="361.0" />
		<line x1="31.0" y1="346.0" x2="31.0" y2="361.0" />
		<line x1="46.0" y1="346.0" x2="46.0" y2="361.0" />
		<line x1="61.0" y1="346.0" x2="61.0" y2="361.0" />
		<line x1="76.0" y1="346.0" x2="76.0" y2="361.0" />
		<line x1="91.0" y1="346.0" x2="91.0" y2="361.0" />
		<line x1="91.0" y1="361.0" x2="106.0" y2="361.0" />
		<line x1="106.0" y1="361.0" x2="121.0" y2="361.0" />
		<line x1="121.0" y1="361.0" x2="136.0" y2="361.0" />
		<line x1="136.0" y1="346.0" x2="136.0" y2="361.0" />
		<line x1="151.0" y1="346.0" x2="151.0" y2="361.0" />
		<line x1="166.0" y1="346.0" x2="166.0" y2="361.0" />
		<line x1="181.0" y1="346.0" x2="181.0" y2="361.0" />
		<line x1="181.0" y1="361.0" x2="196.0" y2="361.0" />
		<line x1="196.0" y1="361.0" x2="211.0" y2="361.0" />
		<line x1="211.0" y1="346.0" x2="211.0" y2="361.0" />
		<line x1="226.0" y1="346.0" x2="226.0" y2="361.0" />
		<line x1="226.0" y1="361.0" x2="241.0" y2="361.0" />
		<line x1="241.0" y1="346.0" x2="241.0" y2="361.0" />
		<line x1="256.0" y1="346.0" x2="256.0" y2="361.0" />
		<line x1="271.0" y1="361.0" x2="286.0" y2="361.0" />
		<line x1="286.0" y1="361.0" x2="301.0" y2="361.0" />
		<line x1="301.0" y1="346.0" x2="301.0" y2="361.0" />
		<line x1="316.0" y1="346.0" x2="316.0" y2="361.0" />
		<line x1="331.0" y1="361.0" x2="346.0" y2="361.0" />
		<line x1="346.0" y1="346.0" x2="346.0" y2="361.0" />
		<line x1="361.0" y1="346.0" x2="361.0" y2="361.0" />
		<line x1="376.0" y1="361.0" x2="391.0" y2="361.0" />
		<line x1="406.0" y1="346.0" x2="406.0" y2="361.0" />
		<line x1="421.0" y1="346.0" x2="421.0" y2="361.0" />
		<line x1="436.0" y1="361.0" x2="451.0" y2="361.0" />
		<line x1="451.0" y1="346.0" x2="451.0" y2="361.0" />
		<line x1="466.0" y1="346.0" x2="466.0" y2="361.0" />
		<line x1="481.0" y1="346.0" x2="481.0" y2="361.0" />
		<line x1="1.0" y1="361.0" x2="1.0" y2="376.0" />
		<line x1="16.0" y1="376.0" x2="31.0" y2="376.0" />
		<line x1="46.0" y1="361.0" x2="46.0" y2="376.0" />
		<line x1="61.0" y1="361.0" x2="61.0" y2="376.0" />
		<line x1="76.0" y1="361.0" x2="76.0" y2="376.0" />
		<line x1="91.0" y1="361.0" x2="91.0" y2="376.0" />
		<line x1="106.0" y1="376.0" x2="121.0" y2="376.0" />
		<line x1="121.0" y1="376.0" x2="136.0" y2="376.0" />
		<line x1="136.0" y1="376.0" x2="151.0" y2="376.0" />
		<line x1="151.0" y1="361.0" x2="151.0" y2="376.0" />
		<line x1="166.0" y1="361.0" x2="166.0" y2="376.0" />
		<line x1="181.0" y1="361.0" x2="181.0" y2="376.0" />
		<line x1="196.0" y1="376.0" x2="211.0" y2="376.0" />
		<line x1="211.0" y1="361.0" x2="211.0" y2="376.0" />
		<line x1="226.0" y1="361.0" x2="226.0" y2="376.0" />
		<line x1="241.0" y1="376.0" x2="256.0" y2="376.0" />
		<line x1="256.0" y1="361.0" x2="256.0" y2="376.0" />
		<line x1="271.0" y1="361.0" x2="271.0" y2="376.0" />
		<line x1="271.0" y1="376.0" x2="286.0" y2="376.0" />
		<line x1="301.0" y1="376.0" x2="316.0" y2="376.0" />
		<line x1="316.0" y1="361.0" x2="316.0" y2="376.0" />
		<line x1="316.0" y1="376.0" x2="331.0" y2="376.0" />
		<line x1="331.0" y1="376.0" x2="346.0" y2="376.0" />
		<line x1="346.0" y1="376.0" x2="361.0" y2="376.0" />
		<line x1="361.0" y1="361.0" x2="361.0" y2="376.0" />
		<line x1="376.0" y1="376.0" x2="391.0" y2="376.0" />
		<line x1="391.0" y1="361.0" x2="391.0" y2="376.0" />
		<line x1="406.0" y1="361.0" x2="406.0" y2="376.0" />
		<line x1="421.0" y1="361.0" x2="421.0" y2="376.0" />
		<line x1="421.0" y1="376.0" x2="436.0" y2="376.0" />
		<line x1="436.0" y1="376.0" x2="451.0" y2="376.0" />
		<line x1="451.0" y1="376.0" x2="466.0" y2="376.0" />
		<line x1="466.0" y1="361.0" x2="466.0" y2="376.0" />
		<line x1="481.0" y1="361.0" x2="481.0" y2="376.0" />
		<line x1="1.0" y1="391.0" x2="16.0" y2="391.0" />
		<line x1="16.0" y1="376.0" x2="16.0" y2="391.0" />
		<line x1="1.0" y1="376.0" x2="1.0" y2="391.0" />
		<line x1="46.0" y1="376.0" x2="46.0" y2="391.0" />
		<line x1="61.0" y1="376.0" x2="61.0" y2="391.0" />
		<line x1="61.0" y1="391.0" x2="76.0" y2="391.0" />
		<line x1="91.0" y1="376.0" x2="91.0" y2="391.0" />
		<line x1="106.0" y1="376.0" x2="106.0" y2="391.0" />
		<line x1="106.0" y1="391.0" x2="121.0" y2="391.0" />
		<line x1="136.0" y1="376.0" x2="136.0" y2="391.0" />
		<line x1="151.0" y1="391.0" x2="166.0" y2="391.0" />
		<line x1="166.0" y1="376.0" x2="166.0" y2="391.0" />
		<line x1="181.0" y1="376.0" x2="181.0" y2="391.0" />
		<line x1="196.0" y1="376.0" x2="196.0" y2="391.0" />
		<line x1="211.0" y1="391.0" x2="226.0" y2="391.0" />
		<line x1="226.0" y1="376.0" x2="226.0" y2="391.0" />
		<line x1="256.0" y1="376.0" x2="256.0" y2="391.0" />
		<line x1="271.0" y1="376.0" x2="271.0" y2="391.0" />
		<line x1="286.0" y1="391.0" x2="301.0" y2="391.0" />
		<line x1="301.0" y1="376.0" x2="301.0" y2="391.0" />
		<line x1="316.0" y1="391.0" x2="331.0" y2="391.0" />
		<line x1="331.0" y1="391.0" x2="346.0" y2="391.0" />
		<line x1="346.0" y1="391.0" x2="361.0" y2="391.0" />
		<line x1="376.0" y1="376.0" x2="376.0" y2="391.0" />
		<line x1="391.0" y1="391.0" x2="406.0" y2="391.0" />
		<line x1="406.0" y1="376.0" x2="406.0" y2="391.0" />
		<line x1="406.0" y1="391.0" x2="421.0" y2="391.0" />
		<line x1="421.0" y1="391.0" x2="436.0" y2="391.0" />
		<line x1="451.0" y1="376.0" x2="451.0" y2="391.0" />
		<line x1="481.0" y1="376.0" x2="481.0" y2="391.0" />
		<line x1="1.0" y1="391.0" x2="1.0" y2="406.0" />
		<line x1="16.0" y1="406.0" x2="31.0" y2="406.0" />
		<line x1="31.0" y1="391.0" x2="31.0" y2="406.0" />
		<line x1="46.0" y1="391.0" x2="46.0" y2="406.0" />
		<line x1="61.0" y1="391.0" x2="61.0" y2="406.0" />
		<line x1="76.0" y1="391.0" x2="76.0" y2="406.0" />
		<line x1="91.0" y1="391.0" x2="91.0" y2="406.0" />
		<line x1="91.0" y1="406.0" x2="106.0" y2="406.0" />
		<line x1="121.0" y1="391.0" x2="121.0" y2="406.0" />
		<line x1="136.0" y1="391.0" x2="136.0" y2="406.0" />
		<line x1="136.0" y1="406.0" x2="151.0" y2="406.0" />
		<line x1="166.0" y1="391.0" x2="166.0" y2="406.0" />
		<line x1="181.0" y1="391.0" x2="181.0" y2="406.0" />
		<line x1="196.0" y1="406.0" x2="211.0" y2="406.0" />
		<line x1="211.0" y1="391.0" x2="211.0" y2="406.0" />
		<line x1="226.0" y1="391.0" x2="226.0" y2="406.0" />
		<line x1="241.0" y1="391.0" x2="241.0" y2="406.0" />
		<line x1="256.0" y1="391.0" x2="256.0" y2="406.0" />
		<line x1="256.0" y1="406.0" x2="271.0" y2="406.0" />
		<line x1="271.0" y1="406.0" x2="286.0" y2="406.0" />
		<line x1="286.0" y1="391.0" x2="286.0" y2="406.0" />
		<line x1="301.0" y1="406.0" x2="316.0" y2="406.0" />
		<line x1="316.0" y1="391.0" x2="316.0" y2="406.0" />
		<line x1="331.0" y1="406.0" x2="346.0" y2="406.0" />
		<line x1="361.0" y1="391.0" x2="361.0" y2="406.0" />
		<line x1="361.0" y1="406.0" x2="376.0" y2="406.0" />
		<line x1="376.0" y1="391.0" x2="376.0" y2="406.0" />
		<line x1="391.0" y1="391.0" x2="391.0" y2="406.0" />
		<line x1="391.0" y1="406.0" x2="406.0" y2="406.0" />
		<line x1="406.0" y1="406.0" x2="421.0" y2="406.0" />
		<line x1="436.0" y1="391.0" x2="436.0" y2="406.0" />
		<line x1="451.0" y1="391.0" x2="451.0" y2="406.0" />
		<line x1="466.0" y1="391.0" x2="466.0" y2="406.0" />
		<line x1="481.0" y1="391.0" x2="481.0" y2="406.0" />
		<line x1="1.0" y1="406.0" x2="1.0" y2="421.0" />
		<line x1="31.0" y1="406.0" x2="31.0" y2="421.0" />
		<line x1="46.0" y1="406.0" x2="46.0" y2="421.0" />
		<line x1="61.0" y1="406.0" x2="61.0" y2="421.0" />
		<line x1="76.0" y1="406.0" x2="76.0" y2="421.0" />
		<line x1="91.0" y1="406.0" x2="91.0" y2="421.0" />
		<line x1="106.0" y1="406.0" x2="106.0" y2="421.0" />
		<line x1="121.0" y1="406.0" x2="121.0" y2="421.0" />
		<line x1="136.0" y1="421.0" x2="151.0" y2="421.0" />
		<line x1="151.0" y1="406.0" x2="151.0" y2="421.0" />
		<line x1="151.0" y1="421.0" x2="166.0" y2="421.0" />
		<line x1="166.0" y1="421.0" x2="181.0" y2="421.0" />
		<line x1="181.0" y1="406.0" x2="181.0" y2="421.0" />
		<line x1="181.0" y1="421.0" x2="196.0" y2="421.0" />
		<line x1="211.0" y1="406.0" x2="211.0" y2="421.0" />
		<line x1="211.0" y1="421.0" x2="226.0" y2="421.0" />
		<line x1="226.0" y1="421.0" x2="241.0" y2="421.0" />
		<line x1="241.0" y1="406.0" x2="241.0" y2="421.0" />
		<line x1="241.0" y1="421.0" x2="256.0" y2="421.0" />
		<line x1="256.0" y1="421.0" x2="271.0" y2="421.0" />
		<line x1="286.0" y1="421.0" x2="301.0" y2="421.0" />
		<line x1="301.0" y1="421.0" x2="316.0" y2="421.0" />
		<line x1="316.0" y1="406.0" x2="316.0" y2="421.0" />
		<line x1="316.0" y1="421.0" x2="331.0" y2="421.0" />
		<line x1="346.0" y1="406.0" x2="346.0" y2="421.0" />
		<line x1="361.0" y1="406.0" x2="361.0" y2="421.0" />
		<line x1="376.0" y1="421.0" x2="391.0" y2="421.0" />
		<line x1="391.0" y1="406.0" x2="391.0" y2="421.0" />
		<line x1="406.0" y1="421.0" x2="421.0" y2="421.0" />
		<line x1="421.0" y1="421.0" x2="436.0" y2="421.0" />
		<line x1="436.0" y1="406.0" x2="436.0" y2="421.0" />
		<line x1="436.0" y1="421.0" x2="451.0" y2="421.0" />
		<line x1="451.0" y1="421.0" x2="466.0" y2="421.0" />
		<line x1="466.0" y1="406.0" x2="466.0" y2="421.0" />
		<line x1="481.0" y1="406.0" x2="481.0" y2="421.0" />
		<line x1="16.0" y1="421.0" x2="16.0" y2="436.0" />
		<line x1="1.0" y1="421.0" x2="1.0" y2="436.0" />
		<line x1="31.0" y1="421.0" x2="31.0" y2="436.0" />
		<line x1="31.0" y1="436.0" x2="46.0" y2="436.0" />
		<line x1="46.0" y1="421.0" x2="46.0" y2="436.0" />
		<line x1="61.0" y1="421.0" x2="61.0" y2="436.0" />
		<line x1="61.0" y1="436.0" x2="76.0" y2="436.0" />
		<line x1="76.0" y1="436.0" x2="91.0" y2="436.0" />
		<line x1="106.0" y1="421.0" x2="106.0" y2="436.0" />
		<line x1="121.0" y1="421.0" x2="121.0" y2="436.0" />
		<line x1="136.0" y1="436.0" x2="151.0" y2="436.0" />
		<line x1="166.0" y1="421.0" x2="166.0" y2="436.0" />
		<line x1="196.0" y1="421.0" x2="196.0" y2="436.0" />
		<line x1="211.0" y1="421.0" x2="211.0" y2="436.0" />
		<line x1="226.0" y1="436.0" x2="241.0" y2="436.0" />
		<line x1="241.0" y1="436.0" x2="256.0" y2="436.0" />
		<line x1="271.0" y1="421.0" x2="271.0" y2="436.0" />
		<line x1="271.0" y1="436.0" x2="286.0" y2="436.0" />
		<line x1="301.0" y1="421.0" x2="301.0" y2="436.0" />
		<line x1="316.0" y1="436.0" x2="331.0" y2="436.0" />
		<line x1="331.0" y1="436.0" x2="346.0" y2="436.0" />
		<line x1="346.0" y1="421.0" x2="346.0" y2="436.0" />
		<line x1="346.0" y1="436.0" x2="361.0" y2="436.0" />
		<line x1="361.0" y1="436.0" x2="376.0" y2="436.0" />
		<line x1="376.0" y1="421.0" x2="376.0" y2="436.0" />
		<line x1="391.0" y1="421.0" x2="391.0" y2="436.0" />
		<line x1="406.0" y1="436.0" x2="421.0" y2="436.0" />
		<line x1="421.0" y1="436.0" x2="436.0" y2="436.0" />
		<line x1="436.0" y1="436.0" x2="451.0" y2="436.0" />
		<line x1="451.0" y1="436.0" x2="466.0" y2="436.0" />
		<line x1="466.0" y1="436.0" x2="481.0" y2="436.0" />
		<line x1="481.0" y1="421.0" x2="481.0" y2="436.0" />
		<line x1="16.0" y1="436.0" x2="16.0" y2="451.0" />
		<line x1="1.0" y1="436.0" x2="1.0" y2="451.0" />
		<line x1="16.0" y1="451.0" x2="31.0" y2="451.0" />
		<line x1="46.0" y1="436.0" x2="46.0" y2="451.0" />
		<line x1="61.0" y1="436.0" x2="61.0" y2="451.0" />
		<line x1="91.0" y1="436.0" x2="91.0" y2="451.0" />
		<line x1="91.0" y1="451.0" x2="106.0" y2="451.0" />
		<line x1="106.0" y1="436.0" x2="106.0" y2="451.0" />
		<line x1="121.0" y1="436.0" x2="121.0" y2="451.0" />
		<line x1="121.0" y1="451.0" x2="136.0" y2="451.0" />
		<line x1="136.0" y1="451.0" x2="151.0" y2="451.0" />
		<line x1="151.0" y1="436.0" x2="151.0" y2="451.0" />
		<line x1="166.0" y1="451.0" x2="181.0" y2="451.0" />
		<line x1="181.0" y1="436.0" x2="181.0" y2="451.0" />
		<line x1="181.0" y1="451.0" x2="196.0" y2="451.0" />
		<line x1="196.0" y1="451.0" x2="211.0" y2="451.0" />
		<line x1="211.0" y1="436.0" x2="211.0" y2="451.0" />
		<line x1="211.0" y1="451.0" x2="226.0" y2="451.0" />
		<line x1="241.0" y1="436.0" x2="241.0" y2="451.0" />
		<line x1="256.0" y1="436.0" x2="256.0" y2="451.0" />
		<line x1="271.0" y1="436.0" x2="271.0" y2="451.0" />
		<line x1="286.0" y1="451.0" x2="301.0" y2="451.0" />
		<line x1="301.0" y1="436.0" x2="301.0" y2="451.0" />
		<line x1="316.0" y1="436.0" x2="316.0" y2="451.0" />
		<line x1="331.0" y1="451.0" x2="346.0" y2="451.0" />
		<line x1="346.0" y1="436.0" x2="346.0" y2="451.0" />
		<line x1="391.0" y1="436.0" x2="391.0" y2="451.0" />
		<line x1="406.0" y1="436.0" x2="406.0" y2="451.0" />
		<line x1="436.0" y1="436.0" x2="436.0" y2="451.0" />
		<line x1="436.0" y1="451.0" x2="451.0" y2="451.0" />
		<line x1="451.0" y1="451.0" x2="466.0" y2="451.0" />
		<line x1="481.0" y1="436.0" x2="481.0" y2="451.0" />
		<line x1="16.0" y1="451.0" x2="16.0" y2="466.0" />
		<line x1="1.0" y1="451.0" x2="1.0" y2="466.0" />
		<line x1="31.0" y1="451.0" x2="31.0" y2="466.0" />
		<line x1="46.0" y1="451.0" x2="46.0" y2="466.0" />
		<line x1="46.0" y1="466.0" x2="61.0" y2="466.0" />
		<line x1="61.0" y1="466.0" x2="76.0" y2="466.0" />
		<line x1="76.0" y1="451.0" x2="76.0" y2="466.0" />
		<line x1="76.0" y1="466.0" x2="91.0" y2="466.0" />
		<line x1="106.0" y1="451.0" x2="106.0" y2="466.0" />
		<line x1="106.0" y1="466.0" x2="121.0" y2="466.0" />
		<line x1="121.0" y1="466.0" x2="136.0" y2="466.0" />
		<line x1="151.0" y1="451.0" x2="151.0" y2="466.0" />
		<line x1="166.0" y1="451.0" x2="166.0" y2="466.0" />
		<line x1="196.0" y1="451.0" x2="196.0" y2="466.0" />
		<line x1="196.0" y1="466.0" x2="211.0" y2="466.0" />
		<line x1="226.0" y1="466.0" x2="241.0" y2="466.0" />
		<line x1="241.0" y1="451.0" x2="241.0" y2="466.0" />
		<line x1="256.0" y1="451.0" x2="256.0" y2="466.0" />
		<line x1="271.0" y1="451.0" x2="271.0" y2="466.0" />
		<line x1="271.0" y1="466.0" x2="286.0" y2="466.0" />
		<line x1="286.0" y1="466.0" x2="301.0" y2="466.0" />
		<line x1="301.0" y1="451.0" x2="301.0" y2="466.0" />
		<line x1="316.0" y1="451.0" x2="316.0" y2="466.0" />
		<line x1="331.0" y1="466.0" x2="346.0" y2="466.0" />
		<line x1="346.0" y1="466.0" x2="361.0" y2="466.0" />
		<line x1="361.0" y1="451.0" x2="361.0" y2="466.0" />
		<line x1="376.0" y1="451.0" x2="376.0" y2="466.0" />
		<line x1="376.0" y1="466.0" x2="391.0" y2="466.0" />
		<line x1="391.0" y1="451.0" x2="391.0" y2="466.0" />
		<line x1="391.0" y1="466.0" x2="406.0" y2="466.0" />
		<line x1="406.0" y1="466.0" x2="421.0" y2="466.0" />
		<line x1="421.0" y1="451.0" x2="421.0" y2="466.0" />
		<line x1="421.0" y1="466.0" x2="436.0" y2="466.0" />
		<line x1="436.0" y1="466.0" x2="451.0" y2="466.0" />
		<line x1="451.0" y1="466.0" x2="466.0" y2="466.0" />
		<line x1="481.0" y1="451.0" x2="481.0" y2="466.0" />
		<line x1="1.0" y1="481.0" x2="16.0" y2="481.0" />
		<line x1="1.0" y1="466.0" x2="1.0" y2="481.0" />
		<line x1="16.0" y1="481.0" x2="31.0" y2="481.0" />
		<line x1="31.0" y1="466.0" x2="31.0" y2="481.0" />
		<line x1="31.0" y1="481.0" x2="46.0" y2="481.0" />
		<line x1="46.0" y1="481.0" x2="61.0" y2="481.0" />
		<line x1="61.0" y1="481.0" x2="76.0" y2="481.0" />
		<line x1="76.0" y1="481.0" x2="91.0" y2="481.0" />
		<line x1="91.0" y1="481.0" x2="106.0" y2="481.0" />
		<line x1="106.0" y1="481.0" x2="121.0" y2="481.0" />
		<line x1="121.0" y1="481.0" x2="136.0" y2="481.0" />
		<line x1="136.0" y1="481.0" x2="151.0" y2="481.0" />
		<line x1="151.0" y1="466.0" x2="151.0" y2="481.0" />
		<line x1="151.0" y1="481.0" x2="166.0" y2="481.0" />
		<line x1="166.0" y1="481.0" x2="181.0" y2="481.0" />
		<line x1="181.0" y1="466.0" x2="181.0" y2="481.0" />
		<line x1="181.0" y1="481.0" x2="196.0" y2="481.0" />
		<line x1="196.0" y1="481.0" x2="211.0" y2="481.0" />
		<line x1="211.0" y1="481.0" x2="226.0" y2="481.0" />
		<line x1="226.0" y1="466.0" x2="226.0" y2="481.0" />
		<line x1="226.0" y1="481.0" x2="241.0" y2="481.0" />
		<line x1="241.0" y1="481.0" x2="256.0" y2="481.0" />
		<line x1="256.0" y1="481.0" x2="271.0" y2="481.0" />
		<line x1="271.0" y1="481.0" x2="286.0" y2="481.0" />
		<line x1="286.0" y1="481.0" x2="301.0" y2="481.0" />
		<line x1="301.0" y1="481.0" x2="316.0" y2="481.0" />
		<line x1="316.0" y1="466.0" x2="316.0" y2="481.0" />
		<line x1="316.0" y1="481.0" x2="331.0" y2="481.0" />
		<line x1="331.0" y1="481.0" x2="346.0" y2="481.0" />
		<line x1="346.0" y1="481.0" x2="361.0" y2="481.0" />
		<line x1="361.0" y1="466.0" x2="361.0" y2="481.0" />
		<line x1="361.0" y1="481.0" x2="376.0" y2="481.0" />
		<line x1="376.0" y1="481.0" x2="391.0" y2="481.0" />
		<line x1="391.0" y1="481.0" x2="406.0" y2="481.0" />
		<line x1="406.0" y1="481.0" x2="421.0" y2="481.0" />
		<line x1="421.0" y1="481.0" x2="436.0" y2="481.0" />
		<line x1="436.0" y1="481.0" x2="451.0" y2="481.0" />
		<line x1="451.0" y1="481.0" x2="466.0" y2="481.0" />
		<line x1="466.0" y1="481.0" x2="481.0" y2="481.0" />
		<line x1="481.0" y1="466.0" x2="481.0" y2="481.0" />
</g></svg>